<svg xmlns="http://www.w3.org/2000/svg" width="35.837" height="30" viewBox="0 0 35.837 30" fill="#e1e4e7">
  <path id="패스_2074" data-name="패스 2074" d="M25.266-42.234a7.182,7.182,0,0,1-2.1,5.195,7.767,7.767,0,0,1-5.837,2.16,7.364,7.364,0,0,1-6.012-2.8A10.568,10.568,0,0,1,9.04-44.569a19.488,19.488,0,0,1,1.167-6.712,22.2,22.2,0,0,1,3.152-5.837,22.808,22.808,0,0,1,4.669-4.611,24.215,24.215,0,0,1,5.72-3.152l2.1,4.319a17.362,17.362,0,0,0-5.72,3.735,10.982,10.982,0,0,0-3.035,5.37q-.467,1.634-.175,2.1t1.576.467a6.684,6.684,0,0,1,4.728,1.926A6.245,6.245,0,0,1,25.266-42.234Zm19.027,0a7.082,7.082,0,0,1-2.16,5.195,7.966,7.966,0,0,1-5.895,2.16,7.2,7.2,0,0,1-5.953-2.8,10.75,10.75,0,0,1-2.218-6.887,19.488,19.488,0,0,1,1.167-6.712,22.2,22.2,0,0,1,3.152-5.837,22.808,22.808,0,0,1,4.669-4.611,24.215,24.215,0,0,1,5.72-3.152l2.1,4.319a17.362,17.362,0,0,0-5.72,3.735A11.86,11.86,0,0,0,36-51.456q-.467,1.634-.175,2.1t1.693.467a6.684,6.684,0,0,1,4.728,1.926A6.245,6.245,0,0,1,44.293-42.234Z" transform="translate(-9.04 64.88)"/>
</svg>
