<svg width="48" height="48" viewBox="0 0 48 48" fill="black" xmlns="http://www.w3.org/2000/svg">
<path fill-rule="evenodd" clip-rule="evenodd" d="M26.2716 18.648C25.8073 19.7691 24.7134 20.5 23.5 20.5H10.5C8.567 20.5 7 22.067 7 24C7 25.933 8.567 27.5 10.5 27.5H22.98C24.2144 27.5 25.3228 28.2561 25.7732 29.4054C26.2236 30.5547 25.924 31.8626 25.0182 32.7013L23.2976 34.2944C21.9481 35.544 21.9073 37.6647 23.2078 38.9652C24.4738 40.2311 26.5262 40.2311 27.7922 38.9652L39.6666 27.0908C40.1695 26.5878 40.5202 26.0001 40.726 25.3767C40.7404 25.3333 40.7557 25.2903 40.772 25.2476C40.9184 24.864 41 24.4451 41 24C41 23.555 40.9184 23.136 40.772 22.7525C40.7557 22.7098 40.7404 22.6667 40.7261 22.6234C40.5202 21.9999 40.1696 21.4122 39.6666 20.9092L27.6287 8.87132C26.4531 7.69568 24.547 7.69568 23.3713 8.87132C22.1957 10.047 22.1957 11.9531 23.3713 13.1287L25.6213 15.3787C26.4793 16.2367 26.736 17.527 26.2716 18.648ZM20.6127 14.5C18.9266 12.1516 19.139 8.86099 21.25 6.75C23.5972 4.40279 27.4028 4.40279 29.75 6.75L41.7879 18.7879C42.6297 19.6297 43.2253 20.6244 43.5748 21.6826C43.8495 22.4025 44 23.1837 44 24C44 24.8164 43.8495 25.5976 43.5747 26.3174C43.2253 27.3756 42.6297 28.3703 41.7879 29.2121L29.9135 41.0865C27.476 43.524 23.524 43.524 21.0865 41.0865C19.0227 39.0227 18.7132 35.8861 20.1229 33.5C20.4236 32.991 20.8026 32.5162 21.2594 32.0932L22.98 30.5H10.5C6.91015 30.5 4 27.5899 4 24C4 20.4101 6.91015 17.5 10.5 17.5H23.5L21.25 15.25C21.0138 15.0138 20.8013 14.7628 20.6127 14.5Z" />
</svg>
