<svg width="48" height="48" viewBox="0 0 48 48" fill="black" xmlns="http://www.w3.org/2000/svg">
<path fill-rule="evenodd" clip-rule="evenodd" d="M41 19.6986L24 9.49856L7 19.6986V21H41V19.6986ZM4.97101 17.4174C4.3686 17.7788 4 18.4298 4 19.1324V22C4 23.1046 4.89543 24 6 24H42C43.1046 24 44 23.1046 44 22V19.1324C44 18.4298 43.6314 17.7788 43.029 17.4174L25.029 6.61738C24.3956 6.23736 23.6044 6.23736 22.971 6.61738L4.97101 17.4174Z" />
<path fill-rule="evenodd" clip-rule="evenodd" d="M8 39.5V22H11V39.5H8Z" />
<path fill-rule="evenodd" clip-rule="evenodd" d="M5 40.5C5 39.6716 5.67157 39 6.5 39H41.5C42.3284 39 43 39.6716 43 40.5C43 41.3284 42.3284 42 41.5 42H6.5C5.67157 42 5 41.3284 5 40.5Z" />
<path fill-rule="evenodd" clip-rule="evenodd" d="M37 39.5V22H40V39.5H37Z" />
<path d="M26 16C26 17.1046 25.1046 18 24 18C22.8954 18 22 17.1046 22 16C22 14.8954 22.8954 14 24 14C25.1046 14 26 14.8954 26 16Z" />
<path fill-rule="evenodd" clip-rule="evenodd" d="M32 21H16V39H19V29C19 26.2386 21.2386 24 24 24C26.7614 24 29 26.2386 29 29V39H32V21Z" />
</svg>
