<svg width="48" height="48" viewBox="0 0 48 48" fill="black" xmlns="http://www.w3.org/2000/svg">
<path fill-rule="evenodd" clip-rule="evenodd" d="M41 11H7L7 37H41V11ZM7 8C5.34315 8 4 9.34315 4 11V37C4 38.6569 5.34315 40 7 40H41C42.6569 40 44 38.6569 44 37V11C44 9.34315 42.6569 8 41 8H7Z" />
<path d="M28.5 19.5C28.5 21.9853 26.4853 24 24 24C21.5147 24 19.5 21.9853 19.5 19.5C19.5 17.0147 21.5147 15 24 15C26.4853 15 28.5 17.0147 28.5 19.5Z" />
<path d="M17.1051 28.3161C18.6091 26.2336 21.0217 25 23.5905 25H24.4095C26.9783 25 29.3909 26.2336 30.8949 28.3161L30.9922 28.4508C32.6639 30.7654 31.01 34 28.1549 34H19.8451C16.99 34 15.3361 30.7654 17.0078 28.4508L17.1051 28.3161Z" />
</svg>
