<svg width="48" height="48" viewBox="0 0 48 48" fill="black" xmlns="http://www.w3.org/2000/svg">
<path fill-rule="evenodd" clip-rule="evenodd" d="M37 7H11V41H37V7ZM11 4C9.34315 4 8 5.34315 8 7V41C8 42.6569 9.34315 44 11 44H37C38.6569 44 40 42.6569 40 41V7C40 5.34315 38.6569 4 37 4H11Z" />
<path fill-rule="evenodd" clip-rule="evenodd" d="M14.5 16C14.5 15.1716 15.1716 14.5 16 14.5H32C32.8284 14.5 33.5 15.1716 33.5 16C33.5 16.8284 32.8284 17.5 32 17.5H16C15.1716 17.5 14.5 16.8284 14.5 16Z" />
<path fill-rule="evenodd" clip-rule="evenodd" d="M14.5 32C14.5 31.1716 15.1716 30.5 16 30.5H32C32.8284 30.5 33.5 31.1716 33.5 32C33.5 32.8284 32.8284 33.5 32 33.5H16C15.1716 33.5 14.5 32.8284 14.5 32Z" />
<path fill-rule="evenodd" clip-rule="evenodd" d="M14.5 24C14.5 23.1716 15.1716 22.5 16 22.5H32C32.8284 22.5 33.5 23.1716 33.5 24C33.5 24.8284 32.8284 25.5 32 25.5H16C15.1716 25.5 14.5 24.8284 14.5 24Z" />
</svg>
