<svg width="48" height="48" viewBox="0 0 48 48" fill="black" xmlns="http://www.w3.org/2000/svg">
<path fill-rule="evenodd" clip-rule="evenodd" d="M41 16H7L7 37H41V16ZM7 13C5.34315 13 4 14.3431 4 16V37C4 38.6569 5.34315 40 7 40H41C42.6569 40 44 38.6569 44 37V16C44 14.3431 42.6569 13 41 13H7Z" />
<path fill-rule="evenodd" clip-rule="evenodd" d="M16 11.5C16 9.01472 18.0147 7 20.5 7H27.5C29.9853 7 32 9.01472 32 11.5V14.5H29V11.5C29 10.6716 28.3284 10 27.5 10H20.5C19.6716 10 19 10.6716 19 11.5V14.5H16V11.5Z" />
<path fill-rule="evenodd" clip-rule="evenodd" d="M41.5 27H6.5V24H41.5V27Z" />
<path d="M19 25C19 23.8954 19.8954 23 21 23H27C28.1046 23 29 23.8954 29 25V26C29 27.1046 28.1046 28 27 28H21C19.8954 28 19 27.1046 19 26V25Z" />
</svg>
