<svg width="48" height="48" viewBox="0 0 48 48" fill="black" xmlns="http://www.w3.org/2000/svg">
<path fill-rule="evenodd" clip-rule="evenodd" d="M44 24C44 35.0457 35.0457 44 24 44C12.9543 44 4 35.0457 4 24C4 12.9543 12.9543 4 24 4C35.0457 4 44 12.9543 44 24ZM24 14.5C24.8284 14.5 25.5 15.1716 25.5 16V27C25.5 27.8284 24.8284 28.5 24 28.5C23.1716 28.5 22.5 27.8284 22.5 27V16C22.5 15.1716 23.1716 14.5 24 14.5ZM24 34C24.8284 34 25.5 33.3284 25.5 32.5C25.5 31.6716 24.8284 31 24 31C23.1716 31 22.5 31.6716 22.5 32.5C22.5 33.3284 23.1716 34 24 34Z"/>
</svg>
