<svg width="48" height="48" viewBox="0 0 48 48" fill="black" xmlns="http://www.w3.org/2000/svg">
<path fill-rule="evenodd" clip-rule="evenodd" d="M24 44C35.598 44 45 34.598 45 23C45 11.402 35.598 2 24 2C12.402 2 3 11.402 3 23C3 34.598 12.402 44 24 44ZM35.0607 20.0607C35.6464 19.4749 35.6464 18.5251 35.0607 17.9393C34.4749 17.3536 33.5251 17.3536 32.9393 17.9393L22 28.8787L16.0607 22.9393C15.4749 22.3536 14.5251 22.3536 13.9393 22.9393C13.3536 23.5251 13.3536 24.4749 13.9393 25.0607L20.9393 32.0607C21.5251 32.6464 22.4749 32.6464 23.0607 32.0607L35.0607 20.0607Z"/>
</svg>
