<svg width="48" height="48" viewBox="0 0 48 48" fill="black" xmlns="http://www.w3.org/2000/svg">
<path fill-rule="evenodd" clip-rule="evenodd" d="M24 41C33.9411 41 42 32.9411 42 23C42 13.0589 33.9411 5 24 5C14.0589 5 6 13.0589 6 23C6 32.9411 14.0589 41 24 41ZM24 44C35.598 44 45 34.598 45 23C45 11.402 35.598 2 24 2C12.402 2 3 11.402 3 23C3 34.598 12.402 44 24 44Z"/>
<path fill-rule="evenodd" clip-rule="evenodd" d="M35.0607 17.9393C35.6464 18.5251 35.6464 19.4749 35.0607 20.0607L23.0607 32.0607C22.4749 32.6464 21.5251 32.6464 20.9393 32.0607L13.9393 25.0607C13.3536 24.4749 13.3536 23.5251 13.9393 22.9393C14.5251 22.3536 15.4749 22.3536 16.0607 22.9393L22 28.8787L32.9393 17.9393C33.5251 17.3536 34.4749 17.3536 35.0607 17.9393Z"/>
</svg>
