<svg width="48" height="48" viewBox="0 0 48 48" fill="black" xmlns="http://www.w3.org/2000/svg">
<path fill-rule="evenodd" clip-rule="evenodd" d="M30.4601 19.7883C29.415 19.6912 28.4967 19.0551 28.0385 18.1108L24 9.78824L19.9616 18.1108C19.5034 19.0551 18.585 19.6912 17.5399 19.7883L8.42477 20.6347L15.0076 26.4549C15.775 27.1334 16.1431 28.1565 15.984 29.1684L14.5241 38.4519L22.3836 33.4253C23.3691 32.795 24.631 32.795 25.6164 33.4253L33.4759 38.4519L32.016 29.1684C31.8569 28.1565 32.2251 27.1334 32.9925 26.4549L39.5752 20.6347L30.4601 19.7883ZM30.7375 16.8011L25.7982 6.62209C25.0722 5.12597 22.9278 5.12597 22.2018 6.62209L17.2625 16.8011L5.81322 17.8643C4.07574 18.0257 3.36828 20.1684 4.67194 21.3211L13.0204 28.7024L11.2116 40.205C10.9456 41.8963 12.8158 43.1056 14.2644 42.1791L24 35.9526L33.7356 42.1791C35.1842 43.1056 37.0544 41.8963 36.7884 40.205L34.9796 28.7024L43.3281 21.3211C44.6317 20.1684 43.9243 18.0257 42.1868 17.8643L30.7375 16.8011Z" />
</svg>
