<svg width="19" height="18" viewBox="0 0 19 18" fill="#979CA2" xmlns="http://www.w3.org/2000/svg">
<path fill-rule="evenodd" clip-rule="evenodd" d="M10 15C13.3137 15 16 12.3137 16 9C16 5.68629 13.3137 3 10 3C6.68629 3 4 5.68629 4 9C4 12.3137 6.68629 15 10 15ZM10 16.5C14.1421 16.5 17.5 13.1421 17.5 9C17.5 4.85786 14.1421 1.5 10 1.5C5.85786 1.5 2.5 4.85786 2.5 9C2.5 13.1421 5.85786 16.5 10 16.5Z"/>
<path fill-rule="evenodd" clip-rule="evenodd" d="M7.16705 6.27086C7.47053 6.18675 7.78473 6.36457 7.86884 6.66804L8.2107 7.90141H9.42778L9.54409 7.58012C9.54661 7.57301 9.54927 7.56595 9.55207 7.55895C9.5816 7.48477 9.62514 7.42007 9.67852 7.36678C9.73147 7.3138 9.79568 7.27052 9.86924 7.24104C9.90839 7.2253 9.94933 7.21387 9.99129 7.20709C10.0502 7.19757 10.1112 7.19724 10.1721 7.20709C10.2141 7.21387 10.255 7.2253 10.2942 7.24104C10.3677 7.27052 10.4319 7.3138 10.4849 7.36678C10.5383 7.42006 10.5818 7.48477 10.6113 7.55895C10.6141 7.56595 10.6168 7.57301 10.6193 7.58012L10.7356 7.90141H11.9527L12.2946 6.66804C12.3787 6.36457 12.6929 6.18675 12.9964 6.27086C13.2998 6.35498 13.4777 6.66918 13.3935 6.97265L13.1361 7.90141H13.6661C13.981 7.90141 14.2363 8.15669 14.2363 8.47161C14.2363 8.78652 13.981 9.04181 13.6661 9.04181H12.82L12.0466 11.8321C11.9803 12.0712 11.767 12.24 11.5191 12.2496C11.2711 12.2591 11.0454 12.1072 10.961 11.8739L10.0817 9.44521L9.20243 11.8739C9.11796 12.1072 8.8923 12.2591 8.64434 12.2496C8.39639 12.24 8.18307 12.0712 8.1168 11.8321L7.34339 9.04181H6.33394C6.01902 9.04181 5.76373 8.78652 5.76373 8.47161C5.76373 8.15669 6.01902 7.90141 6.33394 7.90141H7.0273L6.76987 6.97265C6.68575 6.66918 6.86358 6.35498 7.16705 6.27086ZM8.5268 9.04181L8.73845 9.80542L9.01491 9.04181H8.5268ZM11.1485 9.04181L11.425 9.80542L11.6366 9.04181H11.1485Z"/>
</svg>
