<svg width="12" height="12" viewBox="0 0 12 12" fill="black" xmlns="http://www.w3.org/2000/svg">
<mask id="path-1-inside-1_22_44" fill="white">
<path d="M4 2C2.61929 2 1.5 3.11929 1.5 4.5C1.5 8 6 10.5 6 10.5C6 10.5 10.5 8 10.5 4.5C10.5 3.11929 9.38071 2 8 2C7.1822 2 6.5 2.39267 6 2.99976C5.5 2.39267 4.8178 2 4 2Z"/>
</mask>
<path d="M6 2.99976L5.2281 3.6355L6 4.57272L6.7719 3.6355L6 2.99976ZM6 10.5L5.51436 11.3742L6 11.644L6.48564 11.3742L6 10.5ZM2.5 4.5C2.5 3.67157 3.17157 3 4 3V1C2.067 1 0.5 2.567 0.5 4.5H2.5ZM4 3C4.46534 3 4.88109 3.21417 5.2281 3.6355L6.7719 2.36401C6.11891 1.57117 5.17026 1 4 1V3ZM6.7719 3.6355C7.11891 3.21417 7.53466 3 8 3V1C6.82974 1 5.88109 1.57117 5.2281 2.36402L6.7719 3.6355ZM8 3C8.82843 3 9.5 3.67157 9.5 4.5H11.5C11.5 2.567 9.933 1 8 1V3ZM0.5 4.5C0.5 6.67377 1.8811 8.42292 3.06338 9.53951C3.67354 10.1158 4.27961 10.5699 4.73164 10.8796C4.9586 11.0351 5.14915 11.1559 5.28519 11.239C5.35328 11.2806 5.40789 11.3129 5.44679 11.3355C5.46624 11.3469 5.48179 11.3558 5.49314 11.3622C5.49881 11.3654 5.50344 11.368 5.50699 11.37C5.50876 11.371 5.51027 11.3719 5.5115 11.3726C5.51211 11.3729 5.51266 11.3732 5.51314 11.3735C5.51337 11.3736 5.51368 11.3738 5.5138 11.3738C5.51409 11.374 5.51436 11.3742 6 10.5C6.48564 9.62584 6.48588 9.62597 6.4861 9.6261C6.48615 9.62612 6.48635 9.62624 6.48646 9.62629C6.48666 9.62641 6.4868 9.62648 6.48687 9.62652C6.48701 9.6266 6.48688 9.62653 6.48649 9.62631C6.48571 9.62587 6.48389 9.62485 6.48105 9.62323C6.47537 9.62001 6.46564 9.61445 6.45214 9.60659C6.42512 9.59088 6.38306 9.56605 6.32809 9.53246C6.21804 9.46521 6.05703 9.36331 5.86211 9.22975C5.47039 8.96136 4.95146 8.57172 4.43662 8.08549C3.3689 7.07708 2.5 5.82623 2.5 4.5H0.5ZM9.5 4.5C9.5 5.82623 8.6311 7.07708 7.56338 8.08549C7.04854 8.57172 6.52961 8.96136 6.13789 9.22976C5.94298 9.36331 5.78196 9.46521 5.67191 9.53246C5.61695 9.56605 5.57488 9.59088 5.54786 9.60659C5.53436 9.61445 5.52463 9.62001 5.51895 9.62323C5.51612 9.62485 5.51429 9.62587 5.51351 9.62631C5.51312 9.62653 5.513 9.6266 5.51314 9.62652C5.51321 9.62648 5.51334 9.62641 5.51355 9.62629C5.51365 9.62624 5.51385 9.62612 5.5139 9.6261C5.51412 9.62597 5.51436 9.62584 6 10.5C6.48564 11.3742 6.48592 11.374 6.4862 11.3738C6.48632 11.3738 6.48663 11.3736 6.48687 11.3735C6.48734 11.3732 6.48789 11.3729 6.48851 11.3726C6.48974 11.3719 6.49124 11.371 6.49301 11.37C6.49656 11.368 6.50119 11.3654 6.50687 11.3622C6.51822 11.3558 6.53376 11.3469 6.55321 11.3355C6.59211 11.3129 6.64673 11.2806 6.71481 11.239C6.85086 11.1559 7.0414 11.0351 7.26836 10.8796C7.72039 10.5699 8.32646 10.1158 8.93662 9.53951C10.1189 8.42292 11.5 6.67377 11.5 4.5H9.5Z" mask="url(#path-1-inside-1_22_44)"/>
</svg>
