<svg width="30" height="30" viewBox="0 0 30 30" fill="#495057" xmlns="http://www.w3.org/2000/svg">
<path fill-rule="evenodd" clip-rule="evenodd" d="M6.90784 11.4474C6.90784 7.19623 10.3541 3.75 14.6052 3.75C18.8563 3.75 22.3026 7.19623 22.3026 11.4474V20.7237H20.3289V11.4474C20.3289 8.28626 17.7663 5.72368 14.6052 5.72368C11.4441 5.72368 8.88152 8.28626 8.88152 11.4474V20.7237H6.90784V11.4474Z" />
<path fill-rule="evenodd" clip-rule="evenodd" d="M20.3288 21.7105V20.5263H22.3025V21.7105C22.3025 23.3456 20.977 24.671 19.3419 24.671H16.9735V22.6974H19.3419C19.8869 22.6974 20.3288 22.2555 20.3288 21.7105Z" />
<path fill-rule="evenodd" clip-rule="evenodd" d="M2.96051 15.7895C2.96051 13.5004 4.81617 11.6448 7.10525 11.6448H7.89472V13.6185H7.10525C5.90621 13.6185 4.93419 14.5905 4.93419 15.7895V16.579C4.93419 17.778 5.90621 18.75 7.10525 18.75H7.89472V20.7237H7.10525C4.81617 20.7237 2.96051 18.8681 2.96051 16.579V15.7895Z" />
<path fill-rule="evenodd" clip-rule="evenodd" d="M27.0396 15.7895C27.0396 13.5004 25.1839 11.6448 22.8948 11.6448H22.1053V13.6185H22.8948C24.0939 13.6185 25.0659 14.5905 25.0659 15.7895V16.579C25.0659 17.778 24.0939 18.75 22.8948 18.75H22.1053V20.7237H22.8948C25.1839 20.7237 27.0396 18.8681 27.0396 16.579V15.7895Z" />
<path fill-rule="evenodd" clip-rule="evenodd" d="M15 23.0921C14.673 23.0921 14.4079 23.3572 14.4079 23.6842C14.4079 24.0112 14.673 24.2763 15 24.2763C15.327 24.2763 15.5921 24.0112 15.5921 23.6842C15.5921 23.3572 15.327 23.0921 15 23.0921ZM12.4342 23.6842C12.4342 22.2672 13.5829 21.1184 15 21.1184C16.417 21.1184 17.5658 22.2672 17.5658 23.6842C17.5658 25.1012 16.417 26.25 15 26.25C13.5829 26.25 12.4342 25.1012 12.4342 23.6842Z" />
</svg>
