<svg width="12" height="12" viewBox="0 0 12 12" fill="#838990" xmlns="http://www.w3.org/2000/svg">
<path fill-rule="evenodd" clip-rule="evenodd" d="M5.12898 6.87105C6.08354 7.8256 7.63118 7.8256 8.58574 6.87105L9.27163 6.18516C10.2262 5.2306 10.2262 3.68296 9.27163 2.7284C8.31707 1.77384 6.76942 1.77384 5.81487 2.7284L5.47192 3.07134C5.27497 3.26829 5.27497 3.58762 5.47192 3.78457C5.66887 3.98152 5.9882 3.98152 6.18515 3.78457L6.52809 3.44163C7.08874 2.88097 7.99775 2.88097 8.5584 3.44163C9.11905 4.00228 9.11905 4.91128 8.5584 5.47194L7.87252 6.15782C7.31186 6.71848 6.40286 6.71848 5.84221 6.15782C5.64525 5.96087 5.32593 5.96087 5.12898 6.15782C4.93203 6.35477 4.93203 6.67409 5.12898 6.87105Z" />
<path fill-rule="evenodd" clip-rule="evenodd" d="M7.21398 4.78606C6.25942 3.8315 4.71177 3.8315 3.75722 4.78606L2.72839 5.81488C1.77383 6.76944 1.77383 8.31709 2.72839 9.27165C3.68295 10.2262 5.23059 10.2262 6.18515 9.27165L6.69956 8.75723C6.89652 8.56028 6.89651 8.24096 6.69956 8.04401C6.50261 7.84706 6.18329 7.84706 5.98634 8.04401L5.47192 8.55842C4.91127 9.11908 4.00227 9.11908 3.44161 8.55842C2.88096 7.99777 2.88096 7.08876 3.44161 6.52811L4.47044 5.49928C5.0311 4.93863 5.9401 4.93863 6.50075 5.49928C6.6977 5.69624 7.01702 5.69624 7.21398 5.49928C7.41093 5.30233 7.41093 4.98301 7.21398 4.78606Z" />
</svg>
