<svg width="12" height="12" viewBox="0 0 12 12" fill="black" xmlns="http://www.w3.org/2000/svg">
<path fill-rule="evenodd" clip-rule="evenodd" d="M9 10V4.5L5.66667 2H3V10H9ZM9.5 11H2.5C2.22386 11 2 10.7761 2 10.5V1.5C2 1.22386 2.22386 1 2.5 1H5.83333C5.94152 1 6.04679 1.03509 6.13333 1.1L9.8 3.85C9.9259 3.94443 10 4.09262 10 4.25V10.5C10 10.7761 9.77614 11 9.5 11Z"/>
<path fill-rule="evenodd" clip-rule="evenodd" d="M6 1.5C6.27614 1.5 6.5 1.72386 6.5 2V4H9.5C9.77614 4 10 4.22386 10 4.5C10 4.77614 9.77614 5 9.5 5H6.5C5.94772 5 5.5 4.55228 5.5 4V2C5.5 1.72386 5.72386 1.5 6 1.5Z"/>
</svg>
