<svg width="12" height="12" viewBox="0 0 12 12" fill="#00C854" xmlns="http://www.w3.org/2000/svg">
<path fill-rule="evenodd" clip-rule="evenodd" d="M7.02408 3.52879C6.74758 3.6678 6.47042 3.80714 6.192 3.93467C6.01376 4.01631 5.93664 4.06114 5.84601 4.11381C5.78798 4.14754 5.72442 4.18448 5.62522 4.23637C5.5133 4.29491 5.37219 4.35946 5.19602 4.40426C5.02129 4.44868 4.8505 4.46405 4.68 4.46405H3.42467C2.6794 4.46405 2 5.10904 2 6C2 6.89096 2.6794 7.53594 3.42467 7.53594H4.68C4.8505 7.53594 5.02129 7.55132 5.19602 7.59574C5.37219 7.64054 5.51331 7.70508 5.62522 7.76363C5.72442 7.81552 5.78798 7.85246 5.84601 7.88619C5.93664 7.93886 6.01376 7.98369 6.192 8.06533C6.47045 8.19287 6.74765 8.33223 7.02418 8.47126L7.16818 8.54361C7.16835 8.54369 7.16802 8.54353 7.16818 8.54361C7.44447 8.68223 7.72156 8.81935 8 8.94376V3.05624C7.72156 3.18066 7.44495 3.31753 7.16867 3.45614C7.16851 3.45623 7.16883 3.45606 7.16867 3.45614L7.02408 3.52879ZM6.58352 9.36899C6.30088 9.22689 6.03742 9.09443 5.77557 8.9745C5.56318 8.87721 5.41905 8.79477 5.30326 8.72854C5.08419 8.60323 4.96656 8.53594 4.68 8.53594H3.42467C2.08512 8.53594 1 7.40029 1 6C1 4.5997 2.08512 3.46405 3.42467 3.46405H4.68C4.96656 3.46405 5.08419 3.39677 5.30326 3.27146C5.41905 3.20523 5.56318 3.12279 5.77557 3.0255C6.03741 2.90557 6.30087 2.77312 6.58349 2.63103L6.71974 2.56258C7.04747 2.39815 7.39842 2.22453 7.75904 2.07016C8.03661 1.95134 8.35254 1.98492 8.60157 2.15971C8.8506 2.3345 9 2.62754 9 2.94118V9.05882C9 9.37246 8.8506 9.6655 8.60157 9.84029C8.35254 10.0151 8.03661 10.0487 7.75904 9.92984C7.39842 9.77547 7.04747 9.60185 6.71974 9.43742L6.58352 9.36899Z"/>
<path fill-rule="evenodd" clip-rule="evenodd" d="M10 6C10 5.44772 9.55228 5 9 5V4C10.1046 4 11 4.89543 11 6C11 7.10457 10.1046 8 9 8V7C9.55228 7 10 6.55228 10 6Z"/>
<path fill-rule="evenodd" clip-rule="evenodd" d="M4 8V4H5V8H4Z"/>
</svg>
