<svg width="16" height="16" viewBox="0 0 16 16" fill="black" xmlns="http://www.w3.org/2000/svg">
<path fill-rule="evenodd" clip-rule="evenodd" d="M13.8766 8C11.3452 12.6334 4.65478 12.6334 2.12331 8C4.65478 3.36658 11.3452 3.36658 13.8766 8ZM14.8923 7.78461C12.0525 2.10504 3.94746 2.10504 1.10767 7.78461C1.03988 7.9202 1.03988 8.07979 1.10767 8.21538C3.94746 13.895 12.0525 13.895 14.8923 8.21538C14.9601 8.07979 14.9601 7.9202 14.8923 7.78461Z"/>
<path fill-rule="evenodd" clip-rule="evenodd" d="M8 9.5C8.82843 9.5 9.5 8.82843 9.5 8C9.5 7.17157 8.82843 6.5 8 6.5C7.17157 6.5 6.5 7.17157 6.5 8C6.5 8.82843 7.17157 9.5 8 9.5ZM8 10.5C9.38071 10.5 10.5 9.38071 10.5 8C10.5 6.61929 9.38071 5.5 8 5.5C6.61929 5.5 5.5 6.61929 5.5 8C5.5 9.38071 6.61929 10.5 8 10.5Z"/>
</svg>
