<svg width="18" height="18" viewBox="0 0 18 18" fill="#979CA2" xmlns="http://www.w3.org/2000/svg">
    <path d="M6.725 16C6.54598 16 6.37429 15.9289 6.24771 15.8023C6.12112 15.6757 6.05 15.504 6.05 15.325V13.3H3.35C2.60442 13.3 2 12.6956 2 11.95V4.00003C2 3.17161 2.67159 2.50005 3.5 2.50005H14C14.8284 2.50005 15.5 3.17161 15.5 4.00003V11.95C15.5 12.6956 14.8956 13.3 14.15 13.3H10.0325L7.535 15.8043C7.4 15.9325 7.16875 16 7 16H6.725ZM7.4 11.95V14.029L9.479 11.95H14.15V3.85003H3.35V11.95H7.4ZM12.5 8.5H11V7H12.5V8.5ZM9.5 8.5H8V7H9.5V8.5ZM6.5 8.5H5V7H6.5V8.5Z"/>
</svg>
