<svg width="16" height="16" viewBox="0 0 16 16" fill="black" xmlns="http://www.w3.org/2000/svg">
<path fill-rule="evenodd" clip-rule="evenodd" d="M3.69638 13.5299C4.05199 13.1404 4.04399 12.5417 3.67811 12.1619C2.63802 11.0821 2 9.6166 2 8C2 4.68629 4.68629 2 8 2C11.3137 2 14 4.68629 14 8C14 11.3137 11.3137 14 8 14H3.26717L3.69638 13.5299ZM1 8C1 9.88557 1.74553 11.597 2.95789 12.8556L1.76434 14.1629C1.47131 14.4838 1.699 15 2.13358 15H8C11.866 15 15 11.866 15 8C15 4.13401 11.866 1 8 1C4.13401 1 1 4.13401 1 8Z"/>
<path d="M6 8C6 8.41421 5.66421 8.75 5.25 8.75C4.83579 8.75 4.5 8.41421 4.5 8C4.5 7.58579 4.83579 7.25 5.25 7.25C5.66421 7.25 6 7.58579 6 8Z"/>
<path d="M8.75 8C8.75 8.41421 8.41421 8.75 8 8.75C7.58579 8.75 7.25 8.41421 7.25 8C7.25 7.58579 7.58579 7.25 8 7.25C8.41421 7.25 8.75 7.58579 8.75 8Z"/>
<path d="M11.5 8C11.5 8.41421 11.1642 8.75 10.75 8.75C10.3358 8.75 10 8.41421 10 8C10 7.58579 10.3358 7.25 10.75 7.25C11.1642 7.25 11.5 7.58579 11.5 8Z"/>
</svg>
