<svg width="12" height="12" viewBox="0 0 12 12" fill="black" xmlns="http://www.w3.org/2000/svg">
<path fill-rule="evenodd" clip-rule="evenodd" d="M6 4.57272L5.2281 3.6355C4.88109 3.21417 4.46534 3 4 3C3.17157 3 2.5 3.67157 2.5 4.5C2.5 5.82623 3.3689 7.07708 4.43662 8.08549C4.95146 8.57172 5.47039 8.96136 5.86211 9.22975C5.91022 9.26272 5.95627 9.29376 6 9.32283C6.04373 9.29376 6.08978 9.26272 6.13789 9.22976C6.52961 8.96136 7.04854 8.57172 7.56338 8.08549C8.6311 7.07708 9.5 5.82623 9.5 4.5C9.5 3.67157 8.82843 3 8 3C7.53466 3 7.11891 3.21417 6.7719 3.6355L6 4.57272ZM6 10.5C6 10.5 1.5 8 1.5 4.5C1.5 3.11929 2.61929 2 4 2C4.46118 2 4.87923 2.12487 5.24581 2.34265C5.52928 2.51106 5.78196 2.73502 6 2.99976C6.21804 2.73502 6.47072 2.51106 6.75419 2.34265C7.12077 2.12487 7.53882 2 8 2C9.38071 2 10.5 3.11929 10.5 4.5C10.5 8 6 10.5 6 10.5Z"/>
</svg>
