<svg width="12" height="12" viewBox="0 0 12 12" fill="#979CA2" xmlns="http://www.w3.org/2000/svg">
<path fill-rule="evenodd" clip-rule="evenodd" d="M5.5 11C5.22386 11 5 10.7761 5 10.5V9.87398C4.63297 9.77952 4.28633 9.63427 3.96802 9.44617L3.52513 9.88906C3.32987 10.0843 3.01329 10.0843 2.81802 9.88906L2.11092 9.18195C1.91566 8.98669 1.91566 8.67011 2.11092 8.47485L2.55381 8.03195C2.36572 7.71364 2.22047 7.367 2.12601 6.99998H1.5C1.22386 6.99998 1 6.77612 1 6.49998V5.49998C1 5.22383 1.22386 4.99998 1.5 4.99998H2.12602C2.22049 4.63295 2.36574 4.28631 2.55384 3.968L2.11092 3.52508C1.91565 3.32982 1.91565 3.01323 2.11092 2.81797L2.81802 2.11086C3.01328 1.9156 3.32987 1.9156 3.52513 2.11086L3.96807 2.5538C4.28637 2.36572 4.63299 2.22048 5 2.12602V1.5C5 1.22386 5.22386 1 5.5 1H6.5C6.77614 1 7 1.22386 7 1.5V2.12602C7.36702 2.22048 7.71365 2.36572 8.03195 2.55381L8.47488 2.11089C8.67014 1.91562 8.98672 1.91562 9.18198 2.11089L9.88909 2.81799C10.0844 3.01325 10.0844 3.32984 9.88909 3.5251L9.44617 3.96802C9.63426 4.28633 9.77951 4.63296 9.87398 4.99998H10.5C10.7761 4.99998 11 5.22383 11 5.49998V6.49998C11 6.77612 10.7761 6.99998 10.5 6.99998H9.87399C9.77953 7.36699 9.63429 7.71362 9.4462 8.03193L9.88909 8.47482C10.0844 8.67009 10.0844 8.98667 9.88909 9.18193L9.18198 9.88904C8.98672 10.0843 8.67014 10.0843 8.47488 9.88904L8.032 9.44616C7.71368 9.63426 7.36703 9.77951 7 9.87398V10.5C7 10.7761 6.77614 11 6.5 11H5.5ZM6 7.5C5.17157 7.5 4.5 6.82843 4.5 6C4.5 5.17157 5.17157 4.5 6 4.5C6.82843 4.5 7.5 5.17157 7.5 6C7.5 6.82843 6.82843 7.5 6 7.5Z"/>
</svg>
