<svg width="30" height="30" viewBox="0 0 30 30" fill="#00C854" xmlns="http://www.w3.org/2000/svg">
    <path fill-rule="evenodd" clip-rule="evenodd" d="M14.2745 2.80975C14.3795 2.40909 14.7895 2.16946 15.1902 2.27453C16.081 2.50815 17.1673 3.23689 17.582 4.64592C17.9928 6.04156 17.6919 7.92545 16.2313 10.3832C16.0197 10.7392 15.5595 10.8564 15.2034 10.6447C14.8474 10.4331 14.7302 9.97293 14.9419 9.61685C16.2972 7.33609 16.3874 5.89946 16.1431 5.06947C15.9027 4.25285 15.2877 3.85083 14.8097 3.72547C14.409 3.6204 14.1694 3.21042 14.2745 2.80975Z"/>
    <path fill-rule="evenodd" clip-rule="evenodd" d="M27.1903 14.7255C27.591 14.6204 27.8306 14.2104 27.7255 13.8098C27.4919 12.9189 26.7632 11.8326 25.3541 11.4179C23.9585 11.0071 22.0746 11.3081 19.6169 12.7686C19.2608 12.9802 19.1437 13.4404 19.3553 13.7965C19.5669 14.1526 20.0271 14.2697 20.3832 14.0581C22.664 12.7027 24.1006 12.6126 24.9306 12.8569C25.7472 13.0972 26.1492 13.7122 26.2746 14.1902C26.3797 14.5909 26.7896 14.8305 27.1903 14.7255Z"/>
    <path fill-rule="evenodd" clip-rule="evenodd" d="M23.5303 5.46967C23.8232 5.76256 23.8232 6.23744 23.5303 6.53033L19.5303 10.5303C19.2374 10.8232 18.7626 10.8232 18.4697 10.5303C18.1768 10.2374 18.1768 9.76256 18.4697 9.46967L22.4697 5.46967C22.7626 5.17678 23.2374 5.17678 23.5303 5.46967Z"/>
    <path fill-rule="evenodd" clip-rule="evenodd" d="M9.61309 7.56946C9.94216 7.46076 10.3041 7.53019 10.5695 7.75295L22.4406 17.714C22.7061 17.9367 22.8373 18.2811 22.7874 18.624C22.7375 18.967 22.5136 19.2596 22.1956 19.3975L6.29687 26.2907C5.94933 26.4414 5.54648 26.3827 5.25629 26.1392C4.96611 25.8958 4.83842 25.5092 4.92647 25.1408L8.95413 8.28657C9.03468 7.9495 9.28401 7.67816 9.61309 7.56946ZM10.5233 10.325L9.84046 13.1825L16.9776 19.48L19.9157 18.2061L10.5233 10.325ZM8.67192 18.0724L9.44566 14.8346L15.4574 20.1391L12.8067 21.2883L8.67192 18.0724ZM8.28898 19.6749L7.33665 23.66L11.2379 21.9685L8.28898 19.6749Z"/>
</svg>
