<svg width="24" height="24" viewBox="0 0 24 24" fill="#F4F5F7" xmlns="http://www.w3.org/2000/svg">
    <path fill-rule="evenodd" clip-rule="evenodd" d="M4 3C4.55228 3 5 3.44772 5 4V11.5C5 12.0523 5.44772 12.5 6 12.5H17.5858L12.7929 7.70711C12.4024 7.31658 12.4024 6.68342 12.7929 6.29289C13.1834 5.90237 13.8166 5.90237 14.2071 6.29289L20.7071 12.7929C21.0976 13.1834 21.0976 13.8166 20.7071 14.2071L14.2071 20.7071C13.8166 21.0976 13.1834 21.0976 12.7929 20.7071C12.4024 20.3166 12.4024 19.6834 12.7929 19.2929L17.5858 14.5H6C4.34315 14.5 3 13.1569 3 11.5V4C3 3.44772 3.44772 3 4 3Z"/>
</svg>
