<svg width="16" height="16" viewBox="0 0 16 16" fill="black" xmlns="http://www.w3.org/2000/svg">
<path fill-rule="evenodd" clip-rule="evenodd" d="M14 4H2L2 6C3.10457 6 4 6.89543 4 8C4 9.10457 3.10457 10 2 10V12H14V10C12.8954 10 12 9.10457 12 8C12 6.89543 12.8954 6 14 6V4ZM2 3C1.44772 3 1 3.44772 1 4V6.1865C1 6.68708 1.49942 7 2 7C2.55228 7 3 7.44772 3 8C3 8.55228 2.55228 9 2 9C1.49942 9 1 9.31292 1 9.8135V12C1 12.5523 1.44772 13 2 13H14C14.5523 13 15 12.5523 15 12V9.8135C15 9.31292 14.5006 9 14 9C13.4477 9 13 8.55228 13 8C13 7.44772 13.4477 7 14 7C14.5006 7 15 6.68708 15 6.1865V4C15 3.44772 14.5523 3 14 3H2Z"/>
<path fill-rule="evenodd" clip-rule="evenodd" d="M10 3C10.2761 3 10.5 3.22386 10.5 3.5V12.5C10.5 12.7761 10.2761 13 10 13C9.72386 13 9.5 12.7761 9.5 12.5V3.5C9.5 3.22386 9.72386 3 10 3Z"/>
</svg>
