<svg width="24" height="24" viewBox="0 0 24 24" fill="6F767D" xmlns="http://www.w3.org/2000/svg">
<path fill-rule="evenodd" clip-rule="evenodd" d="M16.9988 16.6736L17.5185 15.9763C18.4496 14.7269 19 13.1806 19 11.5C19 7.35786 15.6421 4 11.5 4C7.35786 4 4 7.35786 4 11.5C4 15.6421 7.35786 19 11.5 19C12.5391 19 13.524 18.7898 14.4184 18.4116L15.1423 18.1054L17.409 18.9297L16.9988 16.6736ZM20 22L15.1974 20.2536C14.061 20.7342 12.8115 21 11.5 21C6.25329 21 2 16.7467 2 11.5C2 6.25329 6.25329 2 11.5 2C16.7467 2 21 6.25329 21 11.5C21 13.6258 20.3017 15.5886 19.1221 17.1714L20 22Z"/>
<path d="M11.6 14.5C11.0477 14.5 10.6 14.9477 10.6 15.5C10.6 16.0523 11.0477 16.5 11.6 16.5C12.1523 16.5 12.6 16.0523 12.6 15.5C12.6 14.9477 12.1523 14.5 11.6 14.5Z" />
<path fill-rule="evenodd" clip-rule="evenodd" d="M10.6376 8.99308C10.4096 9.31029 10.3182 9.70425 10.3182 9.93182C10.3182 10.346 9.96713 10.6818 9.53409 10.6818C9.10105 10.6818 8.75 10.346 8.75 9.93182C8.75 9.43212 8.91994 8.73516 9.34535 8.14329C9.79337 7.51996 10.5416 7 11.625 7C12.2798 7 13.0129 7.17055 13.5899 7.67232C14.182 8.18717 14.5 8.95475 14.5 9.93182C14.5 10.5237 14.2985 10.971 13.9508 11.3124C13.7163 11.5427 13.402 11.722 13.1974 11.8387C13.155 11.8628 13.1173 11.8843 13.086 11.903C12.8581 12.0393 12.718 12.1491 12.6169 12.3041C12.5177 12.456 12.4091 12.7263 12.4091 13.25C12.4091 13.6642 12.058 14 11.625 14C11.192 14 10.8409 13.6642 10.8409 13.25C10.8409 12.5237 10.9937 11.9587 11.2865 11.5099C11.5775 11.064 11.96 10.8073 12.2549 10.631C12.3483 10.5752 12.4254 10.5305 12.4904 10.4929C12.662 10.3935 12.7485 10.3433 12.8276 10.2657C12.8719 10.2221 12.9318 10.1581 12.9318 9.93182C12.9318 9.27253 12.7271 8.94919 12.5351 8.78223C12.328 8.60217 12.0156 8.5 11.625 8.5C11.1403 8.5 10.843 8.70731 10.6376 8.99308Z"/>
</svg>
