<svg width="12" height="12" viewBox="0 0 12 12" fill="black" xmlns="http://www.w3.org/2000/svg">
<path fill-rule="evenodd" clip-rule="evenodd" d="M5.5 1C5.22386 1 5 1.22386 5 1.5V2.12602C4.63298 2.22048 4.28634 2.36573 3.96803 2.55382L3.52512 2.11091C3.32986 1.91565 3.01328 1.91565 2.81801 2.11091L2.11091 2.81802C1.91565 3.01328 1.91565 3.32986 2.11091 3.52512L2.55382 3.96803C2.36573 4.28635 2.22048 4.63298 2.12602 5H1.5C1.22386 5 1 5.22386 1 5.5V6.5C1 6.77614 1.22386 7 1.5 7H2.12602C2.22048 7.36701 2.36572 7.71364 2.55381 8.03195L2.11091 8.47485C1.91565 8.67011 1.91565 8.98669 2.11091 9.18195L2.81802 9.88906C3.01328 10.0843 3.32986 10.0843 3.52512 9.88906L3.96801 9.44617C4.28633 9.63427 4.63297 9.77952 5 9.87398V10.5C5 10.7761 5.22386 11 5.5 11H6.5C6.77614 11 7 10.7761 7 10.5V9.87398C7.36702 9.77952 7.71365 9.63427 8.03197 9.44618L8.47487 9.88908C8.67013 10.0843 8.98671 10.0843 9.18198 9.88908L9.88908 9.18198C10.0843 8.98672 10.0843 8.67013 9.88908 8.47487L9.44618 8.03197C9.63427 7.71366 9.77952 7.36702 9.87398 7H10.5C10.7761 7 11 6.77614 11 6.5V5.5C11 5.22386 10.7761 5 10.5 5H9.87398C9.77952 4.63297 9.63427 4.28633 9.44617 3.96801L9.88908 3.5251C10.0843 3.32984 10.0843 3.01326 9.88908 2.81799L9.18198 2.11089C8.98672 1.91562 8.67013 1.91562 8.47487 2.11089L8.03195 2.55381C7.71364 2.36572 7.36701 2.22048 7 2.12602V1.5C7 1.22386 6.77614 1 6.5 1H5.5ZM6 8C7.10457 8 8 7.10457 8 6C8 4.89543 7.10457 4 6 4C4.89543 4 4 4.89543 4 6C4 7.10457 4.89543 8 6 8Z"/>
</svg>
