<svg width="18" height="18" viewBox="0 0 18 18" fill="#979CA2" xmlns="http://www.w3.org/2000/svg">
<path fill-rule="evenodd" clip-rule="evenodd" d="M3.89929 7.49312L3.43256 7.95985C3.29547 8.09617 3.18668 8.25824 3.11245 8.43675C3.03822 8.61525 3 8.80667 3 9C3 9.19333 3.03822 9.38474 3.11245 9.56325C3.18668 9.74176 3.29547 9.90383 3.43256 10.0401L3.89929 10.5069C4.17239 10.7815 4.32579 11.153 4.32601 11.5404V12.2071C4.32601 12.5962 4.48056 12.9693 4.75565 13.2443C5.03074 13.5194 5.40385 13.674 5.79288 13.674H6.45964C6.84696 13.6742 7.21848 13.8276 7.49312 14.1007L7.95985 14.5674C8.09617 14.7045 8.25824 14.8133 8.43675 14.8876C8.61525 14.9618 8.80667 15 9 15C9.19333 15 9.38474 14.9618 9.56325 14.8876C9.74176 14.8133 9.90383 14.7045 10.0401 14.5674L10.5069 14.1007C10.7815 13.8276 11.153 13.6742 11.5404 13.674H12.2071C12.5962 13.674 12.9693 13.5194 13.2443 13.2443C13.5194 12.9693 13.674 12.5962 13.674 12.2071V11.5404C13.6742 11.153 13.8276 10.7815 14.1007 10.5069L14.5674 10.0401C14.7045 9.90383 14.8133 9.74176 14.8876 9.56325C14.9618 9.38474 15 9.19333 15 9C15 8.80667 14.9618 8.61525 14.8876 8.43675C14.8133 8.25824 14.7045 8.09617 14.5674 7.95985L14.1007 7.49312C13.8276 7.21848 13.6742 6.84696 13.674 6.45964V5.79288C13.674 5.40385 13.5194 5.03074 13.2443 4.75565C12.9693 4.48056 12.5962 4.32601 12.2071 4.32601H11.5404C11.153 4.32579 10.7815 4.17239 10.5069 3.89929L10.0401 3.43256C9.90383 3.29547 9.74176 3.18668 9.56325 3.11245C9.38474 3.03822 9.19333 3 9 3C8.80667 3 8.61525 3.03822 8.43675 3.11245C8.25824 3.18668 8.09617 3.29547 7.95985 3.43256L7.49312 3.89929C7.21848 4.17239 6.84696 4.32579 6.45964 4.32601H5.79288C5.54628 4.32601 5.30608 4.38811 5.09319 4.50364C4.97022 4.57038 4.85637 4.65493 4.75565 4.75565C4.48056 5.03074 4.32601 5.40385 4.32601 5.79288V6.45964C4.32585 6.75114 4.23892 7.03369 4.0795 7.27273C4.02709 7.3513 3.96685 7.42518 3.89929 7.49312ZM6.44508 2.82601L6.89799 2.3731C7.17333 2.09667 7.50051 1.87726 7.86078 1.72744C8.22182 1.57729 8.60898 1.5 9 1.5C9.39102 1.5 9.77818 1.57729 10.1392 1.72744C10.4996 1.87729 10.8268 2.09677 11.1022 2.37328C11.1027 2.37381 11.1033 2.37435 11.1038 2.37488L11.5549 2.82601H12.2071C12.994 2.82601 13.7486 3.13859 14.305 3.69499C14.8614 4.25139 15.174 5.00602 15.174 5.79288V6.44508L15.6251 6.89622C15.6257 6.89682 15.6263 6.89742 15.6269 6.89802C15.9033 7.17336 16.1227 7.50052 16.2726 7.86078C16.4227 8.22182 16.5 8.60898 16.5 9C16.5 9.39103 16.4227 9.77818 16.2726 10.1392C16.1227 10.4996 15.9032 10.8268 15.6267 11.1022C15.6262 11.1027 15.6256 11.1033 15.6251 11.1038L15.174 11.5549V12.2071C15.174 12.994 14.8614 13.7486 14.305 14.305C13.7486 14.8614 12.994 15.174 12.2071 15.174H11.5549L11.1038 15.6251C11.1033 15.6256 11.1027 15.6262 11.1022 15.6267C10.8268 15.9032 10.4996 16.1227 10.1392 16.2726C9.77818 16.4227 9.39103 16.5 9 16.5C8.60898 16.5 8.22182 16.4227 7.86078 16.2726C7.50052 16.1227 7.17336 15.9033 6.89802 15.6269C6.89742 15.6263 6.89682 15.6257 6.89622 15.6251L6.44508 15.174H5.79288C5.00602 15.174 4.25139 14.8614 3.69499 14.305C3.13859 13.7486 2.82601 12.994 2.82601 12.2071V11.5549L2.37488 11.1038C2.37435 11.1033 2.37381 11.1027 2.37328 11.1022C2.09677 10.8268 1.87729 10.4996 1.72744 10.1392C1.57729 9.77818 1.5 9.39102 1.5 9C1.5 8.60898 1.57729 8.22182 1.72744 7.86078C1.87726 7.50051 2.09667 7.17333 2.3731 6.89799L2.82601 6.44508V5.79288C2.82601 5.00602 3.13859 4.25139 3.69499 3.69499C4.25139 3.13859 5.00602 2.82601 5.79288 2.82601H6.44508Z"/>
<path fill-rule="evenodd" clip-rule="evenodd" d="M11.5303 6.46967C11.8232 6.76256 11.8232 7.23744 11.5303 7.53033L7.53033 11.5303C7.23744 11.8232 6.76256 11.8232 6.46967 11.5303C6.17678 11.2374 6.17678 10.7626 6.46967 10.4697L10.4697 6.46967C10.7626 6.17678 11.2374 6.17678 11.5303 6.46967Z"/>
<path d="M7.125 8C7.60825 8 8 7.60825 8 7.125C8 6.64175 7.60825 6.25 7.125 6.25C6.64175 6.25 6.25 6.64175 6.25 7.125C6.25 7.60825 6.64175 8 7.125 8Z"/>
<path d="M10.875 11.75C11.3582 11.75 11.75 11.3582 11.75 10.875C11.75 10.3918 11.3582 10 10.875 10C10.3918 10 10 10.3918 10 10.875C10 11.3582 10.3918 11.75 10.875 11.75Z"/>
</svg>
