<svg width="28" height="28" viewBox="0 0 28 28" fill="#D2D5D8" xmlns="http://www.w3.org/2000/svg">
<g clip-path="url(#clip0_1095_29731)">
<path d="M14.5446 11.7093C15.2224 11.7182 15.8799 11.938 16.4224 12.3371C16.9649 12.7361 17.3646 13.2938 17.5637 13.93C18.1679 13.6485 18.8084 13.449 19.4674 13.3371C19.2035 12.4827 18.7124 11.7127 18.0448 11.1065C17.3794 10.4956 16.5601 10.0701 15.6713 9.87405C14.7825 9.67798 13.8565 9.7184 12.9889 9.99113C12.1203 10.2531 11.337 10.7343 10.7174 11.3868C10.0977 12.0392 9.66346 12.84 9.45799 13.7089C9.25448 14.5788 9.28268 15.4854 9.53986 16.3415C9.80701 17.1974 10.2974 17.9698 10.9625 18.5822C11.6236 19.1966 12.4397 19.6267 13.3266 19.8282C13.3983 19.1701 13.5601 18.5246 13.8077 17.909C13.0355 17.7458 12.3527 17.3065 11.8921 16.6766C11.4314 16.0467 11.2258 15.2711 11.3151 14.5007C11.4044 13.7302 11.7823 13.0198 12.3754 12.5077C12.9685 11.9955 13.7343 11.7181 14.5241 11.7294L14.5446 11.7093Z" fill="#D2D5D8"/>
<path d="M25.1783 16.02C24.1549 15.0245 22.8146 14.4038 21.3813 14.2616C20.3105 14.1566 19.2303 14.326 18.2462 14.7533C17.2621 15.1806 16.4076 15.8511 15.7663 16.6994C15.1249 17.5477 14.7186 18.5448 14.587 19.5934C14.4554 20.6419 14.603 21.706 15.0154 22.6818C15.5758 23.9724 16.5689 25.0361 17.8299 25.6963C19.1413 26.3574 20.649 26.5408 22.0851 26.2139C23.5212 25.8869 24.7928 25.0708 25.674 23.9105C26.5552 22.7501 26.9889 21.3207 26.8982 19.8761C26.8074 18.4315 26.198 17.0652 25.1783 16.02ZM24.728 20.4914C24.7027 20.5989 24.6457 20.6967 24.5642 20.7727C24.4847 20.8606 24.3758 20.9176 24.2572 20.9335H21.3301V23.8173C21.3208 23.9315 21.2703 24.0387 21.1878 24.1197C21.1053 24.2007 20.9961 24.2502 20.8798 24.2594H20.6342C20.5199 24.2448 20.4138 24.1935 20.3324 24.1136C20.2509 24.0336 20.1987 23.9294 20.1838 23.8173V20.9435H17.226C17.1105 20.9271 17.005 20.8699 16.9292 20.7828C16.851 20.7058 16.7976 20.608 16.7757 20.5014V20.2904C16.795 20.18 16.8487 20.0783 16.9292 19.999C17.0094 19.9173 17.1129 19.8612 17.226 19.8382H20.2452V16.9544C20.2645 16.8411 20.3179 16.7361 20.3988 16.653C20.4816 16.5748 20.584 16.5193 20.6956 16.4922H20.9002C21.0124 16.5255 21.1167 16.5801 21.2073 16.653C21.2811 16.7394 21.3306 16.8434 21.3506 16.9544V19.8282H24.2674C24.3835 19.8452 24.491 19.8979 24.5745 19.9789C24.6524 20.0653 24.7085 20.1686 24.7382 20.2804V20.4813L24.728 20.4914Z" fill="#D2D5D8"/>
<path d="M7.23639 22.3302C6.94388 22.3302 6.65425 22.2735 6.38412 22.1632C6.114 22.053 5.86872 21.8915 5.66236 21.688C5.45599 21.4845 5.29262 21.2429 5.18161 20.9772C5.0706 20.7115 5.01415 20.4269 5.0155 20.1397V10.4132C5.01277 10.1261 5.06835 9.84136 5.17899 9.57561C5.28963 9.30985 5.45312 9.06842 5.65989 8.86541C5.86667 8.6624 6.11259 8.50189 6.38327 8.39327C6.65396 8.28464 6.94398 8.23007 7.23639 8.23276H10.0714C10.2537 8.23145 10.4324 8.18233 10.589 8.09046C10.7455 7.9986 10.8742 7.86734 10.9618 7.71026L12.0466 5.70065C12.0848 5.62456 12.1454 5.56154 12.2206 5.51978C12.2925 5.49362 12.3694 5.48333 12.4458 5.48964H16.7852C16.8717 5.4906 16.9563 5.51445 17.0302 5.55865C17.104 5.60286 17.1644 5.6658 17.2048 5.74084L18.2897 7.75045C18.3772 7.90753 18.5059 8.03879 18.6625 8.13066C18.819 8.22252 18.9977 8.27164 19.1801 8.27295H21.7592C22.0509 8.27295 22.3397 8.32935 22.6091 8.43892C22.8786 8.5485 23.1234 8.70911 23.3296 8.91158C23.5359 9.11405 23.6994 9.35442 23.8111 9.61896C23.9227 9.8835 23.9801 10.167 23.9801 10.4534V13.8396C24.7387 14.1825 25.4312 14.6516 26.027 15.2262V10.4132C26.0243 9.31073 25.577 8.25418 24.783 7.47463C23.989 6.69507 22.9128 6.25594 21.7899 6.25329H19.743L18.9447 4.81642C18.7378 4.4273 18.4282 4.09988 18.0483 3.86834C17.6684 3.6368 17.2322 3.50963 16.7852 3.50012H12.4458C12.0026 3.50499 11.5686 3.62463 11.1876 3.84693C10.8067 4.06923 10.4922 4.38633 10.2761 4.76618L9.47776 6.2131H7.23639C6.67757 6.21282 6.12431 6.32214 5.6091 6.53463C5.10054 6.74679 4.64099 7.05783 4.25814 7.44901C3.85947 7.84598 3.54549 8.31707 3.33461 8.83469C3.12372 9.3523 3.02016 9.90602 3.03 10.4634V20.2C3.02865 20.7466 3.13732 21.2882 3.34978 21.7935C3.56224 22.2988 3.87429 22.7579 4.26801 23.1444C4.66173 23.531 5.12936 23.8373 5.64404 24.0459C6.15871 24.2545 6.7103 24.3612 7.2671 24.3599H14.4927C14.0908 23.7398 13.7903 23.0617 13.6023 22.3503L7.23639 22.3302Z" fill="#D2D5D8"/>
</g>
<defs>
<clipPath id="clip0_1095_29731">
<rect width="24" height="23" fill="white" transform="translate(3.00006 3.50012)"/>
</clipPath>
</defs>
</svg>
