<svg width="30" height="30" viewBox="0 0 30 30" fill="#495057" xmlns="http://www.w3.org/2000/svg">
<path fill-rule="evenodd" clip-rule="evenodd" d="M13.7934 4.9668V6.45158C13.7934 6.90786 13.4846 7.30628 13.0427 7.42002C12.3254 7.60465 11.6476 7.88859 11.0249 8.25659C10.632 8.48877 10.1317 8.42549 9.80904 8.10278L8.75851 7.05225L7.05205 8.75871L8.10265 9.80931C8.42534 10.132 8.48864 10.6322 8.25648 11.0251C7.88856 11.6478 7.60467 12.3255 7.42007 13.0427C7.30634 13.4846 6.90792 13.7935 6.45163 13.7935H4.96674L4.96674 16.2068H6.45164C6.90792 16.2068 7.30634 16.5156 7.42007 16.9575C7.6047 17.6748 7.88861 18.3525 8.25658 18.9752C8.48875 19.3681 8.42546 19.8684 8.10276 20.1911L7.05238 21.2414L8.75884 22.9479L9.80923 21.8975C10.1319 21.5748 10.6322 21.5115 11.0251 21.7437C11.6478 22.1116 12.3254 22.3955 13.0427 22.5802C13.4846 22.6939 13.7935 23.0923 13.7935 23.5486V25.0333H16.2067V23.5486C16.2067 23.0923 16.5156 22.6939 16.9575 22.5802C17.6748 22.3956 18.3524 22.1117 18.9751 21.7438C19.368 21.5116 19.8682 21.5749 20.1909 21.8976L21.2412 22.9479L22.9477 21.2414L21.8975 20.1912C21.5748 19.8685 21.5115 19.3683 21.7437 18.9754C22.1117 18.3526 22.3956 17.6748 22.5802 16.9575C22.694 16.5156 23.0924 16.2068 23.5487 16.2068H25.0332V13.7935H23.5487C23.0924 13.7935 22.694 13.4846 22.5802 13.0427C22.3956 12.3254 22.1117 11.6477 21.7438 11.025C21.5116 10.6321 21.5749 10.1319 21.8976 9.80916L22.948 8.75873L21.2415 7.05227L20.1911 8.10269C19.8684 8.42539 19.3682 8.48868 18.9753 8.25651C18.3525 7.88853 17.6748 7.60461 16.9575 7.41999C16.5156 7.30626 16.2067 6.90784 16.2067 6.45155V4.9668H13.7934ZM23.3008 8.4059L23.3016 8.40518L23.3008 8.4059ZM13.2934 2.9668L16.7067 2.9668C17.5352 2.9668 18.2067 3.63837 18.2067 4.4668V5.70885C18.5829 5.83863 18.9486 5.99057 19.3023 6.16307L20.1809 5.28451C20.7667 4.69872 21.7164 4.69872 22.3022 5.28451L24.7158 7.69807C25.3016 8.28386 25.3016 9.23361 24.7158 9.8194L23.8372 10.698C24.0097 11.0517 24.1616 11.4174 24.2914 11.7935H25.5332C26.3617 11.7935 27.0332 12.465 27.0332 13.2935V16.7068C27.0332 17.5352 26.3617 18.2068 25.5332 18.2068H24.2914C24.1616 18.5829 24.0096 18.9486 23.8371 19.3024L24.7154 20.1807C25.3012 20.7665 25.3012 21.7163 24.7154 22.3021L22.3019 24.7156C21.7161 25.3014 20.7663 25.3014 20.1805 24.7156L19.3021 23.8372C18.9484 24.0097 18.5828 24.1616 18.2067 24.2913V25.5333C18.2067 26.3617 17.5352 27.0333 16.7067 27.0333H13.2935C12.465 27.0333 11.7935 26.3617 11.7935 25.5333V24.2913C11.4174 24.1615 11.0517 24.0096 10.698 23.8371L9.8195 24.7157C9.23372 25.3014 8.28397 25.3014 7.69818 24.7157L5.28462 22.3021C4.69883 21.7163 4.69883 20.7666 5.28462 20.1808L6.16314 19.3022C5.99065 18.9485 5.83872 18.5828 5.70895 18.2068H4.46674C3.63831 18.2068 2.96674 17.5352 2.96674 16.7068L2.96674 13.2935C2.96674 12.465 3.63831 11.7935 4.46674 11.7935H5.70894C5.83869 11.4174 5.99059 11.0518 6.16304 10.6981L5.28429 9.81937C4.6985 9.23359 4.6985 8.28384 5.28428 7.69805L7.69785 5.28449C8.28364 4.6987 9.23339 4.6987 9.81917 5.28449L10.6978 6.16315C11.0516 5.99063 11.4173 5.83868 11.7935 5.70889V4.4668C11.7935 3.63837 12.465 2.9668 13.2934 2.9668Z" />
<path fill-rule="evenodd" clip-rule="evenodd" d="M15 12.69C16.2758 12.69 17.31 13.7242 17.31 15C17.31 16.2757 16.2758 17.31 15 17.31C13.7243 17.31 12.69 16.2757 12.69 15C12.69 13.7242 13.7243 12.69 15 12.69ZM19.31 15C19.31 12.6196 17.3804 10.69 15 10.69C12.6197 10.69 10.69 12.6196 10.69 15C10.69 17.3803 12.6197 19.31 15 19.31C17.3804 19.31 19.31 17.3803 19.31 15Z" />
</svg>
