<svg width="24" height="24" viewBox="0 0 24 24" fill="#838990" xmlns="http://www.w3.org/2000/svg">
    <path fill-rule="evenodd" clip-rule="evenodd" d="M22 5.5H2V9.55001C3.14112 9.78164 4 10.7905 4 12C4 13.2095 3.14112 14.2184 2 14.45V18.5H22V14.45C20.8589 14.2184 20 13.2095 20 12C20 10.7905 20.8589 9.78164 22 9.55001V5.5ZM5.5 12C5.5 10.5186 4.69554 9.22699 3.5 8.53559V7H15.5V8.25H17V7H20.5V8.53559C19.3045 9.22699 18.5 10.5186 18.5 12C18.5 13.4814 19.3045 14.773 20.5 15.4644V17H17V15.25H15.5V17H3.5V15.4644C4.69554 14.773 5.5 13.4814 5.5 12ZM15.5 10V13.5H17V10H15.5Z"/>
</svg>
