<svg width="12" height="12" viewBox="0 0 12 12" fill="black" xmlns="http://www.w3.org/2000/svg">
<mask id="path-1-inside-1_22_40" fill="white">
<path d="M5.54691 1.47091C5.72645 1.08617 6.27354 1.08617 6.45309 1.47091L7.75 4.25L10.5381 4.42426C10.9837 4.45211 11.1722 5.00558 10.8362 5.29957L8.75 7.125L9.2941 10.1175C9.37232 10.5477 8.89959 10.864 8.53179 10.6276L6 9L3.46821 10.6276C3.10041 10.864 2.62768 10.5477 2.7059 10.1175L3.25 7.125L1.1638 5.29957C0.827808 5.00558 1.01628 4.45211 1.46186 4.42426L4.25 4.25L5.54691 1.47091Z"/>
</mask>
<path d="M7.75 4.25L6.84382 4.67289C6.99862 5.0046 7.32228 5.22522 7.68762 5.24805L7.75 4.25ZM8.75 7.125L8.0915 6.37242C7.82676 6.60407 7.7032 6.95778 7.76613 7.30389L8.75 7.125ZM6 9L6.54076 8.15882C6.21135 7.94706 5.78865 7.94706 5.45924 8.15882L6 9ZM3.25 7.125L4.23387 7.30389C4.2968 6.95778 4.17324 6.60407 3.9085 6.37242L3.25 7.125ZM4.25 4.25L4.31238 5.24805C4.67772 5.22522 5.00139 5.0046 5.15618 4.67289L4.25 4.25ZM1.46186 4.42426L1.39948 3.42621L1.46186 4.42426ZM3.46821 10.6276L4.00897 11.4688L3.46821 10.6276ZM9.2941 10.1175L10.278 9.93866L9.2941 10.1175ZM5.54691 1.8938L6.84382 4.67289L8.65618 3.82711L7.35927 1.04802L5.54691 1.8938ZM7.68762 5.24805L10.4758 5.42231L10.6005 3.42621L7.81238 3.25195L7.68762 5.24805ZM10.1777 4.547L8.0915 6.37242L9.4085 7.87758L11.4947 6.05215L10.1777 4.547ZM7.76613 7.30389L8.31023 10.2964L10.278 9.93866L9.73387 6.94611L7.76613 7.30389ZM9.07254 9.7864L6.54076 8.15882L5.45924 9.84118L7.99103 11.4688L9.07254 9.7864ZM5.45924 8.15882L2.92746 9.7864L4.00897 11.4688L6.54076 9.84118L5.45924 8.15882ZM3.68977 10.2964L4.23387 7.30389L2.26613 6.94611L1.72203 9.93866L3.68977 10.2964ZM3.9085 6.37242L1.8223 4.547L0.505293 6.05215L2.5915 7.87758L3.9085 6.37242ZM1.52424 5.42231L4.31238 5.24805L4.18762 3.25195L1.39948 3.42621L1.52424 5.42231ZM5.15618 4.67289L6.45309 1.8938L4.64072 1.04803L3.34382 3.82711L5.15618 4.67289ZM1.8223 4.547C2.15829 4.84099 1.96982 5.39446 1.52424 5.42231L1.39948 3.42621C0.0627313 3.50975 -0.502678 5.17018 0.505293 6.05215L1.8223 4.547ZM2.92746 9.7864C3.29526 9.54995 3.76799 9.86623 3.68977 10.2964L1.72203 9.93866C1.48738 11.2293 2.90555 12.1781 4.00897 11.4688L2.92746 9.7864ZM8.31023 10.2964C8.23201 9.86623 8.70474 9.54995 9.07254 9.7864L7.99103 11.4688C9.09445 12.1781 10.5126 11.2293 10.278 9.93866L8.31023 10.2964ZM10.4758 5.42231C10.0302 5.39446 9.84171 4.84099 10.1777 4.547L11.4947 6.05215C12.5027 5.17018 11.9373 3.50975 10.6005 3.42621L10.4758 5.42231ZM7.35927 1.04802C6.82063 -0.106205 5.17936 -0.106203 4.64072 1.04803L6.45309 1.8938C6.27354 2.27854 5.72645 2.27854 5.54691 1.8938L7.35927 1.04802Z" mask="url(#path-1-inside-1_22_40)"/>
</svg>
