<svg width="25" height="24" fill="#6F767D" viewBox="0 0 25 24" xmlns="http://www.w3.org/2000/svg">
<path fill-rule="evenodd" clip-rule="evenodd" d="M3.5 4C3.5 3.44772 3.94772 3 4.5 3H17.5C18.0523 3 18.5 3.44772 18.5 4V17C18.5 17.5523 18.0523 18 17.5 18H4.5C3.94772 18 3.5 17.5523 3.5 17V4ZM5.5 5V16H16.5V5H5.5Z" />
<path d="M6.5 19V20C6.5 20.5523 6.94772 21 7.5 21H20.5C21.0523 21 21.5 20.5523 21.5 20V7C21.5 6.44772 21.0523 6 20.5 6H19.5V19H6.5Z" />
<path d="M13.312 10.1286L10.1829 7.83656C9.89762 7.61914 9.5 7.83656 9.5 8.20799V12.792C9.5 13.1634 9.89762 13.3809 10.1829 13.1634L13.312 10.8714C13.5627 10.6902 13.5627 10.3098 13.312 10.1286Z" />
</svg>
