<svg width="30" height="30" viewBox="0 0 30 30" fill="#838990" xmlns="http://www.w3.org/2000/svg">
    <path fill-rule="evenodd" clip-rule="evenodd" d="M22.3646 5.33938C22.918 5.71081 23.25 6.33351 23.25 7.00001V9.11151C25.254 9.56624 26.75 11.3584 26.75 13.5C26.75 15.6416 25.254 17.4338 23.25 17.8885V20C23.25 20.6665 22.918 21.2892 22.3646 21.6606C21.8112 22.0321 21.1091 22.1034 20.4923 21.8509C19.6909 21.5229 18.911 21.154 18.1827 20.8045L17.88 20.6591C17.252 20.3572 16.6665 20.0757 16.0846 19.8208C15.6126 19.6141 15.2924 19.4389 15.035 19.2982L15.035 19.2982C14.5482 19.0319 14.2868 18.8889 13.65 18.8889H12.1826L14.6785 25.1286C14.8836 25.6414 14.6342 26.2234 14.1214 26.4285C13.6086 26.6336 13.0266 26.3842 12.8215 25.8714L10.0285 18.8889H8.63815C5.66138 18.8889 3.25 16.4756 3.25 13.5C3.25 10.5244 5.66138 8.11112 8.63815 8.11112H13.65C14.2868 8.11112 14.5482 7.96813 15.035 7.70185C15.2923 7.56111 15.6126 7.38592 16.0846 7.1792C16.6665 6.92434 17.2519 6.64287 17.88 6.34092L17.88 6.34092L17.88 6.34091L18.1827 6.19548C18.911 5.84606 19.6909 5.47714 20.4923 5.14909C21.1091 4.89659 21.8112 4.96795 22.3646 5.33938ZM11.75 16.8889H13.65C15.1158 16.8889 16.0555 17.4085 17.2664 18.078L17.2664 18.0781C17.7113 18.3241 18.1928 18.5903 18.7505 18.8584L18.7514 18.8589L18.7524 18.8594C18.9179 18.9389 19.0838 19.0187 19.25 19.0981C19.9105 19.4138 20.5767 19.7244 21.25 20V7.00001C20.5767 7.27561 19.9105 7.58627 19.25 7.90189C19.0831 7.98162 18.9167 8.06167 18.7505 8.14156L18.7505 8.14157L18.7505 8.14159C18.1928 8.40973 17.7113 8.67597 17.2664 8.92198C16.0555 9.59149 15.1158 10.1111 13.65 10.1111H11.75V16.8889ZM9.75 10.1111V16.8889H8.63815C6.76652 16.8889 5.25 15.3716 5.25 13.5C5.25 11.6284 6.76652 10.1111 8.63815 10.1111H9.75ZM24.75 13.5C24.75 14.5252 24.133 15.4062 23.25 15.792V11.208C24.133 11.5938 24.75 12.4748 24.75 13.5Z"/>
</svg>
