<svg width="18" height="18" viewBox="0 0 18 18" fill="#1E90FF" xmlns="http://www.w3.org/2000/svg">
    <path fill-rule="evenodd" clip-rule="evenodd" d="M9.00001 3C5.68843 3 3 5.68843 3 9.00001C3 12.3116 5.68843 15 9.00001 15C12.3116 15 15 12.3116 15 9.00001C15 5.68843 12.3116 3 9.00001 3ZM9.00001 1.5C4.86 1.5 1.5 4.86 1.5 9.00001C1.5 13.14 4.86 16.5 9.00001 16.5C13.14 16.5 16.5 13.14 16.5 9.00001C16.5 4.86 13.14 1.5 9.00001 1.5Z"/>
    <path d="M4.75 10.1753L8 13L13.25 7.09391L12.1925 6L8 10.8199L5.8075 9.08914L4.75 10.1753Z"/>
</svg>
