<svg width="16" height="16" viewBox="0 0 16 16" fill="black" xmlns="http://www.w3.org/2000/svg">
<path fill-rule="evenodd" clip-rule="evenodd" d="M12 2H4V14H12V2ZM4 1C3.44772 1 3 1.44772 3 2V14C3 14.5523 3.44772 15 4 15H12C12.5523 15 13 14.5523 13 14V2C13 1.44772 12.5523 1 12 1H4Z"/>
<path fill-rule="evenodd" clip-rule="evenodd" d="M5 12.5C5 12.2239 5.22386 12 5.5 12H10.5C10.7761 12 11 12.2239 11 12.5C11 12.7761 10.7761 13 10.5 13H5.5C5.22386 13 5 12.7761 5 12.5Z"/>
<path fill-rule="evenodd" clip-rule="evenodd" d="M5 10.5C5 10.2239 5.22386 10 5.5 10H10.5C10.7761 10 11 10.2239 11 10.5C11 10.7761 10.7761 11 10.5 11H5.5C5.22386 11 5 10.7761 5 10.5Z"/>
<path d="M9.25 4.25C9.25 4.94036 8.69036 5.5 8 5.5C7.30964 5.5 6.75 4.94036 6.75 4.25C6.75 3.55964 7.30964 3 8 3C8.69036 3 9.25 3.55964 9.25 4.25Z"/>
<path d="M6.24144 6.73268C6.61724 6.122 7.28296 5.75 8.00001 5.75C8.71706 5.75 9.38278 6.122 9.75858 6.73268L9.92273 6.99942C10.3937 7.7647 9.84309 8.75 8.94452 8.75H7.0555C6.15693 8.75 5.60635 7.7647 6.07729 6.99942L6.24144 6.73268Z"/>
</svg>
