<svg width="30" height="30" viewBox="0 0 30 30" fill="#E8EAED" xmlns="http://www.w3.org/2000/svg">
    <path d="M27.5 15C27.5 21.9036 21.9036 27.5 15 27.5C8.09644 27.5 2.5 21.9036 2.5 15C2.5 8.09644 8.09644 2.5 15 2.5C21.9036 2.5 27.5 8.09644 27.5 15Z" fill="#FAFBFC"/>
    <path fill-rule="evenodd" clip-rule="evenodd" d="M15 26.5C21.3513 26.5 26.5 21.3513 26.5 15C26.5 8.64873 21.3513 3.5 15 3.5C8.64873 3.5 3.5 8.64873 3.5 15C3.5 21.3513 8.64873 26.5 15 26.5ZM15 27.5C21.9036 27.5 27.5 21.9036 27.5 15C27.5 8.09644 21.9036 2.5 15 2.5C8.09644 2.5 2.5 8.09644 2.5 15C2.5 21.9036 8.09644 27.5 15 27.5Z"/>
</svg>
