<svg width="24" height="24" viewBox="0 0 24 24" fill="#7EC1FF" xmlns="http://www.w3.org/2000/svg">
<path class="fill" fill-rule="evenodd" clip-rule="evenodd" d="M15.2464 4.68831C13.6425 3.9762 11.849 3.81119 10.1422 4.21872C8.43529 4.62625 6.90977 5.5837 5.80061 6.94357C4.69146 8.30343 4.0602 9.99028 4.00409 11.7442C3.94799 13.4982 4.47014 15.2219 5.49012 16.6499C6.51009 18.0779 7.9713 19.1309 9.64863 19.6466C11.326 20.1624 13.1264 20.1124 14.7725 19.5042C16.4185 18.8961 17.819 17.7636 18.7581 16.2811C19.6972 14.7987 20.1228 13.0486 19.9694 11.3005C19.9211 10.7503 20.3279 10.2652 20.8781 10.2169C21.4283 10.1686 21.9134 10.5755 21.9617 11.1256C22.1535 13.3108 21.6215 15.4984 20.4476 17.3514C19.2738 19.2045 17.5232 20.6201 15.4656 21.3803C13.4079 22.1405 11.1575 22.203 9.06079 21.5583C6.96413 20.9136 5.13762 19.5973 3.86265 17.8124C2.58767 16.0274 1.93498 13.8727 2.00512 11.6803C2.07525 9.48784 2.86432 7.37929 4.25077 5.67946C5.63722 3.97962 7.54412 2.78281 9.6777 2.2734C11.8113 1.76399 14.0532 1.97024 16.058 2.86039C16.5628 3.0845 16.7903 3.67538 16.5662 4.18015C16.342 4.68492 15.7512 4.91243 15.2464 4.68831Z"/>
<path class="fill" fill-rule="evenodd" clip-rule="evenodd" d="M20.7574 5.0982C21.1507 5.48601 21.155 6.11916 20.7672 6.51238L12.6972 14.6949C12.5061 14.8887 12.2443 14.9962 11.9722 14.9927C11.7001 14.9891 11.4412 14.8749 11.2552 14.6763L8.5035 11.7377C8.126 11.3345 8.14678 10.7017 8.54991 10.3242C8.95304 9.94671 9.58587 9.96749 9.96337 10.3706L12.0039 12.5497L19.3433 5.10799C19.7311 4.71477 20.3642 4.71038 20.7574 5.0982Z"/>
</svg>
