<svg width="30" height="30" viewBox="0 0 30 30" fill="white" xmlns="http://www.w3.org/2000/svg">
    <path fill-rule="evenodd" clip-rule="evenodd" d="M15 25.5C20.799 25.5 25.5 20.799 25.5 15C25.5 9.20101 20.799 4.5 15 4.5C9.20101 4.5 4.5 9.20101 4.5 15C4.5 20.799 9.20101 25.5 15 25.5ZM15 27.5C21.9036 27.5 27.5 21.9036 27.5 15C27.5 8.09644 21.9036 2.5 15 2.5C8.09644 2.5 2.5 8.09644 2.5 15C2.5 21.9036 8.09644 27.5 15 27.5Z"/>
    <path d="M15.6902 8.75229C18.8215 8.75229 20.4983 10.6653 20.4983 12.253C20.5096 12.5382 20.4651 12.8229 20.3674 13.0906C20.2698 13.3583 20.1208 13.6038 19.9292 13.8129C19.7375 14.0221 19.507 14.1908 19.2508 14.3093C18.9945 14.4279 18.7177 14.4939 18.4362 14.5036C16.1454 14.5036 17.2148 11.669 15.5347 11.669C14.6186 11.669 14.0834 12.6694 14.0834 13.582C14.0834 15.2485 15.2293 16.9994 16.9083 16.9994C18.2064 16.9994 18.665 16.4154 19.1225 16.4154C19.6566 16.4154 20.0386 17.0827 20.0386 17.6656C20.0386 18.9991 18.1298 20.75 15.2282 20.75C14.4542 20.746 13.689 20.5839 12.9782 20.2734C12.2674 19.9629 11.6257 19.5103 11.0915 18.9427C10.5572 18.3752 10.1414 17.7043 9.86882 16.9702C9.59625 16.2361 9.47254 15.4538 9.50509 14.6701C9.55301 13.0549 10.231 11.5249 11.3905 10.4156C12.5499 9.30621 14.0962 8.70806 15.6902 8.75229Z"/>
</svg>
