<svg width="18" height="18" viewBox="0 0 18 18" fill="#979CA2" xmlns="http://www.w3.org/2000/svg">
    <path fill-rule="evenodd" clip-rule="evenodd" d="M3.25 6.5V14.5H14.75V6.5H3.25ZM2.75 5C2.19772 5 1.75 5.44771 1.75 6V15C1.75 15.5523 2.19772 16 2.75 16H15.25C15.8023 16 16.25 15.5523 16.25 15V6C16.25 5.44772 15.8023 5 15.25 5H2.75Z"/>
    <path fill-rule="evenodd" clip-rule="evenodd" d="M7 3.75C6.58579 3.75 6.25 4.08579 6.25 4.5V5H4.75V4.5C4.75 3.25736 5.75736 2.25 7 2.25H11C12.2426 2.25 13.25 3.25736 13.25 4.5V5H11.75V4.5C11.75 4.08579 11.4142 3.75 11 3.75H7Z"/>
    <path fill-rule="evenodd" clip-rule="evenodd" d="M3 6.48545L3.86857 6L6.14117 10.5539H11.8588L14.1314 6L15 6.48545L12.4329 11.5H5.56715L3 6.48545Z"/>
    <path fill-rule="evenodd" clip-rule="evenodd" d="M6.75 12.5V9.5H8V12.5H6.75Z"/>
    <path fill-rule="evenodd" clip-rule="evenodd" d="M10 12.5V9.5H11.25V12.5H10Z"/>
</svg>
