<svg width="18" height="18" viewBox="0 0 18 18" fill="#979CA2" xmlns="http://www.w3.org/2000/svg">
    <path fill-rule="evenodd" clip-rule="evenodd" d="M15.5 3.73445L9.11574 9.47825L6.27136 7.61713L3.45051 15L2.5 14.6502L5.77003 6.09166L9.01654 8.21589L14.814 3L15.5 3.73445Z"/>
    <path d="M7.69344 2C9.44937 2 11.0196 2.79491 12.064 4.0445L10.9676 5.04957C10.1961 4.09539 9.01604 3.48525 7.69344 3.48525C5.36932 3.48525 3.48525 5.36932 3.48525 7.69344C3.48525 8.10335 3.54385 8.49958 3.65315 8.87419L2.92749 10.8093C2.34103 9.91405 2 8.84357 2 7.69344C2 4.54904 4.54904 2 7.69344 2Z"/>
    <path d="M7.69344 11.9016C7.03207 11.9016 6.40633 11.7491 5.84951 11.4772L5.32612 12.8729C6.04701 13.2029 6.84874 13.3869 7.69344 13.3869C8.99793 13.3869 10.1999 12.9482 11.16 12.2102L14.4498 15.5C14.7398 15.79 15.21 15.79 15.5 15.5C15.79 15.21 15.79 14.7398 15.5 14.4498L12.2102 11.16C12.9482 10.2 13.3869 8.99793 13.3869 7.69344C13.3869 7.42782 13.3687 7.16645 13.3335 6.9105L11.8642 8.25737C11.5886 10.3148 9.82634 11.9016 7.69344 11.9016Z"/>
</svg>
