<svg width="18" height="18" viewBox="0 0 18 18" fill="#6F767D" xmlns="http://www.w3.org/2000/svg">
<path fill-rule="evenodd" clip-rule="evenodd" d="M5.5 4.25C4.80964 4.25 4.25 4.80964 4.25 5.5V12.5C4.25 13.1904 4.80964 13.75 5.5 13.75H12.5C13.1904 13.75 13.75 13.1904 13.75 12.5V10C13.75 9.58579 14.0858 9.25 14.5 9.25C14.9142 9.25 15.25 9.58579 15.25 10V12.5C15.25 14.0188 14.0188 15.25 12.5 15.25H5.5C3.98122 15.25 2.75 14.0188 2.75 12.5V5.5C2.75 3.98122 3.98122 2.75 5.5 2.75H8C8.41421 2.75 8.75 3.08579 8.75 3.5C8.75 3.91421 8.41421 4.25 8 4.25H5.5Z" />
<path fill-rule="evenodd" clip-rule="evenodd" d="M10.25 3.5C10.25 3.08579 10.5858 2.75 11 2.75H14.5C14.9142 2.75 15.25 3.08579 15.25 3.5V7C15.25 7.41421 14.9142 7.75 14.5 7.75C14.0858 7.75 13.75 7.41421 13.75 7V5.31066L10.0303 9.03033C9.73744 9.32322 9.26256 9.32322 8.96967 9.03033C8.67678 8.73744 8.67678 8.26256 8.96967 7.96967L12.6893 4.25H11C10.5858 4.25 10.25 3.91421 10.25 3.5Z" />
</svg>
