<svg width="16" height="16" viewBox="0 0 16 16" fill="black" xmlns="http://www.w3.org/2000/svg">
<path fill-rule="evenodd" clip-rule="evenodd" d="M8 14C11.3137 14 14 11.3137 14 8C14 4.68629 11.3137 2 8 2C4.68629 2 2 4.68629 2 8C2 11.3137 4.68629 14 8 14ZM8 15C11.866 15 15 11.866 15 8C15 4.13401 11.866 1 8 1C4.13401 1 1 4.13401 1 8C1 11.866 4.13401 15 8 15Z"/>
<path fill-rule="evenodd" clip-rule="evenodd" d="M5.39645 10.6036C5.20118 10.4083 5.20118 10.0917 5.39645 9.89645L9.89645 5.39645C10.0917 5.20118 10.4083 5.20118 10.6036 5.39645C10.7988 5.59171 10.7988 5.90829 10.6036 6.10355L6.10355 10.6036C5.90829 10.7988 5.59171 10.7988 5.39645 10.6036Z"/>
<path d="M6.75 6C6.75 6.41421 6.41421 6.75 6 6.75C5.58579 6.75 5.25 6.41421 5.25 6C5.25 5.58579 5.58579 5.25 6 5.25C6.41421 5.25 6.75 5.58579 6.75 6Z"/>
<path d="M10.75 10C10.75 10.4142 10.4142 10.75 10 10.75C9.58579 10.75 9.25 10.4142 9.25 10C9.25 9.58579 9.58579 9.25 10 9.25C10.4142 9.25 10.75 9.58579 10.75 10Z"/>
</svg>
