<svg width="24" height="24" viewBox="0 0 24 24" fill="#6F767D" xmlns="http://www.w3.org/2000/svg">
<path fill-rule="evenodd" clip-rule="evenodd" d="M3 5.75C3 5.19772 3.44772 4.75 4 4.75H20C20.5523 4.75 21 5.19772 21 5.75C21 6.30228 20.5523 6.75 20 6.75H4C3.44772 6.75 3 6.30228 3 5.75Z" />
<path fill-rule="evenodd" clip-rule="evenodd" d="M3 12C3 11.4477 3.44772 11 4 11H20C20.5523 11 21 11.4477 21 12C21 12.5523 20.5523 13 20 13H4C3.44772 13 3 12.5523 3 12Z" />
<path fill-rule="evenodd" clip-rule="evenodd" d="M3 18.25C3 17.6977 3.44772 17.25 4 17.25H20C20.5523 17.25 21 17.6977 21 18.25C21 18.8023 20.5523 19.25 20 19.25H4C3.44772 19.25 3 18.8023 3 18.25Z" />
</svg>
