<svg width="24" height="24" viewBox="0 0 24 24" fill="#BEC2C6" xmlns="http://www.w3.org/2000/svg">
<path fill-rule="evenodd" clip-rule="evenodd" d="M9.5 18C9.5 19.3807 10.6193 20.5 12 20.5C13.3807 20.5 14.5 19.3807 14.5 18H16.5C16.5 20.4853 14.4853 22.5 12 22.5C9.51472 22.5 7.5 20.4853 7.5 18H9.5Z"/>
<path fill-rule="evenodd" clip-rule="evenodd" d="M12 4C9.79086 4 8 5.79086 8 8V12C8 13.3041 7.00142 14.375 5.72718 14.4898C5.64207 14.4975 5.55687 14.5337 5.52648 14.6136C5.50793 14.6624 5.5 14.7094 5.5 14.75C5.5 14.7906 5.50793 14.8376 5.52648 14.8864C5.5562 14.9645 5.64011 15 5.72367 15H18.2763C18.3599 15 18.4438 14.9645 18.4735 14.8864C18.4921 14.8376 18.5 14.7906 18.5 14.75C18.5 14.7094 18.4921 14.6624 18.4735 14.6136C18.4431 14.5337 18.3579 14.4975 18.2728 14.4898C16.9986 14.375 16 13.3041 16 12V8C16 5.79086 14.2091 4 12 4ZM6 8C6 4.68629 8.68629 2 12 2C15.3137 2 18 4.68629 18 8V12C18 12.2761 18.2239 12.5 18.5 12.5C19.6046 12.5 20.5 13.5744 20.5 14.75C20.5 15.9256 19.6046 17 18.5 17H5.5C4.39543 17 3.5 15.9256 3.5 14.75C3.5 13.5744 4.39543 12.5 5.5 12.5C5.77614 12.5 6 12.2761 6 12V8Z"/>
</svg>
