<svg width="24" height="24" viewBox="0 0 24 24" fill="#6F767D" xmlns="http://www.w3.org/2000/svg">
<path fill-rule="evenodd" clip-rule="evenodd" d="M6 4V20H18V4H6ZM5 2C4.44772 2 4 2.44772 4 3V21C4 21.5523 4.44772 22 5 22H19C19.5523 22 20 21.5523 20 21V3C20 2.44772 19.5523 2 19 2H5Z"/>
<path d="M12 10.3435C12 10.7059 11.7202 11 11.375 11H7.625C7.27982 11 7 10.7059 7 10.3435V10.325C7 9.62881 7.2634 9.26113 7.73224 8.76885C8.20108 8.27656 8.83696 8 9.5 8C10.163 8 10.7989 8.27656 11.2678 8.76885C11.7366 9.26113 12 9.62881 12 10.325V10.3435Z"/>
<path d="M9.5 8C9.79667 8 10.0867 7.91203 10.3334 7.7472C10.58 7.58238 10.7723 7.34811 10.8858 7.07403C10.9994 6.79994 11.0291 6.49834 10.9712 6.20736C10.9133 5.91639 10.7704 5.64912 10.5607 5.43934C10.3509 5.22956 10.0836 5.0867 9.79263 5.02882C9.50166 4.97094 9.20006 5.00065 8.92597 5.11418C8.65189 5.22771 8.41762 5.41997 8.2528 5.66665C8.08797 5.91332 8 6.20333 8 6.5C8 6.89782 8.15804 7.27936 8.43934 7.56066C8.72064 7.84196 9.10217 8 9.5 8Z"/>
<path fill-rule="evenodd" clip-rule="evenodd" d="M12.5 7.75C12.5 7.33579 12.8358 7 13.25 7H16.25C16.6642 7 17 7.33579 17 7.75C17 8.16421 16.6642 8.5 16.25 8.5H13.25C12.8358 8.5 12.5 8.16421 12.5 7.75Z"/>
<path fill-rule="evenodd" clip-rule="evenodd" d="M7 13.25C7 12.8358 7.33579 12.5 7.75 12.5H16.25C16.6642 12.5 17 12.8358 17 13.25C17 13.6642 16.6642 14 16.25 14H7.75C7.33579 14 7 13.6642 7 13.25Z"/>
<path fill-rule="evenodd" clip-rule="evenodd" d="M7 16.75C7 16.3358 7.33579 16 7.75 16H16.25C16.6642 16 17 16.3358 17 16.75C17 17.1642 16.6642 17.5 16.25 17.5H7.75C7.33579 17.5 7 17.1642 7 16.75Z"/>
</svg>
