<svg width="18" height="18" viewBox="0 0 18 18" fill="#6F767D" xmlns="http://www.w3.org/2000/svg">
<path fill-rule="evenodd" clip-rule="evenodd" d="M3.95502 14.0085C2.59915 12.6324 2.59915 10.4014 3.95502 9.02534L5.35789 7.60159C6.71376 6.22553 8.91206 6.22553 10.2679 7.60159C10.5585 7.89645 10.5585 8.37453 10.2679 8.6694C9.97738 8.96427 9.50632 8.96427 9.21578 8.6694C8.44099 7.88308 7.18482 7.88308 6.41004 8.6694L5.00717 10.0932C4.23239 10.8795 4.23239 12.1543 5.00717 12.9407C5.78195 13.727 7.03812 13.727 7.81291 12.9407L8.51434 12.2288C8.80489 11.9339 9.27595 11.9339 9.56649 12.2288C9.85704 12.5237 9.85704 13.0017 9.56649 13.2966L8.86506 14.0085C7.50919 15.3845 5.31089 15.3845 3.95502 14.0085Z" />
<path fill-rule="evenodd" clip-rule="evenodd" d="M14.045 3.99159C15.4009 5.36764 15.4009 7.59867 14.045 8.97472L12.6421 10.3985C11.2862 11.7745 9.08794 11.7745 7.73207 10.3985C7.44153 10.1036 7.44153 9.62553 7.73207 9.33066C8.02262 9.03579 8.49368 9.03579 8.78422 9.33066C9.55901 10.117 10.8152 10.117 11.59 9.33066L12.9928 7.90691C13.7676 7.12059 13.7676 5.84572 12.9928 5.0594C12.218 4.27308 10.9619 4.27308 10.1871 5.0594L9.48566 5.77128C9.19511 6.06615 8.72405 6.06615 8.43351 5.77128C8.14296 5.47641 8.14296 4.99833 8.43351 4.70346L9.13494 3.99159C10.4908 2.61553 12.6891 2.61553 14.045 3.99159Z" />
</svg>
