<svg width="18" height="18" viewBox="0 0 18 18" fill="#979CA2" xmlns="http://www.w3.org/2000/svg">
<path fill-rule="evenodd" clip-rule="evenodd" d="M16.5 9C16.5 13.1421 13.1421 16.5 9 16.5C4.85786 16.5 1.5 13.1421 1.5 9C1.5 4.85786 4.85786 1.5 9 1.5C13.1421 1.5 16.5 4.85786 16.5 9ZM9 15C12.3137 15 15 12.3137 15 9C15 5.68629 12.3137 3 9 3C5.68629 3 3 5.68629 3 9C3 12.3137 5.68629 15 9 15Z"/>
<path fill-rule="evenodd" clip-rule="evenodd" d="M8.25 5H9.75V8.59861L12.416 10.376L11.584 11.624L8.25 9.40139V5Z"/>
</svg>
