<svg width="12" height="12" viewBox="0 0 12 12" fill="#979CA2" xmlns="http://www.w3.org/2000/svg">
<path fill-rule="evenodd" clip-rule="evenodd" d="M8.7698 3.04597C7.96432 2.33358 6.75377 2.33358 5.94829 3.04597L2.25496 6.31242L1.75 5.74199L5.44332 2.47553C6.53712 1.50816 8.18097 1.50816 9.27476 2.47553C10.5751 3.62556 10.5751 5.65375 9.27476 6.80378L5.96111 9.73444C5.18387 10.4219 4.01577 10.4219 3.23852 9.73444C2.31453 8.91724 2.31453 7.47602 3.23852 6.65882L6.62439 3.66428C7.08509 3.25683 7.77747 3.25683 8.23817 3.66428C8.78585 4.14866 8.78585 5.00293 8.23817 5.48731L4.78009 8.5457L4.27513 7.97527L7.73321 4.91687C7.93814 4.73562 7.93814 4.41597 7.73321 4.23472C7.56082 4.08226 7.30174 4.08226 7.12935 4.23472L3.74348 7.22926C3.16223 7.74332 3.16223 8.64994 3.74348 9.16401C4.23241 9.59643 4.96722 9.59643 5.45615 9.164L8.7698 6.23334C9.72737 5.38645 9.72737 3.89286 8.7698 3.04597Z"/>
</svg>
