<svg width="12" height="12" viewBox="0 0 12 12" fill="none" xmlns="http://www.w3.org/2000/svg">
<circle cx="6" cy="6" r="4.5" stroke="black"/>
<circle cx="6" cy="8" r="0.75" fill="black"/>
<path d="M6 5.75C5.72386 5.75 5.5 5.97386 5.5 6.25C5.5 6.52614 5.72386 6.75 6 6.75V5.75ZM4.25 5C4.25 5.27614 4.47386 5.5 4.75 5.5C5.02614 5.5 5.25 5.27614 5.25 5H4.25ZM6.75 5C6.75 5.41421 6.41421 5.75 6 5.75V6.75C6.9665 6.75 7.75 5.9665 7.75 5H6.75ZM5.25 5C5.25 4.58579 5.58579 4.25 6 4.25V3.25C5.0335 3.25 4.25 4.0335 4.25 5H5.25ZM6 4.25C6.41421 4.25 6.75 4.58579 6.75 5H7.75C7.75 4.0335 6.9665 3.25 6 3.25V4.25Z" fill="black"/>
</svg>
