<svg width="16" height="16" viewBox="0 0 16 16" fill="black" xmlns="http://www.w3.org/2000/svg">
<path fill-rule="evenodd" clip-rule="evenodd" d="M13 3.28077L8.88057 4.31063C8.37749 4.4364 7.86089 4.49999 7.34233 4.49999H5.5C4.11929 4.49999 3 5.61928 3 6.99999C3 8.38071 4.11929 9.49999 5.5 9.49999H7.34233C7.86089 9.49999 8.37749 9.56359 8.88057 9.68936L13 10.7192V3.28077ZM5.5 3.49999C3.567 3.49999 2 5.067 2 6.99999C2 8.93299 3.567 10.5 5.5 10.5H7.34233C7.77913 10.5 8.21428 10.5536 8.63803 10.6595L13.3787 11.8447C13.6943 11.9236 14 11.6849 14 11.3596V2.64038C14 2.3151 13.6943 2.07642 13.3787 2.15531L8.63803 3.34049C8.21428 3.44643 7.77913 3.49999 7.34233 3.49999H5.5Z"/>
<path fill-rule="evenodd" clip-rule="evenodd" d="M8.00001 3.49765C8.27615 3.49765 8.50001 3.72151 8.50001 3.99765V13.0006C8.50001 13.5568 8.04838 13.9977 7.50001 13.9977H6.82962C6.42968 13.9977 6.0682 13.7594 5.91057 13.3918L4.54048 10.1971C4.43164 9.94332 4.54915 9.64935 4.80293 9.54051C5.05672 9.43167 5.35069 9.54917 5.45953 9.80296L6.82962 12.9977H7.50001V3.99765C7.50001 3.72151 7.72386 3.49765 8.00001 3.49765Z"/>
</svg>
