<svg width="24" height="24" viewBox="0 0 24 24" fill="#00C854" xmlns="http://www.w3.org/2000/svg">
<path fill-rule="evenodd" clip-rule="evenodd" d="M3 12C3 11.4477 3.44772 11 4 11H18C18.5523 11 19 11.4477 19 12C19 12.5523 18.5523 13 18 13H4C3.44772 13 3 12.5523 3 12Z" />
<path fill-rule="evenodd" clip-rule="evenodd" d="M15.3415 7.24744C15.7571 6.88375 16.3889 6.92587 16.7526 7.34151L20.2526 11.3415C20.5825 11.7185 20.5825 12.2815 20.2526 12.6585L16.7526 16.6585C16.3889 17.0742 15.7571 17.1163 15.3415 16.7526C14.9259 16.3889 14.8838 15.7571 15.2474 15.3415L18.1712 12L15.2474 8.65852C14.8838 8.24288 14.9259 7.61112 15.3415 7.24744Z"/>
</svg>
