<svg width="18" height="18" viewBox="0 0 18 18" fill="#00C854" xmlns="http://www.w3.org/2000/svg">
<path fill-rule="evenodd" clip-rule="evenodd" d="M12.9688 2.69964C12.6367 2.48114 12.2155 2.43917 11.8454 2.5877C11.3646 2.78067 10.8966 2.99768 10.4596 3.20322L10.278 3.28877C9.90118 3.46638 9.54988 3.63196 9.20076 3.78188C8.91758 3.90348 8.72541 4.00653 8.57102 4.08932C8.27892 4.24596 8.12207 4.33007 7.74 4.33007H4.73289C2.94683 4.33007 1.5 5.74963 1.5 7.5C1.5 9.25037 2.94683 10.6699 4.73289 10.6699H7.74C8.12207 10.6699 8.27892 10.754 8.57102 10.9107C8.7254 10.9935 8.91758 11.0965 9.20076 11.2181C9.54989 11.368 9.90118 11.5336 10.278 11.7112L10.4596 11.7968C10.8966 12.0023 11.3646 12.2193 11.8454 12.4123C12.2155 12.5608 12.6367 12.5189 12.9688 12.3004C13.3008 12.0819 13.5 11.7156 13.5 11.3235V3.67647C13.5 3.28442 13.3008 2.91813 12.9688 2.69964ZM12 4.14887C11.6992 4.27943 11.3991 4.41897 11.0981 4.56057L10.9052 4.65144C10.5371 4.82492 10.1659 4.99991 9.79262 5.16018C9.55869 5.26063 9.46274 5.31304 9.3461 5.37676C9.26916 5.41879 9.18322 5.46573 9.04274 5.53462C8.88773 5.61064 8.69149 5.69477 8.44727 5.75299C8.20588 5.81053 7.97154 5.83007 7.74 5.83007H4.73289C3.74759 5.83007 3 6.60545 3 7.5C3 8.39455 3.74759 9.16993 4.73289 9.16993H7.74C7.97154 9.16993 8.20588 9.18947 8.44727 9.24701C8.69149 9.30523 8.88773 9.38936 9.04274 9.46538C9.18322 9.53427 9.26916 9.58121 9.3461 9.62324C9.46274 9.68696 9.55869 9.73937 9.79262 9.83982C10.1659 10.0001 10.5372 10.1751 10.9053 10.3486L10.9175 10.3544L11.0981 10.4394C11.3991 10.581 11.6992 10.7206 12 10.8511V4.14887Z"/>
<path fill-rule="evenodd" clip-rule="evenodd" d="M7 4.75C7.41421 4.75 7.75 5.08579 7.75 5.5V11.2849L10.136 15.1025C10.3555 15.4538 10.2488 15.9165 9.8975 16.136C9.54625 16.3555 9.08353 16.2488 8.864 15.8975L6.25 11.7151V5.5C6.25 5.08579 6.58579 4.75 7 4.75Z"/>
<path fill-rule="evenodd" clip-rule="evenodd" d="M14.75 7.5C14.75 6.80964 14.1904 6.25 13.5 6.25V4.75C15.0188 4.75 16.25 5.98122 16.25 7.5C16.25 9.01878 15.0188 10.25 13.5 10.25V8.75C14.1904 8.75 14.75 8.19036 14.75 7.5Z"/>
</svg>
