<svg width="30" height="30" viewBox="0 0 30 30" fill="#1E90FF" xmlns="http://www.w3.org/2000/svg">
    <path d="M25 15C25 20.5228 20.5228 25 15 25C9.47715 25 5 20.5228 5 15C5 9.47715 9.47715 5 15 5C16.8385 5 18.5611 5.49613 20.0412 6.3618L21.2558 4.82754C21.2683 4.81182 21.2808 4.79624 21.2935 4.78079C19.4638 3.65157 17.308 3 15 3C8.37258 3 3 8.37258 3 15C3 21.6274 8.37258 27 15 27C21.6274 27 27 21.6274 27 15C27 13.2711 26.6344 11.6275 25.9762 10.1425L24.5318 11.967C24.8359 12.9236 25 13.9427 25 15Z"/>
    <path fill-rule="evenodd" clip-rule="evenodd" d="M24.9311 5.82393C25.5806 6.33814 25.6903 7.28153 25.1761 7.93105L15.6761 19.9311C15.4009 20.2787 14.986 20.4868 14.5428 20.4994C14.0996 20.512 13.6735 20.3279 13.3789 19.9965L9.3789 15.4965C8.82853 14.8774 8.8843 13.9293 9.50347 13.3789C10.1226 12.8285 11.0708 12.8843 11.6211 13.5035L14.4335 16.6674L22.8239 6.06894C23.3382 5.41942 24.2815 5.30972 24.9311 5.82393Z"/>
</svg>
