<svg width="12" height="12" viewBox="0 0 12 12" fill="black" xmlns="http://www.w3.org/2000/svg">
<path fill-rule="evenodd" clip-rule="evenodd" d="M2.64645 2.64645C2.84171 2.45118 3.15829 2.45118 3.35355 2.64645L9.35355 8.64645C9.54882 8.84171 9.54882 9.15829 9.35355 9.35355C9.15829 9.54882 8.84171 9.54882 8.64645 9.35355L2.64645 3.35355C2.45118 3.15829 2.45118 2.84171 2.64645 2.64645Z"/>
<path fill-rule="evenodd" clip-rule="evenodd" d="M2.64645 9.35355C2.45118 9.15829 2.45118 8.84171 2.64645 8.64645L8.64645 2.64645C8.84171 2.45118 9.15829 2.45118 9.35355 2.64645C9.54882 2.84171 9.54882 3.15829 9.35355 3.35355L3.35355 9.35355C3.15829 9.54882 2.84171 9.54882 2.64645 9.35355Z"/>
</svg>
