<svg width="16" height="16" viewBox="0 0 16 16" fill="black" xmlns="http://www.w3.org/2000/svg">
<path fill-rule="evenodd" clip-rule="evenodd" d="M8 3.5C5.51472 3.5 3.5 5.51472 3.5 8C3.5 10.4853 5.51472 12.5 8 12.5C10.4853 12.5 12.5 10.4853 12.5 8C12.5 7.72386 12.7239 7.5 13 7.5C13.2761 7.5 13.5 7.72386 13.5 8C13.5 11.0376 11.0376 13.5 8 13.5C4.96243 13.5 2.5 11.0376 2.5 8C2.5 4.96243 4.96243 2.5 8 2.5C9.47759 2.5 10.82 3.08333 11.8077 4.03122C12.007 4.22242 12.0135 4.53894 11.8223 4.73818C11.6311 4.93742 11.3146 4.94394 11.1153 4.75274C10.3063 3.97637 9.20932 3.5 8 3.5Z"/>
<path fill-rule="evenodd" clip-rule="evenodd" d="M12 2.5C12.2761 2.5 12.5 2.72386 12.5 3V5C12.5 5.27614 12.2761 5.5 12 5.5H10C9.72386 5.5 9.5 5.27614 9.5 5C9.5 4.72386 9.72386 4.5 10 4.5H11.5V3C11.5 2.72386 11.7239 2.5 12 2.5Z"/>
</svg>
