<svg width="12" height="12" viewBox="0 0 12 12" fill="black" xmlns="http://www.w3.org/2000/svg">
<mask id="path-1-inside-1_22_39" fill="white">
<path d="M1.5 5.25C1.5 3.73122 2.73122 2.5 4.25 2.5H5.55489C5.85074 2.5 6.14571 2.46762 6.43451 2.40344L9.89153 1.63521C10.2038 1.56582 10.5 1.80343 10.5 2.12331V8.37669C10.5 8.69657 10.2038 8.93418 9.89153 8.86479L6.43451 8.09656C6.14571 8.03238 5.85074 8 5.55489 8H4.25C2.73122 8 1.5 6.76878 1.5 5.25Z"/>
</mask>
<path d="M6.43451 8.09656L6.21758 9.07275L6.43451 8.09656ZM6.43451 2.40344L6.21758 1.42725L6.43451 2.40344ZM9.89153 8.86479L10.1085 7.8886L9.89153 8.86479ZM9.5 2.12331V8.37669H11.5V2.12331H9.5ZM4.25 3.5H5.55489V1.5H4.25V3.5ZM6.65144 3.37963L10.1085 2.6114L9.6746 0.659027L6.21758 1.42725L6.65144 3.37963ZM10.1085 7.8886L6.65144 7.12037L6.21758 9.07275L9.6746 9.84097L10.1085 7.8886ZM5.55489 7H4.25V9H5.55489V7ZM6.65144 7.12037C6.29141 7.04036 5.9237 7 5.55489 7V9C5.77778 9 6 9.02439 6.21758 9.07275L6.65144 7.12037ZM5.55489 3.5C5.9237 3.5 6.29141 3.45964 6.65144 3.37963L6.21758 1.42725C6 1.47561 5.77778 1.5 5.55489 1.5V3.5ZM0.5 5.25C0.5 7.32107 2.17893 9 4.25 9V7C3.2835 7 2.5 6.2165 2.5 5.25H0.5ZM9.5 8.37669C9.5 8.05682 9.79621 7.81921 10.1085 7.8886L9.6746 9.84097C10.6114 10.0491 11.5 9.33631 11.5 8.37669H9.5ZM11.5 2.12331C11.5 1.16369 10.6114 0.450856 9.6746 0.659027L10.1085 2.6114C9.79621 2.68079 9.5 2.44318 9.5 2.12331H11.5ZM2.5 5.25C2.5 4.2835 3.2835 3.5 4.25 3.5V1.5C2.17893 1.5 0.5 3.17893 0.5 5.25H2.5Z" mask="url(#path-1-inside-1_22_39)"/>
<path d="M6.5 2.9982C6.5 2.72206 6.27614 2.4982 6 2.4982C5.72386 2.4982 5.5 2.72206 5.5 2.9982H6.5ZM4.93714 9.84282L4.4729 10.0285L4.4729 10.0285L4.93714 9.84282ZM4.46424 7.31427C4.36168 7.05788 4.0707 6.93317 3.8143 7.03573C3.55791 7.13829 3.4332 7.42927 3.53576 7.68566L4.46424 7.31427ZM5.5 2.9982V9.75222H6.5V2.9982H5.5ZM5.75 9.49997H5.16926V10.5H5.75V9.49997ZM5.40138 9.65712L4.46424 7.31427L3.53576 7.68566L4.4729 10.0285L5.40138 9.65712ZM5.16926 9.49997C5.27148 9.49997 5.36341 9.56221 5.40138 9.65712L4.4729 10.0285C4.5868 10.3133 4.86258 10.5 5.16926 10.5V9.49997ZM5.5 9.75222C5.5 9.60827 5.61785 9.49997 5.75 9.49997V10.5C6.15829 10.5 6.5 10.1723 6.5 9.75222H5.5Z"/>
</svg>
