<svg width="18" height="18" viewBox="0 0 18 18" fill="#6F767D" xmlns="http://www.w3.org/2000/svg">
    <path fill-rule="evenodd" clip-rule="evenodd" d="M7.85462 5.75C7.94837 5.51839 8 5.26523 8 5C8 4.73477 7.94837 4.48161 7.85462 4.25H15C15.4142 4.25 15.75 4.58579 15.75 5C15.75 5.41421 15.4142 5.75 15 5.75H7.85462ZM4.14538 5.75H3C2.58579 5.75 2.25 5.41421 2.25 5C2.25 4.58579 2.58579 4.25 3 4.25H4.14538C4.05163 4.48161 4 4.73477 4 5C4 5.26523 4.05163 5.51839 4.14538 5.75Z"/>
    <path fill-rule="evenodd" clip-rule="evenodd" d="M6 6C6.55228 6 7 5.55228 7 5C7 4.44772 6.55228 4 6 4C5.44772 4 5 4.44772 5 5C5 5.55228 5.44772 6 6 6ZM6 7C7.10457 7 8 6.10457 8 5C8 3.89543 7.10457 3 6 3C4.89543 3 4 3.89543 4 5C4 6.10457 4.89543 7 6 7Z"/>
    <path fill-rule="evenodd" clip-rule="evenodd" d="M12.8546 9.75C12.9484 9.51839 13 9.26523 13 9C13 8.73477 12.9484 8.48161 12.8546 8.25H15C15.4142 8.25 15.75 8.58579 15.75 9C15.75 9.41421 15.4142 9.75 15 9.75H12.8546ZM9.14538 9.75H3C2.58579 9.75 2.25 9.41421 2.25 9C2.25 8.58579 2.58579 8.25 3 8.25H9.14538C9.05163 8.48161 9 8.73477 9 9C9 9.26523 9.05163 9.51839 9.14538 9.75Z"/>
    <path fill-rule="evenodd" clip-rule="evenodd" d="M11 10C11.5523 10 12 9.55228 12 9C12 8.44772 11.5523 8 11 8C10.4477 8 10 8.44772 10 9C10 9.55228 10.4477 10 11 10ZM11 11C12.1046 11 13 10.1046 13 9C13 7.89543 12.1046 7 11 7C9.89543 7 9 7.89543 9 9C9 10.1046 9.89543 11 11 11Z"/>
    <path fill-rule="evenodd" clip-rule="evenodd" d="M9.85462 13.75C9.94837 13.5184 10 13.2652 10 13C10 12.7348 9.94837 12.4816 9.85462 12.25H15C15.4142 12.25 15.75 12.5858 15.75 13C15.75 13.4142 15.4142 13.75 15 13.75H9.85462ZM6.14538 13.75H3C2.58579 13.75 2.25 13.4142 2.25 13C2.25 12.5858 2.58579 12.25 3 12.25H6.14538C6.05163 12.4816 6 12.7348 6 13C6 13.2652 6.05163 13.5184 6.14538 13.75Z"/>
    <path fill-rule="evenodd" clip-rule="evenodd" d="M8 14C8.55228 14 9 13.5523 9 13C9 12.4477 8.55228 12 8 12C7.44772 12 7 12.4477 7 13C7 13.5523 7.44772 14 8 14ZM8 15C9.10457 15 10 14.1046 10 13C10 11.8954 9.10457 11 8 11C6.89543 11 6 11.8954 6 13C6 14.1046 6.89543 15 8 15Z"/>
</svg>
