<svg width="140" height="24" viewBox="0 0 140 24" fill="none" xmlns="http://www.w3.org/2000/svg">
<g clip-path="url(#clip0)">
<path d="M52.8219 16.629C51.9038 16.629 51.0064 16.3563 50.2431 15.8453C49.4797 15.3344 48.8848 14.6082 48.5335 13.7585C48.1822 12.9088 48.0903 11.9738 48.2694 11.0718C48.4485 10.1698 48.8905 9.34127 49.5397 8.69096C50.1888 8.04064 51.0159 7.59777 51.9163 7.41835C52.8167 7.23893 53.75 7.33102 54.5982 7.68297C55.4463 8.03491 56.1713 8.63091 56.6813 9.3956C57.1913 10.1603 57.4636 11.0593 57.4636 11.979C57.4622 13.2118 56.9727 14.3938 56.1025 15.2655C55.2323 16.1373 54.0525 16.6276 52.8219 16.629ZM52.8219 4.94775C51.4369 4.94761 50.083 5.35889 48.9314 6.12959C47.7798 6.90029 46.8822 7.99579 46.3521 9.27756C45.822 10.5593 45.6832 11.9698 45.9533 13.3306C46.2234 14.6913 46.8903 15.9413 47.8695 16.9224C48.8488 17.9035 50.0965 18.5717 51.4548 18.8424C52.8131 19.1131 54.2211 18.9743 55.5006 18.4434C56.7801 17.9124 57.8738 17.0134 58.6432 15.8598C59.4127 14.7062 59.8234 13.3499 59.8234 11.9625C59.8212 10.1034 59.0833 8.321 57.7714 7.00606C56.4595 5.69112 54.6807 4.95093 52.8249 4.94775" fill="#00C854"/>
<path d="M133.001 16.629C132.083 16.629 131.186 16.3563 130.423 15.8453C129.659 15.3344 129.064 14.6082 128.713 13.7585C128.362 12.9088 128.27 11.9738 128.449 11.0718C128.628 10.1698 129.07 9.34127 129.719 8.69096C130.368 8.04065 131.195 7.59778 132.096 7.41835C132.996 7.23893 133.93 7.33102 134.778 7.68297C135.626 8.03491 136.351 8.63092 136.861 9.3956C137.371 10.1603 137.643 11.0593 137.643 11.979C137.642 13.2118 137.152 14.3938 136.282 15.2655C135.412 16.1373 134.232 16.6276 133.001 16.629ZM133.001 4.94775C131.616 4.94701 130.262 5.35779 129.11 6.12813C127.958 6.89847 127.06 7.99377 126.53 9.27548C125.999 10.5572 125.86 11.9677 126.13 13.3287C126.399 14.6897 127.066 15.9399 128.045 16.9214C129.024 17.9028 130.272 18.5712 131.63 18.8422C132.989 19.1132 134.397 18.9745 135.676 18.4436C136.956 17.9128 138.05 17.0137 138.82 15.8601C139.589 14.7064 140 13.3501 140 11.9625C139.998 10.1034 139.26 8.321 137.948 7.00606C136.636 5.69112 134.857 4.95093 133.001 4.94775Z" fill="#00C854"/>
<path d="M105.49 4.94775C101.625 4.94775 98.8047 8.10375 98.8047 11.9625V17.4818C98.8007 17.6393 98.8283 17.7961 98.8858 17.9429C98.9432 18.0896 99.0294 18.2233 99.1393 18.3362C99.2491 18.449 99.3804 18.5387 99.5254 18.6C99.6704 18.6612 99.8261 18.6928 99.9835 18.6928C100.141 18.6928 100.297 18.6612 100.442 18.6C100.587 18.5387 100.718 18.449 100.828 18.3362C100.938 18.2233 101.024 18.0896 101.081 17.9429C101.139 17.7961 101.166 17.6393 101.162 17.4818V11.9625C101.162 9.39 102.923 7.3125 105.49 7.3125C108.056 7.3125 109.817 9.4065 109.817 11.9625V17.4818C109.813 17.6393 109.84 17.7961 109.898 17.9429C109.955 18.0896 110.041 18.2233 110.151 18.3362C110.261 18.449 110.392 18.5387 110.537 18.6C110.682 18.6612 110.838 18.6928 110.996 18.6928C111.153 18.6928 111.309 18.6612 111.454 18.6C111.599 18.5387 111.73 18.449 111.84 18.3362C111.95 18.2233 112.036 18.0896 112.093 17.9429C112.151 17.7961 112.178 17.6393 112.174 17.4818V11.9625C112.211 11.0583 112.065 10.156 111.746 9.30935C111.427 8.46272 110.941 7.68908 110.317 7.03452C109.694 6.37996 108.945 5.85787 108.115 5.49936C107.286 5.14086 106.393 4.95326 105.49 4.94775Z" fill="#00C854"/>
<path d="M74.2373 4.94775C73.5461 4.94982 72.8632 5.10046 72.235 5.3895C71.6068 5.67855 71.0479 6.09927 70.5958 6.62325C69.9542 5.87698 69.0997 5.34547 68.1474 5.10024C67.1952 4.85501 66.1908 4.90781 65.2694 5.25154C64.348 5.59528 63.5538 6.21345 62.9936 7.02291C62.4334 7.83237 62.1341 8.79428 62.136 9.77925V17.4968C62.132 17.6543 62.1595 17.8111 62.217 17.9579C62.2745 18.1046 62.3606 18.2383 62.4705 18.3512C62.5803 18.4641 62.7117 18.5537 62.8566 18.615C63.0016 18.6762 63.1574 18.7078 63.3147 18.7078C63.4721 18.7078 63.6278 18.6762 63.7728 18.615C63.9178 18.5537 64.0491 18.4641 64.1589 18.3512C64.2688 18.2383 64.355 18.1046 64.4125 17.9579C64.4699 17.8111 64.4975 17.6543 64.4935 17.4968V9.7785C64.4878 9.451 64.5473 9.12563 64.6684 8.82139C64.7896 8.51715 64.97 8.24014 65.1992 8.00651C65.4284 7.77288 65.7017 7.58732 66.0033 7.46065C66.3048 7.33398 66.6285 7.26874 66.9555 7.26874C67.2825 7.26874 67.6062 7.33398 67.9077 7.46065C68.2092 7.58732 68.4826 7.77288 68.7117 8.00651C68.9409 8.24014 69.1214 8.51715 69.2425 8.82139C69.3637 9.12563 69.4231 9.451 69.4174 9.7785V17.496C69.4135 17.6536 69.4411 17.8104 69.4985 17.9571C69.556 18.1038 69.6421 18.2376 69.752 18.3504C69.8618 18.4633 69.9931 18.553 70.1381 18.6142C70.2831 18.6755 70.4389 18.707 70.5962 18.707C70.7536 18.707 70.9093 18.6755 71.0543 18.6142C71.1993 18.553 71.3306 18.4633 71.4404 18.3504C71.5503 18.2376 71.6365 18.1038 71.6939 17.9571C71.7514 17.8104 71.779 17.6536 71.775 17.496V9.7785C71.7693 9.451 71.8287 9.12563 71.9499 8.82139C72.0711 8.51715 72.2515 8.24014 72.4807 8.00651C72.7099 7.77288 72.9832 7.58732 73.2848 7.46065C73.5863 7.33398 73.91 7.26874 74.237 7.26874C74.5639 7.26874 74.8876 7.33398 75.1892 7.46065C75.4907 7.58732 75.764 7.77288 75.9932 8.00651C76.2224 8.24014 76.4028 8.51715 76.524 8.82139C76.6452 9.12563 76.7046 9.451 76.6989 9.7785V17.496C76.695 17.6536 76.7225 17.8104 76.78 17.9571C76.8374 18.1038 76.9237 18.2376 77.0335 18.3504C77.1434 18.4633 77.2746 18.553 77.4196 18.6142C77.5646 18.6755 77.7204 18.707 77.8777 18.707C78.0351 18.707 78.1908 18.6755 78.3358 18.6142C78.4808 18.553 78.6121 18.4633 78.7219 18.3504C78.8318 18.2376 78.918 18.1038 78.9754 17.9571C79.0329 17.8104 79.0604 17.6536 79.0565 17.496V9.7785C79.0547 8.49825 78.5464 7.2709 77.6429 6.36541C76.7395 5.45992 75.5146 4.95013 74.2366 4.94775" fill="#00C854"/>
<path d="M124.317 4.94775H114.125C113.812 4.94775 113.512 5.07225 113.291 5.29385C113.069 5.51544 112.945 5.81599 112.945 6.12938C112.945 6.44277 113.069 6.74332 113.291 6.96491C113.512 7.18651 113.812 7.311 114.125 7.311H118.037V17.4818C118.033 17.6393 118.061 17.7961 118.118 17.9429C118.176 18.0896 118.262 18.2233 118.372 18.3362C118.482 18.449 118.613 18.5387 118.758 18.6C118.903 18.6612 119.059 18.6928 119.216 18.6928C119.373 18.6928 119.529 18.6612 119.674 18.6C119.819 18.5387 119.95 18.449 120.06 18.3362C120.17 18.2233 120.256 18.0896 120.314 17.9429C120.371 17.7961 120.399 17.6393 120.395 17.4818V7.311H124.304C124.459 7.3119 124.613 7.28196 124.757 7.22291C124.9 7.16386 125.03 7.07689 125.14 6.96702C125.25 6.85715 125.336 6.72658 125.395 6.58286C125.454 6.43914 125.484 6.28513 125.483 6.12975C125.487 5.97485 125.46 5.82076 125.403 5.67669C125.346 5.53263 125.261 5.40155 125.152 5.29128C125.043 5.18101 124.913 5.09383 124.77 5.03493C124.627 4.97604 124.474 4.94664 124.319 4.94851" fill="#00C854"/>
<path d="M37.0752 4.78357C35.6548 4.78283 34.266 5.20412 33.0845 5.99415C31.9031 6.78419 30.9821 7.90748 30.438 9.22195C29.8939 10.5364 29.7512 11.983 30.0278 13.3787C30.3045 14.7745 30.9881 16.0567 31.9923 17.0632C32.9964 18.0696 34.276 18.7552 35.6691 19.0331C37.0622 19.3109 38.5063 19.1687 39.8187 18.6243C41.1311 18.0799 42.2529 17.1579 43.0421 15.9747C43.8314 14.7916 44.2526 13.4006 44.2526 11.9776C44.2526 11.6564 44.1253 11.3484 43.8986 11.1214C43.6719 10.8943 43.3645 10.7667 43.0439 10.7667C42.7233 10.7667 42.4159 10.8943 42.1892 11.1214C41.9626 11.3484 41.8352 11.6564 41.8352 11.9776C41.8348 12.9206 41.5552 13.8423 41.0319 14.6262C40.5086 15.4101 39.765 16.0209 38.8952 16.3815C38.0254 16.7421 37.0684 16.8362 36.1452 16.6519C35.222 16.4677 34.3741 16.0133 33.7086 15.3464C33.0431 14.6794 32.59 13.8297 32.4065 12.9048C32.223 11.9798 32.3174 11.0212 32.6778 10.15C33.0381 9.27878 33.6482 8.53417 34.4309 8.0103C35.2137 7.48643 36.1339 7.20682 37.0752 7.20682C37.9067 7.20937 38.7236 7.42578 39.4477 7.83532C39.631 7.93828 39.8366 7.99467 40.0467 7.99957C40.3137 7.99777 40.5727 7.90796 40.7837 7.744C40.9946 7.58005 41.1459 7.35107 41.214 7.09243C41.2822 6.83379 41.2634 6.55987 41.1607 6.31296C41.058 6.06605 40.8769 5.8599 40.6456 5.72632C39.5569 5.10789 38.3267 4.78305 37.0752 4.78357Z" fill="#00C854"/>
<path d="M88.9232 4.73854C87.4959 4.74225 86.1018 5.1697 84.917 5.96689C83.7323 6.76408 82.8099 7.89522 82.2667 9.21737C81.7234 10.5395 81.5836 11.9933 81.8648 13.3951C82.1461 14.7968 82.8358 16.0836 83.8468 17.0927C84.8578 18.1019 86.1448 18.7882 87.545 19.0648C88.9453 19.3415 90.396 19.1961 91.7138 18.6471C93.0316 18.0981 94.1574 17.17 94.9488 15.9802C95.7403 14.7904 96.1619 13.3923 96.1605 11.9625C96.1591 11.6379 96.0298 11.3269 95.8007 11.0972C95.5716 10.8676 95.2612 10.7379 94.9371 10.7363C94.7774 10.7373 94.6194 10.7698 94.4721 10.8319C94.3249 10.8941 94.1913 10.9847 94.0791 11.0985C93.9668 11.2124 93.878 11.3473 93.8178 11.4956C93.7576 11.6438 93.7271 11.8025 93.728 11.9625C93.7252 13.0236 93.3707 14.0536 92.7202 14.8909C92.0696 15.7281 91.1598 16.3252 90.1337 16.5883C89.1077 16.8514 88.0234 16.7656 87.0513 16.3444C86.0792 15.9232 85.2743 15.1905 84.763 14.2613C84.2517 13.3321 84.0629 12.2591 84.2264 11.2108C84.3899 10.1625 84.8964 9.19824 85.6662 8.46955C86.4361 7.74087 87.4257 7.28901 88.4798 7.18493C89.5338 7.08085 90.5925 7.33045 91.4895 7.89454L88.1767 11.2148C88.0749 11.3121 87.9936 11.4288 87.9374 11.558C87.8813 11.6873 87.8515 11.8264 87.8498 11.9674C87.8482 12.1083 87.8746 12.2482 87.9277 12.3787C87.9807 12.5092 88.0593 12.6278 88.1588 12.7275C88.2582 12.8272 88.3766 12.906 88.5069 12.9592C88.6372 13.0124 88.7767 13.039 88.9174 13.0374C89.0581 13.0358 89.197 13.006 89.3261 12.9498C89.4551 12.8937 89.5716 12.8122 89.6688 12.7103C89.6688 12.7103 93.3694 9.03079 93.5035 8.86654C93.6927 8.70026 93.8419 8.49321 93.9399 8.26091C94.0379 8.02862 94.082 7.77712 94.0692 7.52528C94.0563 7.27343 93.9866 7.02778 93.8654 6.80675C93.7443 6.58572 93.5747 6.39505 93.3694 6.24904C92.0949 5.26669 90.5312 4.73546 88.9232 4.73854Z" fill="#00C854"/>
<path d="M12.7579 6.40567H8.80419C7.23183 6.41076 5.68966 6.83869 4.33876 7.64474C2.98785 8.4508 1.87775 9.60543 1.12439 10.988C0.371032 12.3707 0.00204372 13.9305 0.0559623 15.5048C0.109881 17.0791 0.584728 18.6099 1.43091 19.9376C2.2771 21.2652 3.46359 22.3409 4.86647 23.0523C6.26935 23.7637 7.83716 24.0847 9.40618 23.9818C10.9752 23.879 12.4879 23.3559 13.7862 22.4674C15.0846 21.5789 16.121 20.3575 16.7872 18.9307C16.2403 19.0264 15.6863 19.0766 15.1311 19.0807H11.1767C10.1518 19.0807 9.16878 18.6728 8.44402 17.9467C7.71927 17.2207 7.31211 16.236 7.31211 15.2092C7.31211 14.1824 7.71927 13.1977 8.44402 12.4716C9.16878 11.7456 10.1518 11.3377 11.1767 11.3377H12.7586C13.0856 11.3434 13.4103 11.2838 13.714 11.1624C14.0177 11.041 14.2943 10.8603 14.5275 10.6307C14.7607 10.4011 14.9459 10.1273 15.0724 9.8252C15.1988 9.52313 15.2639 9.19885 15.2639 8.87129C15.2639 8.54373 15.1988 8.21946 15.0724 7.91738C14.9459 7.61531 14.7607 7.34149 14.5275 7.11189C14.2943 6.8823 14.0177 6.70154 13.714 6.58016C13.4103 6.45878 13.0856 6.3992 12.7586 6.40492" fill="#00C854"/>
<path d="M15.1304 0C13.4486 0.00441698 11.8033 0.490947 10.3887 1.40211C8.97408 2.31328 7.84937 3.61101 7.1474 5.142C7.57718 5.0798 8.01151 5.05471 8.44558 5.067H12.7429C13.2451 5.05993 13.7437 5.15291 14.2097 5.34055C14.6758 5.52819 15.0999 5.80674 15.4576 6.16001C15.8152 6.51329 16.0992 6.93424 16.293 7.39841C16.4868 7.86259 16.5867 8.36072 16.5867 8.86388C16.5867 9.36703 16.4868 9.86516 16.293 10.3293C16.0992 10.7935 15.8152 11.2145 15.4576 11.5677C15.0999 11.921 14.6758 12.1996 14.2097 12.3872C13.7437 12.5748 13.2451 12.6678 12.7429 12.6608H11.176C10.5146 12.6722 9.88426 12.9434 9.42061 13.4159C8.95697 13.8884 8.69716 14.5245 8.69716 15.1871C8.69716 15.8497 8.95697 16.4858 9.42061 16.9584C9.88426 17.4309 10.5146 17.7021 11.176 17.7135H15.1304C17.4752 17.7135 19.7239 16.7804 21.3819 15.1194C23.0399 13.4585 23.9714 11.2057 23.9714 8.85675C23.9714 6.50779 23.0399 4.25504 21.3819 2.59408C19.7239 0.933119 17.4752 3.50022e-08 15.1304 0" fill="#00C854"/>
</g>
<defs>
<clipPath id="clip0">
<rect width="140" height="24" fill="white"/>
</clipPath>
</defs>
</svg>
