<svg width="auto" height="auto" viewBox="0 0 355 61" fill="none" xmlns="http://www.w3.org/2000/svg">
    <g clip-path="url(#clip0)">
        <path d="M133.76 18.47C131.434 18.47 129.16 19.1597 127.227 20.4519C125.293 21.7441 123.785 23.5808 122.895 25.7297C122.005 27.8785 121.772 30.2431 122.226 32.5243C122.68 34.8055 123.8 36.9009 125.444 38.5456C127.089 40.1902 129.185 41.3103 131.466 41.764C133.747 42.2178 136.112 41.9849 138.26 41.0948C140.409 40.2047 142.246 38.6974 143.538 36.7635C144.83 34.8296 145.52 32.5559 145.52 30.23C145.517 27.1119 144.278 24.1222 142.073 21.9174C139.868 19.7125 136.878 18.4727 133.76 18.47ZM133.76 47.96C130.253 47.96 126.825 46.9202 123.91 44.972C120.994 43.0238 118.722 40.2547 117.38 37.015C116.038 33.7752 115.687 30.2103 116.371 26.7711C117.055 23.3318 118.743 20.1726 121.223 17.693C123.703 15.2134 126.862 13.5248 130.301 12.8407C133.74 12.1566 137.305 12.5077 140.545 13.8496C143.785 15.1916 146.554 17.4641 148.502 20.3797C150.45 23.2954 151.49 26.7233 151.49 30.23C151.493 32.561 151.036 34.8696 150.147 37.0242C149.257 39.1787 147.952 41.1369 146.305 42.787C144.659 44.4371 142.704 45.7468 140.551 46.6412C138.399 47.5357 136.091 47.9974 133.76 48" />
        <path d="M336.85 18.47C334.524 18.468 332.249 19.1561 330.314 20.4471C328.379 21.7381 326.87 23.574 325.978 25.7227C325.086 27.8714 324.852 30.2363 325.305 32.5181C325.757 34.8 326.877 36.8964 328.521 38.542C330.165 40.1877 332.261 41.3087 334.542 41.7633C336.824 42.2179 339.189 41.9856 341.338 41.0958C343.488 40.206 345.325 38.6987 346.617 36.7646C347.91 34.8304 348.6 32.5563 348.6 30.23C348.597 27.1136 347.359 24.1255 345.156 21.9209C342.954 19.7163 339.966 18.4753 336.85 18.47ZM336.85 47.96C333.343 47.96 329.915 46.9202 327 44.972C324.084 43.0238 321.812 40.2547 320.47 37.015C319.128 33.7752 318.777 30.2103 319.461 26.7711C320.145 23.3318 321.833 20.1726 324.313 17.693C326.793 15.2134 329.952 13.5248 333.391 12.8407C336.83 12.1566 340.395 12.5077 343.635 13.8496C346.875 15.1916 349.644 17.4641 351.592 20.3797C353.54 23.2954 354.58 26.7233 354.58 30.23C354.583 34.9368 352.717 39.4521 349.392 42.7841C346.068 46.116 341.557 47.9921 336.85 48" />
        <path d="M281.13 47.16C280.334 47.16 279.571 46.8439 279.009 46.2813C278.446 45.7187 278.13 44.9556 278.13 44.16V30.23C278.13 23.74 273.66 18.47 267.18 18.47C260.7 18.47 256.18 23.74 256.18 30.23V44.17C256.18 44.9656 255.864 45.7287 255.301 46.2913C254.739 46.8539 253.976 47.17 253.18 47.17C252.384 47.17 251.621 46.8539 251.059 46.2913C250.496 45.7287 250.18 44.9656 250.18 44.17V30.23C250.18 20.45 257.33 12.49 267.11 12.49C276.89 12.49 284.04 20.49 284.04 30.23V44.17C284.04 44.9656 283.724 45.7287 283.161 46.2913C282.599 46.8539 281.836 47.17 281.04 47.17" />
        <path d="M188 12.49C186.251 12.4919 184.523 12.8707 182.934 13.6007C181.344 14.3306 179.931 15.3946 178.79 16.72C177.163 14.8342 174.998 13.4919 172.585 12.8739C170.172 12.2558 167.628 12.3916 165.295 13.263C162.962 14.1344 160.951 15.6996 159.535 17.7479C158.118 19.7963 157.362 22.2294 157.37 24.72V44.17C157.37 44.9657 157.686 45.7287 158.249 46.2913C158.811 46.8539 159.574 47.17 160.37 47.17C161.166 47.17 161.929 46.8539 162.491 46.2913C163.054 45.7287 163.37 44.9657 163.37 44.17V24.7C163.336 23.8615 163.472 23.0249 163.77 22.2404C164.068 21.4558 164.521 20.7395 165.102 20.1343C165.684 19.5292 166.381 19.0477 167.153 18.7189C167.925 18.39 168.756 18.2205 169.595 18.2205C170.434 18.2205 171.265 18.39 172.037 18.7189C172.809 19.0477 173.506 19.5292 174.088 20.1343C174.669 20.7395 175.122 21.4558 175.42 22.2404C175.717 23.0249 175.854 23.8615 175.82 24.7V44.17C175.82 44.9657 176.136 45.7287 176.699 46.2913C177.261 46.8539 178.024 47.17 178.82 47.17C179.616 47.17 180.379 46.8539 180.941 46.2913C181.504 45.7287 181.82 44.9657 181.82 44.17V24.7C181.82 23.0477 182.476 21.4631 183.645 20.2947C184.813 19.1264 186.398 18.47 188.05 18.47C189.702 18.47 191.287 19.1264 192.455 20.2947C193.624 21.4631 194.28 23.0477 194.28 24.7V44.17C194.28 44.9657 194.596 45.7287 195.159 46.2913C195.721 46.8539 196.484 47.17 197.28 47.17C198.076 47.17 198.839 46.8539 199.401 46.2913C199.964 45.7287 200.28 44.9657 200.28 44.17V24.7C200.279 23.091 199.96 21.4982 199.341 20.0128C198.723 18.5274 197.817 17.1788 196.676 16.0444C195.535 14.9099 194.181 14.0119 192.692 13.402C191.204 12.792 189.609 12.4821 188 12.49Z" />
        <path d="M314.88 12.49H289.08C288.284 12.49 287.521 12.806 286.959 13.3687C286.396 13.9313 286.08 14.6943 286.08 15.49C286.08 16.2856 286.396 17.0487 286.959 17.6113C287.521 18.1739 288.284 18.49 289.08 18.49H299V44.19C299 44.9856 299.316 45.7487 299.879 46.3113C300.441 46.8739 301.204 47.19 302 47.19C302.796 47.19 303.559 46.8739 304.121 46.3113C304.684 45.7487 305 44.9856 305 44.19V18.47H314.91C315.706 18.47 316.469 18.1539 317.031 17.5913C317.594 17.0287 317.91 16.2656 317.91 15.47C317.91 14.6743 317.594 13.9113 317.031 13.3486C316.469 12.786 315.706 12.47 314.91 12.47" />
        <path d="M93.88 48.3801C91.0953 48.3812 88.3476 47.7419 85.8493 46.5116C83.3511 45.2813 81.1693 43.4929 79.4726 41.2848C77.7759 39.0766 76.6097 36.5078 76.0643 33.777C75.5188 31.0462 75.6087 28.2266 76.327 25.5361C77.0453 22.8456 78.3727 20.3563 80.2066 18.2607C82.0405 16.1651 84.3318 14.5193 86.9033 13.4506C89.4748 12.3819 92.2576 11.9189 95.0366 12.0974C97.8156 12.2759 100.516 13.0911 102.93 14.4801C103.295 14.671 103.619 14.9339 103.88 15.2528C104.141 15.5717 104.335 15.9402 104.451 16.336C104.566 16.7319 104.6 17.147 104.551 17.5564C104.502 17.9658 104.371 18.361 104.165 18.7184C103.959 19.0757 103.684 19.3879 103.354 19.636C103.025 19.8841 102.649 20.0631 102.249 20.1623C101.849 20.2615 101.432 20.2787 101.025 20.213C100.618 20.1473 100.229 20.0001 99.88 19.7801C97.5944 18.4605 94.9376 17.9312 92.3208 18.2742C89.7041 18.6171 87.2733 19.8131 85.405 21.6771C83.5366 23.541 82.3348 25.9689 81.9856 28.5848C81.6365 31.2007 82.1594 33.8588 83.4735 36.1475C84.7876 38.4363 86.8195 40.2279 89.2548 41.2452C91.69 42.2624 94.3926 42.4485 96.9443 41.7747C99.4959 41.1008 101.754 39.6045 103.37 37.5175C104.985 35.4305 105.867 32.8692 105.88 30.2301C105.88 29.4185 106.202 28.6402 106.776 28.0663C107.35 27.4925 108.128 27.1701 108.94 27.1701C109.752 27.1701 110.53 27.4925 111.104 28.0663C111.678 28.6402 112 29.4185 112 30.2301C111.995 35.0369 110.085 39.6458 106.689 43.0476C103.293 46.4494 98.6869 48.3668 93.88 48.3801Z" />
        <path d="M240.42 27.15C239.603 27.15 238.82 27.4745 238.242 28.0521C237.664 28.6297 237.34 29.4131 237.34 30.23C237.347 32.9217 236.458 35.5393 234.814 37.6704C233.169 39.8016 230.863 41.3252 228.257 42.0014C225.652 42.6776 222.895 42.468 220.422 41.4055C217.949 40.343 215.899 38.4881 214.596 36.1327C213.293 33.7774 212.81 31.0556 213.224 28.3958C213.638 25.736 214.925 23.2894 216.882 21.4413C218.839 19.5931 221.355 18.4485 224.034 18.1875C226.713 17.9266 229.403 18.5642 231.68 20L223.33 28.35C222.83 28.8539 222.549 29.535 222.549 30.245C222.549 30.9549 222.83 31.6361 223.33 32.14C223.579 32.3903 223.875 32.589 224.201 32.7246C224.527 32.8601 224.877 32.9299 225.23 32.9299C225.583 32.9299 225.933 32.8601 226.259 32.7246C226.585 32.589 226.881 32.3903 227.13 32.14C227.13 32.14 236.49 22.85 236.82 22.45C237.38 21.76 240 19.02 236.46 15.85C233.21 13.304 229.192 11.9347 225.064 11.9655C220.935 11.9963 216.939 13.4254 213.727 16.0196C210.515 18.6138 208.277 22.2199 207.378 26.2497C206.479 30.2794 206.972 34.4948 208.778 38.2081C210.583 41.9214 213.593 44.9133 217.317 46.6957C221.041 48.4782 225.26 48.9458 229.284 48.0224C233.308 47.0991 236.9 44.8392 239.475 41.6114C242.05 38.3837 243.454 34.3787 243.46 30.25C243.46 29.4331 243.135 28.6497 242.558 28.0721C241.98 27.4945 241.197 27.17 240.38 27.17" />
        <path d="M32.29 16.17H22.29C18.3106 16.1819 14.4075 17.2622 10.9883 19.2981C7.56915 21.334 4.75947 24.2508 2.85282 27.7437C0.946176 31.2366 0.0125374 35.1774 0.149449 39.1544C0.286361 43.1315 1.4888 46.9988 3.63114 50.3523C5.77347 53.7058 8.77708 56.4224 12.3282 58.2183C15.8792 60.0143 19.8475 60.8236 23.8182 60.5618C27.789 60.3 31.6166 58.9766 34.9011 56.73C38.1856 54.4833 40.8065 51.3958 42.49 47.79C41.1087 48.0241 39.711 48.1478 38.31 48.16H28.31C25.7743 48.0789 23.3695 47.0145 21.6045 45.1921C19.8394 43.3697 18.8525 40.9321 18.8525 38.395C18.8525 35.858 19.8394 33.4204 21.6045 31.598C23.3695 29.7756 25.7743 28.7112 28.31 28.63H32.31C33.9623 28.63 35.5469 27.9737 36.7153 26.8053C37.8836 25.637 38.54 24.0523 38.54 22.4C38.54 20.7477 37.8836 19.1631 36.7153 17.9948C35.5469 16.8264 33.9623 16.17 32.31 16.17" />
        <path d="M38.29 0C34.0337 0.00882401 29.8693 1.23826 26.2907 3.54247C22.7121 5.84668 19.8694 9.12897 18.1 13C19.4861 12.8261 20.8838 12.7626 22.28 12.81H32.28C33.5661 12.7685 34.8474 12.9859 36.0478 13.4494C37.2482 13.9129 38.3431 14.613 39.2676 15.5081C40.192 16.4032 40.9271 17.475 41.4291 18.6598C41.9311 19.8446 42.1898 21.1182 42.1898 22.405C42.1898 23.6918 41.9311 24.9654 41.4291 26.1502C40.9271 27.335 40.192 28.4068 39.2676 29.3019C38.3431 30.197 37.2482 30.8971 36.0478 31.3606C34.8474 31.8241 33.5661 32.0415 32.28 32H28.28C26.5826 32 24.9547 32.6743 23.7545 33.8745C22.5543 35.0747 21.88 36.7026 21.88 38.4C21.88 40.0974 22.5543 41.7253 23.7545 42.9255C24.9547 44.1257 26.5826 44.8 28.28 44.8H38.28C44.2208 44.8013 49.9189 42.4426 54.1206 38.2427C58.3224 34.0429 60.6836 28.3458 60.685 22.405C60.6863 16.4642 58.3276 10.7661 54.1277 6.56434C49.9278 2.36259 44.2308 0.00132608 38.29 0" />
    </g>
    <defs>
        <clipPath id="clip0">
            <rect width="354.58" height="60.61" />
        </clipPath>
    </defs>
</svg>
