<svg width="105" height="18" viewBox="0 0 105 18" fill="#2A7DE1" xmlns="http://www.w3.org/2000/svg">
<path d="M88.3349 12.6399L88.9453 14.705C88.9784 14.8222 88.9686 14.9473 88.9178 15.058C88.867 15.1686 88.7783 15.2575 88.6678 15.3087C87.7598 15.768 86.7555 16.005 85.7378 15.9999C82.7096 15.9999 80.8914 14.3637 80.8914 11.1871V6.55357H79.197C79.0621 6.553 78.9329 6.49904 78.8377 6.40348C78.7425 6.30793 78.6891 6.17856 78.6891 6.0437V4.00425C78.6891 3.86939 78.7425 3.74003 78.8377 3.64447C78.9329 3.54892 79.0621 3.49495 79.197 3.49439H80.8914V0.507735C80.8914 0.440879 80.9046 0.374681 80.9303 0.312941C80.9559 0.2512 80.9935 0.195133 81.0409 0.147958C81.0883 0.100783 81.1445 0.0634282 81.2064 0.0380381C81.2683 0.0126481 81.3346 -0.000276425 81.4015 4.48253e-06H84.2589C84.3258 -0.000276425 84.3921 0.0126481 84.4539 0.0380381C84.5158 0.0634282 84.572 0.100783 84.6194 0.147958C84.6668 0.195133 84.7044 0.2512 84.7301 0.312941C84.7558 0.374681 84.769 0.440879 84.769 0.507735V3.49439H87.97C88.1053 3.49439 88.235 3.5481 88.3307 3.64372C88.4263 3.73934 88.48 3.86903 88.48 4.00425V6.0437C88.48 6.17893 88.4263 6.30862 88.3307 6.40423C88.235 6.49985 88.1053 6.55357 87.97 6.55357H84.769V10.801C84.769 12.0533 85.375 12.5589 86.393 12.5589C86.831 12.5469 87.2639 12.4611 87.6734 12.305C87.7387 12.2812 87.8082 12.2711 87.8776 12.2752C87.947 12.2793 88.0148 12.2977 88.0768 12.3291C88.1388 12.3605 88.1937 12.4043 88.2381 12.4577C88.2825 12.5112 88.3155 12.5732 88.3349 12.6399Z" />
<path fill-rule="evenodd" clip-rule="evenodd" d="M22.0433 3.25332C20.7842 3.25332 19.5535 3.62655 18.5066 4.3258C17.4598 5.02505 16.6438 6.01893 16.162 7.18174C15.6802 8.34455 15.5541 9.62408 15.7998 10.8585C16.0454 12.093 16.6517 13.2269 17.5419 14.1168C18.4322 15.0068 19.5665 15.6129 20.8013 15.8584C22.0362 16.104 23.3162 15.978 24.4794 15.4963C25.6426 15.0147 26.6368 14.199 27.3363 13.1525C28.0357 12.106 28.4091 10.8756 28.4091 9.61702C28.4085 7.92944 27.7377 6.31113 26.544 5.11783C25.3503 3.92453 23.7314 3.25389 22.0433 3.25332ZM22.0433 12.7594C21.4216 12.7594 20.8138 12.5751 20.2969 12.2298C19.7799 11.8845 19.377 11.3938 19.1391 10.8196C18.9012 10.2454 18.8389 9.61354 18.9602 9.00397C19.0815 8.39441 19.3809 7.83449 19.8205 7.39502C20.2601 6.95555 20.8203 6.65627 21.43 6.53502C22.0398 6.41377 22.6718 6.476 23.2462 6.71384C23.8206 6.95168 24.3115 7.35444 24.6569 7.87121C25.0023 8.38797 25.1867 8.99552 25.1867 9.61702C25.187 10.0298 25.1059 10.4385 24.948 10.8199C24.7901 11.2013 24.5586 11.5478 24.2666 11.8396C23.9747 12.1315 23.628 12.363 23.2465 12.5208C22.865 12.6786 22.4562 12.7597 22.0433 12.7594Z" />
<path fill-rule="evenodd" clip-rule="evenodd" d="M93.0975 4.32793C94.1444 3.62868 95.3751 3.25546 96.6342 3.25546C98.3223 3.25602 99.9412 3.92666 101.135 5.11997C102.329 6.31327 102.999 7.93157 103 9.61916C103 10.8778 102.627 12.1081 101.927 13.1546C101.228 14.2011 100.233 15.0168 99.0703 15.4984C97.9071 15.9801 96.6271 16.1061 95.3923 15.8606C94.1574 15.615 93.0231 15.009 92.1329 14.119C91.2426 13.229 90.6363 12.0951 90.3907 10.8607C90.145 9.62622 90.2711 8.34669 90.7529 7.18387C91.2347 6.02106 92.0507 5.02719 93.0975 4.32793ZM94.8807 12.2426C95.3997 12.5893 96.0099 12.7743 96.6342 12.7743C97.4713 12.7743 98.2741 12.4419 98.866 11.8502C99.4579 11.2585 99.7904 10.456 99.7904 9.61916C99.7904 8.99512 99.6053 8.3851 99.2585 7.86623C98.9117 7.34736 98.4187 6.94295 97.842 6.70415C97.2653 6.46534 96.6307 6.40285 96.0184 6.5246C95.4062 6.64634 94.8438 6.94684 94.4024 7.3881C93.961 7.82937 93.6604 8.39156 93.5386 9.00361C93.4168 9.61566 93.4793 10.2501 93.7182 10.8266C93.9571 11.4031 94.3616 11.8959 94.8807 12.2426Z" />
<path d="M49.8625 8.2581V15.2831C49.8625 15.3501 49.8494 15.4164 49.8237 15.4782C49.7981 15.5401 49.7605 15.5963 49.7132 15.6437C49.6658 15.691 49.6096 15.7286 49.5477 15.7542C49.4858 15.7798 49.4195 15.793 49.3525 15.793H46.5783C46.5114 15.793 46.4452 15.7798 46.3834 15.7541C46.3217 15.7285 46.2656 15.6909 46.2184 15.6435C46.1712 15.5962 46.1338 15.5399 46.1084 15.4781C46.083 15.4162 46.0701 15.35 46.0704 15.2831V9.06449C46.0704 7.71197 45.1848 6.85864 44.0623 6.85864C42.6495 6.85864 41.7148 7.7653 41.7148 9.05382V15.2831C41.7148 15.4184 41.6611 15.548 41.5654 15.6437C41.4698 15.7393 41.34 15.793 41.2048 15.793H38.3964C38.3295 15.793 38.2633 15.7798 38.2015 15.7541C38.1398 15.7285 38.0837 15.6909 38.0365 15.6435C37.9893 15.5962 37.9519 15.5399 37.9265 15.4781C37.9011 15.4162 37.8882 15.35 37.8885 15.2831V9.06449C37.8885 7.71197 37.0028 6.85864 35.8547 6.85864C34.4676 6.85864 33.5585 7.7909 33.5585 9.05382V15.2831C33.5585 15.4184 33.5048 15.548 33.4091 15.6437C33.3135 15.7393 33.1837 15.793 33.0485 15.793H30.2401C30.1732 15.793 30.107 15.7798 30.0452 15.7541C29.9835 15.7285 29.9274 15.6909 29.8802 15.6435C29.833 15.5962 29.7956 15.5399 29.7702 15.4781C29.7448 15.4162 29.7319 15.35 29.7322 15.2831V4.30932C29.7319 4.24246 29.7448 4.17621 29.7702 4.11436C29.7956 4.05251 29.833 3.99629 29.8802 3.94892C29.9274 3.90154 29.9835 3.86395 30.0452 3.83831C30.107 3.81266 30.1732 3.79945 30.2401 3.79945H33.0485C33.1837 3.79945 33.3135 3.85317 33.4091 3.94879C33.5048 4.04441 33.5585 4.17409 33.5585 4.30932V4.88958C34.3716 3.98932 35.5453 3.44532 37.0989 3.44532C38.7741 3.44532 40.2061 4.15572 41.0213 5.45704C41.9773 4.22612 43.4135 3.44532 45.2786 3.44532C47.8288 3.45599 49.8625 5.37598 49.8625 8.2581Z" />
<path d="M77.3916 8.4181V15.2831C77.3916 15.4184 77.3379 15.548 77.2422 15.6437C77.1466 15.7393 77.0168 15.793 76.8816 15.793H74.1073C73.9724 15.793 73.843 15.7396 73.7474 15.6444C73.6518 15.5493 73.5978 15.4201 73.5973 15.2853V9.21596C73.5973 8.46076 73.1171 6.92477 71.3309 6.92477C71.0326 6.92449 70.7371 6.98299 70.4613 7.09694C70.1856 7.21088 69.9351 7.37804 69.724 7.58884C69.5129 7.79964 69.3455 8.04997 69.2312 8.3255C69.117 8.60103 69.0582 8.89636 69.0582 9.19462V15.2746C69.0582 15.4098 69.0044 15.5395 68.9088 15.6351C68.8131 15.7307 68.6834 15.7845 68.5482 15.7845H65.7419C65.607 15.7839 65.4778 15.7299 65.3826 15.6344C65.2874 15.5388 65.234 15.4094 65.234 15.2746V4.30932C65.234 4.17446 65.2874 4.0451 65.3826 3.94954C65.4778 3.85398 65.607 3.80002 65.7419 3.79945H68.5482C68.6834 3.79945 68.8131 3.85317 68.9088 3.94879C69.0044 4.04441 69.0582 4.17409 69.0582 4.30932V4.94931C69.5351 4.46005 70.1082 4.07479 70.7414 3.81779C71.3746 3.56078 72.0541 3.4376 72.7373 3.45599C75.5307 3.45599 77.3916 5.42291 77.3916 8.4181Z" />
<path fill-rule="evenodd" clip-rule="evenodd" d="M63.3966 10.6304C63.5241 10.6278 63.6462 10.5787 63.7398 10.4922C63.8334 10.4057 63.892 10.2878 63.9045 10.161C63.9194 9.98182 63.928 9.80262 63.928 9.61915C63.9338 8.04524 63.356 6.525 62.3061 5.35208C61.2562 4.17916 59.8088 3.43679 58.2434 3.26836C56.678 3.09994 55.1057 3.51741 53.8302 4.44014C52.5547 5.36287 51.6665 6.72538 51.3372 8.2645C51.2945 8.45528 51.2624 8.64828 51.2411 8.84263C51.2086 9.1002 51.1923 9.35954 51.1921 9.61915C51.1896 11.0179 51.6483 12.3785 52.4971 13.4905C53.346 14.6025 54.5376 15.404 55.8879 15.7709C57.2381 16.1379 58.6717 16.0499 59.9668 15.5206C61.262 14.9912 62.3467 14.0501 63.053 12.8426C63.0912 12.7754 63.1136 12.7003 63.1185 12.6231C63.1234 12.5459 63.1106 12.4687 63.0812 12.3972C63.0518 12.3256 63.0065 12.2617 62.9488 12.2103C62.891 12.1588 62.8223 12.1212 62.7479 12.1002L60.5519 11.4794C60.458 11.4523 60.3582 11.453 60.2647 11.4814C60.1711 11.5098 60.0878 11.5647 60.0248 11.6394C59.6643 12.0796 59.1924 12.4151 58.6582 12.611C58.1239 12.807 57.5469 12.8562 56.9872 12.7536C56.4274 12.6511 55.9054 12.4004 55.4755 12.0277C55.0455 11.655 54.7234 11.174 54.5425 10.6346L63.3966 10.6304ZM57.5621 6.44264C58.1658 6.4429 58.757 6.61471 59.2667 6.93804C59.7764 7.26136 60.1837 7.72287 60.441 8.26876H54.6791C54.9365 7.72206 55.3444 7.25996 55.855 6.93656C56.3656 6.61316 56.9577 6.44184 57.5621 6.44264Z" />
<path d="M14.0001 11.1231L11.5865 10.4832C11.4691 10.4514 11.3442 10.4622 11.234 10.5138C11.1238 10.5653 11.0355 10.6542 10.9847 10.7647C10.7192 11.3659 10.2549 11.8575 9.6699 12.1572C9.08486 12.4569 8.41454 12.5464 7.77132 12.4108C7.1281 12.2751 6.55109 11.9225 6.137 11.4122C5.72291 10.9018 5.49692 10.2646 5.49692 9.60742C5.49692 8.95026 5.72291 8.31308 6.137 7.80269C6.55109 7.2923 7.1281 6.93972 7.77132 6.80407C8.41454 6.66842 9.08486 6.75794 9.6699 7.05763C10.2549 7.35731 10.7192 7.84894 10.9847 8.4501C11.0333 8.56295 11.1207 8.65469 11.2311 8.70869C11.3415 8.7627 11.4675 8.7754 11.5865 8.74449L14.0001 8.1045C14.0686 8.08628 14.1325 8.054 14.1878 8.00971C14.2431 7.96543 14.2885 7.91011 14.3213 7.84729C14.354 7.78447 14.3733 7.71552 14.3779 7.64484C14.3825 7.57415 14.3723 7.50329 14.3479 7.43677C13.8362 6.03078 12.8452 4.85001 11.5491 4.10184C10.253 3.35367 8.73463 3.08594 7.26069 3.34569C5.78674 3.60543 4.45148 4.37603 3.48941 5.52214C2.52734 6.66825 2 8.11658 2 9.61276C2 11.1089 2.52734 12.5573 3.48941 13.7034C4.45148 14.8495 5.78674 15.6201 7.26069 15.8798C8.73463 16.1396 10.253 15.8718 11.5491 15.1237C12.8452 14.3755 13.8362 13.1947 14.3479 11.7887C14.3722 11.7224 14.3824 11.6516 14.3778 11.5811C14.3732 11.5106 14.3539 11.4418 14.3212 11.3791C14.2884 11.3164 14.2429 11.2613 14.1877 11.2172C14.1324 11.1732 14.0685 11.1411 14.0001 11.1231Z" />
</svg>
