<svg width="20" height="20" viewBox="0 0 20 20" fill="black" xmlns="http://www.w3.org/2000/svg">
<path fill-rule="evenodd" clip-rule="evenodd" d="M14.586 8.58019C15.4709 7.70773 15.4755 6.2821 14.5963 5.40396C13.7214 4.53028 12.3035 4.53046 11.4289 5.40436L9.83027 7.00173C9.53738 7.2944 9.0625 7.2944 8.76961 7.00173C8.47672 6.70907 8.47672 6.23457 8.76961 5.94191L10.3682 4.34454C11.8285 2.88541 14.196 2.88512 15.6567 4.34387C17.1248 5.81007 17.1171 8.19039 15.6395 9.64709L14.0328 11.2312C13.7379 11.5219 13.263 11.5187 12.9721 11.2241C12.6812 10.9295 12.6844 10.455 12.9792 10.1643L14.586 8.58019ZM12.8323 7.17522C12.5394 6.88255 12.0645 6.88255 11.7717 7.17521L7.17543 11.7678C6.88254 12.0604 6.88254 12.5349 7.17543 12.8276C7.46832 13.1202 7.94319 13.1202 8.23609 12.8276L12.8323 8.23504C13.1252 7.94238 13.1252 7.46788 12.8323 7.17522ZM5.40771 14.594C6.28465 15.4702 7.70646 15.4702 8.58341 14.594L10.1775 13.0011C10.4704 12.7085 10.9453 12.7085 11.2382 13.0011C11.5311 13.2938 11.5311 13.7683 11.2382 14.0609L9.64407 15.6538C8.18134 17.1154 5.80978 17.1154 4.34705 15.6538C2.88432 14.1922 2.88432 11.8226 4.34705 10.361L5.94118 8.76811C6.23407 8.47545 6.70895 8.47545 7.00184 8.76811C7.29473 9.06077 7.29473 9.53527 7.00184 9.82793L5.40771 11.4208C4.53076 12.2971 4.53076 13.7177 5.40771 14.594Z" />
</svg>
