<svg width="20" height="20" viewBox="0 0 20 20" fill="black" xmlns="http://www.w3.org/2000/svg">
<path fill-rule="evenodd" clip-rule="evenodd" d="M6 8.25C6 6.04086 7.79086 4.25 10 4.25C12.2091 4.25 14 6.04086 14 8.25V9V9.52V16C14 16.1381 13.8881 16.25 13.75 16.25H11.9824C11.6366 15.6522 10.9903 15.25 10.25 15.25C9.14543 15.25 8.25 16.1454 8.25 17.25C8.25 18.3546 9.14543 19.25 10.25 19.25C11.1819 19.25 11.965 18.6126 12.187 17.75H13.75C14.7165 17.75 15.5 16.9665 15.5 16V15.2405C17.1781 15.1129 18.5 13.7108 18.5 12C18.5 10.2892 17.1781 8.88713 15.5 8.75947V8.25C15.5 5.21243 13.0376 2.75 10 2.75C6.96243 2.75 4.5 5.21243 4.5 8.25V8.75947C2.82189 8.88713 1.5 10.2892 1.5 12C1.5 13.7949 2.95507 15.25 4.75 15.25H5.25C5.66421 15.25 6 14.9142 6 14.5C6 14.4574 5.99645 14.4157 5.98963 14.375C5.99645 14.3343 6 14.2926 6 14.25V8.25ZM17 12C17 12.8816 16.3481 13.611 15.5 13.7323V10.2677C16.3481 10.389 17 11.1184 17 12ZM4.5 13.7323C3.65193 13.611 3 12.8816 3 12C3 11.1184 3.65193 10.389 4.5 10.2677V13.7323ZM10.25 16.75C10.5261 16.75 10.75 16.9739 10.75 17.25C10.75 17.5261 10.5261 17.75 10.25 17.75C9.97386 17.75 9.75 17.5261 9.75 17.25C9.75 16.9739 9.97386 16.75 10.25 16.75Z" />
</svg>
