<svg width="20" height="20" viewBox="0 0 20 20" fill="black" xmlns="http://www.w3.org/2000/svg">
<path d="M4.5 3.75C4.08579 3.75 3.75 4.08579 3.75 4.5V10.5011C3.75 11.4657 4.52857 12.25 5.49696 12.25H15.5C15.9142 12.25 16.25 11.9142 16.25 11.5C16.25 11.0858 15.9142 10.75 15.5 10.75H5.49696C5.36079 10.75 5.25 10.6411 5.25 10.5011V4.5C5.25 4.08579 4.91421 3.75 4.5 3.75Z" />
<path d="M11.9697 15.0303C11.6768 14.7374 11.6768 14.2626 11.9697 13.9697L14.4393 11.5L11.9697 9.03033C11.6768 8.73744 11.6768 8.26256 11.9697 7.96967C12.2626 7.67678 12.7374 7.67678 13.0303 7.96967L16.0303 10.9697C16.3232 11.2626 16.3232 11.7374 16.0303 12.0303L13.0303 15.0303C12.7374 15.3232 12.2626 15.3232 11.9697 15.0303Z" />
</svg>
