<svg width="20" height="20" viewBox="0 0 20 20" fill="black" xmlns="http://www.w3.org/2000/svg">
<path fill-rule="evenodd" clip-rule="evenodd" d="M7.79048 14.8153L12.3744 10.1851L12.385 10.1745L16.3488 6.24992L15.2923 5.21802C15.2838 5.20977 15.2755 5.20142 15.2672 5.19297L14.2374 4.1385L5.67791 12.698L5.37672 15.1159L7.79048 14.8153ZM15.1428 2.91407L16.3427 4.14265L17.5741 5.34543C18.0789 5.83849 18.0817 6.64957 17.5802 7.14605L13.4427 11.2427L8.80017 15.932C8.60095 16.1332 8.33989 16.2617 8.05891 16.2967L4.45113 16.7461C4.0428 16.7969 3.69571 16.4498 3.74658 16.0415L4.19642 12.4302C4.23115 12.1514 4.35789 11.8921 4.55657 11.6934L13.3465 2.90347C13.8438 2.40623 14.6514 2.411 15.1428 2.91407Z" />
</svg>
