<svg width="20" height="20" viewBox="0 0 20 20" fill="black" xmlns="http://www.w3.org/2000/svg">
<path fill-rule="evenodd" clip-rule="evenodd" d="M10 18.5C14.6944 18.5 18.5 14.6944 18.5 10C18.5 5.30558 14.6944 1.5 10 1.5C5.30558 1.5 1.5 5.30558 1.5 10C1.5 14.6944 5.30558 18.5 10 18.5ZM10 3C13.866 3 17 6.13401 17 10C17 13.866 13.866 17 10 17C6.13401 17 3 13.866 3 10C3 6.13401 6.13401 3 10 3ZM15.0303 7.46967C15.3232 7.76256 15.3232 8.23744 15.0303 8.53033L10.0303 13.5303C9.73744 13.8232 9.26256 13.8232 8.96967 13.5303L5.96967 10.5303C5.67678 10.2375 5.67678 9.76258 5.96967 9.46969C6.26256 9.1768 6.73743 9.17679 7.03033 9.46969L9.5 11.9393L13.9697 7.46967C14.2626 7.17678 14.7374 7.17678 15.0303 7.46967Z" />
</svg>
