<svg width="20" height="20" viewBox="0 0 20 20" fill="black" xmlns="http://www.w3.org/2000/svg">
<path fill-rule="evenodd" clip-rule="evenodd" d="M10.5 5.62499V4.12813L12.2751 5.58046L13.0934 6.24999H11.125C10.7798 6.24999 10.5 5.97017 10.5 5.62499ZM16.25 7.49999C16.25 7.45234 16.2473 7.40532 16.2421 7.35905C16.2789 7.10704 16.1864 6.84254 15.9749 6.66952L13.2249 4.41952L10.4749 2.16952C10.3173 2.04055 10.1229 1.98642 9.93488 2.00282C9.91517 2.00095 9.8952 1.99999 9.875 1.99999H5C4.30964 1.99999 3.75 2.55964 3.75 3.24999V16.75C3.75 17.4403 4.30964 18 5 18H15C15.6904 18 16.25 17.4403 16.25 16.75V7.49999ZM11.125 7.74999H14.75V16.5H5.25V3.49999H9V5.62499C9 6.7986 9.95139 7.74999 11.125 7.74999ZM10 8.99999C10.4142 8.99999 10.75 9.33578 10.75 9.74999V11.25H12.25C12.6642 11.25 13 11.5858 13 12C13 12.4142 12.6642 12.75 12.25 12.75H10.75V14.25C10.75 14.6642 10.4142 15 10 15C9.58579 15 9.25 14.6642 9.25 14.25V12.75H7.75C7.33579 12.75 7 12.4142 7 12C7 11.5858 7.33579 11.25 7.75 11.25H9.25V9.74999C9.25 9.33578 9.58579 8.99999 10 8.99999Z" />
</svg>
