<svg width="20" height="20" viewBox="0 0 20 20" fill="black" xmlns="http://www.w3.org/2000/svg">
<path fill-rule="evenodd" clip-rule="evenodd" d="M3 10C3 13.866 6.13401 17 10 17C13.866 17 17 13.866 17 10C17 6.13401 13.866 3 10 3C6.13401 3 3 6.13401 3 10ZM18.5 10C18.5 14.6944 14.6944 18.5 10 18.5C5.30558 18.5 1.5 14.6944 1.5 10C1.5 5.30558 5.30558 1.5 10 1.5C14.6944 1.5 18.5 5.30558 18.5 10ZM6.5 10.75C6.08579 10.75 5.75 10.4142 5.75 10C5.75 9.58579 6.08579 9.25 6.5 9.25H9.25V6.5C9.25 6.08579 9.58579 5.75 10 5.75C10.4142 5.75 10.75 6.08579 10.75 6.5V9.25H13.5C13.9142 9.25 14.25 9.58579 14.25 10C14.25 10.4142 13.9142 10.75 13.5 10.75H10.75V13.5C10.75 13.9142 10.4142 14.25 10 14.25C9.58579 14.25 9.25 13.9142 9.25 13.5V10.75H6.5Z" />
</svg>
