<svg width="20" height="20" viewBox="0 0 20 20" fill="black" xmlns="http://www.w3.org/2000/svg">
<path fill-rule="evenodd" clip-rule="evenodd" d="M10.1355 4.5C9.81698 3.48572 8.86941 2.75 7.75 2.75C6.63059 2.75 5.68302 3.48572 5.36445 4.5H3.25C2.83579 4.5 2.5 4.83579 2.5 5.25C2.5 5.66421 2.83579 6 3.25 6H5.36445C5.68302 7.01428 6.63059 7.75 7.75 7.75C8.86941 7.75 9.81698 7.01428 10.1355 6H16.75C17.1642 6 17.5 5.66421 17.5 5.25C17.5 4.83579 17.1642 4.5 16.75 4.5H10.1355ZM8.75 5.25C8.75 5.80228 8.30228 6.25 7.75 6.25C7.19772 6.25 6.75 5.80228 6.75 5.25C6.75 4.69772 7.19772 4.25 7.75 4.25C8.30228 4.25 8.75 4.69772 8.75 5.25ZM12.5 12.5C13.6194 12.5 14.5669 11.7643 14.8855 10.7501H16.75C17.1642 10.7501 17.5 10.4143 17.5 10.0001C17.5 9.58585 17.1642 9.25006 16.75 9.25006H14.8856C14.567 8.23575 13.6194 7.5 12.5 7.5C11.3806 7.5 10.433 8.23575 10.1144 9.25006H3.25C2.83579 9.25006 2.5 9.58585 2.5 10.0001C2.5 10.4143 2.83579 10.7501 3.25 10.7501H10.1145C10.4331 11.7643 11.3806 12.5 12.5 12.5ZM12.5 11C11.9477 11 11.5 10.5523 11.5 10C11.5 9.44772 11.9477 9 12.5 9C13.0523 9 13.5 9.44772 13.5 10C13.5 10.5523 13.0523 11 12.5 11ZM3.25 14C2.83579 14 2.5 14.3358 2.5 14.75C2.5 15.1642 2.83579 15.5 3.25 15.5H6.61445C6.93302 16.5143 7.88059 17.25 9 17.25C10.1194 17.25 11.067 16.5143 11.3855 15.5H16.75C17.1642 15.5 17.5 15.1642 17.5 14.75C17.5 14.3358 17.1642 14 16.75 14H11.3855C11.067 12.9857 10.1194 12.25 9 12.25C7.88059 12.25 6.93302 12.9857 6.61445 14H3.25ZM9 13.75C9.55228 13.75 10 14.1977 10 14.75C10 15.3023 9.55228 15.75 9 15.75C8.44772 15.75 8 15.3023 8 14.75C8 14.1977 8.44772 13.75 9 13.75Z" />
</svg>
