<svg width="16" height="16" viewBox="0 0 16 16" fill="black" xmlns="http://www.w3.org/2000/svg">
<path fill-rule="evenodd" clip-rule="evenodd" d="M8.35353 3.40381C9.52511 2.23223 11.4246 2.23223 12.5962 3.40381C13.7677 4.57538 13.7677 6.47487 12.5962 7.64645L11.182 9.06066C10.9867 9.25592 10.6701 9.25592 10.4749 9.06066C10.2796 8.8654 10.2796 8.54882 10.4749 8.35355L11.8891 6.93934C12.6701 6.15829 12.6701 4.89196 11.8891 4.11091C11.108 3.32986 9.84169 3.32986 9.06064 4.11091L7.64643 5.52513C7.45116 5.72039 7.13458 5.72039 6.93932 5.52513C6.74406 5.32986 6.74406 5.01328 6.93932 4.81802L8.35353 3.40381ZM5.52511 6.93934C5.72037 7.1346 5.72037 7.45118 5.52511 7.64645L4.11089 9.06066C3.32984 9.84171 3.32984 11.108 4.11089 11.8891C4.89194 12.6701 6.15827 12.6701 6.93932 11.8891L8.35353 10.4749C8.5488 10.2796 8.86538 10.2796 9.06064 10.4749C9.2559 10.6701 9.2559 10.9867 9.06064 11.182L7.64643 12.5962C6.47485 13.7678 4.57536 13.7678 3.40379 12.5962C2.23221 11.4246 2.23221 9.52513 3.40379 8.35355L4.818 6.93934C5.01326 6.74408 5.32984 6.74408 5.52511 6.93934Z"/>
<path fill-rule="evenodd" clip-rule="evenodd" d="M10.1213 5.87868C10.3166 6.07395 10.3166 6.39053 10.1213 6.58579L6.58578 10.1213C6.39052 10.3166 6.07394 10.3166 5.87867 10.1213C5.68341 9.92606 5.68341 9.60948 5.87867 9.41422L9.41421 5.87868C9.60947 5.68342 9.92605 5.68342 10.1213 5.87868Z"/>
</svg>
