<svg width="20" height="20" viewBox="0 0 20 20" fill="black" xmlns="http://www.w3.org/2000/svg">
<path d="M10.5303 2.96967C10.2374 2.67678 9.76256 2.67678 9.46967 2.96967L5.71967 6.71967C5.42678 7.01256 5.42678 7.48744 5.71967 7.78033C6.01256 8.07322 6.48744 8.07322 6.78033 7.78033L9.25 5.31066L9.25 13.5C9.25 13.9142 9.58579 14.25 10 14.25C10.4142 14.25 10.75 13.9142 10.75 13.5L10.75 5.31066L13.2197 7.78033C13.5126 8.07322 13.9874 8.07322 14.2803 7.78033C14.5732 7.48744 14.5732 7.01256 14.2803 6.71967L10.5303 2.96967Z" />
<path d="M3.75 11.75C4.16421 11.75 4.5 12.0858 4.5 12.5V16H15.5V12.5C15.5 12.0858 15.8358 11.75 16.25 11.75C16.6642 11.75 17 12.0858 17 12.5V16.75C17 17.1642 16.6642 17.5 16.25 17.5H3.75C3.33579 17.5 3 17.1642 3 16.75V12.5C3 12.0858 3.33579 11.75 3.75 11.75Z" />
</svg>
