<svg width="20" height="20" viewBox="0 0 20 20" fill="black" xmlns="http://www.w3.org/2000/svg">
<path fill-rule="evenodd" clip-rule="evenodd" d="M1.5 7.51155V8V8.52334C1.5 8.65339 1.61994 8.75 1.75 8.75C2.44036 8.75 3 9.30964 3 10C3 10.6904 2.44036 11.25 1.75 11.25C1.61994 11.25 1.5 11.3466 1.5 11.4767V12V12.4885V15.5C1.5 16.0523 1.94772 16.5 2.5 16.5H17.5C18.0523 16.5 18.5 16.0523 18.5 15.5V12.4885V12V11.4767C18.5 11.3466 18.3801 11.25 18.25 11.25C17.5596 11.25 17 10.6904 17 10C17 9.30964 17.5596 8.75 18.25 8.75C18.3801 8.75 18.5 8.65339 18.5 8.52334V8V7.51155V4.5C18.5 3.94772 18.0523 3.5 17.5 3.5H2.5C1.94772 3.5 1.5 3.94772 1.5 4.5V7.51155ZM3 15V12.4501C3.89042 11.995 4.5 11.0687 4.5 10C4.5 8.93133 3.89042 8.00503 3 7.54985V5H11.25V15H3ZM12.75 5H17V7.54985C16.1096 8.00503 15.5 8.93133 15.5 10C15.5 11.0687 16.1096 11.995 17 12.4501V15H12.75V5Z" />
</svg>
