<svg width="18" height="18" viewBox="0 0 18 18" fill="#838990" xmlns="http://www.w3.org/2000/svg">
<path fill-rule="evenodd" clip-rule="evenodd" d="M13.5 15V5.62132L10.8787 3H4.5V15H13.5ZM14 16.5H4C3.44772 16.5 3 16.0523 3 15.5V2.5C3 1.94772 3.44772 1.5 4 1.5H11.0858C11.351 1.5 11.6054 1.60536 11.7929 1.79289L14.7071 4.70711C14.8946 4.89464 15 5.149 15 5.41421V15.5C15 16.0523 14.5523 16.5 14 16.5Z" />
<path fill-rule="evenodd" clip-rule="evenodd" d="M11.25 5.25V1.5H9.75V6C9.75 6.41421 10.0858 6.75 10.5 6.75H15V5.25H11.25Z"/>
<path fill-rule="evenodd" clip-rule="evenodd" d="M5.5 9C5.5 8.72386 5.72386 8.5 6 8.5H12C12.2761 8.5 12.5 8.72386 12.5 9C12.5 9.27614 12.2761 9.5 12 9.5H6C5.72386 9.5 5.5 9.27614 5.5 9Z"/>
<path fill-rule="evenodd" clip-rule="evenodd" d="M5.5 11C5.5 10.7239 5.72386 10.5 6 10.5H12C12.2761 10.5 12.5 10.7239 12.5 11C12.5 11.2761 12.2761 11.5 12 11.5H6C5.72386 11.5 5.5 11.2761 5.5 11Z"/>
<path fill-rule="evenodd" clip-rule="evenodd" d="M5.5 13C5.5 12.7239 5.72386 12.5 6 12.5H12C12.2761 12.5 12.5 12.7239 12.5 13C12.5 13.2761 12.2761 13.5 12 13.5H6C5.72386 13.5 5.5 13.2761 5.5 13Z"/>
</svg>
