<svg width="20" height="20" viewBox="0 0 20 20" fill="black" xmlns="http://www.w3.org/2000/svg">
<path fill-rule="evenodd" clip-rule="evenodd" d="M10 18.5C14.6944 18.5 18.5 14.6944 18.5 10C18.5 5.30558 14.6944 1.5 10 1.5C5.30558 1.5 1.5 5.30558 1.5 10C1.5 14.6944 5.30558 18.5 10 18.5ZM10 3C13.866 3 17 6.13401 17 10C17 13.866 13.866 17 10 17C6.13401 17 3 13.866 3 10C3 6.13401 6.13401 3 10 3ZM8.88142 6.10055C9.40545 5.87981 9.98317 5.81942 10.5415 5.92702C11.0999 6.03462 11.6138 6.30537 12.0182 6.70504C12.4227 7.1047 12.6996 7.61534 12.8138 8.17236C12.9281 8.72938 12.8746 9.30778 12.6602 9.8344C12.4457 10.361 12.0799 10.8122 11.609 11.131C11.1381 11.4497 10.5833 11.6216 10.0147 11.625C9.60046 11.6275 9.26267 11.2937 9.2602 10.8795C9.25772 10.4653 9.5915 10.1275 10.0057 10.1251C10.2776 10.1234 10.543 10.0412 10.7682 9.88876C10.9934 9.73633 11.1684 9.52054 11.2709 9.26867C11.3735 9.0168 11.3991 8.74018 11.3444 8.47378C11.2898 8.20738 11.1574 7.96316 10.9639 7.77202C10.7705 7.58087 10.5247 7.45138 10.2577 7.39992C9.99064 7.34846 9.71434 7.37734 9.46372 7.48291C9.21309 7.58848 8.99941 7.766 8.84967 7.99301C8.69994 8.22003 8.62089 8.48635 8.62251 8.75829C8.62499 9.1725 8.29121 9.51029 7.87701 9.51276C7.4628 9.51524 7.12501 9.18146 7.12254 8.76726C7.11914 8.19864 7.28443 7.6418 7.59751 7.16713C7.91059 6.69245 8.35739 6.32128 8.88142 6.10055ZM11 13.5C11 14.0523 10.5523 14.5 10 14.5C9.44772 14.5 9 14.0523 9 13.5C9 12.9477 9.44772 12.5 10 12.5C10.5523 12.5 11 12.9477 11 13.5Z" />
</svg>
