<svg width="20" height="20" viewBox="0 0 20 20" fill="black" xmlns="http://www.w3.org/2000/svg">
<path d="M10 18.5C14.6944 18.5 18.5 14.6944 18.5 10C18.5 5.30558 14.6944 1.5 10 1.5C5.30558 1.5 1.5 5.30558 1.5 10C1.5 14.6944 5.30558 18.5 10 18.5ZM14.5303 8.53033L9.78033 13.2803C9.48744 13.5732 9.01256 13.5732 8.71967 13.2803L5.96967 10.5303C5.67678 10.2374 5.67678 9.76256 5.96967 9.46967C6.26256 9.17678 6.73744 9.17678 7.03033 9.46967L9.25 11.6893L13.4697 7.46967C13.7626 7.17678 14.2374 7.17678 14.5303 7.46967C14.8232 7.76256 14.8232 8.23744 14.5303 8.53033Z" />
</svg>
