<svg width="20" height="20" viewBox="0 0 20 20" fill="black" xmlns="http://www.w3.org/2000/svg">
<path fill-rule="evenodd" clip-rule="evenodd" d="M15.8 6.5H15C15 3.73858 12.7614 1.5 10 1.5C7.23858 1.5 5 3.73857 5 6.5L4.2 6.5C3.53726 6.5 3 7.03726 3 7.7V17.3C3 17.9627 3.53726 18.5 4.2 18.5H15.8C16.4627 18.5 17 17.9627 17 17.3V7.7C17 7.03726 16.4627 6.5 15.8 6.5ZM10 3C11.933 3 13.5 4.567 13.5 6.5L6.5 6.5C6.5 4.567 8.067 3 10 3ZM9.25 11.25C9.25 10.8358 9.58579 10.5 10 10.5C10.4142 10.5 10.75 10.8358 10.75 11.25V13.75C10.75 14.1642 10.4142 14.5 10 14.5C9.58579 14.5 9.25 14.1642 9.25 13.75V11.25Z" />
</svg>
