<svg width="20" height="20" viewBox="0 0 20 20" fill="black" xmlns="http://www.w3.org/2000/svg">
<path fill-rule="evenodd" clip-rule="evenodd" d="M10 1.5C5.30558 1.5 1.5 5.30558 1.5 10C1.5 14.6944 5.30558 18.5 10 18.5C14.6944 18.5 18.5 14.6944 18.5 10C18.5 5.30558 14.6944 1.5 10 1.5ZM10 8C9.44771 8 9 7.55228 9 7C9 6.44772 9.44771 6 10 6C10.5523 6 11 6.44772 11 7C11 7.55228 10.5523 8 10 8ZM9.25001 13.5V9.5C9.25001 9.08579 9.58579 8.75 10 8.75C10.4142 8.75 10.75 9.08579 10.75 9.5V13.5C10.75 13.9142 10.4142 14.25 10 14.25C9.58579 14.25 9.25001 13.9142 9.25001 13.5Z" />
</svg>
