<svg width="20" height="20" viewBox="0 0 20 20" fill="black" xmlns="http://www.w3.org/2000/svg">
<path fill-rule="evenodd" clip-rule="evenodd" d="M12.3708 2.00793C12.199 1.70466 11.8734 1.5 11.5 1.5H8.5C8.14512 1.5 7.83341 1.68486 7.65593 1.96354C7.5572 2.11855 7.5 2.3026 7.5 2.5V3.7281C7.45233 3.74712 7.40492 3.76666 7.3578 3.78673L6.49264 2.92157C6.35226 2.7812 6.18054 2.69128 6 2.65182C5.67828 2.58151 5.32858 2.67142 5.07843 2.92157L2.95711 5.04289C2.69772 5.30228 2.61062 5.66872 2.6958 6C2.73887 6.16748 2.82597 6.32597 2.95711 6.45711L3.80812 7.30812C3.78049 7.37158 3.75381 7.43554 3.7281 7.5H2.5C2.32112 7.5 2.15321 7.54697 2.00793 7.62925C1.70466 7.80099 1.5 8.1266 1.5 8.5V11.5C1.5 11.8734 1.70466 12.199 2.00793 12.3708C2.15321 12.453 2.32112 12.5 2.5 12.5H3.7281C3.75381 12.5645 3.78049 12.6284 3.80812 12.6919L2.93629 13.5637C2.8106 13.6894 2.72537 13.8402 2.68058 14C2.58622 14.3367 2.67146 14.7131 2.93629 14.9779L5.05761 17.0992C5.31317 17.3548 5.67262 17.4431 6 17.3642C6.1729 17.3225 6.33686 17.2342 6.47183 17.0992L7.3578 16.2133C7.40493 16.2333 7.45233 16.2529 7.5 16.2719V17.5C7.5 17.6974 7.5572 17.8814 7.65593 18.0365C7.83341 18.3151 8.14512 18.5 8.5 18.5H11.5C11.8734 18.5 12.199 18.2953 12.3708 17.9921C12.453 17.8468 12.5 17.6789 12.5 17.5V16.2719C12.5645 16.2462 12.6284 16.2195 12.6919 16.1919L13.5637 17.0637C13.6894 17.1894 13.8402 17.2746 14 17.3194C14.3367 17.4138 14.7131 17.3285 14.9779 17.0637L17.0992 14.9424C17.3548 14.6868 17.4431 14.3274 17.3642 14C17.3225 13.8271 17.2342 13.6631 17.0992 13.5282L16.2133 12.6422C16.2333 12.5951 16.2529 12.5477 16.2719 12.5H17.5C17.6974 12.5 17.8814 12.4428 18.0365 12.3441C18.3151 12.1666 18.5 11.8549 18.5 11.5V8.5C18.5 8.14512 18.3151 7.83341 18.0365 7.65593C17.8814 7.5572 17.6974 7.5 17.5 7.5H16.2719C16.2529 7.45233 16.2333 7.40493 16.2133 7.3578L17.0784 6.49264C17.2188 6.35226 17.3087 6.18054 17.3482 6C17.4185 5.67828 17.3286 5.32858 17.0784 5.07843L14.9571 2.95711C14.6977 2.69772 14.3313 2.61062 14 2.6958C13.8325 2.73887 13.674 2.82597 13.5429 2.95711L12.6919 3.80812C12.6284 3.78049 12.5645 3.75381 12.5 3.7281V2.5C12.5 2.32112 12.453 2.15321 12.3708 2.00793ZM11 3V4.74463L11.9442 5.12131C11.9942 5.14127 12.0439 5.16199 12.0931 5.18344L13.03 5.5913L14.25 4.37132L15.6642 5.78553L14.4363 7.01342L14.8332 7.94544C14.8487 7.98201 14.8639 8.01882 14.8787 8.05584L15.2554 9H17V11H15.2554L14.8787 11.9442C14.8639 11.9812 14.8488 12.018 14.8332 12.0546L14.4363 12.9866L15.685 14.2353L14.2708 15.6495L13.03 14.4087L12.0931 14.8166C12.0439 14.838 11.9942 14.8587 11.9442 14.8787L11 15.2554V17H9V15.2554L8.05584 14.8787C8.01882 14.8639 7.98201 14.8487 7.94544 14.8332L7.01342 14.4363L5.76472 15.685L4.35051 14.2708L5.59131 13.03L5.18344 12.0931C5.16199 12.0439 5.14128 11.9942 5.12131 11.9442L4.74463 11H3V9H4.74463L5.12131 8.05583C5.14127 8.0058 5.16199 7.95614 5.18344 7.90686L5.59131 6.96999L4.37132 5.75L5.78553 4.33579L7.01342 5.56367L7.94543 5.16683C7.98202 5.15125 8.01882 5.13608 8.05583 5.12131L9 4.74463V3H11ZM10 13.5C11.933 13.5 13.5 11.933 13.5 10C13.5 8.067 11.933 6.5 10 6.5C8.067 6.5 6.5 8.067 6.5 10C6.5 11.933 8.067 13.5 10 13.5ZM10 8C11.1046 8 12 8.89543 12 10C12 11.1046 11.1046 12 10 12C8.89543 12 8 11.1046 8 10C8 8.89543 8.89543 8 10 8Z" />
</svg>
