<svg width="16" height="16" viewBox="0 0 16 16" fill="black" xmlns="http://www.w3.org/2000/svg">
<path fill-rule="evenodd" clip-rule="evenodd" d="M3.50168 3C3.225 3 3.00085 3.22439 3.00085 3.5V12.5C3.00085 12.7761 3.22471 13 3.50086 13H12.4991C12.7753 13 12.9991 12.7761 12.9991 12.5V8.39978C12.9991 8.12364 13.223 7.89978 13.4991 7.89978C13.7753 7.89978 13.9991 8.12364 13.9991 8.39978V12.5C13.9991 13.3284 13.3275 14 12.4991 14H3.50086C2.67243 14 2.00085 13.3284 2.00085 12.5V3.5C2.00085 2.67104 2.67378 2 3.50168 2H7.59375C7.86989 2 8.09375 2.22386 8.09375 2.5C8.09375 2.77614 7.86989 3 7.59375 3H3.50168Z"/>
<path fill-rule="evenodd" clip-rule="evenodd" d="M9.99915 2.5C9.99915 2.22386 10.223 2 10.4991 2H13.4991C13.7753 2 13.9991 2.22386 13.9991 2.5V5.5C13.9991 5.77614 13.7753 6 13.4991 6C13.223 6 12.9991 5.77614 12.9991 5.5V3H10.4991C10.223 3 9.99915 2.77614 9.99915 2.5Z"/>
<path fill-rule="evenodd" clip-rule="evenodd" d="M13.8527 2.14645C14.048 2.34171 14.048 2.65829 13.8527 2.85355L8.8527 7.85354C8.65744 8.04881 8.34085 8.04881 8.14559 7.85354C7.95033 7.65828 7.95033 7.3417 8.14559 7.14644L13.1456 2.14645C13.3409 1.95118 13.6574 1.95118 13.8527 2.14645Z"/>
</svg>
