<svg width="20" height="20" viewBox="0 0 20 20" fill="black" xmlns="http://www.w3.org/2000/svg">
<path fill-rule="evenodd" clip-rule="evenodd" d="M10 3C13.866 3 17 6.13401 17 10C17 13.866 13.866 17 10 17C6.13401 17 3 13.866 3 10C3 6.13401 6.13401 3 10 3ZM10 18.5C14.6944 18.5 18.5 14.6944 18.5 10C18.5 5.30558 14.6944 1.5 10 1.5C5.30558 1.5 1.5 5.30558 1.5 10C1.5 14.6944 5.30558 18.5 10 18.5ZM13.0303 9.46967L9.53033 5.96967C9.23744 5.67678 8.76256 5.67678 8.46967 5.96967C8.17678 6.26256 8.17678 6.73744 8.46967 7.03033L11.4393 10L8.46967 12.9697C8.17678 13.2626 8.17678 13.7374 8.46967 14.0303C8.76256 14.3232 9.23744 14.3232 9.53033 14.0303L13.0303 10.5303C13.3232 10.2374 13.3232 9.76256 13.0303 9.46967Z" />
</svg>
