<svg width="16" height="16" viewBox="0 0 16 16" fill="black" xmlns="http://www.w3.org/2000/svg">
<path fill-rule="evenodd" clip-rule="evenodd" d="M3.5 6.5C3.5 4.01472 5.51472 2 8 2C10.4853 2 12.5 4.01472 12.5 6.5V7C13.8807 7 15 8.11929 15 9.5C15 10.8807 13.8807 12 12.5 12V12.5C12.5 13.3284 11.8284 14 11 14H9.5C9.22386 14 9 13.7761 9 13.5C9 13.2239 9.22386 13 9.5 13H11C11.2761 13 11.5 12.7761 11.5 12.5V6.5C11.5 4.567 9.933 3 8 3C6.067 3 4.5 4.567 4.5 6.5V11.5C4.5 11.7761 4.27614 12 4 12H3.5C2.11929 12 1 10.8807 1 9.5C1 8.11929 2.11929 7 3.5 7V6.5ZM3.5 8C2.67157 8 2 8.67157 2 9.5C2 10.3284 2.67157 11 3.5 11V8ZM12.5 8V11C13.3284 11 14 10.3284 14 9.5C14 8.67157 13.3284 8 12.5 8Z"/>
<path fill-rule="evenodd" clip-rule="evenodd" d="M8 14C8.27614 14 8.5 13.7761 8.5 13.5C8.5 13.2239 8.27614 13 8 13C7.72386 13 7.5 13.2239 7.5 13.5C7.5 13.7761 7.72386 14 8 14ZM8 15C8.82843 15 9.5 14.3284 9.5 13.5C9.5 12.6716 8.82843 12 8 12C7.17157 12 6.5 12.6716 6.5 13.5C6.5 14.3284 7.17157 15 8 15Z"/>
</svg>
