<svg width="20" height="20" viewBox="0 0 20 20" fill="black" xmlns="http://www.w3.org/2000/svg">
<path fill-rule="evenodd" clip-rule="evenodd" d="M16.9711 2.91309C17.1499 3.05538 17.2541 3.27146 17.2541 3.50001V14C17.2541 14.2286 17.1499 14.4446 16.9711 14.5869C16.7922 14.7292 16.5583 14.7822 16.3356 14.7308L10.75 13.4422V16C10.75 16.6904 10.1904 17.25 9.5 17.25H8.57701C8.08039 17.25 7.63087 16.956 7.43181 16.501L5.92241 13.051C4.08515 12.4845 2.75 10.7732 2.75 8.75001C2.75 6.26473 4.76472 4.25001 7.25 4.25001H9.91668L16.3356 2.7692C16.5583 2.71783 16.7922 2.7708 16.9711 2.91309ZM15.7541 4.44273L10.75 5.59716V11.9029L15.7541 13.0573V4.44273ZM9.25 5.75001H7.25C5.59314 5.75001 4.25 7.09315 4.25 8.75001C4.25 10.4069 5.59315 11.75 7.25 11.75H9.25V5.75001ZM9.25 13.25H7.64676L8.74051 15.75H9.25V13.25Z" />
</svg>
