<svg width="20" height="20" viewBox="0 0 20 20" fill="black" xmlns="http://www.w3.org/2000/svg">
<path d="M10 2.75C10.4142 2.75 10.75 3.08579 10.75 3.5V11.6893L12.9697 9.46967C13.2626 9.17678 13.7374 9.17678 14.0303 9.46967C14.3232 9.76256 14.3232 10.2374 14.0303 10.5303L10.5303 14.0303C10.3839 14.1768 10.1919 14.25 10 14.25C9.89831 14.25 9.80134 14.2298 9.71291 14.1931C9.62445 14.1565 9.54158 14.1022 9.46967 14.0303L5.96967 10.5303C5.67678 10.2374 5.67678 9.76256 5.96967 9.46967C6.26256 9.17678 6.73744 9.17678 7.03033 9.46967L9.25 11.6893V3.5C9.25 3.08579 9.58579 2.75 10 2.75Z" fill="black"/>
<path d="M3.5 15.7499C3.08579 15.7499 2.75 16.0857 2.75 16.4999C2.75 16.9142 3.08579 17.2499 3.5 17.2499H16.5C16.9142 17.2499 17.25 16.9142 17.25 16.4999C17.25 16.0857 16.9142 15.7499 16.5 15.7499H3.5Z" />
</svg>
