<svg width="20" height="20" viewBox="0 0 20 20" fill="black" xmlns="http://www.w3.org/2000/svg">
<path fill-rule="evenodd" clip-rule="evenodd" d="M10.3713 18.321C11.7156 16.672 16.25 10.8613 16.25 7.5066C16.25 4.16015 13.4518 1.5 10 1.5C6.54822 1.5 3.75 4.16015 3.75 7.5066C3.75 10.8613 8.28436 16.672 9.62869 18.321C9.82299 18.5594 10.177 18.5594 10.3713 18.321ZM10 3C12.6849 3 14.75 5.04881 14.75 7.5066C14.75 8.04658 14.5569 8.81893 14.1415 9.7895C13.7367 10.7353 13.1708 11.7557 12.5435 12.7572C11.6734 14.1464 10.7207 15.4432 10 16.3755C9.27929 15.4432 8.32656 14.1464 7.45645 12.7572C6.82918 11.7557 6.26329 10.7353 5.8585 9.7895C5.44308 8.81892 5.25 8.04658 5.25 7.5066C5.25 5.04881 7.3151 3 10 3ZM10 5.5C11.3807 5.5 12.5 6.61929 12.5 8C12.5 9.38071 11.3807 10.5 10 10.5C8.61929 10.5 7.5 9.38071 7.5 8C7.5 6.61929 8.61929 5.5 10 5.5ZM10 9C10.5523 9 11 8.55228 11 8C11 7.44772 10.5523 7 10 7C9.44772 7 9 7.44772 9 8C9 8.55228 9.44772 9 10 9Z" />
</svg>
