<svg width="18" height="18" viewBox="0 0 18 18" fill="#838990" xmlns="http://www.w3.org/2000/svg">
    <path fill-rule="evenodd" clip-rule="evenodd" d="M0.788394 7.09183C0.390805 6.92331 0.408429 6.36001 0.815793 6.21612L8.03978 3.66449C8.66072 3.44517 9.33928 3.44517 9.96021 3.66449L17.1842 6.21612C17.5916 6.36001 17.6092 6.92331 17.2116 7.09183L10.1246 10.0957C9.40646 10.4001 8.59354 10.4001 7.87539 10.0957L0.788394 7.09183ZM3.5757 6.7391L8.42987 8.79658C8.79373 8.9508 9.20627 8.9508 9.57013 8.79658L14.4243 6.7391L9.48694 4.99515C9.17219 4.88397 8.82781 4.88397 8.51306 4.99515L3.5757 6.7391Z"/>
    <path d="M3.55652 9.20631C3.44292 9.37494 3.33331 9.60252 3.33331 9.85295V13.6177C3.33331 14.6572 7.01233 15.5 8.05554 15.5H9.94442C10.9876 15.5 14.6666 14.6572 14.6666 13.6177V9.85295C14.6666 9.60252 14.557 9.37494 14.4434 9.20631L13.25 9.71217V13.1975C13.0261 13.3241 12.6865 13.4673 12.2583 13.6062C11.2797 13.9236 10.258 14.0882 9.94442 14.0882H8.05554C7.74192 14.0882 6.72024 13.9236 5.7417 13.6062C5.31346 13.4673 4.97391 13.3241 4.74998 13.1975V9.71217L3.55652 9.20631Z"/>
    <path fill-rule="evenodd" clip-rule="evenodd" d="M1.20831 11.9706V6.32353H2.62498V11.9706H1.20831Z"/>
</svg>
