<svg width="20" height="20" viewBox="0 0 20 20" fill="black" xmlns="http://www.w3.org/2000/svg">
<path fill-rule="evenodd" clip-rule="evenodd" d="M3 10C3 13.866 6.13401 17 10 17C13.866 17 17 13.866 17 10C17 6.13401 13.866 3 10 3C6.13401 3 3 6.13401 3 10ZM18.5 10C18.5 14.6944 14.6944 18.5 10 18.5C5.30558 18.5 1.5 14.6944 1.5 10C1.5 5.30558 5.30558 1.5 10 1.5C14.6944 1.5 18.5 5.30558 18.5 10ZM10 8C10.5523 8 11 7.55228 11 7C11 6.44772 10.5523 6 10 6C9.44772 6 9 6.44772 9 7C9 7.55228 9.44772 8 10 8ZM10.75 13.5V9.5C10.75 9.08579 10.4142 8.75 9.99999 8.75C9.58578 8.75 9.24999 9.08579 9.24999 9.5V13.5C9.24999 13.9142 9.58578 14.25 9.99999 14.25C10.4142 14.25 10.75 13.9142 10.75 13.5Z" />
</svg>
