<svg width="16" height="16" viewBox="0 0 16 16" fill="black" xmlns="http://www.w3.org/2000/svg">
<path fill-rule="evenodd" clip-rule="evenodd" d="M8 5.79179L7.16516 4.5257C6.75467 3.90318 6.05854 3.5 5.27273 3.5C4.02534 3.5 3 4.5219 3 5.8C3 6.46253 3.27323 7.21871 3.78425 8.03207C4.28965 8.8365 4.98019 9.62153 5.6981 10.3215C6.41239 11.0179 7.13067 11.6079 7.67232 12.0246C7.79109 12.116 7.90097 12.1988 8 12.2722C8.09904 12.1988 8.20892 12.116 8.32768 12.0246C8.86934 11.6079 9.58761 11.0179 10.3019 10.3215C11.0198 9.62153 11.7103 8.8365 12.2157 8.03207C12.7268 7.21871 13 6.46253 13 5.8C13 4.5219 11.9747 3.5 10.7273 3.5C9.94146 3.5 9.24533 3.90318 8.83485 4.5257L8 5.79179ZM8 13.5C8 13.5 2 9.5 2 5.8C2 3.97746 3.46525 2.5 5.27273 2.5C6.0432 2.5 6.75149 2.76846 7.31061 3.21768C7.57757 3.43217 7.81052 3.68786 8 3.97522C8.18948 3.68786 8.42244 3.43217 8.6894 3.21768C9.24851 2.76846 9.9568 2.5 10.7273 2.5C12.5348 2.5 14 3.97746 14 5.8C14 9.5 8 13.5 8 13.5Z"/>
</svg>
