<svg width="16" height="16" viewBox="0 0 16 16" fill="black" xmlns="http://www.w3.org/2000/svg">
<path fill-rule="evenodd" clip-rule="evenodd" d="M8 14C11.3137 14 14 11.3137 14 8C14 4.68629 11.3137 2 8 2C4.68629 2 2 4.68629 2 8C2 11.3137 4.68629 14 8 14ZM8 15C11.866 15 15 11.866 15 8C15 4.13401 11.866 1 8 1C4.13401 1 1 4.13401 1 8C1 11.866 4.13401 15 8 15Z"/>
<path fill-rule="evenodd" clip-rule="evenodd" d="M8 5.5C7.30964 5.5 6.75 6.05964 6.75 6.75C6.75 7.02614 6.52614 7.25 6.25 7.25C5.97386 7.25 5.75 7.02614 5.75 6.75C5.75 5.50736 6.75736 4.5 8 4.5C9.24264 4.5 10.25 5.50736 10.25 6.75C10.25 7.99264 9.24264 9 8 9C7.72386 9 7.5 8.77614 7.5 8.5C7.5 8.22386 7.72386 8 8 8C8.69036 8 9.25 7.44036 9.25 6.75C9.25 6.05964 8.69036 5.5 8 5.5Z"/>
<path d="M8.75 10.75C8.75 11.1642 8.41421 11.5 8 11.5C7.58579 11.5 7.25 11.1642 7.25 10.75C7.25 10.3358 7.58579 10 8 10C8.41421 10 8.75 10.3358 8.75 10.75Z"/>
</svg>
