<svg width="20" height="20" viewBox="0 0 20 20" fill="black" xmlns="http://www.w3.org/2000/svg">
<path fill-rule="evenodd" clip-rule="evenodd" d="M10.168 4.75269C8.97105 4.71436 7.79696 5.08642 6.84052 5.80713C5.88408 6.52785 5.20279 7.55389 4.90968 8.71505C4.61657 9.87621 4.72926 11.1027 5.22905 12.191C5.72884 13.2793 6.58569 14.164 7.65744 14.6984C8.7292 15.2328 9.95143 15.3846 11.1214 15.1288C12.2913 14.873 13.3387 14.2249 14.0896 13.2921C14.8406 12.3592 15.25 11.1976 15.25 10C15.25 9.58578 15.5858 9.25 16 9.25C16.4142 9.25 16.75 9.58578 16.75 10C16.75 11.5397 16.2236 13.0332 15.2581 14.2326C14.2926 15.4321 12.946 16.2653 11.4418 16.5942C9.93756 16.9231 8.36611 16.7278 6.98814 16.0408C5.61017 15.3537 4.5085 14.2162 3.86592 12.817C3.22333 11.4177 3.07844 9.84084 3.4553 8.34793C3.83216 6.85501 4.7081 5.5358 5.93781 4.60917C7.16751 3.68254 8.67707 3.20418 10.216 3.25346C11.5535 3.29628 12.9059 3.77327 14 4.54946V4C14 3.58579 14.3358 3.25 14.75 3.25C15.1642 3.25 15.5 3.58579 15.5 4V6.5C15.5 6.91421 15.1642 7.25 14.75 7.25H12.25C11.8358 7.25 11.5 6.91421 11.5 6.5C11.5 6.08579 11.8358 5.75 12.25 5.75H13.0997C12.2442 5.15249 11.1886 4.78537 10.168 4.75269Z" />
</svg>
