<svg width="20" height="20" viewBox="0 0 20 20" fill="black" xmlns="http://www.w3.org/2000/svg">
<path fill-rule="evenodd" clip-rule="evenodd" d="M9.5567 1.59965C9.74363 1.24136 10.2564 1.24136 10.4433 1.59965L12.878 6.26626C12.9544 6.41255 13.0979 6.51176 13.2618 6.53142L18.1904 7.12285C18.6112 7.17335 18.7823 7.69176 18.4741 7.98279L14.9479 11.3131C14.8245 11.4296 14.7687 11.6008 14.7996 11.7677L15.7931 17.1327C15.8624 17.507 15.5135 17.7972 15.1781 17.7094C15.1302 17.6969 15.0826 17.6766 15.0365 17.6478L10.265 14.6656C10.1029 14.5643 9.89713 14.5643 9.73499 14.6656L4.96353 17.6478C4.61771 17.8639 4.18567 17.5981 4.19828 17.2116C4.19912 17.1858 4.20194 17.1595 4.20689 17.1327L5.20043 11.7677C5.22747 11.6216 5.18809 11.4724 5.09516 11.3592C5.08189 11.3431 5.06752 11.3277 5.0521 11.3131L1.52589 7.98279C1.21773 7.69176 1.38878 7.17335 1.80963 7.12285L6.73823 6.53142C6.90205 6.51176 7.04562 6.41255 7.12195 6.26626L9.5567 1.59965Z" />
</svg>
