<svg width="20" height="20" viewBox="0 0 20 20" fill="black" xmlns="http://www.w3.org/2000/svg">
<path fill-rule="evenodd" clip-rule="evenodd" d="M15.662 5.0171C13.2696 4.49754 11.6638 3.18219 10.497 2.18696C10.4451 2.14115 10.3881 2.10363 10.3278 2.07455C10.2245 2.02456 10.1128 1.99995 10.0014 2C9.89005 1.99995 9.77831 2.02456 9.67504 2.07455C9.61475 2.10364 9.55774 2.14115 9.50583 2.18696C8.33899 3.18219 6.73326 4.49754 4.34083 5.0171C3.99599 5.09199 3.75 5.39714 3.75 5.75001V11C3.75 11.0304 3.75185 11.0608 3.75553 11.0909C3.98559 12.9751 5.37938 15.8928 9.67577 17.9247C9.68396 17.9287 9.69222 17.9324 9.70054 17.9361C9.89935 18.0233 10.1167 18.0173 10.3023 17.9361C10.3106 17.9324 10.3189 17.9287 10.3271 17.9247C14.6234 15.8928 16.0172 12.9751 16.2473 11.0909C16.251 11.0608 16.2528 11.0304 16.2528 11V5.75001C16.2528 5.39714 16.0068 5.09199 15.662 5.0171ZM12.7803 8.96967C13.0732 9.26256 13.0732 9.73744 12.7803 10.0303L10.0303 12.7803C9.8853 12.9254 9.6872 13.0047 9.48216 12.9998C9.27711 12.9949 9.08301 12.9063 8.94504 12.7545L7.44504 11.1045C7.16641 10.798 7.189 10.3237 7.4955 10.045C7.80199 9.76641 8.27632 9.789 8.55496 10.0955L9.52585 11.1635L11.7197 8.96967C12.0126 8.67678 12.4874 8.67678 12.7803 8.96967Z" />
</svg>
