<svg width="20" height="20" viewBox="0 0 20 20" fill="black" xmlns="http://www.w3.org/2000/svg">
<path fill-rule="evenodd" clip-rule="evenodd" d="M10 7.70781L8.74097 5.73403C8.26638 4.99002 7.47272 4.5229 6.59091 4.5229C5.19696 4.5229 4 5.71215 4 7.26411C4 8.65598 4.96037 10.3476 6.44529 12.0319C7.6927 13.4469 9.1104 14.6347 10 15.3267C10.8896 14.6347 12.3073 13.4469 13.5547 12.0319C15.0396 10.3476 16 8.65598 16 7.26411C16 5.71215 14.803 4.5229 13.4091 4.5229C12.5273 4.5229 11.7336 4.99002 11.259 5.73403L10 7.70781ZM8.94655 3.77745C8.28054 3.28768 7.46796 3 6.59091 3C4.33156 3 2.5 4.90911 2.5 7.26411C2.5 11.2539 7.72304 15.5136 9.45178 16.8142C9.78101 17.0619 10.219 17.0619 10.5482 16.8142C12.277 15.5136 17.5 11.2539 17.5 7.26411C17.5 4.90911 15.6684 3 13.4091 3C12.532 3 11.7195 3.28768 11.0535 3.77745C10.6389 4.08229 10.2812 4.46542 10 4.90621C9.71884 4.46542 9.36108 4.08229 8.94655 3.77745Z" />
</svg>
