<svg width="20" height="20" viewBox="0 0 20 20" fill="black" xmlns="http://www.w3.org/2000/svg">
<path fill-rule="evenodd" clip-rule="evenodd" d="M16.25 7.50002C16.25 7.45237 16.2473 7.40535 16.2421 7.35908C16.2789 7.10707 16.1864 6.84257 15.9749 6.66955L10.4749 2.16955C10.3173 2.04058 10.1229 1.98645 9.93488 2.00285C9.91517 2.00098 9.8952 2.00002 9.875 2.00002H5C4.30964 2.00002 3.75 2.55967 3.75 3.25002V16.75C3.75 17.4404 4.30964 18 5 18H15C15.6904 18 16.25 17.4404 16.25 16.75V7.50002ZM10.5 5.62502V4.12816L13.0934 6.25002H11.125C10.7798 6.25002 10.5 5.9702 10.5 5.62502ZM9 5.62502C9 6.79863 9.95139 7.75002 11.125 7.75002H14.75V16.5H5.25V3.50002H9V5.62502Z" />
</svg>
