<svg width="20" height="20" viewBox="0 0 20 20" fill="black" xmlns="http://www.w3.org/2000/svg">
<path fill-rule="evenodd" clip-rule="evenodd" d="M15.4185 14.432C14.9513 15.0025 14.9679 15.828 15.4578 16.3791L16.0097 17H10C6.13401 17 3 13.866 3 10C3 6.13401 6.13401 3 10 3C13.866 3 17 6.13401 17 10C17 11.6835 16.4076 13.2245 15.4185 14.432ZM18.5 10C18.5 12.0425 17.7796 13.9168 16.5789 15.3826L18.2404 17.2517C18.6704 17.7354 18.327 18.5 17.6799 18.5H10C5.30558 18.5 1.5 14.6944 1.5 10C1.5 5.30558 5.30558 1.5 10 1.5C14.6944 1.5 18.5 5.30558 18.5 10ZM6.75 10.75C7.16421 10.75 7.5 10.4142 7.5 10C7.5 9.58579 7.16421 9.25 6.75 9.25C6.33579 9.25 6 9.58579 6 10C6 10.4142 6.33579 10.75 6.75 10.75ZM10.75 10C10.75 10.4142 10.4142 10.75 10 10.75C9.58579 10.75 9.25 10.4142 9.25 10C9.25 9.58579 9.58579 9.25 10 9.25C10.4142 9.25 10.75 9.58579 10.75 10ZM13.25 10.75C13.6642 10.75 14 10.4142 14 10C14 9.58579 13.6642 9.25 13.25 9.25C12.8358 9.25 12.5 9.58579 12.5 10C12.5 10.4142 12.8358 10.75 13.25 10.75Z" />
</svg>
