<svg width="16" height="16" viewBox="0 0 16 16" fill="black" xmlns="http://www.w3.org/2000/svg">
<path fill-rule="evenodd" clip-rule="evenodd" d="M8 14C11.3137 14 14 11.3137 14 8C14 4.68629 11.3137 2 8 2C4.68629 2 2 4.68629 2 8C2 11.3137 4.68629 14 8 14ZM8 15C11.866 15 15 11.866 15 8C15 4.13401 11.866 1 8 1C4.13401 1 1 4.13401 1 8C1 11.866 4.13401 15 8 15Z"/>
<path d="M8.75 10.75C8.75 11.1642 8.41421 11.5 8 11.5C7.58579 11.5 7.25 11.1642 7.25 10.75C7.25 10.3358 7.58579 10 8 10C8.41421 10 8.75 10.3358 8.75 10.75Z"/>
<path fill-rule="evenodd" clip-rule="evenodd" d="M8 4.5C8.27614 4.5 8.5 4.72386 8.5 5V8.5C8.5 8.77614 8.27614 9 8 9C7.72386 9 7.5 8.77614 7.5 8.5V5C7.5 4.72386 7.72386 4.5 8 4.5Z"/>
</svg>
