<svg width="20" height="20" viewBox="0 0 20 20" fill="black" xmlns="http://www.w3.org/2000/svg">
<path fill-rule="evenodd" clip-rule="evenodd" d="M10 1.5C14.6944 1.5 18.5 5.30558 18.5 10C18.5 14.6944 14.6944 18.5 10 18.5C5.30558 18.5 1.5 14.6944 1.5 10C1.5 5.30558 5.30558 1.5 10 1.5ZM10 14C10.5523 14 11 13.5523 11 13C11 12.4477 10.5523 12 10 12C9.44772 12 9 12.4477 9 13C9 13.5523 9.44772 14 10 14ZM9.99999 11.25C10.4142 11.25 10.75 10.9142 10.75 10.5V6.5C10.75 6.08579 10.4142 5.75 9.99999 5.75C9.58578 5.75 9.24999 6.08579 9.24999 6.5V10.5C9.24999 10.9142 9.58578 11.25 9.99999 11.25Z" />
</svg>
