<svg width="16" height="16" viewBox="0 0 16 16" fill="black" xmlns="http://www.w3.org/2000/svg">
<path fill-rule="evenodd" clip-rule="evenodd" d="M14 8C14 11.3137 11.3137 14 8 14C6.587 14 5.28808 13.5116 4.26287 12.6943L7.11617 9.84101C7.31143 9.64575 7.31143 9.32917 7.11617 9.13391C6.92091 8.93864 6.60433 8.93864 6.40906 9.13391L3.53496 12.008C2.58062 10.9455 2 9.54058 2 8C2 4.68629 4.68629 2 8 2C9.54058 2 10.9455 2.58062 12.008 3.53496L9.23749 6.30548C9.04223 6.50074 9.04223 6.81732 9.23749 7.01258C9.43275 7.20785 9.74934 7.20785 9.9446 7.01258L12.6943 4.26287C13.5116 5.28808 14 6.587 14 8ZM15 8C15 11.866 11.866 15 8 15C4.13401 15 1 11.866 1 8C1 4.13401 4.13401 1 8 1C11.866 1 15 4.13401 15 8Z"/>
</svg>
