<svg width="20" height="20" viewBox="0 0 20 20" fill="black" xmlns="http://www.w3.org/2000/svg">
<path fill-rule="evenodd" clip-rule="evenodd" d="M10 18.5C14.6944 18.5 18.5 14.6944 18.5 10C18.5 5.30558 14.6944 1.5 10 1.5C5.30558 1.5 1.5 5.30558 1.5 10C1.5 14.6944 5.30558 18.5 10 18.5ZM10 3C13.866 3 17 6.13401 17 10C17 13.866 13.866 17 10 17C6.13401 17 3 13.866 3 10C3 6.13401 6.13401 3 10 3ZM13.4732 9.55185C13.8124 9.74754 13.8052 10.2395 13.4604 10.4252L8.48705 13.1031C8.15393 13.2825 7.75 13.0412 7.75 12.6629V7.11571C7.75 6.73088 8.16653 6.4903 8.49986 6.68261L13.4732 9.55185Z" />
</svg>
