<svg width="20" height="20" viewBox="0 0 20 20" fill="black" xmlns="http://www.w3.org/2000/svg">
<path fill-rule="evenodd" clip-rule="evenodd" d="M7 4V3.24963C7 3.11156 7.11193 2.99963 7.25 2.99963H10H12.75C12.8881 2.99963 13 3.11156 13 3.24963V4H10H7ZM5.5 3.24963V4H4.5H3C2.58579 4 2.25 4.33579 2.25 4.75C2.25 5.16421 2.58579 5.5 3 5.5H3.75V11.25V16.75C3.75 17.7165 4.5335 18.5 5.5 18.5H14.5C15.4665 18.5 16.25 17.7165 16.25 16.75V5.5H17C17.4142 5.5 17.75 5.16421 17.75 4.75C17.75 4.33579 17.4142 4 17 4H15.5H14.5V3.24963C14.5 2.28314 13.7165 1.49963 12.75 1.49963H10H7.25C6.2835 1.49963 5.5 2.28314 5.5 3.24963ZM5.25 16.75V11.25V5.5H10H14.75V16.75C14.75 16.8881 14.6381 17 14.5 17H12.75V12.75C12.75 12.3358 12.4142 12 12 12C11.5858 12 11.25 12.3358 11.25 12.75V17H8.75V12.75C8.75 12.3358 8.41421 12 8 12C7.58579 12 7.25 12.3358 7.25 12.75V17H5.5C5.36193 17 5.25 16.8881 5.25 16.75Z" />
</svg>
