<svg width="16" height="16" viewBox="0 0 16 16" fill="black" xmlns="http://www.w3.org/2000/svg">
<path fill-rule="evenodd" clip-rule="evenodd" d="M8 14C11.3137 14 14 11.3137 14 8C14 4.68629 11.3137 2 8 2C4.68629 2 2 4.68629 2 8C2 11.3137 4.68629 14 8 14ZM8 15C11.866 15 15 11.866 15 8C15 4.13401 11.866 1 8 1C4.13401 1 1 4.13401 1 8C1 11.866 4.13401 15 8 15Z"/>
<path fill-rule="evenodd" clip-rule="evenodd" d="M4.8143 6.03576C5.0707 5.9332 5.36168 6.05791 5.46424 6.3143L5.83852 7.25H7.16148L7.53576 6.3143C7.61169 6.12447 7.79555 6 8 6C8.20445 6 8.38831 6.12447 8.46424 6.3143L8.83852 7.25H10.1615L10.5358 6.3143C10.6383 6.05791 10.9293 5.9332 11.1857 6.03576C11.4421 6.13831 11.5668 6.4293 11.4642 6.68569L11.2385 7.25H11.5C11.7761 7.25 12 7.47385 12 7.75C12 8.02614 11.7761 8.25 11.5 8.25H10.8385L9.96424 10.4357C9.88831 10.6255 9.70445 10.75 9.5 10.75C9.29555 10.75 9.11169 10.6255 9.03576 10.4357L8.16148 8.25H7.83852L6.96424 10.4357C6.88831 10.6255 6.70445 10.75 6.5 10.75C6.29555 10.75 6.11169 10.6255 6.03576 10.4357L5.16148 8.25H4.5C4.22386 8.25 4 8.02614 4 7.75C4 7.47385 4.22386 7.25 4.5 7.25H4.76148L4.53576 6.68569C4.4332 6.4293 4.55791 6.13831 4.8143 6.03576ZM6.23852 8.25L6.5 8.9037L6.76148 8.25H6.23852ZM9.23852 8.25L9.5 8.9037L9.76148 8.25H9.23852Z"/>
</svg>
