<svg width="16" height="16" viewBox="0 0 16 16" fill="black" xmlns="http://www.w3.org/2000/svg">
<path fill-rule="evenodd" clip-rule="evenodd" d="M6 2C5.72386 2 5.5 2.22386 5.5 2.5V3.30556H4.5V2.5C4.5 1.67157 5.17157 1 6 1H10C10.8284 1 11.5 1.67157 11.5 2.5V3.30556H10.5V2.5C10.5 2.22386 10.2761 2 10 2H6ZM4 3.66667V13.5C4 13.7761 4.22386 14 4.5 14H6V10.1667C6 9.89052 6.22386 9.66667 6.5 9.66667C6.77614 9.66667 7 9.89052 7 10.1667V14H9V10.1667C9 9.89052 9.22386 9.66667 9.5 9.66667C9.77614 9.66667 10 9.89052 10 10.1667V14H11.5C11.7761 14 12 13.7761 12 13.5V3.66667H13V13.5C13 14.3284 12.3284 15 11.5 15H4.5C3.67157 15 3 14.3284 3 13.5V3.66667H4Z"/>
<path fill-rule="evenodd" clip-rule="evenodd" d="M2 3.5C2 3.22386 2.22386 3 2.5 3H13.5C13.7761 3 14 3.22386 14 3.5C14 3.77614 13.7761 4 13.5 4H2.5C2.22386 4 2 3.77614 2 3.5Z"/>
</svg>
