<svg width="16" height="16" viewBox="0 0 16 16" fill="black" xmlns="http://www.w3.org/2000/svg">
<path d="M11.5 5.5V5C11.5 3.067 9.933 1.5 8 1.5V1.5C6.067 1.5 4.5 3.067 4.5 5V5.5" stroke="black"/>
<path fill-rule="evenodd" clip-rule="evenodd" d="M3.5 5C2.94772 5 2.5 5.44772 2.5 6V14C2.5 14.5523 2.94771 15 3.5 15H12.5C13.0523 15 13.5 14.5523 13.5 14V6C13.5 5.44772 13.0523 5 12.5 5H3.5ZM8.49994 9C8.49994 8.72386 8.27608 8.5 7.99994 8.5C7.7238 8.5 7.49994 8.72386 7.49994 9V11C7.49994 11.2761 7.7238 11.5 7.99994 11.5C8.27608 11.5 8.49994 11.2761 8.49994 11V9Z" fill="black"/>
</svg>
