<svg width="20" height="20" viewBox="0 0 20 20" fill="black" xmlns="http://www.w3.org/2000/svg">
<path fill-rule="evenodd" clip-rule="evenodd" d="M3 10C3 13.866 6.13401 17 10 17C13.866 17 17 13.866 17 10C17 6.13401 13.866 3 10 3C6.13401 3 3 6.13401 3 10ZM18.5 10C18.5 14.6944 14.6944 18.5 10 18.5C5.30558 18.5 1.5 14.6944 1.5 10C1.5 5.30558 5.30558 1.5 10 1.5C14.6944 1.5 18.5 5.30558 18.5 10ZM12.2197 6.71967C12.5126 6.42678 12.9874 6.42678 13.2803 6.71967C13.5732 7.01256 13.5732 7.48744 13.2803 7.78033L11.0607 10L13.2803 12.2197C13.5732 12.5126 13.5732 12.9874 13.2803 13.2803C12.9874 13.5732 12.5126 13.5732 12.2197 13.2803L10 11.0607L7.78034 13.2803C7.48744 13.5732 7.01257 13.5732 6.71968 13.2803C6.42678 12.9874 6.42678 12.5126 6.71968 12.2197L8.93934 10L6.71967 7.78033C6.42678 7.48744 6.42678 7.01256 6.71967 6.71967C7.01256 6.42678 7.48744 6.42678 7.78033 6.71967L10 8.93934L12.2197 6.71967Z" />
</svg>
