<svg width="20" height="20" viewBox="0 0 20 20" fill="black" xmlns="http://www.w3.org/2000/svg">
<path fill-rule="evenodd" clip-rule="evenodd" d="M15 15.2271L11.4793 12.9251C10.5797 12.3369 9.41685 12.3383 8.51866 12.9287L5.92907 14.6309L5 15.2352V4H15V5V6V8V8.52V15.2271ZM6.75 15.8864L9.3426 14.1821C9.7418 13.9197 10.2586 13.9191 10.6585 14.1805L15.5717 17.393C15.9707 17.6539 16.5 17.3676 16.5 16.8908V3.7C16.5 3.03726 15.9627 2.5 15.3 2.5H4.7C4.03726 2.5 3.5 3.03726 3.5 3.7V16.8941C3.5 17.3702 4.02797 17.6566 4.42712 17.397L6.75 15.8864Z" />
</svg>
