<svg width="20" height="20" viewBox="0 0 20 20" fill="black" xmlns="http://www.w3.org/2000/svg">
<path fill-rule="evenodd" clip-rule="evenodd" d="M16.25 7.5066C16.25 10.8613 11.7156 16.672 10.3713 18.321C10.177 18.5594 9.82299 18.5594 9.62869 18.321C8.28436 16.672 3.75 10.8613 3.75 7.5066C3.75 4.16015 6.54822 1.5 10 1.5C13.4518 1.5 16.25 4.16015 16.25 7.5066ZM7.5 8C7.5 9.38071 8.61929 10.5 10 10.5C11.3807 10.5 12.5 9.38071 12.5 8C12.5 6.61929 11.3807 5.5 10 5.5C8.61929 5.5 7.5 6.61929 7.5 8Z" />
</svg>
