<svg width="20" height="20" viewBox="0 0 20 20" fill="black" xmlns="http://www.w3.org/2000/svg">
<path d="M15.1853 3.75241L9.96883 8.96883C9.67547 9.26219 9.67547 9.73781 9.96883 10.0312C10.2622 10.3245 10.7378 10.3245 11.0312 10.0312L16.2476 4.81475V7C16.2476 7.41487 16.5839 7.75119 16.9988 7.75119C17.4137 7.75119 17.75 7.41487 17.75 7V3.00122C17.75 2.79628 17.6679 2.61051 17.5349 2.47498C17.5316 2.47168 17.5284 2.46841 17.5251 2.46517C17.4542 2.39557 17.3729 2.34286 17.2864 2.30703C17.1984 2.27057 17.1021 2.25033 17.0011 2.25003" fill="black"/>
<path d="M15.1853 3.75241H13C12.5851 3.75241 12.2488 3.41609 12.2488 3.00122C12.2488 2.58635 12.5851 2.25003 13 2.25003H16.9988" />
<path d="M2.25 4.00122C2.25 3.03407 3.03403 2.25003 4.00119 2.25003H9.5C9.91487 2.25003 10.2512 2.58635 10.2512 3.00122C10.2512 3.41609 9.91487 3.75241 9.5 3.75241H4.00119C3.86378 3.75241 3.75238 3.86381 3.75238 4.00122V15.9988C3.75238 16.1363 3.86378 16.2476 4.00119 16.2476H15.9988C16.1362 16.2476 16.2476 16.1363 16.2476 15.9988V10.5C16.2476 10.0851 16.5839 9.74881 16.9988 9.74881C17.4137 9.74881 17.75 10.0851 17.75 10.5V15.9988C17.75 16.966 16.966 17.75 15.9988 17.75H4.00119C3.03404 17.75 2.25 16.966 2.25 15.9988V4.00122Z" />
</svg>
