<svg width="16" height="16" viewBox="0 0 16 16" fill="black" xmlns="http://www.w3.org/2000/svg">
<path fill-rule="evenodd" clip-rule="evenodd" d="M5.5 1.5C5.5 1.22386 5.27614 1 5 1C4.72386 1 4.5 1.22386 4.5 1.5V2H2.5C2.22386 2 2 2.22386 2 2.5V13.5C2 13.7761 2.22386 14 2.5 14H13.5C13.7761 14 14 13.7761 14 13.5V2.5C14 2.22386 13.7761 2 13.5 2H11.5V1.5C11.5 1.22386 11.2761 1 11 1C10.7239 1 10.5 1.22386 10.5 1.5V2H5.5V1.5ZM10.5 3.5V3H5.5V3.5C5.5 3.77614 5.27614 4 5 4C4.72386 4 4.5 3.77614 4.5 3.5V3H3V5.5H13V3H11.5V3.5C11.5 3.77614 11.2761 4 11 4C10.7239 4 10.5 3.77614 10.5 3.5ZM13 6.5H3V13H13V6.5Z"/>
</svg>
