<svg width="20" height="20" viewBox="0 0 20 20" fill="black" xmlns="http://www.w3.org/2000/svg">
<path fill-rule="evenodd" clip-rule="evenodd" d="M8.75213 14.7543C10.1419 14.7543 11.4213 14.2819 12.4386 13.4891C12.4508 13.5032 12.4636 13.5169 12.4769 13.5303L15.9782 17.0316C16.2691 17.3225 16.7407 17.3225 17.0316 17.0316C17.3225 16.7407 17.3225 16.2691 17.0316 15.9782L13.5303 12.4769C13.5169 12.4636 13.5032 12.4508 13.4891 12.4386C14.2819 11.4213 14.7543 10.1419 14.7543 8.75213C14.7543 5.43724 12.067 2.75 8.75213 2.75C5.43724 2.75 2.75 5.43724 2.75 8.75213C2.75 12.067 5.43724 14.7543 8.75213 14.7543ZM8.75213 4.23973C11.2443 4.23973 13.2645 6.26 13.2645 8.75213C13.2645 11.2443 11.2443 13.2645 8.75213 13.2645C6.26 13.2645 4.23973 11.2443 4.23973 8.75213C4.23973 6.26 6.26 4.23973 8.75213 4.23973Z" />
</svg>
