<svg width="20" height="20" viewBox="0 0 20 20" fill="black" xmlns="http://www.w3.org/2000/svg">
<path fill-rule="evenodd" clip-rule="evenodd" d="M10 17C13.866 17 17 13.866 17 10C17 6.13401 13.866 3 10 3C6.13401 3 3 6.13401 3 10C3 13.866 6.13401 17 10 17ZM10 18.5C14.6944 18.5 18.5 14.6944 18.5 10C18.5 5.30558 14.6944 1.5 10 1.5C5.30558 1.5 1.5 5.30558 1.5 10C1.5 14.6944 5.30558 18.5 10 18.5ZM10.75 7.81065L12.4697 9.53032C12.7626 9.82321 13.2374 9.82321 13.5303 9.53032C13.8232 9.23742 13.8232 8.76255 13.5303 8.46966L10.8839 5.82321C10.3957 5.33505 9.60427 5.33505 9.11612 5.82321L6.46967 8.46966C6.17678 8.76255 6.17678 9.23742 6.46967 9.53032C6.76256 9.82321 7.23744 9.82321 7.53033 9.53032L9.25 7.81065V13.5C9.25 13.9142 9.58579 14.25 10 14.25C10.4142 14.25 10.75 13.9142 10.75 13.5V7.81065Z" />
</svg>
