<svg width="20" height="20" viewBox="0 0 20 20" fill="black" xmlns="http://www.w3.org/2000/svg">
<path fill-rule="evenodd" clip-rule="evenodd" d="M6.73823 6.53142C6.90205 6.51176 7.04562 6.41255 7.12195 6.26626L9.5567 1.59965C9.74364 1.24136 10.2564 1.24136 10.4433 1.59965L12.878 6.26626C12.9544 6.41255 13.0979 6.51176 13.2618 6.53142L18.1904 7.12285C18.6112 7.17335 18.7823 7.69176 18.4741 7.9828L14.9479 11.3131C14.8245 11.4296 14.7687 11.6008 14.7996 11.7677L15.7931 17.1328C15.8723 17.5605 15.4053 17.8783 15.0365 17.6478L10.265 14.6656C10.1029 14.5643 9.89713 14.5643 9.73499 14.6656L4.96353 17.6478C4.59466 17.8783 4.12768 17.5605 4.20689 17.1328L5.20043 11.7677C5.23133 11.6008 5.17548 11.4296 5.0521 11.3131L1.52589 7.9828C1.21773 7.69176 1.38878 7.17335 1.80963 7.12285L6.73823 6.53142ZM11.5482 6.96011L9.99999 3.99279L8.45182 6.96011C8.14654 7.54525 7.57223 7.9421 6.91694 8.02073L4.10761 8.35785L6.08203 10.2226C6.57556 10.6887 6.79896 11.3733 6.67535 12.0408L6.09561 15.1714L8.94 13.3936C9.58854 12.9883 10.4115 12.9883 11.06 13.3936L13.9044 15.1714L13.3246 12.0408C13.201 11.3733 13.4244 10.6887 13.918 10.2226L15.8924 8.35785L13.083 8.02073C12.4278 7.9421 11.8535 7.54525 11.5482 6.96011Z" />
</svg>
