<svg width="20" height="20" viewBox="0 0 20 20" fill="black" xmlns="http://www.w3.org/2000/svg">
<path fill-rule="evenodd" clip-rule="evenodd" d="M10 18.5C14.6944 18.5 18.5 14.6944 18.5 10C18.5 5.30558 14.6944 1.5 10 1.5C5.30558 1.5 1.5 5.30558 1.5 10C1.5 14.6944 5.30558 18.5 10 18.5ZM6.46967 8.46966L9.11612 5.82321C9.60427 5.33505 10.3957 5.33505 10.8839 5.82321L13.5303 8.46966C13.8232 8.76255 13.8232 9.23742 13.5303 9.53032C13.2374 9.82321 12.7626 9.82321 12.4697 9.53032L10.75 7.81065V13.5C10.75 13.9142 10.4142 14.25 10 14.25C9.58579 14.25 9.25 13.9142 9.25 13.5V7.81065L7.53033 9.53032C7.23744 9.82321 6.76256 9.82321 6.46967 9.53032C6.17678 9.23742 6.17678 8.76255 6.46967 8.46966Z" />
</svg>
