<svg width="16" height="16" viewBox="0 0 16 16" fill="black" xmlns="http://www.w3.org/2000/svg">
<path fill-rule="evenodd" clip-rule="evenodd" d="M15 8C15 11.866 11.866 15 8 15C4.13401 15 1 11.866 1 8C1 4.13401 4.13401 1 8 1C11.866 1 15 4.13401 15 8ZM8.75 5.25C8.75 5.66421 8.41421 6 8 6C7.58579 6 7.25 5.66421 7.25 5.25C7.25 4.83579 7.58579 4.5 8 4.5C8.41421 4.5 8.75 4.83579 8.75 5.25ZM8.5 7.5C8.5 7.22386 8.27614 7 8 7C7.72386 7 7.5 7.22386 7.5 7.5V11C7.5 11.2761 7.72386 11.5 8 11.5C8.27614 11.5 8.5 11.2761 8.5 11V7.5Z"/>
</svg>
