<svg width="16" height="16" viewBox="0 0 16 16" fill="black" xmlns="http://www.w3.org/2000/svg">
<path fill-rule="evenodd" clip-rule="evenodd" d="M8 14C11.3137 14 14 11.3137 14 8C14 4.68629 11.3137 2 8 2C4.68629 2 2 4.68629 2 8C2 11.3137 4.68629 14 8 14ZM8 15C11.866 15 15 11.866 15 8C15 4.13401 11.866 1 8 1C4.13401 1 1 4.13401 1 8C1 11.866 4.13401 15 8 15Z"/>
<path d="M8.75 5.25C8.75 5.66421 8.41421 6 8 6C7.58579 6 7.25 5.66421 7.25 5.25C7.25 4.83579 7.58579 4.5 8 4.5C8.41421 4.5 8.75 4.83579 8.75 5.25Z"/>
<path fill-rule="evenodd" clip-rule="evenodd" d="M8 7C8.27614 7 8.5 7.22386 8.5 7.5V11C8.5 11.2761 8.27614 11.5 8 11.5C7.72386 11.5 7.5 11.2761 7.5 11V7.5C7.5 7.22386 7.72386 7 8 7Z"/>
</svg>
