<svg width="28" height="28" viewBox="0 0 28 28" fill="black" xmlns="http://www.w3.org/2000/svg">
<path d="M3 5C3 3.89543 3.89543 3 5 3H13.5C14.0523 3 14.5 3.44772 14.5 4C14.5 4.55228 14.0523 5 13.5 5H5V23H23V14.75C23 14.1977 23.4477 13.75 24 13.75C24.5523 13.75 25 14.1977 25 14.75V23C25 24.1046 24.1046 25 23 25H5C3.89543 25 3 24.1046 3 23V5Z" fill="black"/>
<path d="M17 4C17 3.44772 17.4477 3 18 3H23C24.1046 3 25 3.89543 25 5V10C25 10.5523 24.5523 11 24 11C23.4477 11 23 10.5523 23 10V6.377L15.3135 14.0635C14.9333 14.4437 14.3167 14.4437 13.9365 14.0635C13.5563 13.6833 13.5563 13.0667 13.9365 12.6865L21.623 5H18C17.4477 5 17 4.55228 17 4Z" />
</svg>
