<svg width="28" height="28" viewBox="0 0 28 28" fill="black" xmlns="http://www.w3.org/2000/svg">
<path fill-rule="evenodd" clip-rule="evenodd" d="M14 28C21.732 28 28 21.732 28 14C28 6.26801 21.732 0 14 0C6.26801 0 0 6.26801 0 14C0 21.732 6.26801 28 14 28ZM19 21H10C9.44771 21 9 20.5523 9 20V8C9 7.44772 9.44771 7 10 7H13.5V11.5C13.5 12.1904 14.0596 12.75 14.75 12.75H20V20C20 20.5523 19.5523 21 19 21ZM19.924 11.25C19.8703 11.1203 19.7893 11.002 19.6849 10.9038L15.8199 7.27132C15.6345 7.09703 15.3896 7 15.1351 7H15V11.25H19.924ZM11.25 15.5C11.25 15.0858 11.5858 14.75 12 14.75H17C17.4142 14.75 17.75 15.0858 17.75 15.5C17.75 15.9142 17.4142 16.25 17 16.25H12C11.5858 16.25 11.25 15.9142 11.25 15.5ZM11.25 18C11.25 17.5858 11.5858 17.25 12 17.25H17C17.4142 17.25 17.75 17.5858 17.75 18C17.75 18.4142 17.4142 18.75 17 18.75H12C11.5858 18.75 11.25 18.4142 11.25 18Z" />
</svg>
