<svg width="28" height="28" viewBox="0 0 28 28" fill="black" xmlns="http://www.w3.org/2000/svg">
<path fill-rule="evenodd" clip-rule="evenodd" d="M3 23.7778C3 23.1028 3.54721 22.5556 4.22222 22.5556H23.7778C24.4528 22.5556 25 23.1028 25 23.7778C25 24.4528 24.4528 25 23.7778 25H4.22222C3.54721 25 3 24.4528 3 23.7778Z"/>
<path fill-rule="evenodd" clip-rule="evenodd" d="M14 3C14.675 3 15.2222 3.54721 15.2222 4.22222V17.6667C15.2222 18.3417 14.675 18.8889 14 18.8889C13.325 18.8889 12.7778 18.3417 12.7778 17.6667V4.22222C12.7778 3.54721 13.325 3 14 3Z"/>
<path fill-rule="evenodd" clip-rule="evenodd" d="M8.24687 13.1358C8.72417 12.6584 9.49804 12.6584 9.97535 13.1358L14 17.1604L18.0246 13.1358C18.502 12.6584 19.2758 12.6584 19.7531 13.1358C20.2304 13.6131 20.2304 14.3869 19.7531 14.8642L14.8642 19.7531C14.3869 20.2304 13.6131 20.2304 13.1358 19.7531L8.24687 14.8642C7.76956 14.3869 7.76956 13.6131 8.24687 13.1358Z"/>
</svg>
