<svg width="28" height="28" viewBox="0 0 28 28" fill="black" xmlns="http://www.w3.org/2000/svg">
<path fill-rule="evenodd" clip-rule="evenodd" d="M14 28C21.732 28 28 21.732 28 14C28 6.26801 21.732 0 14 0C6.26801 0 0 6.26801 0 14C0 21.732 6.26801 28 14 28ZM20.2071 12.2071C20.5976 11.8166 20.5976 11.1834 20.2071 10.7929C19.8166 10.4024 19.1834 10.4024 18.7929 10.7929L13 16.5858L9.70711 13.2929C9.31658 12.9024 8.68342 12.9024 8.29289 13.2929C7.90237 13.6834 7.90237 14.3166 8.29289 14.7071L12.2929 18.7071C12.6834 19.0976 13.3166 19.0976 13.7071 18.7071L20.2071 12.2071Z"/>
</svg>
