<svg width="28" height="28" viewBox="0 0 28 28" fill="black" xmlns="http://www.w3.org/2000/svg">
<path d="M7.25 3C6.14543 3 5.25 3.89543 5.25 5V23C5.25 24.1046 6.14543 25 7.25 25H20.75C21.8546 25 22.75 24.1046 22.75 23V10.4891C22.75 10.0355 22.5447 9.60624 22.1916 9.32149L14.7651 3.33238C14.7398 3.31198 14.714 3.29246 14.6875 3.27384C14.5083 3.1041 14.2663 3 14 3C13.9732 3 13.9466 3.00106 13.9203 3.00313C13.8882 3.00105 13.8559 3 13.8235 3H7.25ZM13 5V7.75C13 9.40685 14.3431 10.75 16 10.75H20.75V23H7.25V5H13ZM18.297 8.75H16C15.4477 8.75 15 8.30228 15 7.75V6.09112L18.297 8.75Z" />
</svg>
