<svg width="28" height="28" viewBox="0 0 28 28" fill="black" xmlns="http://www.w3.org/2000/svg">
<path fill-rule="evenodd" clip-rule="evenodd" d="M28 14C28 21.732 21.732 28 14 28C6.26801 28 0 21.732 0 14C0 6.26801 6.26801 0 14 0C21.732 0 28 6.26801 28 14ZM17.0164 16.0425L11.7966 10.8227C11.5338 10.5599 11.0863 10.6655 10.9687 11.0181L8.3588 18.8479C8.2285 19.2388 8.60037 19.6106 8.99125 19.4804L16.821 16.8704C17.1736 16.7529 17.2793 16.3054 17.0164 16.0425ZM19.357 9.35699C19.6499 9.0641 19.6499 8.58922 19.357 8.29633C19.0641 8.00344 18.5892 8.00344 18.2963 8.29633L16.175 10.4177C15.8821 10.7105 15.8821 11.1854 16.175 11.4783C16.4679 11.7712 16.9428 11.7712 17.2357 11.4783L19.357 9.35699ZM20.0056 14.4463C19.3222 13.7628 18.2142 13.7628 17.5308 14.4463C17.2379 14.7392 16.763 14.7392 16.4701 14.4463C16.1772 14.1534 16.1772 13.6785 16.4701 13.3856C17.7393 12.1164 19.7971 12.1164 21.0663 13.3856C21.3592 13.6785 21.3592 14.1534 21.0663 14.4463C20.7734 14.7392 20.2985 14.7392 20.0056 14.4463ZM13.2712 10.1868C13.9547 9.50336 13.9547 8.39532 13.2712 7.7119C12.9783 7.41901 12.9783 6.94414 13.2712 6.65124C13.5641 6.35835 14.039 6.35835 14.3319 6.65124C15.6011 7.92045 15.6011 9.97823 14.3319 11.2474C14.039 11.5403 13.5641 11.5403 13.2712 11.2474C12.9783 10.9545 12.9783 10.4797 13.2712 10.1868Z"/>
</svg>
