<svg width="28" height="28" viewBox="0 0 28 28" fill="none" xmlns="http://www.w3.org/2000/svg">
<path fill-rule="evenodd" clip-rule="evenodd" d="M24 6H4L4 22H24V6ZM4 4C2.89543 4 2 4.89543 2 6V22C2 23.1046 2.89543 24 4 24H24C25.1046 24 26 23.1046 26 22V6C26 4.89543 25.1046 4 24 4H4Z" fill="black"/>
<path fill-rule="evenodd" clip-rule="evenodd" d="M21.7071 9.29289C22.0976 9.68342 22.0976 10.3166 21.7071 10.7071L16.2071 16.2071C15.8166 16.5976 15.1834 16.5976 14.7929 16.2071L12.5 13.9142L7.70711 18.7071C7.31658 19.0976 6.68342 19.0976 6.29289 18.7071C5.90237 18.3166 5.90237 17.6834 6.29289 17.2929L11.7929 11.7929C12.1834 11.4024 12.8166 11.4024 13.2071 11.7929L15.5 14.0858L20.2929 9.29289C20.6834 8.90237 21.3166 8.90237 21.7071 9.29289Z" fill="black"/>
</svg>
