<svg width="28" height="28" viewBox="0 0 28 28" fill="black" xmlns="http://www.w3.org/2000/svg">
<path fill-rule="evenodd" clip-rule="evenodd" d="M7.32873 17.4233C6.96263 17.1055 6.48983 16.9299 6 16.9299H4V11.0701H6C6.48983 11.0701 6.96263 10.8945 7.32873 10.5767L13 5.65336V22.3466L7.32873 17.4233ZM2 16.9299V11.0701C2 9.99133 2.89543 9.11682 4 9.11682H6L13.3356 2.7486C13.9805 2.18875 15 2.63586 15 3.47855V24.5215C15 25.3641 13.9805 25.8113 13.3356 25.2514L6 18.8832H4C2.89543 18.8832 2 18.0087 2 16.9299ZM19.2929 10.7929C19.6834 10.4024 20.3166 10.4024 20.7071 10.7929L22.5 12.5858L24.2929 10.7929C24.6834 10.4024 25.3166 10.4024 25.7071 10.7929C26.0976 11.1834 26.0976 11.8166 25.7071 12.2071L23.9142 14L25.7071 15.7929C26.0976 16.1834 26.0976 16.8166 25.7071 17.2071C25.3166 17.5976 24.6834 17.5976 24.2929 17.2071L22.5 15.4142L20.7071 17.2071C20.3166 17.5976 19.6834 17.5976 19.2929 17.2071C18.9024 16.8166 18.9024 16.1834 19.2929 15.7929L21.0858 14L19.2929 12.2071C18.9024 11.8166 18.9024 11.1834 19.2929 10.7929Z" />
</svg>
