<svg width="28" height="28" viewBox="0 0 28 28" fill="black" xmlns="http://www.w3.org/2000/svg">
<path d="M15.75 7C15.75 7.9665 14.9665 8.75 14 8.75C13.0335 8.75 12.25 7.9665 12.25 7C12.25 6.0335 13.0335 5.25 14 5.25C14.9665 5.25 15.75 6.0335 15.75 7Z" fill="black"/>
<path d="M15.75 21C15.75 21.9665 14.9665 22.75 14 22.75C13.0335 22.75 12.25 21.9665 12.25 21C12.25 20.0335 13.0335 19.25 14 19.25C14.9665 19.25 15.75 20.0335 15.75 21Z" fill="black"/>
<path d="M14 15.75C14.9665 15.75 15.75 14.9665 15.75 14C15.75 13.0335 14.9665 12.25 14 12.25C13.0335 12.25 12.25 13.0335 12.25 14C12.25 14.9665 13.0335 15.75 14 15.75Z" />
</svg>
