<svg width="28" height="28" viewBox="0 0 28 28" fill="black" xmlns="http://www.w3.org/2000/svg">
<path d="M21 9H22C23.1046 9 24 9.89543 24 11V24C24 25.1046 23.1046 26 22 26H6C4.89543 26 4 25.1046 4 24V11C4 9.89543 4.89543 9 6 9H7C7 5.13401 10.134 2 14 2C17.866 2 21 5.13401 21 9ZM19 9C19 6.23858 16.7614 4 14 4C11.2386 4 9 6.23858 9 9H19ZM14 14.75C13.4477 14.75 13 15.1977 13 15.75V19.25C13 19.8023 13.4477 20.25 14 20.25C14.5523 20.25 15 19.8023 15 19.25V15.75C15 15.1977 14.5523 14.75 14 14.75Z" />
</svg>
