<svg width="28" height="28" viewBox="0 0 28 28" fill="black" xmlns="http://www.w3.org/2000/svg">
<path fill-rule="evenodd" clip-rule="evenodd" d="M5.79289 5.79289C6.18342 5.40237 6.81658 5.40237 7.20711 5.79289L22.2071 20.7929C22.5976 21.1834 22.5976 21.8166 22.2071 22.2071C21.8166 22.5976 21.1834 22.5976 20.7929 22.2071L5.79289 7.20711C5.40237 6.81658 5.40237 6.18342 5.79289 5.79289Z"/>
<path fill-rule="evenodd" clip-rule="evenodd" d="M22.2071 5.79289C22.5976 6.18342 22.5976 6.81658 22.2071 7.20711L7.20711 22.2071C6.81658 22.5976 6.18342 22.5976 5.79289 22.2071C5.40237 21.8166 5.40237 21.1834 5.79289 20.7929L20.7929 5.79289C21.1834 5.40237 21.8166 5.40237 22.2071 5.79289Z"/>
</svg>
