<svg width="28" height="28" viewBox="0 0 28 28" fill="black" xmlns="http://www.w3.org/2000/svg">
<path fill-rule="evenodd" clip-rule="evenodd" d="M17.7839 10.9883C17.0909 10.913 16.4872 10.4823 16.1904 9.8516L14 5.19708L11.8096 9.8516C11.5128 10.4823 10.9091 10.913 10.2161 10.9883L5.25091 11.528L8.64177 14.8137C9.10727 15.2648 9.3253 15.9135 9.22674 16.5541L8.40709 21.8818L12.9082 18.9493C13.5719 18.5169 14.4281 18.5169 15.0918 18.9493L19.5929 21.8818L18.7733 16.5541C18.6747 15.9135 18.8927 15.2648 19.3582 14.8137L22.7491 11.528L17.7839 10.9883ZM14.9048 2.42274C14.5445 1.65714 13.4555 1.65714 13.0952 2.42274L10 9L2.9174 9.76985C2.07539 9.86137 1.72132 10.8928 2.32957 11.4821L7.25 16.25L6.09017 23.7889C5.95872 24.6433 6.90011 25.2507 7.62443 24.7788L14 20.625L20.3756 24.7788C21.0999 25.2507 22.0413 24.6433 21.9098 23.7889L20.75 16.25L25.6704 11.4822C26.2787 10.8928 25.9246 9.86137 25.0826 9.76985L18 9L14.9048 2.42274Z"/>
</svg>
