<svg width="28" height="28" viewBox="0 0 28 28" fill="black" xmlns="http://www.w3.org/2000/svg">
<path fill-rule="evenodd" clip-rule="evenodd" d="M9.3798 9H6C5.44772 9 5 9.44772 5 10V21C5 21.5523 5.44772 22 6 22H22C22.5523 22 23 21.5523 23 21V10C23 9.44772 22.5523 9 22 9H18.6202L16.1674 6.32428C15.978 6.11765 15.7106 6 15.4303 6H12.5697C12.2894 6 12.022 6.11765 11.8326 6.32428L9.3798 9ZM10.3582 4.97283C10.9265 4.35294 11.7288 4 12.5697 4H15.4303C16.2712 4 17.0735 4.35294 17.6418 4.97283L19.5 7H22C23.6569 7 25 8.34315 25 10V21C25 22.6569 23.6569 24 22 24H6C4.34315 24 3 22.6569 3 21V10C3 8.34315 4.34315 7 6 7H8.5L10.3582 4.97283Z"/>
<path fill-rule="evenodd" clip-rule="evenodd" d="M14 17.5C15.3807 17.5 16.5 16.3807 16.5 15C16.5 13.6193 15.3807 12.5 14 12.5C12.6193 12.5 11.5 13.6193 11.5 15C11.5 16.3807 12.6193 17.5 14 17.5ZM14 19.5C16.4853 19.5 18.5 17.4853 18.5 15C18.5 12.5147 16.4853 10.5 14 10.5C11.5147 10.5 9.5 12.5147 9.5 15C9.5 17.4853 11.5147 19.5 14 19.5Z"/>
</svg>
