<svg width="28" height="28" viewBox="0 0 28 28" fill="black" xmlns="http://www.w3.org/2000/svg">
<path d="M15 15.75C15 15.1977 14.5523 14.75 14 14.75C13.4477 14.75 13 15.1977 13 15.75V19.25C13 19.8023 13.4477 20.25 14 20.25C14.5523 20.25 15 19.8023 15 19.25V15.75Z" />
<path d="M22 9H21C21 5.13401 17.866 2 14 2C10.134 2 7 5.13401 7 9H6C4.89543 9 4 9.89543 4 11V24C4 25.1046 4.89543 26 6 26H22C23.1046 26 24 25.1046 24 24V11C24 9.89543 23.1046 9 22 9ZM14 4C16.7614 4 19 6.23858 19 9H9C9 6.23858 11.2386 4 14 4ZM6 11H22V24H6V11Z" />
</svg>
