<svg width="28" height="28" viewBox="0 0 28 28" fill="black" xmlns="http://www.w3.org/2000/svg">
<path fill-rule="evenodd" clip-rule="evenodd" d="M28 14C28 21.732 21.732 28 14 28C6.26801 28 0 21.732 0 14C0 6.26801 6.26801 0 14 0C21.732 0 28 6.26801 28 14ZM14 21.0032V18H11L12.3701 21.1947C12.4489 21.3785 12.6296 21.4976 12.8296 21.4976H13.5C13.7761 21.4976 14 21.2794 14 21.0032ZM8 13C8 11.067 9.567 9.50001 11.5 9.50001H14.25V16.5H12H11.5C9.567 16.5 8 14.933 8 13ZM15.75 16.5746V9.42901C16.2272 9.35937 16.6965 9.23881 17.1498 9.06883L19.3244 8.25334C19.6513 8.13076 20 8.3724 20 8.72151V17.2785C20 17.6276 19.6513 17.8692 19.3244 17.7467L17.1885 16.9457C16.7226 16.771 16.2404 16.6468 15.75 16.5746Z"/>
</svg>
