<svg width="28" height="28" viewBox="0 0 28 28" fill="black" xmlns="http://www.w3.org/2000/svg">
<path d="M14.3551 8.25C13.9248 9.69574 12.5855 10.75 11 10.75C9.41084 10.75 8.06904 9.69088 7.64198 8.24C7.5956 8.24659 7.5482 8.25 7.5 8.25H4.5C3.94772 8.25 3.5 7.80228 3.5 7.25C3.5 6.69772 3.94772 6.25 4.5 6.25H7.5C7.5482 6.25 7.5956 6.25341 7.64198 6.26C8.06904 4.80912 9.41084 3.75 11 3.75C12.5855 3.75 13.9248 4.80426 14.3551 6.25H23.5C24.0523 6.25 24.5 6.69772 24.5 7.25C24.5 7.80228 24.0523 8.25 23.5 8.25H14.3551ZM12.5 7.25C12.5 6.42157 11.8284 5.75 11 5.75C10.1716 5.75 9.5 6.42157 9.5 7.25C9.5 8.07843 10.1716 8.75 11 8.75C11.8284 8.75 12.5 8.07843 12.5 7.25Z" />
<path d="M3.5 20.75C3.5 20.1977 3.94772 19.75 4.5 19.75H9.14494C9.57521 18.3043 10.9145 17.25 12.5 17.25C14.0855 17.25 15.4248 18.3043 15.8551 19.75H23.5C24.0523 19.75 24.5 20.1977 24.5 20.75C24.5 21.3023 24.0523 21.75 23.5 21.75H15.8551C15.4248 23.1957 14.0855 24.25 12.5 24.25C10.9145 24.25 9.57521 23.1957 9.14494 21.75H4.5C3.94772 21.75 3.5 21.3023 3.5 20.75ZM12.5 19.25C11.6716 19.25 11 19.9216 11 20.75C11 21.5784 11.6716 22.25 12.5 22.25C13.3284 22.25 14 21.5784 14 20.75C14 19.9216 13.3284 19.25 12.5 19.25Z" />
<path d="M23.5 13H20.8551C20.4248 11.5543 19.0855 10.5 17.5 10.5C15.9108 10.5 14.569 11.5591 14.142 13.01C14.0956 13.0034 14.0482 13 14 13H4.5C3.94771 13 3.5 13.4477 3.5 14C3.5 14.5523 3.94771 15 4.5 15H14C14.0482 15 14.0956 14.9966 14.142 14.99C14.569 16.4409 15.9108 17.5 17.5 17.5C19.0855 17.5 20.4248 16.4457 20.8551 15H23.5C24.0523 15 24.5 14.5523 24.5 14C24.5 13.4477 24.0523 13 23.5 13ZM16 14C16 13.1716 16.6716 12.5 17.5 12.5C18.3284 12.5 19 13.1716 19 14C19 14.8284 18.3284 15.5 17.5 15.5C16.6716 15.5 16 14.8284 16 14Z" />
</svg>
