<svg width="28" height="28" viewBox="0 0 28 28" fill="black" xmlns="http://www.w3.org/2000/svg">
<path fill-rule="evenodd" clip-rule="evenodd" d="M6 16.9299C6.48983 16.9299 6.96263 17.1055 7.32873 17.4233L13 22.3466V5.65336L7.32873 10.5767C6.96263 10.8945 6.48983 11.0701 6 11.0701H4V16.9299H6ZM2 11.0701V16.9299C2 18.0087 2.89543 18.8832 4 18.8832H6L13.3356 25.2514C13.9805 25.8113 15 25.3641 15 24.5215V3.47855C15 2.63586 13.9805 2.18875 13.3356 2.7486L6 9.11682H4C2.89543 9.11682 2 9.99133 2 11.0701ZM17.2763 9.27774C17.6429 8.90553 18.2351 8.90771 18.599 9.28259C19.7731 10.4919 20.5 12.16 20.5 14C20.5 15.84 19.7731 17.5081 18.599 18.7174C18.2351 19.0923 17.6429 19.0945 17.2763 18.7223C16.9098 18.3501 16.9076 17.7444 17.2716 17.3696C18.1119 16.504 18.6294 15.3148 18.6294 14C18.6294 12.6852 18.1119 11.496 17.2716 10.6304C16.9076 10.2556 16.9098 9.64994 17.2763 9.27774ZM22.6472 5.78739C22.2725 5.40636 21.6626 5.4039 21.2849 5.78188C20.9072 6.15987 20.9047 6.77516 21.2794 7.15619C23.0075 8.91358 24.0734 11.3303 24.0734 14C24.0734 16.6697 23.0075 19.0864 21.2794 20.8438C20.9047 21.2248 20.9072 21.8401 21.2849 22.2181C21.6626 22.5961 22.2725 22.5936 22.6472 22.2126C24.7187 20.106 26 17.203 26 14C26 10.797 24.7187 7.89398 22.6472 5.78739Z" />
</svg>
