<svg width="28" height="28" viewBox="0 0 28 28" fill="black" xmlns="http://www.w3.org/2000/svg">
<path fill-rule="evenodd" clip-rule="evenodd" d="M14 28C21.732 28 28 21.732 28 14C28 6.26801 21.732 0 14 0C6.26801 0 0 6.26801 0 14C0 21.732 6.26801 28 14 28ZM21 14C21 15.8856 20.2545 17.597 19.0421 18.8556L20.2357 20.1629C20.5287 20.4838 20.301 21 19.8664 21H14.0037H14C10.134 21 7 17.866 7 14C7 10.134 10.134 7 14 7C17.866 7 21 10.134 21 14ZM14 18.5C14.5523 18.5 15 18.0523 15 17.5C15 16.9477 14.5523 16.5 14 16.5C13.4477 16.5 13 16.9477 13 17.5C13 18.0523 13.4477 18.5 14 18.5ZM14 11.5C13.4477 11.5 13 11.9477 13 12.5C13 13.0523 12.5523 13.5 12 13.5C11.4477 13.5 11 13.0523 11 12.5C11 10.8431 12.3431 9.5 14 9.5C15.6569 9.5 17 10.8431 17 12.5C17 14.1569 15.6569 15.5 14 15.5C13.4477 15.5 13 15.0523 13 14.5C13 13.9477 13.4477 13.5 14 13.5C14.5523 13.5 15 13.0523 15 12.5C15 11.9477 14.5523 11.5 14 11.5Z"/>
</svg>
