<svg width="28" height="28" viewBox="0 0 28 28" fill="black" xmlns="http://www.w3.org/2000/svg">
<path d="M13.2071 8.29289C12.8166 7.90237 12.1834 7.90237 11.7929 8.29289C11.4024 8.68342 11.4024 9.31658 11.7929 9.70711L16.0858 14L11.7929 18.2929C11.4024 18.6834 11.4024 19.3166 11.7929 19.7071C12.1834 20.0976 12.8166 20.0976 13.2071 19.7071L18.2071 14.7071C18.5976 14.3166 18.5976 13.6834 18.2071 13.2929L13.2071 8.29289Z" />
<path d="M26 14C26 20.6274 20.6274 26 14 26C7.37258 26 2 20.6274 2 14C2 7.37258 7.37258 2 14 2C20.6274 2 26 7.37258 26 14ZM24 14C24 8.47715 19.5228 4 14 4C8.47715 4 4 8.47715 4 14C4 19.5228 8.47715 24 14 24C19.5228 24 24 19.5228 24 14Z" />
</svg>
