<svg width="28" height="28" viewBox="0 0 28 28" fill="black" xmlns="http://www.w3.org/2000/svg">
<path fill-rule="evenodd" clip-rule="evenodd" d="M21.7931 22.9276C21.1399 22.1928 21.1177 21.0922 21.7407 20.3316C23.1537 18.6066 24 16.4048 24 14C24 8.47715 19.5228 4 14 4C8.47715 4 4 8.47715 4 14C4 19.5228 8.47715 24 14 24H22.7463L21.7931 22.9276ZM26 14C26 16.8836 24.9829 19.5296 23.2879 21.5989L25.7206 24.3356C26.2938 24.9805 25.836 26 24.9732 26H14C7.37258 26 2 20.6274 2 14C2 7.37258 7.37258 2 14 2C20.6274 2 26 7.37258 26 14Z"/>
<path d="M10.5 14C10.5 14.6904 9.94036 15.25 9.25 15.25C8.55964 15.25 8 14.6904 8 14C8 13.3096 8.55964 12.75 9.25 12.75C9.94036 12.75 10.5 13.3096 10.5 14Z"/>
<path d="M15.25 14C15.25 14.6904 14.6904 15.25 14 15.25C13.3096 15.25 12.75 14.6904 12.75 14C12.75 13.3096 13.3096 12.75 14 12.75C14.6904 12.75 15.25 13.3096 15.25 14Z"/>
<path opacity="0.9" d="M20 14C20 14.6904 19.4404 15.25 18.75 15.25C18.0596 15.25 17.5 14.6904 17.5 14C17.5 13.3096 18.0596 12.75 18.75 12.75C19.4404 12.75 20 13.3096 20 14Z"/>
</svg>
