<svg width="28" height="28" viewBox="0 0 28 28" fill="black" xmlns="http://www.w3.org/2000/svg">
<path fill-rule="evenodd" clip-rule="evenodd" d="M14 24C19.5228 24 24 19.5228 24 14C24 8.47715 19.5228 4 14 4C8.47715 4 4 8.47715 4 14C4 19.5228 8.47715 24 14 24ZM14 26C20.6274 26 26 20.6274 26 14C26 7.37258 20.6274 2 14 2C7.37258 2 2 7.37258 2 14C2 20.6274 7.37258 26 14 26Z"/>
<path fill-rule="evenodd" clip-rule="evenodd" d="M20.2071 10.7929C20.5976 11.1834 20.5976 11.8166 20.2071 12.2071L13.7071 18.7071C13.3166 19.0976 12.6834 19.0976 12.2929 18.7071L8.29289 14.7071C7.90237 14.3166 7.90237 13.6834 8.29289 13.2929C8.68342 12.9024 9.31658 12.9024 9.70711 13.2929L13 16.5858L18.7929 10.7929C19.1834 10.4024 19.8166 10.4024 20.2071 10.7929Z"/>
</svg>
