<svg width="28" height="28" viewBox="0 0 28 28" fill="black" xmlns="http://www.w3.org/2000/svg">
<path fill-rule="evenodd" clip-rule="evenodd" d="M14 28C21.732 28 28 21.732 28 14C28 6.26801 21.732 0 14 0C6.26801 0 0 6.26801 0 14C0 21.732 6.26801 28 14 28ZM8.94868 10.1838C8.77404 9.65983 8.20772 9.37667 7.68377 9.55132C7.15983 9.72596 6.87667 10.2923 7.05132 10.8162L7.61257 12.5H7.5C6.94772 12.5 6.5 12.9477 6.5 13.5C6.5 14.0523 6.94772 14.5 7.5 14.5H8.27924L9.57698 18.3932C10.0328 19.7608 11.9672 19.7607 12.423 18.3932L13.7208 14.5H14.2792L15.577 18.3932C16.0328 19.7608 17.9672 19.7607 18.423 18.3932L19.7208 14.5H21C21.5523 14.5 22 14.0523 22 13.5C22 12.9477 21.5523 12.5 21 12.5H20.3874L20.9487 10.8162C21.1233 10.2923 20.8402 9.72596 20.3162 9.55132C19.7923 9.37667 19.226 9.65983 19.0513 10.1838L18.2792 12.5H15.7208L14.9487 10.1838C14.8126 9.77543 14.4304 9.5 14 9.5C13.5696 9.5 13.1874 9.77543 13.0513 10.1838L12.2792 12.5H9.72076L8.94868 10.1838ZM11 16.3377L10.3874 14.5H11.6126L11 16.3377ZM17 16.3377L16.3874 14.5H17.6126L17 16.3377Z"/>
</svg>
