<svg width="28" height="28" viewBox="0 0 28 28" fill="black" xmlns="http://www.w3.org/2000/svg">
<path d="M15 18.5591L22.7506 20.5098C23.3834 20.6691 24 20.2021 24 19.5636V4.97763C24 4.34135 23.3876 3.8748 22.7561 4.03L14.0602 6.16714H10.25C6.79822 6.16714 4 8.9014 4 12.2743C4 15.0343 5.87365 17.3666 8.44587 18.1231L10.3537 22.773C10.6578 23.5142 11.3928 24 12.2101 24H13C14.1046 24 15 23.125 15 22.0457V18.5591ZM15 16.541V7.95133L22 6.23097V18.3028L15 16.541ZM10.25 16.4271C7.90279 16.4271 6 14.5678 6 12.2743C6 9.98073 7.90279 8.12143 10.25 8.12143H13V16.4271H10.25ZM10.7066 18.3814H13L13 22.0457L12.2101 22.0457L10.7066 18.3814Z" />
</svg>
