<svg width="28" height="28" viewBox="0 0 28 28" fill="black" xmlns="http://www.w3.org/2000/svg">
<path fill-rule="evenodd" clip-rule="evenodd" d="M14 24C14.2761 24 14.5 23.7761 14.5 23.5C14.5 23.2239 14.2761 23 14 23C13.7239 23 13.5 23.2239 13.5 23.5C13.5 23.7761 13.7239 24 14 24ZM14 26C15.3807 26 16.5 24.8807 16.5 23.5C16.5 22.1193 15.3807 21 14 21C12.6193 21 11.5 22.1193 11.5 23.5C11.5 24.8807 12.6193 26 14 26Z"/>
<path fill-rule="evenodd" clip-rule="evenodd" d="M6.23077 11.2692C6.23077 6.97841 9.70917 3.5 14 3.5C18.2908 3.5 21.7692 6.9784 21.7692 11.2692V12.139C24.1195 12.2201 26 14.1509 26 16.521V16.5909C26 18.976 24.1254 20.9234 21.7692 21.0399V21.5C21.7692 23.1569 20.4261 24.5 18.7692 24.5H16.5385C15.9862 24.5 15.5385 24.0523 15.5385 23.5C15.5385 22.9477 15.9862 22.5 16.5385 22.5H18.7692C19.3215 22.5 19.7692 22.0523 19.7692 21.5V11.2692C19.7692 8.08297 17.1863 5.5 14 5.5C10.8137 5.5 8.23077 8.08298 8.23077 11.2692V20.0455C8.23077 20.5977 7.78305 21.0455 7.23077 21.0455H6.45455C3.99437 21.0455 2 19.0511 2 16.5909V16.521C2 14.1509 3.88046 12.2201 6.23077 12.139V11.2692ZM6.23077 14.1412C4.98548 14.2205 4 15.2557 4 16.521V16.5909C4 17.8711 4.98004 18.9224 6.23077 19.0354V14.1412ZM21.7692 19.0354C23.02 18.9224 24 17.8711 24 16.5909V16.521C24 15.2557 23.0145 14.2205 21.7692 14.1412V19.0354Z"/>
</svg>
