<svg width="28" height="28" viewBox="0 0 28 28" fill="black" xmlns="http://www.w3.org/2000/svg">
<path fill-rule="evenodd" clip-rule="evenodd" d="M6 24H22V4L6 4V24ZM22 26H6C4.89543 26 4 25.1046 4 24V4C4 2.89543 4.89543 2 6 2H22C23.1046 2 24 2.89543 24 4V24C24 25.1046 23.1046 26 22 26Z"/>
<path fill-rule="evenodd" clip-rule="evenodd" d="M8 18C8 17.4477 8.44772 17 9 17H19C19.5523 17 20 17.4477 20 18C20 18.5523 19.5523 19 19 19H9C8.44772 19 8 18.5523 8 18Z"/>
<path fill-rule="evenodd" clip-rule="evenodd" d="M8 21C8 20.4477 8.44772 20 9 20H19C19.5523 20 20 20.4477 20 21C20 21.5523 19.5523 22 19 22H9C8.44772 22 8 21.5523 8 21Z"/>
<path d="M16 8C16 9.10457 15.1046 10 14 10C12.8954 10 12 9.10457 12 8C12 6.89543 12.8954 6 14 6C15.1046 6 16 6.89543 16 8Z"/>
<path d="M10.971 12.215C11.6094 11.151 12.7592 10.5 14 10.5C15.2408 10.5 16.3906 11.151 17.029 12.215L17.2686 12.6144C18.0306 13.8843 17.1158 15.5 15.6348 15.5H12.3652C10.8842 15.5 9.96939 13.8843 10.7314 12.6144L10.971 12.215Z"/>
</svg>
