<svg width="28" height="28" viewBox="0 0 28 28" fill="black" xmlns="http://www.w3.org/2000/svg">
<path d="M17.5 11.25C17.5 13.183 15.933 14.75 14 14.75C12.067 14.75 10.5 13.183 10.5 11.25C10.5 9.317 12.067 7.75 14 7.75C15.933 7.75 17.5 9.317 17.5 11.25ZM15.5 11.25C15.5 10.4216 14.8284 9.75 14 9.75C13.1716 9.75 12.5 10.4216 12.5 11.25C12.5 12.0784 13.1716 12.75 14 12.75C14.8284 12.75 15.5 12.0784 15.5 11.25Z" />
<path d="M22.75 10.75C22.75 14.7034 16.894 22.7291 14.7634 25.5184C14.3748 26.0271 13.6252 26.0271 13.2366 25.5184C11.106 22.7291 5.25 14.7034 5.25 10.75C5.25 5.91751 9.16751 2 14 2C18.8325 2 22.75 5.91751 22.75 10.75ZM20.75 10.75C20.75 7.02208 17.7279 4 14 4C10.2721 4 7.25 7.02208 7.25 10.75C7.25 11.3219 7.48296 12.2599 8.03515 13.542C8.56705 14.7769 9.31461 16.1508 10.1538 17.5326C11.455 19.6753 12.9196 21.7448 14 23.2053C15.0804 21.7448 16.545 19.6753 17.8462 17.5326C18.6854 16.1508 19.433 14.7769 19.9648 13.542C20.517 12.2599 20.75 11.3219 20.75 10.75Z" />
</svg>
