<svg width="28" height="28" viewBox="0 0 28 28" fill="black" xmlns="http://www.w3.org/2000/svg">
<path d="M18.8594 12.9185L12.4286 9.16753C12.2337 9.0581 12.0127 9.00033 11.7876 9C11.5626 8.99967 11.3414 9.05678 11.1462 9.16563C10.951 9.27448 10.7885 9.43125 10.6751 9.62028C10.5617 9.8093 10.5014 10.024 10.5 10.2428V17.7447C10.4991 17.9646 10.5579 18.1808 10.6703 18.3716C10.7828 18.5624 10.945 18.7209 11.1407 18.8313C11.3363 18.9416 11.5583 18.9998 11.7844 19C12.0106 19.0002 12.2328 18.9424 12.4286 18.8325L18.8594 15.0815C19.0543 14.9716 19.216 14.8139 19.3284 14.6241C19.4408 14.4342 19.5 14.219 19.5 14C19.5 13.781 19.4408 13.5658 19.3284 13.376C19.216 13.1861 19.0543 13.0284 18.8594 12.9185Z"/>
<path fill-rule="evenodd" clip-rule="evenodd" d="M14 24C19.5228 24 24 19.5228 24 14C24 8.47715 19.5228 4 14 4C8.47715 4 4 8.47715 4 14C4 19.5228 8.47715 24 14 24ZM14 26C20.6274 26 26 20.6274 26 14C26 7.37258 20.6274 2 14 2C7.37258 2 2 7.37258 2 14C2 20.6274 7.37258 26 14 26Z"/>
</svg>
