<svg width="24" height="24" viewBox="0 0 18 19" fill="#BEC2C6" xmlns="http://www.w3.org/2000/svg">
    <path fill-rule="evenodd" clip-rule="evenodd"
        d="M5.54463 6.62054C5.54463 4.84751 7.05286 3.33929 8.82588 3.33929C10.6063 3.33929 12.1071 4.78791 12.1071 6.62054V7.82589H5.54463V6.62054ZM4.20535 7.82589V6.62054C4.20535 4.10785 6.31319 2 8.82588 2C11.3312 2 13.4464 4.03352 13.4464 6.62054V7.82589L13.5804 7.82589C14.183 7.82589 14.6518 8.29464 14.6518 8.89732V15.9286C14.6518 16.5312 14.183 17 13.5804 17H4.07143C3.46875 17 3 16.5312 3 15.9286V8.89732C3 8.29464 3.46875 7.82589 4.07143 7.82589L4.20535 7.82589ZM9.16072 12.46C9.58848 12.3194 9.89733 11.9168 9.89733 11.442C9.89733 10.8502 9.41763 10.3705 8.8259 10.3705C8.23416 10.3705 7.75447 10.8502 7.75447 11.442C7.75447 11.9168 8.06332 12.3194 8.49108 12.46V14.4553H9.16072V12.46Z"/>
</svg>