<svg width="24" height="24" viewBox="0 0 24 24" fill="none" xmlns="http://www.w3.org/2000/svg">
<path fill-rule="evenodd" clip-rule="evenodd" d="M15 4C15.5523 4 16 4.44772 16 5V19C16 19.5523 15.5523 20 15 20C14.4477 20 14 19.5523 14 19V5C14 4.44772 14.4477 4 15 4Z" fill="black"/>
<path fill-rule="evenodd" clip-rule="evenodd" d="M20 6H4L4 9.17071C5.16519 9.58254 6 10.6938 6 12C6 13.3062 5.16519 14.4175 4 14.8293V18H20V14.8293C18.8348 14.4175 18 13.3062 18 12C18 10.6938 18.8348 9.58254 20 9.17071V6ZM4 4C2.89543 4 2 4.89543 2 6V10.1223C2 10.6459 2.47635 11 3 11C3.55228 11 4 11.4477 4 12C4 12.5523 3.55228 13 3 13C2.47635 13 2 13.3541 2 13.8777V18C2 19.1046 2.89543 20 4 20H20C21.1046 20 22 19.1046 22 18V13.8777C22 13.3541 21.5237 13 21 13C20.4477 13 20 12.5523 20 12C20 11.4477 20.4477 11 21 11C21.5237 11 22 10.6459 22 10.1223V6C22 4.89543 21.1046 4 20 4H4Z" fill="black"/>
</svg>
