<svg width="24" height="24" viewBox="0 0 24 24" fill="black" xmlns="http://www.w3.org/2000/svg">
<path d="M4.8 19.2H15.6V16.5L17.4 14.6V19.2C17.4 20.1941 16.5941 21 15.6 21H4.8C3.80589 21 3 20.1941 3 19.2V4.8C3 3.80589 3.80589 3 4.8 3H10.8462C11.2987 3 11.7346 3.17043 12.0671 3.47735L16.8209 7.86545C17.1901 8.2062 17.4 8.68572 17.4 9.1881V10L15.6 11V9.1881L10.8462 4.8H4.8V19.2Z" />
<path fill-rule="evenodd" clip-rule="evenodd" d="M11.1 3.89999V7.49999C11.1 7.99705 11.5029 8.39999 12 8.39999H15.6V10.2H12C10.5088 10.2 9.29999 8.99116 9.29999 7.49999V3.89999H11.1Z" />
<path fill-rule="evenodd" clip-rule="evenodd" d="M19 8.97092L12.6622 15.3087L12.4628 16.9863L14.1404 16.7869L20.4782 10.4491L19 8.97092ZM19.4927 7.49273C19.2206 7.2206 18.7794 7.2206 18.5073 7.49273L11.506 14.494C11.3955 14.6045 11.3253 14.7491 11.3068 14.9044L10.9744 17.7005C10.9212 18.1482 11.3009 18.5279 11.7486 18.4747L14.5447 18.1423C14.7 18.1238 14.8446 18.0536 14.9552 17.9431L21.9564 10.9418C22.2285 10.6697 22.2285 10.2285 21.9564 9.95637L19.4927 7.49273Z" />
</svg>
