<svg width="24" height="24" viewBox="0 0 24 24" fill="black" xmlns="http://www.w3.org/2000/svg">
<path fill-rule="evenodd" clip-rule="evenodd" d="M5 4C5.55228 4 6 4.44772 6 5V12C6 12.5523 6.44772 13 7 13H18C18.5523 13 19 13.4477 19 14C19 14.5523 18.5523 15 18 15H7C5.34315 15 4 13.6569 4 12V5C4 4.44772 4.44772 4 5 4Z"/>
<path fill-rule="evenodd" clip-rule="evenodd" d="M19.7071 13.2929C20.0976 13.6834 20.0976 14.3166 19.7071 14.7071L15.7071 18.7071C15.3166 19.0976 14.6834 19.0976 14.2929 18.7071C13.9024 18.3166 13.9024 17.6834 14.2929 17.2929L17.5858 14L14.2929 10.7071C13.9024 10.3166 13.9024 9.68342 14.2929 9.29289C14.6834 8.90237 15.3166 8.90237 15.7071 9.29289L19.7071 13.2929Z"/>
</svg>
