<svg width="24" height="24" viewBox="0 0 24 24" fill="#6F767D" xmlns="http://www.w3.org/2000/svg">
    <path fill-rule="evenodd" clip-rule="evenodd" d="M10.75 5C12.4483 5 13.9746 5.73625 15.0272 6.90697L16.4198 5.46637C15.005 3.9489 12.9883 3 10.75 3C6.46979 3 3 6.46979 3 10.75C3 12.207 3.40204 13.57 4.10124 14.7343L5.17206 12.1517C5.05968 11.7031 5 11.2335 5 10.75C5 7.57436 7.57436 5 10.75 5ZM10.75 16.5C13.4969 16.5 15.7938 14.5739 16.3641 11.9986L18.4475 9.8433C18.4822 10.1407 18.5 10.4433 18.5 10.75C18.5 12.5296 17.9002 14.169 16.8918 15.4773L20.71 19.29C21.1005 19.6805 21.1005 20.3195 20.71 20.71C20.3195 21.1005 19.6805 21.1005 19.29 20.71L15.4773 16.8918C14.169 17.9002 12.5296 18.5 10.75 18.5C9.6572 18.5 8.61722 18.2738 7.67434 17.8657L8.44068 16.0175C9.14747 16.3278 9.92862 16.5 10.75 16.5ZM20.5392 5.52126L12.8788 13.4459L8.86267 11.0835L4.9428 20.5373L3.55719 19.9627L8.13733 8.91652L12.6212 11.5541L19.4608 4.47873L20.5392 5.52126Z"/>
</svg>
