<svg width="24" height="24" viewBox="0 0 24 24" fill="black" xmlns="http://www.w3.org/2000/svg">
<path fill-rule="evenodd" clip-rule="evenodd" d="M12 4H9L9 20H19V4H18V9C18 9.37877 17.786 9.72504 17.4472 9.89443C17.1084 10.0638 16.703 10.0273 16.4 9.8L15 8.75L13.6 9.8C13.297 10.0273 12.8916 10.0638 12.5528 9.89443C12.214 9.72504 12 9.37877 12 9V4ZM13 2H17H19C20.1046 2 21 2.89543 21 4V20C21 21.1046 20.1046 22 19 22H5C3.89543 22 3 21.1046 3 20V4C3 2.89543 3.89543 2 5 2H13ZM14 4V7L14.4 6.7C14.7556 6.43333 15.2444 6.43333 15.6 6.7L16 7V4H14ZM5 4H7L7 20H5L5 4Z" />
</svg>
