<svg width="24" height="24" viewBox="0 0 24 24" fill="none" xmlns="http://www.w3.org/2000/svg">
<path fill-rule="evenodd" clip-rule="evenodd" d="M12 4.92894C13.9526 2.97631 17.1184 2.97631 19.0711 4.92894C21.0237 6.88156 21.0237 10.0474 19.0711 12L16.9497 14.1213C16.5592 14.5118 15.926 14.5118 15.5355 14.1213C15.145 13.7308 15.145 13.0976 15.5355 12.7071L17.6568 10.5858C18.8284 9.41422 18.8284 7.51472 17.6568 6.34315C16.4853 5.17158 14.5858 5.17158 13.4142 6.34315L11.2929 8.46447C10.9024 8.85499 10.2692 8.85499 9.87867 8.46447C9.48814 8.07395 9.48814 7.44078 9.87867 7.05026L12 4.92894ZM8.46445 9.87868C8.85498 10.2692 8.85498 10.9024 8.46445 11.2929L6.34313 13.4142C5.17156 14.5858 5.17156 16.4853 6.34313 17.6569C7.51471 18.8284 9.4142 18.8284 10.5858 17.6569L12.7071 15.5355C13.0976 15.145 13.7308 15.145 14.1213 15.5355C14.5118 15.9261 14.5118 16.5592 14.1213 16.9498L12 19.0711C10.0474 21.0237 6.88154 21.0237 4.92892 19.0711C2.9763 17.1185 2.9763 13.9526 4.92892 12L7.05024 9.87868C7.44077 9.48816 8.07393 9.48816 8.46445 9.87868Z" fill="black"/>
<path fill-rule="evenodd" clip-rule="evenodd" d="M14.8284 9.17157C15.2189 9.56209 15.2189 10.1953 14.8284 10.5858L10.5858 14.8284C10.1952 15.2189 9.56208 15.2189 9.17156 14.8284C8.78104 14.4379 8.78104 13.8047 9.17156 13.4142L13.4142 9.17157C13.8047 8.78104 14.4379 8.78104 14.8284 9.17157Z" fill="black"/>
</svg>
