<svg width="24" height="24" viewBox="0 0 24 24" fill="none" xmlns="http://www.w3.org/2000/svg">
<path fill-rule="evenodd" clip-rule="evenodd" d="M19 5.46489L12.6252 6.80694C12.0156 6.9353 11.3942 7 10.7711 7H7.5C5.567 7 4 8.567 4 10.5C4 12.433 5.567 14 7.5 14H10.7711C11.3942 14 12.0156 14.0647 12.6252 14.193L19 15.5351V5.46489ZM7.5 5C4.46243 5 2 7.46243 2 10.5C2 13.5376 4.46243 16 7.5 16H10.7711C11.2557 16 11.739 16.0503 12.2132 16.1501L19.794 17.7461C20.4155 17.877 21 17.4027 21 16.7675V4.23244C21 3.59727 20.4155 3.12304 19.794 3.25389L12.2132 4.84984C11.739 4.94967 11.2557 5 10.7711 5H7.5Z" fill="black"/>
<path fill-rule="evenodd" clip-rule="evenodd" d="M11 5C11.5523 5 12 5.44772 12 6V19C12 20.1046 11.1046 21 9.99999 21H9.17702C8.35922 21 7.6238 20.5021 7.32007 19.7428L5.57151 15.3714C5.3664 14.8586 5.61582 14.2766 6.1286 14.0715C6.64138 13.8664 7.22335 14.1158 7.42847 14.6286L9.17702 19H9.99999V6C9.99999 5.44772 10.4477 5 11 5Z" fill="black"/>
</svg>
