<svg width="24" height="24" viewBox="0 0 24 24" fill="black" xmlns="http://www.w3.org/2000/svg">
<path fill-rule="evenodd" clip-rule="evenodd" d="M3.99829 6C3.99829 5.44772 4.44601 5 4.99829 5H19.0017C19.554 5 20.0017 5.44772 20.0017 6C20.0017 6.55228 19.554 7 19.0017 7H4.99829C4.44601 7 3.99829 6.55228 3.99829 6ZM3.99829 12C3.99829 11.4477 4.44601 11 4.99829 11H19.0017C19.554 11 20.0017 11.4477 20.0017 12C20.0017 12.5523 19.554 13 19.0017 13H4.99829C4.44601 13 3.99829 12.5523 3.99829 12ZM4.99829 17C4.44601 17 3.99829 17.4477 3.99829 18C3.99829 18.5523 4.44601 19 4.99829 19H19.0017C19.554 19 20.0017 18.5523 20.0017 18C20.0017 17.4477 19.554 17 19.0017 17H4.99829Z"/>
</svg>
