<svg width="86" height="36" viewBox="0 0 86 36" fill="none" xmlns="http://www.w3.org/2000/svg">
<path fill-rule="evenodd" clip-rule="evenodd" d="M19.625 17H5.625L5.625 27H19.625V17ZM5.625 15C4.52043 15 3.625 15.8954 3.625 17V27C3.625 28.1046 4.52043 29 5.625 29H19.625C20.7296 29 21.625 28.1046 21.625 27V17C21.625 15.8954 20.7296 15 19.625 15H5.625Z" fill="#949BA0"/>
<path fill-rule="evenodd" clip-rule="evenodd" d="M12.625 28C13.1773 28 13.625 28.4477 13.625 29V31H16.625C17.1773 31 17.625 31.4477 17.625 32C17.625 32.5523 17.1773 33 16.625 33H8.625C8.07272 33 7.625 32.5523 7.625 32C7.625 31.4477 8.07272 31 8.625 31H11.625V29C11.625 28.4477 12.0727 28 12.625 28Z" fill="#949BA0"/>
<path d="M14.466 19.8947C14.466 20.9412 13.6418 21.7895 12.6251 21.7895C11.6084 21.7895 10.7842 20.9412 10.7842 19.8947C10.7842 18.8483 11.6084 18 12.6251 18C13.6418 18 14.466 18.8483 14.466 19.8947Z" fill="#949BA0"/>
<path d="M9.80648 23.6033C10.4191 22.7302 11.4188 22.2104 12.4855 22.2104H12.7641C13.8307 22.2104 14.8304 22.7302 15.4431 23.6033L15.543 23.7457C16.2088 24.6945 15.53 25.9999 14.3709 25.9999H10.8786C9.71953 25.9999 9.0408 24.6945 9.7066 23.7457L9.80648 23.6033Z" fill="#949BA0"/>
</svg>
