<svg width="24" height="24" viewBox="0 0 24 24" fill="black" xmlns="http://www.w3.org/2000/svg">
<path fill-rule="evenodd" clip-rule="evenodd" d="M20 8H4V18H20V8ZM4 6C2.89543 6 2 6.89543 2 8V18C2 19.1046 2.89543 20 4 20H20C21.1046 20 22 19.1046 22 18V8C22 6.89543 21.1046 6 20 6H4Z"/>
<path fill-rule="evenodd" clip-rule="evenodd" d="M6 6C6 4.34315 7.34315 3 9 3H15C16.6569 3 18 4.34315 18 6H16C16 5.44772 15.5523 5 15 5H9C8.44772 5 8 5.44772 8 6H6Z"/>
<path fill-rule="evenodd" clip-rule="evenodd" d="M6.10001 12.8L2.20001 7.59999L3.80001 6.39999L7.70001 11.6C7.88887 11.8518 8.18526 12 8.50001 12H15.5C15.8148 12 16.1112 11.8518 16.3 11.6L20.2 6.39999L21.8 7.59999L17.9 12.8C17.3334 13.5554 16.4443 14 15.5 14H8.50001C7.55574 14 6.66658 13.5554 6.10001 12.8Z"/>
<path fill-rule="evenodd" clip-rule="evenodd" d="M12 11C12.5523 11 13 11.4477 13 12V14C13 14.5523 12.5523 15 12 15C11.4477 15 11 14.5523 11 14V12C11 11.4477 11.4477 11 12 11Z"/>
</svg>
