<svg width="24" height="24" viewBox="0 0 24 24" fill="none" xmlns="http://www.w3.org/2000/svg">
<path fill-rule="evenodd" clip-rule="evenodd" d="M16.7071 9.29289C17.0976 9.68342 17.0976 10.3166 16.7071 10.7071L11.7071 15.7071C11.3166 16.0976 10.6834 16.0976 10.2929 15.7071L7.29289 12.7071C6.90237 12.3166 6.90237 11.6834 7.29289 11.2929C7.68342 10.9024 8.31658 10.9024 8.70711 11.2929L11 13.5858L15.2929 9.29289C15.6834 8.90237 16.3166 8.90237 16.7071 9.29289Z" fill="black"/>
<path fill-rule="evenodd" clip-rule="evenodd" d="M12 20C16.4183 20 20 16.4183 20 12C20 7.58172 16.4183 4 12 4C7.58172 4 4 7.58172 4 12C4 16.4183 7.58172 20 12 20ZM12 22C17.5228 22 22 17.5228 22 12C22 6.47715 17.5228 2 12 2C6.47715 2 2 6.47715 2 12C2 17.5228 6.47715 22 12 22Z" fill="black"/>
</svg>
