<svg width="24" height="24" viewBox="0 0 24 24" fill="none" xmlns="http://www.w3.org/2000/svg">
<path fill-rule="evenodd" clip-rule="evenodd" d="M15 7H4L4 17H15V7ZM4 5C2.89543 5 2 5.89543 2 7V17C2 18.1046 2.89543 19 4 19H15C16.1046 19 17 18.1046 17 17V7C17 5.89543 16.1046 5 15 5H4Z" fill="black"/>
<path fill-rule="evenodd" clip-rule="evenodd" d="M17 10.5086V13.4914L20 14.3485V9.65146L17 10.5086ZM15 15L20.7253 16.6358C21.3641 16.8183 22 16.3386 22 15.6743V8.32573C22 7.66135 21.3641 7.18168 20.7253 7.3642L15 9V15Z" fill="black"/>
</svg>
