<svg width="24" height="24" viewBox="0 0 24 24" fill="black" xmlns="http://www.w3.org/2000/svg">
<path fill-rule="evenodd" clip-rule="evenodd" d="M15.365 14.9685C16.9594 13.8859 18 12.0642 18 10C18 6.68629 15.3137 4 12 4C8.68629 4 6 6.68629 6 10C6 12.0642 7.0406 13.8859 8.63503 14.9685C9.41173 15.4959 10 16.41 10 17.5065V19H14V17.5065C14 16.41 14.5883 15.4959 15.365 14.9685ZM16.4885 16.6232C16.1932 16.8237 16 17.1496 16 17.5065V19C16 20.1046 15.1046 21 14 21H10C8.89543 21 8 20.1046 8 19V17.5065C8 17.1496 7.80684 16.8237 7.51152 16.6232C5.39227 15.1842 4 12.7547 4 10C4 5.58172 7.58172 2 12 2C16.4183 2 20 5.58172 20 10C20 12.7547 18.6077 15.1842 16.4885 16.6232Z" />
<path d="M9 20C9 19.4477 9.44772 19 10 19H14C14.5523 19 15 19.4477 15 20V21C15 21.5523 14.5523 22 14 22H10C9.44772 22 9 21.5523 9 21V20Z" />
</svg>
