<svg width="24" height="24" viewBox="0 0 24 24" fill="black" xmlns="http://www.w3.org/2000/svg">
<path fill-rule="evenodd" clip-rule="evenodd" d="M5 5H19V15H5L5 5ZM3 5C3 3.89543 3.89543 3 5 3H19C20.1046 3 21 3.89543 21 5V15C21 16.1046 20.1046 17 19 17H13V19H16C16.5523 19 17 19.4477 17 20C17 20.5523 16.5523 21 16 21H8C7.44772 21 7 20.5523 7 20C7 19.4477 7.44772 19 8 19H11V17H5C3.89543 17 3 16.1046 3 15V5ZM13.8409 7.89474C13.8409 8.94117 13.0167 9.78947 12 9.78947C10.9833 9.78947 10.1591 8.94117 10.1591 7.89474C10.1591 6.8483 10.9833 6 12 6C13.0167 6 13.8409 6.8483 13.8409 7.89474ZM11.8607 10.2105C10.7941 10.2105 9.79437 10.7303 9.18171 11.6034L9.08183 11.7457C8.41603 12.6946 9.09476 14 10.2539 14H13.7461C14.9053 14 15.584 12.6946 14.9182 11.7457L14.8183 11.6034C14.2056 10.7303 13.2059 10.2105 12.1393 10.2105H11.8607Z"/>
</svg>
