<svg width="30" height="30" viewBox="0 0 30 30" fill="none" xmlns="http://www.w3.org/2000/svg">
    <path class="circle" d="M23.5 15C23.5 19.6944 19.6944 23.5 15 23.5C10.3056 23.5 6.5 19.6944 6.5 15C6.5 10.3056 10.3056 6.5 15 6.5C19.6944 6.5 23.5 10.3056 23.5 15Z" stroke="#E8EAED" stroke-width="3"/>
    <path class="quarter" d="M19.8819 20.0167C18.6209 21.244 16.8987 22 15 22V25C16.0193 25 17.0309 24.8442 18 24.5394C18.2794 24.4515 18.5553 24.3513 18.8268 24.2388C20.0331 23.7391 21.1298 23.0081 22.055 22.0871C22.0657 22.0764 22.0764 22.0657 22.0871 22.055C23.0081 21.1298 23.7391 20.0331 24.2388 18.8268C24.3513 18.5553 24.4515 18.2794 24.5394 18C24.8442 17.0309 25 16.0193 25 15H22C22 16.9206 21.2265 18.6605 19.9741 19.9253C19.966 19.9334 19.9579 19.9416 19.9497 19.9497C19.9448 19.9547 19.9398 19.9596 19.9349 19.9646C19.9173 19.982 19.8996 19.9994 19.8819 20.0167Z" fill="#979CA2">
        <animateTransform attributeType="xml" attributeName="transform" type="rotate" from="0 15 15" to="360 15 15" dur="1s" repeatCount="indefinite"/>
    </path>
</svg>
