<svg width="24" height="24" viewBox="0 0 24 24" fill="black" xmlns="http://www.w3.org/2000/svg">
<path fill-rule="evenodd" clip-rule="evenodd" d="M6 20H18V7L6 7V20ZM18 22H6C4.89543 22 4 21.1046 4 20V7C4 5.89543 4.89543 5 6 5H18C19.1046 5 20 5.89543 20 7V20C20 21.1046 19.1046 22 18 22Z"/>
<path fill-rule="evenodd" clip-rule="evenodd" d="M8 5C8 3.34315 9.34315 2 11 2H13C14.6569 2 16 3.34315 16 5V6H14V5C14 4.44772 13.5523 4 13 4H11C10.4477 4 10 4.44772 10 5V6H8V5Z"/>
<path d="M14 11C14 12.1046 13.1046 13 12 13C10.8954 13 10 12.1046 10 11C10 9.89543 10.8954 9 12 9C13.1046 9 14 9.89543 14 11Z"/>
<path d="M8.97102 15.215C9.6094 14.151 10.7592 13.5 12 13.5C13.2408 13.5 14.3906 14.151 15.029 15.215L15.2686 15.6144C16.0306 16.8843 15.1158 18.5 13.6348 18.5H10.3652C8.88418 18.5 7.96941 16.8843 8.73137 15.6144L8.97102 15.215Z"/>
</svg>
