<svg width="24" height="24" viewBox="0 0 24 24" fill="black" xmlns="http://www.w3.org/2000/svg">
<path fill-rule="evenodd" clip-rule="evenodd" d="M11.2502 2.29506C10.0583 3.33295 7.59842 5.20992 4.99576 5.6196C4.45019 5.70548 4 6.14768 4 6.69997V12.875C4 18.245 10.0994 21.2705 11.6466 21.9516C11.8731 22.0513 12.1269 22.0513 12.3534 21.9516C13.9006 21.2705 20 18.245 20 12.875V6.69793C20 6.14564 19.5498 5.70548 19.0042 5.6196C16.4016 5.20992 13.9417 3.33295 12.7498 2.29506C12.326 1.92604 11.674 1.92604 11.2502 2.29506ZM15.7071 11.7071C16.0976 11.3166 16.0976 10.6834 15.7071 10.2929C15.3166 9.90236 14.6834 9.90236 14.2929 10.2929L11.5 13.0858L10.2071 11.7929C9.81658 11.4024 9.18342 11.4024 8.79289 11.7929C8.40237 12.1834 8.40237 12.8166 8.79289 13.2071L10.7929 15.2071C11.1834 15.5976 11.8166 15.5976 12.2071 15.2071L15.7071 11.7071Z"/>
</svg>
