<svg width="24" height="24" viewBox="0 0 24 24" fill="black" xmlns="http://www.w3.org/2000/svg">
<path fill-rule="evenodd" clip-rule="evenodd" d="M12 22C17.5228 22 22 17.5228 22 12C22 6.47715 17.5228 2 12 2C6.47715 2 2 6.47715 2 12C2 17.5228 6.47715 22 12 22ZM14 9.5L12.4472 6.39443C12.263 6.0259 11.737 6.0259 11.5528 6.39443L10 9.5L7.01443 9.8732C6.60156 9.9248 6.42868 10.4287 6.72289 10.7229L9 13L8.43974 16.3616C8.36777 16.7934 8.84608 17.1026 9.21028 16.8598L12 15L14.7897 16.8598C15.1539 17.1026 15.6322 16.7934 15.5603 16.3616L15 13L17.2771 10.7229C17.5713 10.4287 17.3984 9.9248 16.9856 9.8732L14 9.5Z"/>
</svg>
