<svg width="24" height="24" viewBox="0 0 24 24" fill="black" xmlns="http://www.w3.org/2000/svg">
<path fill-rule="evenodd" clip-rule="evenodd" d="M20 20H4V4H20V20ZM4 2C2.89543 2 2 2.89543 2 4V20C2 21.1046 2.89543 22 4 22H20C21.1046 22 22 21.1046 22 20V4C22 2.89543 21.1046 2 20 2H4ZM6 12C6 11.4477 6.44772 11 7 11H17C17.5523 11 18 11.4477 18 12V16C18 16.5523 17.5523 17 17 17H7C6.44771 17 6 16.5523 6 16V12ZM7 7C6.44772 7 6 7.44772 6 8C6 8.55228 6.44772 9 7 9H10.5C11.0523 9 11.5 8.55228 11.5 8C11.5 7.44772 11.0523 7 10.5 7H7Z" />
</svg>
