<svg width="24" height="24" viewBox="0 0 24 24" fill="black" xmlns="http://www.w3.org/2000/svg">
<path d="M15.7518 11.134L10.75 8.13399C10.5984 8.04647 10.4265 8.00027 10.2515 8C10.0765 7.99974 9.90444 8.04541 9.7526 8.13247C9.60076 8.21953 9.47442 8.34491 9.38622 8.49609C9.29803 8.64728 9.25106 8.81896 9.25001 8.99399V14.994C9.24931 15.1699 9.295 15.3428 9.38248 15.4954C9.46997 15.648 9.59615 15.7748 9.74828 15.863C9.90042 15.9512 10.0731 15.9978 10.249 15.998C10.4249 15.9981 10.5977 15.9519 10.75 15.864L15.7518 12.864C15.9033 12.7761 16.0291 12.6499 16.1165 12.4981C16.204 12.3463 16.25 12.1742 16.25 11.999C16.25 11.8238 16.204 11.6517 16.1165 11.4999C16.0291 11.3481 15.9033 11.2219 15.7518 11.134Z"/>
<path fill-rule="evenodd" clip-rule="evenodd" d="M12 20C16.4183 20 20 16.4183 20 12C20 7.58172 16.4183 4 12 4C7.58172 4 4 7.58172 4 12C4 16.4183 7.58172 20 12 20ZM12 22C17.5228 22 22 17.5228 22 12C22 6.47715 17.5228 2 12 2C6.47715 2 2 6.47715 2 12C2 17.5228 6.47715 22 12 22Z"/>
</svg>
