<svg width="24" height="24" viewBox="0 0 24 24" fill="black" xmlns="http://www.w3.org/2000/svg">
<path fill-rule="evenodd" clip-rule="evenodd" d="M6.88889 13.9814L6.41315 16.5H17.5869L17.1111 13.9814V9.61111C17.1111 6.78832 14.8228 4.5 12 4.5C9.17722 4.5 6.88889 6.78832 6.88889 9.61111V13.9814ZM4.88889 13.7941L4.22395 17.3144C4.10764 17.9302 4.57989 18.5 5.20658 18.5H18.7934C19.4201 18.5 19.8924 17.9302 19.7761 17.3144L19.1111 13.7941V9.61111C19.1111 5.68375 15.9274 2.5 12 2.5C8.07265 2.5 4.88889 5.68375 4.88889 9.61111V13.7941Z"/>
<path fill-rule="evenodd" clip-rule="evenodd" d="M11 18.5C11 19.0523 11.4477 19.5 12 19.5C12.5523 19.5 13 19.0523 13 18.5H15C15 20.1569 13.6569 21.5 12 21.5C10.3431 21.5 9 20.1569 9 18.5H11Z"/>
</svg>
