<svg width="24" height="24" viewBox="0 0 24 24" fill="black" xmlns="http://www.w3.org/2000/svg">
<path fill-rule="evenodd" clip-rule="evenodd" d="M18.2451 19.6611C17.5919 18.9263 17.5697 17.8257 18.1927 17.0651C19.3232 15.685 20 13.9242 20 12C20 7.58172 16.4183 4 12 4C7.58172 4 4 7.58172 4 12C4 16.4183 7.58172 20 12 20L18.5463 20L18.2451 19.6611ZM22 12C22 14.403 21.1524 16.608 19.7399 18.3324L21.5206 20.3356C22.0938 20.9805 21.636 22 20.7732 22L12 22C6.47715 22 2 17.5228 2 12C2 6.47715 6.47715 2 12 2C17.5228 2 22 6.47715 22 12Z"/>
<path d="M9 12C9 12.5523 8.55228 13 8 13C7.44772 13 7 12.5523 7 12C7 11.4477 7.44772 11 8 11C8.55228 11 9 11.4477 9 12Z"/>
<circle cx="12" cy="12" r="1"/>
<circle cx="16" cy="12" r="1"/>
</svg>
