<svg width="24" height="24" viewBox="0 0 24 24" fill="black" xmlns="http://www.w3.org/2000/svg">
<path fill-rule="evenodd" clip-rule="evenodd" d="M1.89442 8.74719C1.5259 8.56293 1.5259 8.03702 1.89442 7.85276L11.1056 3.24719C11.6686 2.96566 12.3314 2.96566 12.8944 3.24719L22.1056 7.85276C22.4741 8.03702 22.4741 8.56293 22.1056 8.74719L12.8944 13.3528C12.3314 13.6343 11.6686 13.6343 11.1056 13.3528L1.89442 8.74719ZM5.47213 8.29997L12 5.03604L18.5279 8.29997L12 11.5639L5.47213 8.29997Z"/>
<path fill-rule="evenodd" clip-rule="evenodd" d="M7.29408 9.54421C7.82194 9.70663 8.11819 10.2662 7.95577 10.7941L6.14426 16.6815C6.11228 16.7854 6.10597 16.8654 6.10996 16.9163C6.11342 16.9604 6.12323 16.9739 6.12501 16.9763L6.12514 16.9765C6.53108 17.5455 7.92932 19 12 19C16.0707 19 17.4689 17.5455 17.8748 16.9765L17.875 16.9763C17.8768 16.9739 17.8866 16.9604 17.89 16.9163C17.894 16.8654 17.8877 16.7854 17.8557 16.6815L16.0442 10.7941C15.8818 10.2662 16.178 9.70663 16.7059 9.54421C17.2338 9.38179 17.7934 9.67804 17.9558 10.2059L19.7673 16.0933C19.9425 16.6629 19.9911 17.4538 19.503 18.138C18.6711 19.3041 16.6246 21 12 21C7.3754 21 5.32891 19.3041 4.49699 18.138C4.00888 17.4538 4.05744 16.6629 4.2327 16.0933L6.04421 10.2059C6.20663 9.67804 6.76622 9.38179 7.29408 9.54421Z"/>
<path fill-rule="evenodd" clip-rule="evenodd" d="M4.5 8.20001V13.2C4.5 13.7523 4.05228 14.2 3.5 14.2C2.94772 14.2 2.5 13.7523 2.5 13.2V8.20001H4.5Z"/>
</svg>
