<svg width="24" height="24" viewBox="0 0 24 24" fill="none" xmlns="http://www.w3.org/2000/svg">
<path fill-rule="evenodd" clip-rule="evenodd" d="M6 8C6 4.68629 8.68629 2 12 2C15.3137 2 18 4.68629 18 8H16C16 5.79086 14.2091 4 12 4C9.79086 4 8 5.79086 8 8H6Z" fill="black"/>
<path fill-rule="evenodd" clip-rule="evenodd" d="M18 10H6V20H18V10ZM6 8C4.89543 8 4 8.89543 4 10V20C4 21.1046 4.89543 22 6 22H18C19.1046 22 20 21.1046 20 20V10C20 8.89543 19.1046 8 18 8H6Z" fill="black"/>
<path fill-rule="evenodd" clip-rule="evenodd" d="M12 12.5C12.5523 12.5 13 12.9477 13 13.5V16.5C13 17.0523 12.5523 17.5 12 17.5C11.4477 17.5 11 17.0523 11 16.5V13.5C11 12.9477 11.4477 12.5 12 12.5Z" fill="black"/>
</svg>
