<svg xmlns="http://www.w3.org/2000/svg" width="24" height="24" fill="black"><path fill-rule="evenodd" d="M6.5 20h12V4h-12v16Zm12 2h-12a2 2 0 0 1-2-2V4a2 2 0 0 1 2-2h12a2 2 0 0 1 2 2v16a2 2 0 0 1-2 2Z" clip-rule="evenodd"/><path fill-rule="evenodd" d="M8.5 6.2c0-.11.09-.2.2-.2h1.6c.11 0 .2.09.2.2v1.6a.2.2 0 0 1-.2.2H8.7a.2.2 0 0 1-.2-.2V6.2ZM11.5 6.2c0-.11.09-.2.2-.2h1.6c.11 0 .2.09.2.2v1.6a.2.2 0 0 1-.2.2h-1.6a.2.2 0 0 1-.2-.2V6.2ZM14.5 6.2c0-.11.09-.2.2-.2h1.6c.11 0 .2.09.2.2v1.6a.2.2 0 0 1-.2.2h-1.6a.2.2 0 0 1-.2-.2V6.2ZM8.5 9.2c0-.11.09-.2.2-.2h1.6c.11 0 .2.09.2.2v1.6a.2.2 0 0 1-.2.2H8.7a.2.2 0 0 1-.2-.2V9.2ZM11.5 9.2c0-.11.09-.2.2-.2h1.6c.11 0 .2.09.2.2v1.6a.2.2 0 0 1-.2.2h-1.6a.2.2 0 0 1-.2-.2V9.2ZM14.5 9.2c0-.11.09-.2.2-.2h1.6c.11 0 .2.09.2.2v1.6a.2.2 0 0 1-.2.2h-1.6a.2.2 0 0 1-.2-.2V9.2ZM8.5 12.2c0-.11.09-.2.2-.2h1.6c.11 0 .2.09.2.2v1.6a.2.2 0 0 1-.2.2H8.7a.2.2 0 0 1-.2-.2v-1.6ZM11.5 12.2c0-.11.09-.2.2-.2h1.6c.11 0 .2.09.2.2v1.6a.2.2 0 0 1-.2.2h-1.6a.2.2 0 0 1-.2-.2v-1.6ZM14.5 12.2c0-.11.09-.2.2-.2h1.6c.11 0 .2.09.2.2v1.6a.2.2 0 0 1-.2.2h-1.6a.2.2 0 0 1-.2-.2v-1.6ZM8.5 18v2h2v-2h4v2h2v-2a2 2 0 0 0-2-2h-4a2 2 0 0 0-2 2Z" clip-rule="evenodd"/></svg>