<svg width="24" height="24" viewBox="0 0 24 24" fill="none" xmlns="http://www.w3.org/2000/svg">
<path fill-rule="evenodd" clip-rule="evenodd" d="M10 4C9.44772 4 9 4.44772 9 5V6.5H7V19C7 19.5523 7.44772 20 8 20H9V15C9 14.4477 9.44772 14 10 14C10.5523 14 11 14.4477 11 15V20H13V15C13 14.4477 13.4477 14 14 14C14.5523 14 15 14.4477 15 15V20H16C16.5523 20 17 19.5523 17 19V6.5H15V5C15 4.44772 14.5523 4 14 4H10ZM7 5C7 3.34315 8.34315 2 10 2H14C15.6569 2 17 3.34315 17 5V6H19V19C19 20.6569 17.6569 22 16 22H8C6.34315 22 5 20.6569 5 19V6H7V5Z" fill="black"/>
<path fill-rule="evenodd" clip-rule="evenodd" d="M3 7C3 6.44772 3.44772 6 4 6H20C20.5523 6 21 6.44772 21 7C21 7.55228 20.5523 8 20 8H4C3.44772 8 3 7.55228 3 7Z" fill="black"/>
</svg>
