<svg width="24" height="24" viewBox="0 0 24 24" fill="black" xmlns="http://www.w3.org/2000/svg">
	<path fill-rule="evenodd" clip-rule="evenodd"
		d="M4.69998 6H20.7V18H4.69998V6ZM2.69998 6C2.69998 4.89543 3.59541 4 4.69998 4H20.7C21.8046 4 22.7 4.89543 22.7 6V18C22.7 19.1046 21.8046 20 20.7 20H4.69998C3.59541 20 2.69998 19.1046 2.69998 18V6ZM11.7714 9.10052L15.3441 11.3511C15.4523 11.417 15.5422 11.5117 15.6046 11.6256C15.6671 11.7395 15.7 11.8686 15.7 12C15.7 12.1314 15.6671 12.2605 15.6046 12.3744C15.5422 12.4883 15.4523 12.583 15.3441 12.6489L11.7714 14.8995C11.6626 14.9655 11.5392 15.0001 11.4136 15C11.2879 14.9999 11.1646 14.9649 11.0559 14.8988C10.9472 14.8326 10.8571 14.7374 10.7946 14.623C10.7321 14.5085 10.6995 14.3788 10.7 14.2468V9.74568C10.7007 9.61438 10.7343 9.48558 10.7973 9.37217C10.8603 9.25875 10.9505 9.16469 11.059 9.09938C11.1674 9.03407 11.2903 8.9998 11.4153 9C11.5404 9.0002 11.6631 9.03486 11.7714 9.10052Z" />
</svg>