<svg width="24" height="24" viewBox="0 0 24 24" fill="none" xmlns="http://www.w3.org/2000/svg">
<path fill-rule="evenodd" clip-rule="evenodd" d="M6 20H18V8.87566L12.718 4H6V20ZM18 22H6C4.89543 22 4 21.1046 4 20V4C4 2.89543 4.89543 2 6 2H12.718C13.2208 2 13.7051 2.18937 14.0746 2.53039L19.3566 7.40606C19.7667 7.78467 20 8.31747 20 8.87566V20C20 21.1046 19.1046 22 18 22Z" fill="black"/>
<path fill-rule="evenodd" clip-rule="evenodd" d="M13 3V7C13 7.55228 13.4477 8 14 8H18V10H14C12.3431 10 11 8.65685 11 7V3H13Z" fill="black"/>
<path fill-rule="evenodd" clip-rule="evenodd" d="M12 11.25C12.5523 11.25 13 11.6977 13 12.25V17.75C13 18.3023 12.5523 18.75 12 18.75C11.4477 18.75 11 18.3023 11 17.75V12.25C11 11.6977 11.4477 11.25 12 11.25Z" fill="black"/>
<path fill-rule="evenodd" clip-rule="evenodd" d="M15.75 15C15.75 15.5523 15.3023 16 14.75 16L9.25 16C8.69772 16 8.25 15.5523 8.25 15C8.25 14.4477 8.69772 14 9.25 14L14.75 14C15.3023 14 15.75 14.4477 15.75 15Z" fill="black"/>
</svg>
