<svg width="24" height="24" viewBox="0 0 24 24" fill="black" xmlns="http://www.w3.org/2000/svg">
<path fill-rule="evenodd" clip-rule="evenodd" d="M6 20H18V8.87566L12.718 4H6V20ZM18 22H6C4.89543 22 4 21.1046 4 20V4C4 2.89543 4.89543 2 6 2H12.718C13.2208 2 13.7051 2.18937 14.0746 2.53039L19.3566 7.40606C19.7667 7.78467 20 8.31747 20 8.87566V20C20 21.1046 19.1046 22 18 22Z"/>
<path fill-rule="evenodd" clip-rule="evenodd" d="M13 3V7C13 7.55228 13.4477 8 14 8H18V10H14C12.3431 10 11 8.65685 11 7V3H13Z"/>
<path fill-rule="evenodd" clip-rule="evenodd" d="M7 13C7 12.4477 7.44772 12 8 12H16C16.5523 12 17 12.4477 17 13C17 13.5523 16.5523 14 16 14H8C7.44772 14 7 13.5523 7 13Z"/>
<path fill-rule="evenodd" clip-rule="evenodd" d="M7 17C7 16.4477 7.44772 16 8 16H16C16.5523 16 17 16.4477 17 17C17 17.5523 16.5523 18 16 18H8C7.44772 18 7 17.5523 7 17Z"/>
</svg>
