<svg width="24" height="24" viewBox="0 0 24 24" fill="black" xmlns="http://www.w3.org/2000/svg">
<path d="M14 18.7101L13.7148 17.7517L13 17.9644V18.7101H14ZM15.3302 18.1586L16.0373 17.4515L15.5097 16.924L14.8538 17.2794L15.3302 18.1586ZM16.5962 19.4246L15.8891 20.1317L15.8891 20.1317L16.5962 19.4246ZM17.3033 19.4246L18.0104 20.1317L18.0104 20.1317L17.3033 19.4246ZM19.4246 17.3033L18.7175 16.5962L18.7175 16.5962L19.4246 17.3033ZM18.1586 15.3302L17.2794 14.8538L16.924 15.5097L17.4515 16.0373L18.1586 15.3302ZM18.7101 14V13H17.9644L17.7517 13.7148L18.7101 14ZM18.7101 10L17.7517 10.2852L17.9644 11H18.7101V10ZM18.1586 8.66981L17.4515 7.9627L16.924 8.49026L17.2794 9.14623L18.1586 8.66981ZM19.4246 7.4038L18.7175 6.6967L18.7175 6.6967L19.4246 7.4038ZM19.4246 6.6967L18.7175 7.4038L18.7175 7.40381L19.4246 6.6967ZM17.3033 4.57538L16.5962 5.28248L16.5962 5.28248L17.3033 4.57538ZM16.5962 4.57538L17.3033 5.28248V5.28248L16.5962 4.57538ZM15.3302 5.84138L14.8538 6.72059L15.5097 7.07605L16.0373 6.54849L15.3302 5.84138ZM14 5.28988H13V6.03561L13.7148 6.24833L14 5.28988ZM10 5.28988L10.2853 6.24833L11 6.03561V5.28988H10ZM8.66981 5.84138L7.9627 6.54849L8.49026 7.07605L9.14624 6.72059L8.66981 5.84138ZM7.40381 4.57538L6.6967 5.28248L6.6967 5.28248L7.40381 4.57538ZM6.6967 4.57538L7.40381 5.28248L7.40381 5.28248L6.6967 4.57538ZM4.57538 6.6967L3.86827 5.98959H3.86827L4.57538 6.6967ZM4.57538 7.4038L5.28249 6.6967L5.28248 6.6967L4.57538 7.4038ZM5.84138 8.66981L6.72059 9.14623L7.07605 8.49026L6.54849 7.9627L5.84138 8.66981ZM5.28988 10V11H6.03561L6.24833 10.2853L5.28988 10ZM5.28988 14L6.24833 13.7148L6.03561 13H5.28988V14ZM5.84138 15.3302L6.54849 16.0373L7.07605 15.5097L6.72059 14.8538L5.84138 15.3302ZM4.57538 16.5962L3.86827 15.8891L3.86827 15.8891L4.57538 16.5962ZM4.57538 17.3033L3.86827 18.0104L3.86827 18.0104L4.57538 17.3033ZM6.6967 19.4246L7.40381 18.7175L7.40381 18.7175L6.6967 19.4246ZM7.40381 19.4246L6.6967 18.7175L6.6967 18.7175L7.40381 19.4246ZM8.66981 18.1586L9.14623 17.2794L8.49026 16.924L7.9627 17.4515L8.66981 18.1586ZM10 18.7101H11V17.9644L10.2853 17.7517L10 18.7101ZM10.5 20C10.7761 20 11 20.2239 11 20.5H9C9 21.3284 9.67157 22 10.5 22V20ZM13.5 20H10.5V22H13.5V20ZM13 20.5C13 20.2239 13.2239 20 13.5 20V22C14.3284 22 15 21.3284 15 20.5H13ZM13 18.7101V20.5H15V18.7101H13ZM14.8538 17.2794C14.4944 17.4741 14.1132 17.6331 13.7148 17.7517L14.2853 19.6686C14.8179 19.5101 15.3271 19.2977 15.8066 19.0378L14.8538 17.2794ZM17.3033 18.7175L16.0373 17.4515L14.6231 18.8657L15.8891 20.1317L17.3033 18.7175ZM16.5962 18.7175C16.7915 18.5223 17.108 18.5223 17.3033 18.7175L15.8891 20.1317C16.4749 20.7175 17.4246 20.7175 18.0104 20.1317L16.5962 18.7175ZM18.7175 16.5962L16.5962 18.7175L18.0104 20.1317L20.1317 18.0104L18.7175 16.5962ZM18.7175 17.3033C18.5223 17.108 18.5223 16.7915 18.7175 16.5962L20.1317 18.0104C20.7175 17.4246 20.7175 16.4749 20.1317 15.8891L18.7175 17.3033ZM17.4515 16.0373L18.7175 17.3033L20.1317 15.8891L18.8657 14.6231L17.4515 16.0373ZM17.7517 13.7148C17.6331 14.1132 17.4741 14.4944 17.2794 14.8538L19.0378 15.8066C19.2977 15.3271 19.5101 14.8179 19.6686 14.2853L17.7517 13.7148ZM20.5 13H18.7101V15H20.5V13ZM20 13.5C20 13.2239 20.2239 13 20.5 13V15C21.3284 15 22 14.3284 22 13.5H20ZM20 10.5V13.5H22V10.5H20ZM20.5 11C20.2239 11 20 10.7761 20 10.5H22C22 9.67157 21.3284 9 20.5 9V11ZM18.7101 11H20.5V9H18.7101V11ZM17.2794 9.14623C17.4741 9.50557 17.6331 9.8868 17.7517 10.2852L19.6686 9.71475C19.5101 9.18212 19.2977 8.67287 19.0378 8.19338L17.2794 9.14623ZM18.7175 6.6967L17.4515 7.9627L18.8657 9.37691L20.1317 8.11091L18.7175 6.6967ZM18.7175 7.40381C18.5223 7.20854 18.5223 6.89196 18.7175 6.6967L20.1317 8.11091C20.7175 7.52513 20.7175 6.57538 20.1317 5.98959L18.7175 7.40381ZM16.5962 5.28248L18.7175 7.4038L20.1317 5.98959L18.0104 3.86827L16.5962 5.28248ZM17.3033 5.28248C17.108 5.47775 16.7915 5.47775 16.5962 5.28248L18.0104 3.86827C17.4246 3.28248 16.4749 3.28248 15.8891 3.86827L17.3033 5.28248ZM16.0373 6.54849L17.3033 5.28248L15.8891 3.86827L14.6231 5.13427L16.0373 6.54849ZM13.7148 6.24833C14.1132 6.36692 14.4944 6.52588 14.8538 6.72059L15.8066 4.96216C15.3271 4.70234 14.8179 4.48994 14.2853 4.33143L13.7148 6.24833ZM13 3.5V5.28988H15V3.5H13ZM13.5 4C13.2239 4 13 3.77614 13 3.5H15C15 2.67157 14.3284 2 13.5 2V4ZM10.5 4H13.5V2H10.5V4ZM11 3.5C11 3.77614 10.7761 4 10.5 4V2C9.67157 2 9 2.67157 9 3.5H11ZM11 5.28988V3.5H9V5.28988H11ZM9.14624 6.72059C9.50557 6.52588 9.8868 6.36692 10.2853 6.24833L9.71475 4.33143C9.18212 4.48994 8.67287 4.70234 8.19338 4.96216L9.14624 6.72059ZM6.6967 5.28248L7.9627 6.54849L9.37691 5.13427L8.11091 3.86827L6.6967 5.28248ZM7.40381 5.28248C7.20854 5.47774 6.89196 5.47774 6.6967 5.28248L8.11091 3.86827C7.52513 3.28248 6.57538 3.28248 5.98959 3.86827L7.40381 5.28248ZM5.28248 7.4038L7.40381 5.28248L5.98959 3.86827L3.86827 5.98959L5.28248 7.4038ZM5.28248 6.6967C5.47775 6.89196 5.47775 7.20854 5.28248 7.4038L3.86827 5.98959C3.28248 6.57538 3.28249 7.52512 3.86827 8.11091L5.28248 6.6967ZM6.54849 7.9627L5.28249 6.6967L3.86827 8.11091L5.13427 9.37691L6.54849 7.9627ZM6.24833 10.2853C6.36692 9.8868 6.52588 9.50557 6.72059 9.14623L4.96217 8.19338C4.70234 8.67287 4.48995 9.18212 4.33143 9.71475L6.24833 10.2853ZM3.50001 11H5.28988V9H3.50001V11ZM4.00001 10.5C4.00001 10.7761 3.77615 11 3.50001 11V9C2.67158 9 2.00001 9.67157 2.00001 10.5H4.00001ZM4.00001 13.5V10.5H2.00001V13.5H4.00001ZM3.50001 13C3.77615 13 4.00001 13.2239 4.00001 13.5H2.00001C2.00001 14.3284 2.67158 15 3.50001 15V13ZM5.28988 13H3.50001V15H5.28988V13ZM6.72059 14.8538C6.52588 14.4944 6.36692 14.1132 6.24833 13.7148L4.33143 14.2852C4.48994 14.8179 4.70234 15.3271 4.96217 15.8066L6.72059 14.8538ZM5.28249 17.3033L6.54849 16.0373L5.13427 14.6231L3.86827 15.8891L5.28249 17.3033ZM5.28249 16.5962C5.47775 16.7915 5.47775 17.108 5.28249 17.3033L3.86827 15.8891C3.28249 16.4749 3.28249 17.4246 3.86827 18.0104L5.28249 16.5962ZM7.40381 18.7175L5.28249 16.5962L3.86827 18.0104L5.9896 20.1317L7.40381 18.7175ZM6.6967 18.7175C6.89196 18.5223 7.20855 18.5223 7.40381 18.7175L5.98959 20.1317C6.57538 20.7175 7.52513 20.7175 8.11092 20.1317L6.6967 18.7175ZM7.9627 17.4515L6.6967 18.7175L8.11092 20.1317L9.37691 18.8657L7.9627 17.4515ZM10.2853 17.7517C9.8868 17.6331 9.50557 17.4741 9.14623 17.2794L8.19338 19.0378C8.67287 19.2977 9.18212 19.5101 9.71475 19.6686L10.2853 17.7517ZM11 20.5V18.7101H9V20.5H11ZM8 12C8 14.2091 9.79086 16 12 16V14C10.8954 14 10 13.1046 10 12H8ZM12 8C9.79086 8 8 9.79086 8 12H10C10 10.8954 10.8954 10 12 10V8ZM16 12C16 9.79086 14.2091 8 12 8V10C13.1046 10 14 10.8954 14 12H16ZM12 16C14.2091 16 16 14.2091 16 12H14C14 13.1046 13.1046 14 12 14V16Z"/>
</svg>
