<svg width="24" height="24" viewBox="0 0 24 24" fill="black" xmlns="http://www.w3.org/2000/svg">
<path fill-rule="evenodd" clip-rule="evenodd" d="M3 4C3 3.44772 3.44772 3 4 3H20C20.3844 3 20.7348 3.22035 20.9013 3.56681C21.0678 3.91328 21.021 4.32453 20.7809 4.6247L17.2806 9L20.7809 13.3753C21.021 13.6755 21.0678 14.0867 20.9013 14.4332C20.7348 14.7797 20.3844 15 20 15H5V20C5 20.5523 4.55228 21 4 21C3.44772 21 3 20.5523 3 20V4ZM5 13H17.9194L15.2191 9.62469C14.927 9.25948 14.927 8.74052 15.2191 8.37531L17.9194 5H5V13Z" />
</svg>
