<svg width="24" height="24" viewBox="0 0 24 24" fill="black" xmlns="http://www.w3.org/2000/svg">
<path fill-rule="evenodd" clip-rule="evenodd" d="M10 5C10 5.55228 9.55228 6 9 6L5 6L5 18H9C9.55228 18 10 18.4477 10 19C10 19.5523 9.55228 20 9 20H5C3.89543 20 3 19.1046 3 18V6C3 4.89543 3.89543 4 5 4H9C9.55228 4 10 4.44772 10 5ZM20.2809 11.3753L16.5617 6.65614C16.2167 6.22488 15.5874 6.15495 15.1562 6.49996C14.7249 6.84497 14.655 7.47427 15 7.90553L17.4331 11L8 11C7.44772 11 7 11.4477 7 12C7 12.5523 7.44771 13 8 13L17.3445 13L14.9383 15.7506C14.5933 16.1819 14.6632 16.8112 15.0944 17.1562C15.5257 17.5012 16.155 17.4313 16.5 17L20.2809 12.6247C20.573 12.2594 20.573 11.7405 20.2809 11.3753Z" />
</svg>
