<svg width="24" height="24" viewBox="0 0 24 24" fill="black" xmlns="http://www.w3.org/2000/svg">
<path fill-rule="evenodd" clip-rule="evenodd" d="M19.4709 8C19.4805 8.00014 19.4902 8.00014 19.4998 8H20C20.5523 8 21 7.55228 21 7V4C21 3.44772 20.5523 3 20 3C19.4477 3 19 3.44772 19 4V4.8587C17.197 3.09134 14.7261 2 12 2C6.47715 2 2 6.47715 2 12C2 12.5523 2.44772 13 3 13C3.55228 13 4 12.5523 4 12C4 7.58172 7.58172 4 12 4C14.0285 4 15.8809 4.75451 17.2918 6H17C16.4477 6 16 6.44772 16 7C16 7.55228 16.4477 8 17 8H19.4709ZM20 12C20 11.4477 20.4477 11 21 11C21.5523 11 22 11.4477 22 12C22 17.5228 17.5228 22 12 22C9.27392 22 6.80298 20.9087 5 19.1413V20C5 20.5523 4.55228 21 4 21C3.44772 21 3 20.5523 3 20V17C3 16.4477 3.44771 16 4 16H4.50014C4.50981 15.9999 4.51947 15.9999 4.52912 16H7C7.55228 16 8 16.4477 8 17C8 17.5523 7.55228 18 7 18H6.70816C8.11907 19.2455 9.97153 20 12 20C16.4183 20 20 16.4183 20 12ZM12 7C12.5523 7 13 7.44772 13 8V10V11V11.4648L15.5547 13.1679C16.0142 13.4743 16.1384 14.0952 15.8321 14.5547C15.5257 15.0142 14.9048 15.1384 14.4453 14.8321L11.4453 12.8321C11.1671 12.6466 11 12.3344 11 12V8C11 7.44772 11.4477 7 12 7Z" />
</svg>
