<svg width="24" height="24" viewBox="0 0 24 24" fill="black" xmlns="http://www.w3.org/2000/svg">
<path fill-rule="evenodd" clip-rule="evenodd" d="M4.21913 11.3753C3.92696 11.7405 3.92696 12.2595 4.21913 12.6247L8.21913 17.6247C8.56414 18.056 9.19343 18.1259 9.62469 17.7809C10.056 17.4359 10.1259 16.8066 9.78087 16.3753L6.28062 12L9.78087 7.6247C10.1259 7.19344 10.056 6.56415 9.62469 6.21914C9.19343 5.87413 8.56414 5.94405 8.21913 6.37531L4.21913 11.3753Z"/>
<path fill-rule="evenodd" clip-rule="evenodd" d="M20 12C20 11.4477 19.5523 11 19 11H6C5.44771 11 5 11.4477 5 12C5 12.5523 5.44771 13 6 13H19C19.5523 13 20 12.5523 20 12Z"/>
</svg>
