<svg width="24" height="24" viewBox="0 0 24 24" fill="black" xmlns="http://www.w3.org/2000/svg">
<path fill-rule="evenodd" clip-rule="evenodd" d="M18.4979 20C18.2133 19.3364 18.3019 18.5462 18.7806 17.9539C19.5441 17.0092 20 15.8105 20 14.5C20 11.4624 17.5376 9 14.5 9C11.4624 9 9 11.4624 9 14.5C9 17.5376 11.4624 20 14.5 20L18.4979 20ZM22 14.5C22 16.2845 21.3768 17.9235 20.3361 19.2111L21.4179 20.2929C22.0479 20.9229 21.6017 22 20.7108 22H14.5C10.3579 22 7 18.6421 7 14.5C7 10.3579 10.3579 7 14.5 7C18.6421 7 22 10.3579 22 14.5Z"/>
<path d="M5.10847 12.1398C5.54321 12.6777 5.65616 13.3787 5.46018 14L7.0164 14C7.00552 14.1653 7 14.332 7 14.5C7 15.0137 7.05165 15.5153 7.15003 16L3.36421 16C2.47331 16 2.02714 14.9229 2.65711 14.2929L3.55301 13.397C2.58169 12.1952 2 10.6656 2 9C2 5.13401 5.13401 2 9 2C12.2082 2 14.9123 4.15822 15.7396 7.10197C15.3364 7.0349 14.9223 7 14.5 7C14.1977 7 13.8996 7.01789 13.6066 7.05266C12.8473 5.25868 11.0706 4 9 4C6.23858 4 4 6.23858 4 9C4 10.1916 4.41431 11.281 5.10847 12.1398Z"/>
</svg>
