<svg width="24" height="24" viewBox="0 0 24 24" fill="black" xmlns="http://www.w3.org/2000/svg">
<path fill-rule="evenodd" clip-rule="evenodd" d="M18.2451 19.6611C17.5919 18.9263 17.5697 17.8257 18.1927 17.0651C19.3232 15.685 20 13.9242 20 12C20 7.58172 16.4183 4 12 4C7.58172 4 4 7.58172 4 12C4 16.4183 7.58172 20 12 20L18.5463 20L18.2451 19.6611ZM22 12C22 14.403 21.1524 16.608 19.7399 18.3324L21.5206 20.3356C22.0938 20.9805 21.636 22 20.7732 22L12 22C6.47715 22 2 17.5228 2 12C2 6.47715 6.47715 2 12 2C17.5228 2 22 6.47715 22 12Z"/>
<path fill-rule="evenodd" clip-rule="evenodd" d="M12 9C11.1716 9 10.5 9.67157 10.5 10.5C10.5 11.0523 10.0523 11.5 9.5 11.5C8.94772 11.5 8.5 11.0523 8.5 10.5C8.5 8.567 10.067 7 12 7C13.933 7 15.5 8.567 15.5 10.5C15.5 12.433 13.933 14 12 14C11.4477 14 11 13.5523 11 13C11 12.4477 11.4477 12 12 12C12.8284 12 13.5 11.3284 13.5 10.5C13.5 9.67157 12.8284 9 12 9Z"/>
<path d="M13.0619 16C13.0619 16.5523 12.6141 17 12.0619 17C11.5096 17 11.0619 16.5523 11.0619 16C11.0619 15.4477 11.5096 15 12.0619 15C12.6141 15 13.0619 15.4477 13.0619 16Z"/>
</svg>
