<svg width="24" height="24" viewBox="0 0 24 24" fill="black" xmlns="http://www.w3.org/2000/svg">
<path fill-rule="evenodd" clip-rule="evenodd" d="M9 6C9 6.55228 8.55228 7 8 7C7.44772 7 7 6.55228 7 6C7 5.44772 7.44772 5 8 5C8.55228 5 9 5.44772 9 6ZM10.8293 5C10.4175 3.83481 9.30622 3 8 3C6.69378 3 5.58254 3.83481 5.17071 5H4C3.44772 5 3 5.44772 3 6C3 6.55228 3.44772 7 4 7H5.17071C5.58254 8.16519 6.69378 9 8 9C9.30622 9 10.4175 8.16519 10.8293 7H20C20.5523 7 21 6.55228 21 6C21 5.44772 20.5523 5 20 5H10.8293ZM16 12C16 12.5523 15.5523 13 15 13C14.4477 13 14 12.5523 14 12C14 11.4477 14.4477 11 15 11C15.5523 11 16 11.4477 16 12ZM17.8293 11C17.4175 9.83481 16.3062 9 15 9C13.6938 9 12.5825 9.83481 12.1707 11H4C3.44772 11 3 11.4477 3 12C3 12.5523 3.44772 13 4 13H12.1707C12.5825 14.1652 13.6938 15 15 15C16.3062 15 17.4175 14.1652 17.8293 13H20C20.5523 13 21 12.5523 21 12C21 11.4477 20.5523 11 20 11H17.8293ZM11 19C11.5523 19 12 18.5523 12 18C12 17.4477 11.5523 17 11 17C10.4477 17 10 17.4477 10 18C10 18.5523 10.4477 19 11 19ZM11 15C12.3062 15 13.4175 15.8348 13.8293 17H20C20.5523 17 21 17.4477 21 18C21 18.5523 20.5523 19 20 19H13.8293C13.4175 20.1652 12.3062 21 11 21C9.69378 21 8.58254 20.1652 8.17071 19H4C3.44772 19 3 18.5523 3 18C3 17.4477 3.44772 17 4 17H8.17071C8.58254 15.8348 9.69378 15 11 15Z"/>
</svg>
