<svg width="24" height="24" viewBox="0 0 24 24" fill="none" xmlns="http://www.w3.org/2000/svg">
<path fill-rule="evenodd" clip-rule="evenodd" d="M8.71311 8.0909H6C5.44772 8.0909 5 8.53862 5 9.0909V17.0909C5 17.6432 5.44772 18.0909 6 18.0909H18C18.5523 18.0909 19 17.6432 19 17.0909V9.0909C19 8.53862 18.5523 8.0909 18 8.0909H15.2869L13.6674 6.32424C13.478 6.11762 13.2106 5.99997 12.9303 5.99997H11.0697C10.7894 5.99997 10.522 6.11762 10.3326 6.32424L8.71311 8.0909ZM8.85824 4.9728C9.42647 4.35291 10.2288 3.99997 11.0697 3.99997H12.9303C13.7712 3.99997 14.5735 4.35291 15.1418 4.9728L16.1667 6.0909H18C19.6569 6.0909 21 7.43405 21 9.0909V17.0909C21 18.7478 19.6569 20.0909 18 20.0909H6C4.34315 20.0909 3 18.7478 3 17.0909V9.0909C3 7.43405 4.34315 6.0909 6 6.0909H7.83331L8.85824 4.9728Z" fill="black"/>
<path fill-rule="evenodd" clip-rule="evenodd" d="M12 14.5C12.8284 14.5 13.5 13.8284 13.5 13C13.5 12.1716 12.8284 11.5 12 11.5C11.1716 11.5 10.5 12.1716 10.5 13C10.5 13.8284 11.1716 14.5 12 14.5ZM12 16.5C13.933 16.5 15.5 14.933 15.5 13C15.5 11.067 13.933 9.5 12 9.5C10.067 9.5 8.5 11.067 8.5 13C8.5 14.933 10.067 16.5 12 16.5Z" fill="black"/>
</svg>
