<svg width="25" height="24" viewBox="0 0 25 24" fill="black" xmlns="http://www.w3.org/2000/svg">
<path fill-rule="evenodd" clip-rule="evenodd" d="M20.375 8H4.375V18H20.375V8ZM4.375 6C3.27043 6 2.375 6.89543 2.375 8V18C2.375 19.1046 3.27043 20 4.375 20H20.375C21.4796 20 22.375 19.1046 22.375 18V8C22.375 6.89543 21.4796 6 20.375 6H4.375Z" />
<path fill-rule="evenodd" clip-rule="evenodd" d="M6.375 6C6.375 4.34315 7.71815 3 9.375 3H15.375C17.0319 3 18.375 4.34315 18.375 6H16.375C16.375 5.44772 15.9273 5 15.375 5H9.375C8.82272 5 8.375 5.44772 8.375 6H6.375Z" />
<path fill-rule="evenodd" clip-rule="evenodd" d="M6.4752 12.7999L2.5752 7.5999L4.1752 6.3999L8.0752 11.5999C8.26405 11.8517 8.56044 11.9999 8.8752 11.9999H15.8752C16.19 11.9999 16.4863 11.8517 16.6752 11.5999L20.5752 6.3999L22.1752 7.5999L18.2752 12.7999C17.7086 13.5553 16.8195 13.9999 15.8752 13.9999H8.8752C7.93092 13.9999 7.04176 13.5553 6.4752 12.7999Z" />
<path fill-rule="evenodd" clip-rule="evenodd" d="M12.375 11C12.9273 11 13.375 11.4477 13.375 12V14C13.375 14.5523 12.9273 15 12.375 15C11.8227 15 11.375 14.5523 11.375 14V12C11.375 11.4477 11.8227 11 12.375 11Z" />
</svg>
