<svg width="12" height="12" viewBox="0 0 12 12" fill="black" xmlns="http://www.w3.org/2000/svg">
<path fill-rule="evenodd" clip-rule="evenodd" d="M7.32364 1.82636C7.69718 1.45281 8.31658 1.46658 8.70711 1.8571L10.1213 3.27131C10.5118 3.66184 10.5256 4.28124 10.1521 4.65478L4.85389 9.95296C4.70754 10.0993 4.51552 10.1921 4.30665 10.2174L2.05415 10.49C1.90223 10.5083 1.74732 10.4537 1.63604 10.3424C1.52476 10.2311 1.47008 10.0762 1.48847 9.92427L1.76106 7.67177C1.78634 7.4629 1.87912 7.27088 2.02546 7.12453L7.32364 1.82636ZM9.44496 3.94768L8.03074 2.53346L2.73257 7.83164L2.53786 9.44056L4.14678 9.24585L9.44496 3.94768Z"/>
</svg>
