<svg width="12" height="12" viewBox="0 0 12 12" fill="black" xmlns="http://www.w3.org/2000/svg">
<path fill-rule="evenodd" clip-rule="evenodd" d="M6 1.5C6.27614 1.5 6.5 1.72386 6.5 2V6.79289L7.64645 5.64645C7.84171 5.45118 8.15829 5.45118 8.35355 5.64645C8.54882 5.84171 8.54882 6.15829 8.35355 6.35355L6.35355 8.35355C6.15829 8.54882 5.84171 8.54882 5.64645 8.35355L3.64645 6.35355C3.45118 6.15829 3.45118 5.84171 3.64645 5.64645C3.84171 5.45118 4.15829 5.45118 4.35355 5.64645L5.5 6.79289V2C5.5 1.72386 5.72386 1.5 6 1.5ZM1.5 10C1.5 9.72386 1.72386 9.5 2 9.5H10C10.2761 9.5 10.5 9.72386 10.5 10C10.5 10.2761 10.2761 10.5 10 10.5H2C1.72386 10.5 1.5 10.2761 1.5 10Z" />
</svg>
