<svg width="12" height="12" viewBox="0 0 12 12" fill="black" xmlns="http://www.w3.org/2000/svg">
<path fill-rule="evenodd" clip-rule="evenodd" d="M6 11C8.76142 11 11 8.76142 11 6C11 3.23858 8.76142 1 6 1C3.23858 1 1 3.23858 1 6C1 8.76142 3.23858 11 6 11ZM8.35355 5.35355C8.54882 5.15829 8.54882 4.84171 8.35355 4.64645C8.15829 4.45118 7.84171 4.45118 7.64645 4.64645L5.5 6.79289L4.35355 5.64645C4.15829 5.45118 3.84171 5.45118 3.64645 5.64645C3.45118 5.84171 3.45118 6.15829 3.64645 6.35355L5.14645 7.85355C5.34171 8.04882 5.65829 8.04882 5.85355 7.85355L8.35355 5.35355Z"/>
</svg>
