<svg width="12" height="12" viewBox="0 0 12 12" fill="black" xmlns="http://www.w3.org/2000/svg">
<path fill-rule="evenodd" clip-rule="evenodd" d="M1.5 2.5C1.5 1.94772 1.94772 1.5 2.5 1.5H6C6.27614 1.5 6.5 1.72386 6.5 2C6.5 2.27614 6.27614 2.5 6 2.5H2.5V9.5H9.5V6C9.5 5.72386 9.72386 5.5 10 5.5C10.2761 5.5 10.5 5.72386 10.5 6V9.5C10.5 10.0523 10.0523 10.5 9.5 10.5H2.5C1.94772 10.5 1.5 10.0523 1.5 9.5V2.5ZM10.5 2.5C10.5 1.94772 10.0523 1.5 9.5 1.5H8C7.72386 1.5 7.5 1.72386 7.5 2C7.5 2.27614 7.72386 2.5 8 2.5H8.79289L5.64645 5.64645C5.45118 5.84171 5.45118 6.15829 5.64645 6.35355C5.84171 6.54882 6.15829 6.54882 6.35355 6.35355L9.5 3.20711V3.91338C9.5 4.18952 9.72386 4.41338 10 4.41338C10.2761 4.41338 10.5 4.18952 10.5 3.91338V2.5Z"/>
</svg>
