<svg width="12" height="12" viewBox="0 0 12 12" fill="black" xmlns="http://www.w3.org/2000/svg">
<path fill-rule="evenodd" clip-rule="evenodd" d="M9 4C9 2.34315 7.65685 1 6 1C4.34315 1 3 2.34315 3 4H2.5C2.22386 4 2 4.22386 2 4.5V10.5C2 10.7761 2.22386 11 2.5 11H9.5C9.77614 11 10 10.7761 10 10.5V4.5C10 4.22386 9.77614 4 9.5 4H9ZM6 2C7.10457 2 8 2.89543 8 4H4C4 2.89543 4.89543 2 6 2ZM6.5 6.75C6.5 6.47386 6.27614 6.25 6 6.25C5.72386 6.25 5.5 6.47386 5.5 6.75V8C5.5 8.27614 5.72386 8.5 6 8.5C6.27614 8.5 6.5 8.27614 6.5 8V6.75Z"/>
</svg>
