<svg width="12" height="12" viewBox="0 0 12 12" fill="black" xmlns="http://www.w3.org/2000/svg">
<path d="M6.97233 8.56326C7.16759 8.368 7.16759 8.05142 6.97233 7.85616C6.77707 7.6609 6.46048 7.6609 6.26522 7.85616L6.97233 8.56326ZM7.85621 6.26517C7.66095 6.46043 7.66095 6.77701 7.85621 6.97227C8.05147 7.16754 8.36806 7.16754 8.56332 6.97227L7.85621 6.26517ZM5.02778 3.43674C4.83252 3.632 4.83252 3.94859 5.02778 4.14385C5.22305 4.33911 5.53963 4.33911 5.73489 4.14385L5.02778 3.43674ZM4.1439 5.73484C4.33916 5.53958 4.33916 5.22299 4.1439 5.02773C3.94864 4.83247 3.63206 4.83247 3.43679 5.02773L4.1439 5.73484ZM5.46973 8.65165L5.29295 8.82843L6.00006 9.53554L6.17683 9.35876L5.46973 8.65165ZM6.26522 7.85616L5.46973 8.65165L6.17683 9.35876L6.97233 8.56326L6.26522 7.85616ZM8.82848 5.2929L8.65171 5.46967L9.35881 6.17678L9.53559 6L8.82848 5.2929ZM8.65171 5.46967L7.85621 6.26517L8.56332 6.97227L9.35881 6.17678L8.65171 5.46967ZM6.53039 3.34835L6.70716 3.17158L6.00006 2.46447L5.82328 2.64125L6.53039 3.34835ZM5.73489 4.14385L6.53039 3.34835L5.82328 2.64125L5.02778 3.43674L5.73489 4.14385ZM3.17163 6.70711L3.3484 6.53033L2.6413 5.82323L2.46452 6L3.17163 6.70711ZM3.3484 6.53033L4.1439 5.73484L3.43679 5.02773L2.6413 5.82323L3.3484 6.53033ZM3.17163 8.82843C2.58584 8.24264 2.58584 7.2929 3.17163 6.70711L2.46452 6C1.48821 6.97631 1.48821 8.55923 2.46452 9.53554L3.17163 8.82843ZM2.46452 9.53554C3.44083 10.5118 5.02374 10.5118 6.00006 9.53554L5.29295 8.82843C4.70716 9.41422 3.75741 9.41422 3.17163 8.82843L2.46452 9.53554ZM8.82848 3.17158C9.41427 3.75736 9.41427 4.70711 8.82848 5.2929L9.53559 6C10.5119 5.02369 10.5119 3.44078 9.53559 2.46447L8.82848 3.17158ZM9.53559 2.46447C8.55928 1.48816 6.97637 1.48816 6.00006 2.46447L6.70716 3.17158C7.29295 2.58579 8.2427 2.58579 8.82848 3.17158L9.53559 2.46447Z"/>
<path d="M7.41422 5.29287C7.60948 5.09761 7.60948 4.78102 7.41422 4.58576C7.21896 4.3905 6.90238 4.3905 6.70712 4.58576L7.41422 5.29287ZM4.5858 6.70708C4.39053 6.90234 4.39053 7.21893 4.5858 7.41419C4.78106 7.60945 5.09764 7.60945 5.2929 7.41419L4.5858 6.70708ZM6.70712 4.58576L4.5858 6.70708L5.2929 7.41419L7.41422 5.29287L6.70712 4.58576Z"/>
</svg>
