<svg width="16" height="16" viewBox="0 0 16 16" fill="black" xmlns="http://www.w3.org/2000/svg">
<path fill-rule="evenodd" clip-rule="evenodd" d="M4 13.5H12V5.48908L8.15689 2.5H4V13.5ZM12 14.5H4C3.44772 14.5 3 14.0523 3 13.5V2.5C3 1.94772 3.44772 1.5 4 1.5H8.15689C8.37927 1.5 8.5953 1.57412 8.77083 1.71065L12.6139 4.69973C12.8575 4.88919 13 5.18049 13 5.48908V13.5C13 14.0523 12.5523 14.5 12 14.5Z" />
<path fill-rule="evenodd" clip-rule="evenodd" d="M8.5 2V4.5C8.5 4.77614 8.72386 5 9 5H12.5V6H9C8.17157 6 7.5 5.32843 7.5 4.5V2H8.5Z" />
</svg>
