<svg width="16" height="16" viewBox="0 0 16 16" fill="black" xmlns="http://www.w3.org/2000/svg">
<path fill-rule="evenodd" clip-rule="evenodd" d="M10.1587 6.49582C9.79959 6.46288 9.48607 6.23918 9.3381 5.91037L8.00002 2.93686L6.66194 5.91036C6.51398 6.23918 6.20045 6.46288 5.84138 6.49582L2.6934 6.78463L4.91321 8.75155C5.17483 8.98337 5.29642 9.33497 5.23389 9.67889L4.64122 12.9386L7.46602 11.1545C7.79221 10.9485 8.20782 10.9485 8.53401 11.1545L11.3588 12.9386L10.7662 9.67889C10.7036 9.33497 10.8252 8.98337 11.0868 8.75155L13.3066 6.78462L10.1587 6.49582ZM8.45598 1.51325C8.27909 1.12016 7.72095 1.12016 7.54406 1.51325L5.75002 5.5L1.45103 5.8944C1.01488 5.93442 0.83731 6.47608 1.16512 6.76654L4.25002 9.5L3.45368 13.8799C3.37581 14.3082 3.84454 14.6245 4.21262 14.392L8.00002 12L11.7874 14.392C12.1555 14.6245 12.6242 14.3082 12.5464 13.8799L11.75 9.5L14.8349 6.76654C15.1627 6.47608 14.9852 5.93442 14.549 5.8944L10.25 5.5L8.45598 1.51325Z"/>
</svg>
