<svg width="16" height="16" viewBox="0 0 16 16" fill="black" xmlns="http://www.w3.org/2000/svg">
<path d="M6 2C6 1.44772 6.44772 1 7 1H9C9.55228 1 10 1.44772 10 2V3.17157L10.8284 2.34315C11.219 1.95262 11.8521 1.95262 12.2426 2.34315L13.6569 3.75736C14.0474 4.14788 14.0474 4.78105 13.6569 5.17157L12.8284 6H14C14.5523 6 15 6.44772 15 7V9C15 9.55228 14.5523 10 14 10H12.8284L13.6569 10.8284C14.0474 11.219 14.0474 11.8521 13.6569 12.2426L12.2426 13.6569C11.8521 14.0474 11.219 14.0474 10.8284 13.6569L10 12.8284V14C10 14.5523 9.55228 15 9 15H7C6.44772 15 6 14.5523 6 14V12.8284L5.17157 13.6569C4.78105 14.0474 4.14788 14.0474 3.75736 13.6569L2.34315 12.2426C1.95262 11.8521 1.95262 11.219 2.34315 10.8284L3.17157 10H2C1.44772 10 1 9.55229 1 9V7C1 6.44772 1.44772 6 2 6H3.17157L2.34315 5.17157C1.95262 4.78105 1.95262 4.14788 2.34315 3.75736L3.75736 2.34315C4.14788 1.95262 4.78105 1.95262 5.17157 2.34315L6 3.17157V2ZM9 2L7 2V3.938L6.66062 4.05313C6.48727 4.11194 6.319 4.18187 6.15668 4.26209L5.83518 4.42097L4.46447 3.05025L3.05025 4.46447L4.42096 5.83517L4.26208 6.15667C4.18185 6.319 4.11192 6.48727 4.05311 6.66062L3.93799 7H2V9H3.93799L4.05311 9.33938C4.11192 9.51274 4.18185 9.681 4.26207 9.84333L4.42096 10.1648L3.05025 11.5355L4.46447 12.9497L5.83518 11.579L6.15667 11.7379C6.319 11.8181 6.48726 11.8881 6.66062 11.9469L7 12.062V14H9V12.062L9.33937 11.9469C9.51273 11.8881 9.68098 11.8181 9.84331 11.7379L10.1648 11.579L11.5355 12.9497L12.9497 11.5355L11.579 10.1648L11.7379 9.84331C11.8181 9.68098 11.888 9.51273 11.9468 9.33938L12.062 9H14V7H12.062L11.9468 6.66062C11.888 6.48728 11.8181 6.31902 11.7379 6.1567L11.579 5.8352L12.9497 4.46447L11.5355 3.05025L10.1648 4.42098L9.84331 4.2621C9.68098 4.18188 9.51273 4.11195 9.33937 4.05314L9 3.93801V2ZM5.5 8C5.5 6.61929 6.61929 5.5 8 5.5C9.38071 5.5 10.5 6.61929 10.5 8C10.5 9.38071 9.38071 10.5 8 10.5C6.61929 10.5 5.5 9.38071 5.5 8ZM8 6.5C7.17157 6.5 6.5 7.17157 6.5 8C6.5 8.82843 7.17157 9.5 8 9.5C8.82843 9.5 9.5 8.82843 9.5 8C9.5 7.17157 8.82843 6.5 8 6.5Z" />
</svg>
