<svg width="12" height="12" viewBox="0 0 12 12" fill="black" xmlns="http://www.w3.org/2000/svg">
<path fill-rule="evenodd" clip-rule="evenodd" d="M11 6C11 8.76142 8.76142 11 6 11C3.23858 11 1 8.76142 1 6C1 3.23858 3.23858 1 6 1C8.76142 1 11 3.23858 11 6ZM6.75 8C6.75 8.41421 6.41421 8.75 6 8.75C5.58579 8.75 5.25 8.41421 5.25 8C5.25 7.58579 5.58579 7.25 6 7.25C6.41421 7.25 6.75 7.58579 6.75 8ZM5.25 5C5.25 4.58579 5.58579 4.25 6 4.25C6.41421 4.25 6.75 4.58579 6.75 5C6.75 5.41421 6.41421 5.75 6 5.75C5.72386 5.75 5.5 5.97386 5.5 6.25C5.5 6.52614 5.72386 6.75 6 6.75C6.9665 6.75 7.75 5.9665 7.75 5C7.75 4.0335 6.9665 3.25 6 3.25C5.0335 3.25 4.25 4.0335 4.25 5C4.25 5.27614 4.47386 5.5 4.75 5.5C5.02614 5.5 5.25 5.27614 5.25 5Z"/>
</svg>
