<svg width="16" height="16" viewBox="0 0 16 16" fill="black" xmlns="http://www.w3.org/2000/svg">
<path fill-rule="evenodd" clip-rule="evenodd" d="M3.5 14C3.5 14.2761 3.27614 14.5 3 14.5H2C1.44772 14.5 1 14.0523 1 13.5V7.08824C1 6.53595 1.44771 6.08824 2 6.08824H3C3.27614 6.08824 3.5 6.31209 3.5 6.58824V14Z" />
<path fill-rule="evenodd" clip-rule="evenodd" d="M4.5 14C4.5 14.2761 4.72386 14.5 5 14.5H11.9778C12.3926 14.5 12.7643 14.2439 12.9122 13.8564L14.9343 8.55449C14.9777 8.44069 15 8.31992 15 8.19812V7.08824C15 6.53595 14.5523 6.08824 14 6.08824H8.77778L9.88545 2.82108C10.1053 2.17262 9.62311 1.5 8.93839 1.5H8.46329C8.16943 1.5 7.89045 1.62925 7.70044 1.85343L4.73715 5.34962C4.58404 5.53026 4.5 5.75939 4.5 5.99619V14Z" />
</svg>
