<svg width="16" height="16" viewBox="0 0 16 16" fill="black" xmlns="http://www.w3.org/2000/svg">
<path fill-rule="evenodd" clip-rule="evenodd" d="M14.8923 7.78461C12.0525 2.10504 3.94746 2.10504 1.10767 7.78461C1.03988 7.9202 1.03988 8.07979 1.10767 8.21538C3.94746 13.895 12.0525 13.895 14.8923 8.21538C14.9601 8.07979 14.9601 7.9202 14.8923 7.78461ZM9.49998 8C9.49998 8.82842 8.8284 9.5 7.99998 9.5C7.17155 9.5 6.49998 8.82842 6.49998 8C6.49998 7.17157 7.17155 6.5 7.99998 6.5C8.8284 6.5 9.49998 7.17157 9.49998 8ZM10.5 8C10.5 9.38071 9.38069 10.5 7.99998 10.5C6.61926 10.5 5.49998 9.38071 5.49998 8C5.49998 6.61929 6.61926 5.5 7.99998 5.5C9.38069 5.5 10.5 6.61929 10.5 8Z"/>
</svg>
