<svg width="16" height="16" viewBox="0 0 16 16" fill="black" xmlns="http://www.w3.org/2000/svg">
<path fill-rule="evenodd" clip-rule="evenodd" d="M8 14C11.3137 14 14 11.3137 14 8C14 4.68629 11.3137 2 8 2C4.68629 2 2 4.68629 2 8C2 11.3137 4.68629 14 8 14ZM8 15C11.866 15 15 11.866 15 8C15 4.13401 11.866 1 8 1C4.13401 1 1 4.13401 1 8C1 11.866 4.13401 15 8 15Z"/>
<path fill-rule="evenodd" clip-rule="evenodd" d="M11.8536 6.14645C12.0488 6.34171 12.0488 6.65829 11.8536 6.85355L7.85355 10.8536C7.65829 11.0488 7.34171 11.0488 7.14645 10.8536L4.64645 8.35355C4.45118 8.15829 4.45118 7.84171 4.64645 7.64645C4.84171 7.45118 5.15829 7.45118 5.35355 7.64645L7.5 9.79289L11.1464 6.14645C11.3417 5.95118 11.6583 5.95118 11.8536 6.14645Z"/>
</svg>
