<svg width="16" height="16" viewBox="0 0 16 16" fill="black" xmlns="http://www.w3.org/2000/svg">
<path fill-rule="evenodd" clip-rule="evenodd" d="M11 4.50003H2L2 11.5H11V4.50003ZM2 3.50003C1.44772 3.50003 1 3.94775 1 4.50003V11.5C1 12.0523 1.44771 12.5 2 12.5H11C11.5523 12.5 12 12.0523 12 11.5V4.50003C12 3.94775 11.5523 3.50003 11 3.50003H2Z"/>
<path fill-rule="evenodd" clip-rule="evenodd" d="M12 6.53686V9.46319L14 10.1194V5.88061L12 6.53686ZM11 10.1875L14.3441 11.2848C14.6674 11.3909 15 11.15 15 10.8097V5.19032C15 4.85002 14.6674 4.60914 14.3441 4.71524L11 5.81252V10.1875Z"/>
</svg>
