<svg width="16" height="16" viewBox="0 0 16 16" fill="black" xmlns="http://www.w3.org/2000/svg">
	<path fill-rule="evenodd" clip-rule="evenodd"
		d="M14 8.5C14 11.8137 11.3137 14.5 8 14.5C4.68629 14.5 2 11.8137 2 8.5C2 5.18629 4.68629 2.5 8 2.5C11.3137 2.5 14 5.18629 14 8.5ZM15 8.5C15 12.366 11.866 15.5 8 15.5C4.13401 15.5 1 12.366 1 8.5C1 4.63401 4.13401 1.5 8 1.5C11.866 1.5 15 4.63401 15 8.5ZM7 11.0981L10.75 8.93301C11.0833 8.74056 11.0833 8.25944 10.75 8.06699L7 5.90192C6.66667 5.70947 6.25 5.95004 6.25 6.33494L6.25 10.6651C6.25 11.05 6.66667 11.2905 7 11.0981Z" />
</svg>