<svg width="16" height="16" viewBox="0 0 16 16" fill="black" xmlns="http://www.w3.org/2000/svg">
<path fill-rule="evenodd" clip-rule="evenodd" d="M10.6464 5.85355C10.8417 6.04882 11.1583 6.04882 11.3536 5.85355C11.5488 5.65829 11.5488 5.34171 11.3536 5.14645L8.35355 2.14645C8.15829 1.95118 7.84171 1.95118 7.64645 2.14645L4.64645 5.14645C4.45118 5.34171 4.45118 5.65829 4.64645 5.85355C4.84171 6.04882 5.15829 6.04882 5.35355 5.85355L7.5 3.70711V11C7.5 11.2761 7.72386 11.5 8 11.5C8.27614 11.5 8.5 11.2761 8.5 11V3.70711L10.6464 5.85355ZM3 9.5C3.27614 9.5 3.5 9.72386 3.5 10V13H12.5V10C12.5 9.72386 12.7239 9.5 13 9.5C13.2761 9.5 13.5 9.72386 13.5 10V13.5C13.5 13.7761 13.2761 14 13 14H3C2.72386 14 2.5 13.7761 2.5 13.5V10C2.5 9.72386 2.72386 9.5 3 9.5Z"/>
</svg>
