<svg width="16" height="16" viewBox="0 0 16 16" fill="black" xmlns="http://www.w3.org/2000/svg">
<path fill-rule="evenodd" clip-rule="evenodd" d="M12 4H4V14H12V4ZM4 3C3.44772 3 3 3.44772 3 4V14C3 14.5523 3.44772 15 4 15H12C12.5523 15 13 14.5523 13 14V4C13 3.44772 12.5523 3 12 3H4Z"/>
<path fill-rule="evenodd" clip-rule="evenodd" d="M5.5 2.5C5.5 1.67157 6.17157 1 7 1H9C9.82843 1 10.5 1.67157 10.5 2.5V3.5H9.5V2.5C9.5 2.22386 9.27614 2 9 2H7C6.72386 2 6.5 2.22386 6.5 2.5V3.5H5.5V2.5Z"/>
<path d="M9.5 7C9.5 7.82843 8.82843 8.5 8 8.5C7.17157 8.5 6.5 7.82843 6.5 7C6.5 6.17157 7.17157 5.5 8 5.5C8.82843 5.5 9.5 6.17157 9.5 7Z"/>
<path d="M5.7558 10.3024C6.216 9.49702 7.07244 9 8 9C8.92757 9 9.78401 9.49701 10.2442 10.3024L10.3699 10.5223C10.8735 11.4036 10.2372 12.5 9.22223 12.5H6.77777C5.76283 12.5 5.12654 11.4036 5.63009 10.5223L5.7558 10.3024Z"/>
</svg>
