<svg width="12" height="12" viewBox="0 0 12 12" fill="black" xmlns="http://www.w3.org/2000/svg">
<path fill-rule="evenodd" clip-rule="evenodd" d="M6 10C8.20914 10 10 8.20914 10 6C10 3.79086 8.20914 2 6 2C3.79086 2 2 3.79086 2 6C2 8.20914 3.79086 10 6 10ZM6 11C8.76142 11 11 8.76142 11 6C11 3.23858 8.76142 1 6 1C3.23858 1 1 3.23858 1 6C1 8.76142 3.23858 11 6 11Z"/>
<path d="M6.75 8C6.75 8.41421 6.41421 8.75 6 8.75C5.58579 8.75 5.25 8.41421 5.25 8C5.25 7.58579 5.58579 7.25 6 7.25C6.41421 7.25 6.75 7.58579 6.75 8Z"/>
<path fill-rule="evenodd" clip-rule="evenodd" d="M6 4.25C5.58579 4.25 5.25 4.58579 5.25 5C5.25 5.27614 5.02614 5.5 4.75 5.5C4.47386 5.5 4.25 5.27614 4.25 5C4.25 4.0335 5.0335 3.25 6 3.25C6.9665 3.25 7.75 4.0335 7.75 5C7.75 5.9665 6.9665 6.75 6 6.75C5.72386 6.75 5.5 6.52614 5.5 6.25C5.5 5.97386 5.72386 5.75 6 5.75C6.41421 5.75 6.75 5.41421 6.75 5C6.75 4.58579 6.41421 4.25 6 4.25Z"/>
</svg>
