<svg width="16" height="16" viewBox="0 0 16 16" fill="black" xmlns="http://www.w3.org/2000/svg">
<path fill-rule="evenodd" clip-rule="evenodd" d="M12.3219 12.1619C11.956 12.5417 11.948 13.1404 12.3036 13.5299L12.7328 14H8C4.68629 14 2 11.3137 2 8C2 4.68629 4.68629 2 8 2C11.3137 2 14 4.68629 14 8C14 9.6166 13.362 11.0821 12.3219 12.1619ZM13.0421 12.8556C14.2545 11.597 15 9.88557 15 8C15 4.13401 11.866 1 8 1C4.13401 1 1 4.13401 1 8C1 11.866 4.13401 15 8 15H13.8664C14.301 15 14.5287 14.4838 14.2357 14.1629L13.0421 12.8556ZM5.25 8.75C5.66421 8.75 6 8.41421 6 8C6 7.58579 5.66421 7.25 5.25 7.25C4.83579 7.25 4.5 7.58579 4.5 8C4.5 8.41421 4.83579 8.75 5.25 8.75ZM8.75 8C8.75 8.41421 8.41421 8.75 8 8.75C7.58579 8.75 7.25 8.41421 7.25 8C7.25 7.58579 7.58579 7.25 8 7.25C8.41421 7.25 8.75 7.58579 8.75 8ZM10.75 8.75C11.1642 8.75 11.5 8.41421 11.5 8C11.5 7.58579 11.1642 7.25 10.75 7.25C10.3358 7.25 10 7.58579 10 8C10 8.41421 10.3358 8.75 10.75 8.75Z" />
</svg>
