<svg width="16" height="16" viewBox="0 0 16 16" fill="black" xmlns="http://www.w3.org/2000/svg">
<path fill-rule="evenodd" clip-rule="evenodd" d="M2 4H14V12H2V4ZM1 4C1 3.44772 1.44772 3 2 3H14C14.5523 3 15 3.44772 15 4V12C15 12.5523 14.5523 13 14 13H2C1.44772 13 1 12.5523 1 12V4ZM11.8536 6.35355C12.0488 6.15829 12.0488 5.84171 11.8536 5.64645C11.6583 5.45118 11.3417 5.45118 11.1464 5.64645L8.75 8.04289L7.60355 6.89645C7.40829 6.70118 7.09171 6.70118 6.89645 6.89645L4.14645 9.64645C3.95118 9.84171 3.95118 10.1583 4.14645 10.3536C4.34171 10.5488 4.65829 10.5488 4.85355 10.3536L7.25 7.95711L8.39645 9.10355C8.59171 9.29882 8.90829 9.29882 9.10355 9.10355L11.8536 6.35355Z" />
</svg>
