<svg width="16" height="16" viewBox="0 0 16 16" fill="black" xmlns="http://www.w3.org/2000/svg">
<path fill-rule="evenodd" clip-rule="evenodd" d="M15 8C15 11.866 11.866 15 8 15C4.13401 15 1 11.866 1 8C1 4.13401 4.13401 1 8 1C11.866 1 15 4.13401 15 8ZM5.39645 5.39645C5.59171 5.20118 5.90829 5.20118 6.10355 5.39645L8 7.29289L9.89645 5.39645C10.0917 5.20118 10.4083 5.20118 10.6036 5.39645C10.7988 5.59171 10.7988 5.90829 10.6036 6.10355L8.70711 8L10.6036 9.89645C10.7988 10.0917 10.7988 10.4083 10.6036 10.6036C10.4083 10.7988 10.0917 10.7988 9.89645 10.6036L8 8.70711L6.10355 10.6036C5.90829 10.7988 5.59171 10.7988 5.39645 10.6036C5.20118 10.4083 5.20118 10.0917 5.39645 9.89645L7.29289 8L5.39645 6.10355C5.20118 5.90829 5.20118 5.59171 5.39645 5.39645Z"/>
</svg>
