<svg width="16" height="16" viewBox="0 0 16 16" fill="black" xmlns="http://www.w3.org/2000/svg">
<path fill-rule="evenodd" clip-rule="evenodd" d="M2 4C2 3.72386 2.22386 3.5 2.5 3.5H4.5C4.77614 3.5 5 3.72386 5 4C5 4.27614 4.77614 4.5 4.5 4.5H2.5C2.22386 4.5 2 4.27614 2 4ZM7 4C7 3.72386 7.22386 3.5 7.5 3.5H13.5C13.7761 3.5 14 3.72386 14 4C14 4.27614 13.7761 4.5 13.5 4.5H7.5C7.22386 4.5 7 4.27614 7 4Z"/>
<path fill-rule="evenodd" clip-rule="evenodd" d="M14 8C14 8.27614 13.7761 8.5 13.5 8.5H11.5C11.2239 8.5 11 8.27614 11 8C11 7.72386 11.2239 7.5 11.5 7.5H13.5C13.7761 7.5 14 7.72386 14 8ZM9 8C9 8.27614 8.77614 8.5 8.5 8.5L2.5 8.5C2.22386 8.5 2 8.27614 2 8C2 7.72386 2.22386 7.5 2.5 7.5L8.5 7.5C8.77614 7.5 9 7.72386 9 8Z"/>
<path fill-rule="evenodd" clip-rule="evenodd" d="M14 12C14 12.2761 13.7761 12.5 13.5 12.5H8.5C8.22386 12.5 8 12.2761 8 12C8 11.7239 8.22386 11.5 8.5 11.5H13.5C13.7761 11.5 14 11.7239 14 12ZM6 12C6 12.2761 5.77614 12.5 5.5 12.5H2.5C2.22386 12.5 2 12.2761 2 12C2 11.7239 2.22386 11.5 2.5 11.5H5.5C5.77614 11.5 6 11.7239 6 12Z"/>
<path fill-rule="evenodd" clip-rule="evenodd" d="M10 9C10.5523 9 11 8.55228 11 8C11 7.44772 10.5523 7 10 7C9.44772 7 9 7.44772 9 8C9 8.55228 9.44772 9 10 9ZM10 10C11.1046 10 12 9.10457 12 8C12 6.89543 11.1046 6 10 6C8.89543 6 8 6.89543 8 8C8 9.10457 8.89543 10 10 10Z"/>
<path fill-rule="evenodd" clip-rule="evenodd" d="M6 5C6.55228 5 7 4.55228 7 4C7 3.44772 6.55228 3 6 3C5.44772 3 5 3.44772 5 4C5 4.55228 5.44772 5 6 5ZM6 6C7.10457 6 8 5.10457 8 4C8 2.89543 7.10457 2 6 2C4.89543 2 4 2.89543 4 4C4 5.10457 4.89543 6 6 6Z"/>
<path fill-rule="evenodd" clip-rule="evenodd" d="M7 13C7.55228 13 8 12.5523 8 12C8 11.4477 7.55228 11 7 11C6.44772 11 6 11.4477 6 12C6 12.5523 6.44772 13 7 13ZM7 14C8.10457 14 9 13.1046 9 12C9 10.8954 8.10457 10 7 10C5.89543 10 5 10.8954 5 12C5 13.1046 5.89543 14 7 14Z"/>
</svg>
