<svg width="12" height="12" viewBox="0 0 12 12" fill="black" xmlns="http://www.w3.org/2000/svg">
<path fill-rule="evenodd" clip-rule="evenodd" d="M7.68765 5.24806C7.32231 5.22522 6.99864 5.0046 6.84385 4.67289L6.00003 2.86471L5.15621 4.67289C5.00141 5.0046 4.67775 5.22522 4.31241 5.24806L2.73613 5.34657L3.90853 6.37243C4.17327 6.60407 4.29683 6.95779 4.2339 7.30389L3.8957 9.16398L5.45927 8.15883C5.78868 7.94706 6.21138 7.94706 6.54079 8.15883L8.10436 9.16398L7.76616 7.30389C7.70323 6.95779 7.82679 6.60407 8.09153 6.37243L9.26393 5.34657L7.68765 5.24806ZM6.45312 1.47091C6.27357 1.08617 5.72648 1.08617 5.54694 1.47092L4.25003 4.25L1.46189 4.42426C1.01631 4.45211 0.827837 5.00559 1.16383 5.29958L3.25003 7.125L2.70593 10.1175C2.62771 10.5477 3.10044 10.864 3.46824 10.6276L6.00003 9L8.53181 10.6276C8.89962 10.864 9.37235 10.5477 9.29413 10.1175L8.75003 7.125L10.8362 5.29958C11.1722 5.00559 10.9838 4.45211 10.5382 4.42426L7.75003 4.25L6.45312 1.47091Z"/>
</svg>
