<svg width="12" height="12" viewBox="0 0 12 12" fill="black" xmlns="http://www.w3.org/2000/svg">
<path fill-rule="evenodd" clip-rule="evenodd" d="M6 2C8.20914 2 10 3.79086 10 6C10 8.20914 8.20914 10 6 10C3.79086 10 2 8.20914 2 6C2 3.79086 3.79086 2 6 2ZM6 1C8.76142 1 11 3.23858 11 6C11 8.76142 8.76142 11 6 11C3.23858 11 1 8.76142 1 6C1 3.23858 3.23858 1 6 1Z" />
<path fill-rule="evenodd" clip-rule="evenodd" d="M6 8.75C6.27614 8.75 6.5 8.52614 6.5 8.25V5.75C6.5 5.47386 6.27614 5.25 6 5.25C5.72386 5.25 5.5 5.47386 5.5 5.75V8.25C5.5 8.52614 5.72386 8.75 6 8.75Z" />
<path d="M6.75 4C6.75 3.58579 6.41421 3.25 6 3.25C5.58579 3.25 5.25 3.58579 5.25 4C5.25 4.41421 5.58579 4.75 6 4.75C6.41421 4.75 6.75 4.41421 6.75 4Z" />
</svg>
