<svg width="16" height="16" viewBox="0 0 16 16" fill="black" xmlns="http://www.w3.org/2000/svg">
<path fill-rule="evenodd" clip-rule="evenodd" d="M12 6.5V11H4V6.5C4 4.29086 5.79086 2.5 8 2.5C10.2091 2.5 12 4.29086 12 6.5ZM3 11.2676V6.5C3 3.73858 5.23858 1.5 8 1.5C10.7614 1.5 13 3.73858 13 6.5V11.2676C13.5978 11.6134 14 12.2597 14 13V14C14 14.5523 13.5523 15 13 15H3C2.44772 15 2 14.5523 2 14V13C2 12.2597 2.4022 11.6134 3 11.2676ZM4 12C3.44772 12 3 12.4477 3 13L3 14H13V13C13 12.4477 12.5523 12 12 12H4Z"/>
</svg>
