<svg width="16" height="16" viewBox="0 0 16 16" fill="black" xmlns="http://www.w3.org/2000/svg">
<path fill-rule="evenodd" clip-rule="evenodd" d="M8 15C11.866 15 15 11.866 15 8C15 4.13401 11.866 1 8 1C4.13401 1 1 4.13401 1 8C1 11.866 4.13401 15 8 15ZM11.8536 6.85355C12.0488 6.65829 12.0488 6.34171 11.8536 6.14645C11.6583 5.95118 11.3417 5.95118 11.1464 6.14645L7.5 9.79289L5.35355 7.64645C5.15829 7.45118 4.84171 7.45118 4.64645 7.64645C4.45118 7.84171 4.45118 8.15829 4.64645 8.35355L7.14645 10.8536C7.34171 11.0488 7.65829 11.0488 7.85355 10.8536L11.8536 6.85355Z"/>
</svg>
