<svg width="16" height="16" viewBox="0 0 16 16" fill="black" xmlns="http://www.w3.org/2000/svg">
<path fill-rule="evenodd" clip-rule="evenodd" d="M11.5108 8.046C11.8323 7.24375 12 6.54851 12 6C12 3.79086 10.2091 2 8 2C5.79086 2 4 3.79086 4 6C4 6.54851 4.16772 7.24375 4.48921 8.046C4.80628 8.83721 5.24816 9.67227 5.73781 10.483C6.51815 11.775 7.39141 12.9589 8 13.74C8.60859 12.9589 9.48185 11.775 10.2622 10.483C10.7518 9.67227 11.1937 8.83721 11.5108 8.046ZM10 6C10 7.10457 9.10457 8 8 8C6.89543 8 6 7.10457 6 6C6 4.89543 6.89543 4 8 4C9.10457 4 10 4.89543 10 6ZM13 6C13 8.91766 9.52541 13.4545 8.36919 14.8834C8.17639 15.1217 7.82361 15.1217 7.63081 14.8834C6.47459 13.4545 3 8.91766 3 6C3 3.23858 5.23858 1 8 1C10.7614 1 13 3.23858 13 6ZM9 6C9 6.55228 8.55228 7 8 7C7.44772 7 7 6.55228 7 6C7 5.44772 7.44772 5 8 5C8.55228 5 9 5.44772 9 6Z"/>
</svg>
