<svg width="16" height="16" viewBox="0 0 16 16" fill="black" xmlns="http://www.w3.org/2000/svg">
<path fill-rule="evenodd" clip-rule="evenodd" d="M11 7C11 9.20914 9.20914 11 7 11C4.79086 11 3 9.20914 3 7C3 4.79086 4.79086 3 7 3C9.20914 3 11 4.79086 11 7ZM10.1643 10.8715C9.30242 11.5768 8.20063 12 7 12C4.23858 12 2 9.76142 2 7C2 4.23858 4.23858 2 7 2C9.76142 2 12 4.23858 12 7C12 8.20064 11.5768 9.30244 10.8715 10.1644L13.8535 13.1465C14.0488 13.3417 14.0488 13.6583 13.8535 13.8536C13.6583 14.0488 13.3417 14.0488 13.1464 13.8536L10.1643 10.8715Z"/>
</svg>
