<svg width="16" height="16" viewBox="0 0 16 16" fill="black" xmlns="http://www.w3.org/2000/svg">
<path fill-rule="evenodd" clip-rule="evenodd" d="M8.16927 10.2328C8.27277 9.92757 8.22277 9.59111 8.03496 9.32913C7.84715 9.06715 7.54457 8.91176 7.22222 8.91176L2 8.91176L2 7.80188L4.02219 2.5L3.08785 2.14363L4.02219 2.5L4.02219 1.5V2.5L11.5 2.5V9.1024C11.2441 9.22292 11.0137 9.39773 10.8265 9.61861L7.53671 13.5L7.06161 13.5L8.16927 10.2328ZM12.5 8.91176H14L14 2.5H12.5V8.91176ZM4.02219 1.5C3.6074 1.5 3.23567 1.75607 3.08785 2.14363L1.06565 7.44551C1.02225 7.55931 1 7.68008 1 7.80188V8.91176C1 9.46405 1.44772 9.91176 2 9.91176H6.16631H7.22222L6.88319 10.9118L6.11455 13.1789C5.89471 13.8274 6.37689 14.5 7.06161 14.5H7.53671C7.83057 14.5 8.10955 14.3707 8.29956 14.1466L11.5893 10.2652C11.7793 10.041 12.0583 9.91176 12.3522 9.91176H14C14.5523 9.91176 15 9.46405 15 8.91176V2.5C15 1.94772 14.5523 1.5 14 1.5H4.02219Z"/>
</svg>
