<svg width="16" height="16" viewBox="0 0 16 16" fill="black" xmlns="http://www.w3.org/2000/svg">
<path fill-rule="evenodd" clip-rule="evenodd" d="M7.83073 5.76716C7.72723 6.07243 7.77723 6.40889 7.96504 6.67087C8.15285 6.93285 8.45543 7.08824 8.77778 7.08824L14 7.08824V8.19812L11.9778 13.5H4.5V6.8976C4.75589 6.77708 4.9863 6.60227 5.17352 6.38139L8.46329 2.5L8.93839 2.5L7.83073 5.76716ZM3.5 7.08824H2L2 13.5H3.5V7.08824ZM2 14.5H11.9778C12.3926 14.5 12.7643 14.2439 12.9122 13.8564L14.9343 8.55449C14.9777 8.44069 15 8.31992 15 8.19812V7.08824C15 6.53595 14.5523 6.08824 14 6.08824H9.83369H8.77778L9.11681 5.08824L9.88545 2.82108C10.1053 2.17262 9.62311 1.5 8.93839 1.5H8.46329C8.16943 1.5 7.89045 1.62925 7.70044 1.85343L4.41067 5.73481C4.22066 5.95898 3.94168 6.08824 3.64782 6.08824H2C1.44771 6.08824 1 6.53595 1 7.08824V13.5C1 14.0523 1.44772 14.5 2 14.5Z"/>
</svg>
