<svg width="16" height="16" viewBox="0 0 16 16" fill="black" xmlns="http://www.w3.org/2000/svg">
<path fill-rule="evenodd" clip-rule="evenodd" d="M11.5 2C11.5 1.72386 11.2761 1.5 11 1.5H4.02219C3.6074 1.5 3.23567 1.75607 3.08785 2.14363L1.06565 7.44551C1.02225 7.55931 1 7.68008 1 7.80188V8.91176C1 9.46405 1.44772 9.91176 2 9.91176H7.22222L6.11455 13.1789C5.89471 13.8274 6.37689 14.5 7.06161 14.5H7.53671C7.83057 14.5 8.10955 14.3707 8.29956 14.1466L11.2629 10.6504C11.416 10.4697 11.5 10.2406 11.5 10.0038V2Z"/>
<path fill-rule="evenodd" clip-rule="evenodd" d="M12.5 9.41176C12.5 9.68791 12.7239 9.91176 13 9.91176H14C14.5523 9.91176 15 9.46405 15 8.91176V2.5C15 1.94772 14.5523 1.5 14 1.5H13C12.7239 1.5 12.5 1.72386 12.5 2V9.41176Z"/>
</svg>
