<svg width="16" height="16" viewBox="0 0 16 16" fill="black" xmlns="http://www.w3.org/2000/svg">
<path fill-rule="evenodd" clip-rule="evenodd" d="M2 13.5C2 13.2239 2.22386 13 2.5 13H13.5C13.7761 13 14 13.2239 14 13.5C14 13.7761 13.7761 14 13.5 14H2.5C2.22386 14 2 13.7761 2 13.5Z"/>
<path fill-rule="evenodd" clip-rule="evenodd" d="M8 2C8.27614 2 8.5 2.22386 8.5 2.5V10C8.5 10.2761 8.27614 10.5 8 10.5C7.72386 10.5 7.5 10.2761 7.5 10V2.5C7.5 2.22386 7.72386 2 8 2Z"/>
<path fill-rule="evenodd" clip-rule="evenodd" d="M4.64645 7.64645C4.84171 7.45118 5.15829 7.45118 5.35355 7.64645L8 10.2929L10.6464 7.64645C10.8417 7.45118 11.1583 7.45118 11.3536 7.64645C11.5488 7.84171 11.5488 8.15829 11.3536 8.35355L8.35355 11.3536C8.15829 11.5488 7.84171 11.5488 7.64645 11.3536L4.64645 8.35355C4.45118 8.15829 4.45118 7.84171 4.64645 7.64645Z"/>
</svg>
