<svg width="36" height="36" viewBox="0 0 36 36" fill="#495057" xmlns="http://www.w3.org/2000/svg">
<path fill-rule="evenodd" clip-rule="evenodd" d="M23.1208 5.88528C23.6097 5.39636 24.4023 5.39624 24.8911 5.88503L30.1921 11.186C30.6809 11.6748 30.6808 12.4674 30.1919 12.9564L15.2933 27.855C15.109 28.0392 14.8719 28.1614 14.615 28.2045L8.04341 29.3067C7.63782 29.3748 7.22474 29.2393 6.93834 28.9442C6.65195 28.6492 6.52876 28.2323 6.60881 27.8289L7.87938 21.4256C7.92762 21.1825 8.04694 20.9592 8.22221 20.7839L23.1208 5.88528ZM24.0056 8.54063L10.2611 22.2851L9.41727 26.5378L13.8065 25.8016L27.5365 12.0716L24.0056 8.54063Z"/>
<path fill-rule="evenodd" clip-rule="evenodd" d="M19.1112 9.87889C19.6021 9.39349 20.3967 9.39674 20.8861 9.88614L25.8314 14.8314C26.3208 15.3208 26.3196 16.111 25.8287 16.5964C25.3378 17.0818 24.5431 17.0786 24.0537 16.5892L19.1084 11.6439C18.619 11.1545 18.6203 10.3643 19.1112 9.87889Z"/>
</svg>
