<svg width="36" height="36" viewBox="0 0 36 36" fill="none" xmlns="http://www.w3.org/2000/svg">
<path fill-rule="evenodd" clip-rule="evenodd" d="M12.4775 12.5H8C7.72386 12.5 7.5 12.7239 7.5 13V26C7.5 26.2761 7.72386 26.5 8 26.5H28C28.2761 26.5 28.5 26.2761 28.5 26V13C28.5 12.7239 28.2761 12.5 28 12.5H23.5225L20.4162 9.6326C20.3238 9.54734 20.2027 9.5 20.077 9.5H15.923C15.7973 9.5 15.6762 9.54734 15.5838 9.6326L12.4775 12.5ZM13.8881 7.79559L11.5 10H8C6.34315 10 5 11.3431 5 13V26C5 27.6569 6.34315 29 8 29H28C29.6569 29 31 27.6569 31 26V13C31 11.3431 29.6569 10 28 10H24.5L22.1119 7.79559C21.5577 7.28405 20.8312 7 20.077 7H15.923C15.1688 7 14.4423 7.28405 13.8881 7.79559Z" fill="black"/>
<path fill-rule="evenodd" clip-rule="evenodd" d="M18 21.5C19.3807 21.5 20.5 20.3807 20.5 19C20.5 17.6193 19.3807 16.5 18 16.5C16.6193 16.5 15.5 17.6193 15.5 19C15.5 20.3807 16.6193 21.5 18 21.5ZM18 24C20.7614 24 23 21.7614 23 19C23 16.2386 20.7614 14 18 14C15.2386 14 13 16.2386 13 19C13 21.7614 15.2386 24 18 24Z" fill="black"/>
</svg>
