<svg width="36" height="36" viewBox="0 0 36 36" fill="black" xmlns="http://www.w3.org/2000/svg">
<path fill-rule="evenodd" clip-rule="evenodd" d="M30 9.5H6C5.72386 9.5 5.5 9.72386 5.5 10V26C5.5 26.2761 5.72386 26.5 6 26.5H30C30.2761 26.5 30.5 26.2761 30.5 26V10C30.5 9.72386 30.2761 9.5 30 9.5ZM6 7C4.34315 7 3 8.34315 3 10V26C3 27.6569 4.34315 29 6 29H30C31.6569 29 33 27.6569 33 26V10C33 8.34315 31.6569 7 30 7H6Z" />
<circle cx="18" cy="14.5" r="3" />
<path d="M13.4174 20.8739C14.4061 19.3908 16.0706 18.5 17.8531 18.5H18.1469C19.9294 18.5 21.5939 19.3908 22.5826 20.8739C23.6159 22.4239 22.5048 24.5 20.642 24.5H15.358C13.4952 24.5 12.3841 22.4239 13.4174 20.8739Z" />
</svg>
