<svg width="36" height="36" viewBox="0 0 36 36" fill="black" xmlns="http://www.w3.org/2000/svg">
<path fill-rule="evenodd" clip-rule="evenodd" d="M27 5.5H9C8.72386 5.5 8.5 5.72386 8.5 6V30C8.5 30.2761 8.72386 30.5 9 30.5H27C27.2761 30.5 27.5 30.2761 27.5 30V6C27.5 5.72386 27.2761 5.5 27 5.5ZM9 3C7.34315 3 6 4.34315 6 6V30C6 31.6569 7.34315 33 9 33H27C28.6569 33 30 31.6569 30 30V6C30 4.34315 28.6569 3 27 3H9Z" />
<path fill-rule="evenodd" clip-rule="evenodd" d="M11.5 12C11.5 11.3096 12.0596 10.75 12.75 10.75H23.25C23.9404 10.75 24.5 11.3096 24.5 12C24.5 12.6904 23.9404 13.25 23.25 13.25H12.75C12.0596 13.25 11.5 12.6904 11.5 12Z" />
<path fill-rule="evenodd" clip-rule="evenodd" d="M11.5 18C11.5 17.3096 12.0596 16.75 12.75 16.75H23.25C23.9404 16.75 24.5 17.3096 24.5 18C24.5 18.6904 23.9404 19.25 23.25 19.25H12.75C12.0596 19.25 11.5 18.6904 11.5 18Z" />
<path fill-rule="evenodd" clip-rule="evenodd" d="M11.5 24C11.5 23.3096 12.0596 22.75 12.75 22.75H23.25C23.9404 22.75 24.5 23.3096 24.5 24C24.5 24.6904 23.9404 25.25 23.25 25.25H12.75C12.0596 25.25 11.5 24.6904 11.5 24Z" />
</svg>
