<svg width="36" height="36" viewBox="0 0 36 36" fill="black" xmlns="http://www.w3.org/2000/svg">
<path fill-rule="evenodd" clip-rule="evenodd" d="M27.5625 29.598C26.6344 28.6699 26.582 27.1821 27.4426 26.1911C29.3488 23.9959 30.5 21.1355 30.5 18C30.5 11.0964 24.9036 5.5 18 5.5C11.0964 5.5 5.5 11.0964 5.5 18C5.5 24.9036 11.0964 30.5 18 30.5L18.0171 30.5L28.4645 30.5L27.5625 29.598ZM33 18C33 21.7604 31.6163 25.1976 29.3302 27.8302L31.0858 29.5858C32.3457 30.8457 31.4534 33 29.6716 33L18 33C9.71573 33 3 26.2843 3 18C3 9.71573 9.71573 3 18 3C26.2843 3 33 9.71573 33 18Z" />
<path d="M19.5 18C19.5 18.8284 18.8284 19.5 18 19.5C17.1716 19.5 16.5 18.8284 16.5 18C16.5 17.1716 17.1716 16.5 18 16.5C18.8284 16.5 19.5 17.1716 19.5 18Z" />
<path d="M25.5 18C25.5 18.8284 24.8284 19.5 24 19.5C23.1716 19.5 22.5 18.8284 22.5 18C22.5 17.1716 23.1716 16.5 24 16.5C24.8284 16.5 25.5 17.1716 25.5 18Z" />
<path d="M13.5 18C13.5 18.8284 12.8284 19.5 12 19.5C11.1716 19.5 10.5 18.8284 10.5 18C10.5 17.1716 11.1716 16.5 12 16.5C12.8284 16.5 13.5 17.1716 13.5 18Z" />
</svg>
