<svg width="36" height="36" viewBox="0 0 36 36" fill="black" xmlns="http://www.w3.org/2000/svg">
<path fill-rule="evenodd" clip-rule="evenodd" d="M30 12.5H6C5.72386 12.5 5.5 12.7239 5.5 13V26C5.5 26.2761 5.72386 26.5 6 26.5H30C30.2761 26.5 30.5 26.2761 30.5 26V13C30.5 12.7239 30.2761 12.5 30 12.5ZM6 10C4.34315 10 3 11.3431 3 13V26C3 27.6569 4.34315 29 6 29H30C31.6569 29 33 27.6569 33 26V13C33 11.3431 31.6569 10 30 10H6Z" />
<path fill-rule="evenodd" clip-rule="evenodd" d="M11.75 10C11.75 7.65279 13.6528 5.75 16 5.75H20C22.3472 5.75 24.25 7.65279 24.25 10H21.75C21.75 9.0335 20.9665 8.25 20 8.25H16C15.0335 8.25 14.25 9.0335 14.25 10H11.75Z" />
<path fill-rule="evenodd" clip-rule="evenodd" d="M30.5 20.5H5V18H30.5V20.5Z" />
<path d="M13 19C13 17.8954 13.8954 17 15 17H21C22.1046 17 23 17.8954 23 19V19.5C23 20.6046 22.1046 21.5 21 21.5H15C13.8954 21.5 13 20.6046 13 19.5V19Z" />
</svg>
