<svg width="36" height="36" viewBox="0 0 36 36" fill="black" xmlns="http://www.w3.org/2000/svg">
<path fill-rule="evenodd" clip-rule="evenodd" d="M8.25 14.5C8.25 9.11522 12.6152 4.75 18 4.75C23.3848 4.75 27.75 9.11522 27.75 14.5V14.7964C30.7097 15.1655 33 17.6903 33 20.75C33 23.8097 30.7097 26.3345 27.75 26.7036V27C27.75 29.3472 25.8472 31.25 23.5 31.25H20V28.75H23.5C24.4665 28.75 25.25 27.9665 25.25 27V14.5C25.25 10.4959 22.0041 7.25 18 7.25C13.9959 7.25 10.75 10.4959 10.75 14.5V25.5C10.75 26.1904 10.1904 26.75 9.5 26.75H9C5.68629 26.75 3 24.0637 3 20.75C3 17.6903 5.29027 15.1655 8.25 14.7964V14.5ZM8.25 17.3305C6.67741 17.6739 5.5 19.0744 5.5 20.75C5.5 22.4256 6.67741 23.8261 8.25 24.1695V17.3305ZM27.75 24.1695C29.3226 23.8261 30.5 22.4256 30.5 20.75C30.5 19.0744 29.3226 17.6739 27.75 17.3305V24.1695Z" />
<path fill-rule="evenodd" clip-rule="evenodd" d="M18 30.5C18.2761 30.5 18.5 30.2761 18.5 30C18.5 29.7239 18.2761 29.5 18 29.5C17.7239 29.5 17.5 29.7239 17.5 30C17.5 30.2761 17.7239 30.5 18 30.5ZM18 33C19.6569 33 21 31.6569 21 30C21 28.3431 19.6569 27 18 27C16.3431 27 15 28.3431 15 30C15 31.6569 16.3431 33 18 33Z" />
</svg>
