<svg width="36" height="36" viewBox="0 0 36 36" fill="black" xmlns="http://www.w3.org/2000/svg">
<path fill-rule="evenodd" clip-rule="evenodd" d="M18 33C26.2843 33 33 26.2843 33 18C33 9.71573 26.2843 3 18 3C9.71573 3 3 9.71573 3 18C3 26.2843 9.71573 33 18 33ZM25.6339 15.8839C26.122 15.3957 26.122 14.6043 25.6339 14.1161C25.1457 13.628 24.3543 13.628 23.8661 14.1161L16.75 21.2322L12.6339 17.1161C12.1457 16.628 11.3543 16.628 10.8661 17.1161C10.378 17.6043 10.378 18.3957 10.8661 18.8839L15.8661 23.8839C16.3543 24.372 17.1457 24.372 17.6339 23.8839L25.6339 15.8839Z" />
</svg>
