<svg width="36" height="36" viewBox="0 0 36 36" fill="black" xmlns="http://www.w3.org/2000/svg">
<path fill-rule="evenodd" clip-rule="evenodd" d="M18 30.5C24.9036 30.5 30.5 24.9036 30.5 18C30.5 11.0964 24.9036 5.5 18 5.5C11.0964 5.5 5.5 11.0964 5.5 18C5.5 24.9036 11.0964 30.5 18 30.5ZM18 33C26.2843 33 33 26.2843 33 18C33 9.71573 26.2843 3 18 3C9.71573 3 3 9.71573 3 18C3 26.2843 9.71573 33 18 33Z" />
<path fill-rule="evenodd" clip-rule="evenodd" d="M25.6339 14.1161C26.122 14.6043 26.122 15.3957 25.6339 15.8839L17.6339 23.8839C17.1457 24.372 16.3543 24.372 15.8661 23.8839L10.8661 18.8839C10.378 18.3957 10.378 17.6043 10.8661 17.1161C11.3543 16.628 12.1457 16.628 12.6339 17.1161L16.75 21.2322L23.8661 14.1161C24.3543 13.628 25.1457 13.628 25.6339 14.1161Z" />
</svg>
