<svg width="36" height="36" viewBox="0 0 36 36" fill="black" xmlns="http://www.w3.org/2000/svg">
<path fill-rule="evenodd" clip-rule="evenodd" d="M18 3C14.5482 3 11.75 5.79822 11.75 9.25V10H8C6.34315 10 5 11.3431 5 13V27C5 30.3137 7.68629 33 11 33H25C28.3137 33 31 30.3137 31 27V13C31 11.3431 29.6569 10 28 10H24.25V9.25C24.25 5.79822 21.4518 3 18 3ZM21.75 12.5V16.25C21.75 16.9404 22.3096 17.5 23 17.5C23.6904 17.5 24.25 16.9404 24.25 16.25V12.5H28C28.2761 12.5 28.5 12.7239 28.5 13V27C28.5 28.933 26.933 30.5 25 30.5H11C9.067 30.5 7.5 28.933 7.5 27V13C7.5 12.7239 7.72386 12.5 8 12.5H11.75V16.25C11.75 16.9404 12.3096 17.5 13 17.5C13.6904 17.5 14.25 16.9404 14.25 16.25V12.5H21.75ZM21.75 10V9.25C21.75 7.17893 20.0711 5.5 18 5.5C15.9289 5.5 14.25 7.17893 14.25 9.25V10H21.75Z"/>
</svg>
