<svg width="36" height="36" viewBox="0 0 36 36" fill="black" xmlns="http://www.w3.org/2000/svg">
<path fill-rule="evenodd" clip-rule="evenodd" d="M30.5 14.7624L18 7.40127L5.5 14.7624V15.5H30.5V14.7624ZM3.98512 12.7532C3.37472 13.1127 3 13.7682 3 14.4766V16C3 17.1046 3.89543 18 5 18H31C32.1046 18 33 17.1046 33 16V14.4766C33 13.7682 32.6253 13.1127 32.0149 12.7532L19.0149 5.09764C18.3886 4.72881 17.6114 4.72881 16.9851 5.09764L3.98512 12.7532Z" />
<path fill-rule="evenodd" clip-rule="evenodd" d="M6.75 29V16H9.25V29H6.75Z" />
<path fill-rule="evenodd" clip-rule="evenodd" d="M3.75 29.75C3.75 29.0596 4.30964 28.5 5 28.5H31C31.6904 28.5 32.25 29.0596 32.25 29.75C32.25 30.4404 31.6904 31 31 31H5C4.30964 31 3.75 30.4404 3.75 29.75Z" />
<path fill-rule="evenodd" clip-rule="evenodd" d="M26.75 29V16H29.25V29H26.75Z" />
<path d="M19.5 12C19.5 12.8284 18.8284 13.5 18 13.5C17.1716 13.5 16.5 12.8284 16.5 12C16.5 11.1716 17.1716 10.5 18 10.5C18.8284 10.5 19.5 11.1716 19.5 12Z" />
<path fill-rule="evenodd" clip-rule="evenodd" d="M24 16.4348H12V28.9565H14.5V21.5C14.5 19.567 16.067 18 18 18C19.933 18 21.5 19.567 21.5 21.5V28.9565H24V16.4348Z" />
</svg>
