<svg width="24" height="24" viewBox="0 0 24 24" fill="#6F767D" xmlns="http://www.w3.org/2000/svg">
    <path fill-rule="evenodd" clip-rule="evenodd" d="M9.5 3V1H14.5V3H19C19.5523 3 20 3.44772 20 4V21C20 21.5523 19.5523 22 19 22H5C4.44772 22 4 21.5523 4 21V4C4 3.44771 4.44772 3 5 3H9.5ZM11 2.5H13V5.5H11V2.5ZM9.5 5H6V20H18V5H14.5V7H9.5V5Z"/>
    <path d="M12 13.5C12.3956 13.5 12.7822 13.3827 13.1111 13.1629C13.44 12.9432 13.6964 12.6308 13.8478 12.2654C13.9991 11.8999 14.0387 11.4978 13.9616 11.1098C13.8844 10.7219 13.6939 10.3655 13.4142 10.0858C13.1345 9.80608 12.7781 9.6156 12.3902 9.53843C12.0022 9.46126 11.6001 9.50087 11.2346 9.65224C10.8692 9.80362 10.5568 10.06 10.3371 10.3889C10.1173 10.7178 10 11.1044 10 11.5C10 12.0304 10.2107 12.5391 10.5858 12.9142C10.9609 13.2893 11.4696 13.5 12 13.5Z"/>
    <path d="M15.5 16.6246C15.5 17.1079 15.1082 17.5 14.625 17.5H9.375C8.89175 17.5 8.5 17.1079 8.5 16.6246V16.6C8.5 15.6717 8.86875 15.1815 9.52513 14.5251C10.1815 13.8687 11.0717 13.5 12 13.5C12.9283 13.5 13.8185 13.8687 14.4749 14.5251C15.1313 15.1815 15.5 15.6717 15.5 16.6V16.6246Z"/>
</svg>
