<svg width="24" height="24" viewBox="0 0 24 24" fill="#00C854" xmlns="http://www.w3.org/2000/svg">
    <path fill-rule="evenodd" clip-rule="evenodd" d="M10 15.3571C12.9587 15.3571 15.3571 12.9587 15.3571 10C15.3571 7.04133 12.9587 4.64286 10 4.64286C7.04133 4.64286 4.64286 7.04133 4.64286 10C4.64286 12.9587 7.04133 15.3571 10 15.3571ZM10 17.5C14.1421 17.5 17.5 14.1421 17.5 10C17.5 5.85786 14.1421 2.5 10 2.5C5.85786 2.5 2.5 5.85786 2.5 10C2.5 14.1421 5.85786 17.5 10 17.5Z" />
    <path fill-rule="evenodd" clip-rule="evenodd" d="M13.7929 13.7929C14.1834 13.4024 14.8166 13.4024 15.2071 13.7929L21.2071 19.7929C21.5976 20.1834 21.5976 20.8166 21.2071 21.2071C20.8166 21.5976 20.1834 21.5976 19.7929 21.2071L13.7929 15.2071C13.4024 14.8166 13.4024 14.1834 13.7929 13.7929Z" />
</svg>
