<svg width="24" height="24" viewBox="0 0 24 24" fill="#6F767D" xmlns="http://www.w3.org/2000/svg">
    <path fill-rule="evenodd" clip-rule="evenodd" d="M6 4H17V6.33578L19 4.33578V3C19 2.5 18.5 2 18 2H5C4.5 2 4 2.5 4 3V21C4 21.5 4.5 22 5 22H18C18.5 22 19 21.5 19 21V14.2353L17 16.2353V20H6L6 4Z"/>
    <path fill-rule="evenodd" clip-rule="evenodd" d="M7 8C7 7.44772 7.44772 7 8 7H13C13.5523 7 14 7.44772 14 8C14 8.55228 13.5523 9 13 9H8C7.44772 9 7 8.55228 7 8Z"/>
    <path fill-rule="evenodd" clip-rule="evenodd" d="M9.51778 18.7677L13.2178 18.6032L22.5992 9.22181L19.0637 5.68628L14.75 9.99998H8.125C7.50368 9.99998 7 10.4477 7 11C7 11.5523 7.50368 12 8.125 12H12.75L9.68232 15.0677L9.51778 18.7677ZM11.0891 17.1964L11.155 15.7163L19.0637 7.8076L20.4779 9.22181L12.5692 17.1306L11.0891 17.1964Z"/>
</svg>
