<svg width="30" height="30" viewBox="0 0 30 30" fill="#838990" xmlns="http://www.w3.org/2000/svg">
    <path fill-rule="evenodd" clip-rule="evenodd" d="M13 20.5L15 23.1667L17 20.5H23C24.1046 20.5 25 19.6046 25 18.5V9C25 7.89543 24.1046 7 23 7H7C5.89543 7 5 7.89543 5 9V18.5C5 19.6046 5.89543 20.5 7 20.5H13ZM15 26.5L12 22.5H7C4.79086 22.5 3 20.7091 3 18.5V9C3 6.79086 4.79086 5 7 5H23C25.2091 5 27 6.79086 27 9V18.5C27 20.7091 25.2091 22.5 23 22.5H18L15 26.5Z"/>
    <circle cx="10" cy="14" r="1.5"/>
    <circle cx="15" cy="14" r="1.5"/>
    <circle cx="20" cy="14" r="1.5"/>
</svg>
