<svg width="18" height="18" viewBox="0 0 18 18" fill="#838990" xmlns="http://www.w3.org/2000/svg">
<path fill-rule="evenodd" clip-rule="evenodd" d="M10 2H8V4H10V2ZM7 1V5H11V1H7Z"/>
<path fill-rule="evenodd" clip-rule="evenodd" d="M7.5 2.25H4C3.44772 2.25 3 2.69771 3 3.25V15.5C3 16.0523 3.44772 16.5 4 16.5H14C14.5523 16.5 15 16.0523 15 15.5V3.25C15 2.69772 14.5523 2.25 14 2.25H10.5V3.75H13.5V15H4.5V3.75H7.5V2.25Z"/>
<path d="M10.875 13C11.2202 13 11.5 12.7199 11.5 12.3747C11.5 12.3532 11.5 12.3361 11.5 12.325C11.5 11.6288 11.2366 11.2611 10.7678 10.7688C10.2989 10.2766 9.66304 10 9 10C8.33696 10 7.70108 10.2766 7.23224 10.7688C6.7634 11.2611 6.5 11.6288 6.5 12.325C6.5 12.3361 6.5 12.3532 6.5 12.3747C6.5 12.7199 6.77982 13 7.125 13H10.875Z"/>
<path d="M9.83335 9.7472C9.58668 9.91203 9.29667 10 9 10C8.60217 10 8.22064 9.84196 7.93934 9.56066C7.65804 9.27936 7.5 8.89783 7.5 8.5C7.5 8.20333 7.58797 7.91332 7.7528 7.66665C7.91762 7.41997 8.15189 7.22771 8.42597 7.11418C8.70006 7.00065 9.00166 6.97094 9.29263 7.02882C9.58361 7.0867 9.85088 7.22956 10.0607 7.43934C10.2704 7.64912 10.4133 7.91639 10.4712 8.20736C10.5291 8.49834 10.4994 8.79994 10.3858 9.07403C10.2723 9.34811 10.08 9.58238 9.83335 9.7472Z"/>
</svg>
