<svg width="18" height="18" viewBox="0 0 18 18" fill="#979CA2" xmlns="http://www.w3.org/2000/svg">
    <path fill-rule="evenodd" clip-rule="evenodd" d="M7.9948 4.0052C9.65452 2.34548 12.3455 2.34548 14.0052 4.0052C15.6649 5.66493 15.6649 8.35588 14.0052 10.0156L9.23223 14.7886C8.06066 15.9602 6.16117 15.9602 4.98959 14.7886C3.81802 13.617 3.81802 11.7175 4.98959 10.5459L9.56053 5.975C10.244 5.29158 11.352 5.29158 12.0354 5.975C12.7188 6.65842 12.7188 7.76646 12.0354 8.44987L7.6665 12.8188L6.95939 12.1117L11.3283 7.74277C11.6212 7.44988 11.6212 6.975 11.3283 6.68211C11.0354 6.38921 10.5605 6.38921 10.2676 6.68211L5.6967 11.253C4.91565 12.0341 4.91565 13.3004 5.6967 14.0815C6.47775 14.8625 7.74408 14.8625 8.52513 14.0815L13.2981 9.3085C14.5673 8.0393 14.5673 5.98151 13.2981 4.71231C12.0289 3.44311 9.97111 3.44311 8.7019 4.71231L4.13096 9.28325L3.42386 8.57614L7.9948 4.0052Z"/>
</svg>
