<svg width="24" height="24" viewBox="0 0 24 24" fill="#6F767D" xmlns="http://www.w3.org/2000/svg">
<mask id="path-1-inside-1" fill="white">
<path fill-rule="evenodd" clip-rule="evenodd" d="M19.8775 15.9836C20.5938 14.6481 21 13.1215 21 11.5C21 6.25329 16.7467 2 11.5 2C6.25329 2 2 6.25329 2 11.5C2 16.7467 6.25329 21 11.5 21C13.1215 21 14.6481 20.5938 15.9836 19.8775L21.5 21.5L19.8775 15.9836Z"/>
</mask>
<path d="M19.8775 15.9836L18.115 15.0383L17.7274 15.7611L17.9588 16.5479L19.8775 15.9836ZM15.9836 19.8775L16.5479 17.9588L15.7611 17.7274L15.0383 18.115L15.9836 19.8775ZM21.5 21.5L20.9357 23.4187L24.4533 24.4533L23.4187 20.9357L21.5 21.5ZM19 11.5C19 12.7836 18.6792 13.9863 18.115 15.0383L21.64 16.9288C22.5083 15.3098 23 13.4594 23 11.5H19ZM11.5 4C15.6421 4 19 7.35786 19 11.5H23C23 5.14873 17.8513 0 11.5 0V4ZM4 11.5C4 7.35786 7.35786 4 11.5 4V0C5.14873 0 0 5.14873 0 11.5H4ZM11.5 19C7.35786 19 4 15.6421 4 11.5H0C0 17.8513 5.14873 23 11.5 23V19ZM15.0383 18.115C13.9863 18.6792 12.7836 19 11.5 19V23C13.4594 23 15.3098 22.5083 16.9288 21.64L15.0383 18.115ZM22.0643 19.5813L16.5479 17.9588L15.4192 21.7963L20.9357 23.4187L22.0643 19.5813ZM17.9588 16.5479L19.5813 22.0643L23.4187 20.9357L21.7963 15.4192L17.9588 16.5479Z" mask="url(#path-1-inside-1)"/>
<path fill-rule="evenodd" clip-rule="evenodd" d="M12.6848 8.03508C12.3666 7.83257 11.986 7.76772 11.7854 7.77423C11.1699 7.79422 10.8237 7.98673 10.6258 8.20224C10.4207 8.4257 10.2738 8.78464 10.2738 9.31757H8.5C8.5 8.46467 8.73894 7.63466 9.31914 7.00265C9.90663 6.3627 10.7453 6.03323 11.7279 6.00133C12.2387 5.98475 12.9806 6.12084 13.637 6.53848C14.3326 6.98101 14.9237 7.74043 15.0064 8.87916L15.01 8.92929L15.008 8.97951C14.9878 9.47481 14.8152 10.9552 13.3124 11.6628C12.9034 11.8554 12.8143 11.9641 12.7723 12.0378C12.7138 12.1404 12.6436 12.3644 12.6436 12.99H10.8697C10.8697 12.3128 10.93 11.6879 11.2312 11.1594C11.5489 10.6019 12.0488 10.2972 12.5568 10.058C13.0871 9.80831 13.2103 9.29651 13.2329 8.95785C13.1843 8.47443 12.9549 8.20689 12.6848 8.03508Z"/>
<path d="M12.9369 15.2829C12.9369 15.936 12.4074 16.4655 11.7543 16.4655C11.1012 16.4655 10.5718 15.936 10.5718 15.2829C10.5718 14.6298 11.1012 14.1003 11.7543 14.1003C12.4074 14.1003 12.9369 14.6298 12.9369 15.2829Z"/>
</svg>
