<svg width="18" height="18" viewBox="0 0 18 18" fill="#838990" xmlns="http://www.w3.org/2000/svg">
<path fill-rule="evenodd" clip-rule="evenodd" d="M9 15C12.3137 15 15 12.3137 15 9C15 5.68629 12.3137 3 9 3C5.68629 3 3 5.68629 3 9C3 12.3137 5.68629 15 9 15ZM9 16.5C13.1421 16.5 16.5 13.1421 16.5 9C16.5 4.85786 13.1421 1.5 9 1.5C4.85786 1.5 1.5 4.85786 1.5 9C1.5 13.1421 4.85786 16.5 9 16.5Z" />
<path fill-rule="evenodd" clip-rule="evenodd" d="M9 10.25C8.58579 10.25 8.25 9.91421 8.25 9.5V5.5C8.25 5.08579 8.58579 4.75 9 4.75C9.41421 4.75 9.75 5.08579 9.75 5.5V9.5C9.75 9.91421 9.41421 10.25 9 10.25Z" />
<path d="M9 11C8.44772 11 8 11.4477 8 12C8 12.5523 8.44772 13 9 13C9.55228 13 10 12.5523 10 12C10 11.4477 9.55228 11 9 11Z" />
</svg>
