<svg width="24" height="24" viewBox="0 0 24 24" fill="#6F767D" xmlns="http://www.w3.org/2000/svg">
    <path d="M12 6.05628C12.38 6.05628 12.76 6.12825 13.11 6.27219L19.15 8.75L13.11 11.2278C12.76 11.3718 12.38 11.4437 12 11.4437C11.62 11.4437 11.24 11.3718 10.89 11.2278L4.85 8.75L10.89 6.27219C11.24 6.12825 11.62 6.05628 12 6.05628ZM12 4C11.37 4 10.74 4.12338 10.15 4.37013L0.199998 8.44156C-0.0700024 8.55465 -0.0700024 8.94535 0.199998 9.05844L10.15 13.1299C10.74 13.3766 11.37 13.5 12 13.5C12.63 13.5 13.26 13.3766 13.85 13.1299L23.8 9.05844C24.07 8.94535 24.07 8.55465 23.8 8.44156L13.85 4.37013C13.26 4.12338 12.63 4 12 4Z"/>
    <path d="M17.8756 10.2728C17.4553 10.0972 16.9929 10 16.5078 10L12.005 11.99L7.50218 10C7.0152 10 6.55113 10.0979 6.12938 10.2748L10.3347 12H13.6653L17.8756 10.2728Z"/>
    <path d="M17.6926 12.5575L19.576 11.7869C19.849 12.2774 20.0031 12.8408 20 13.44V17.86C20 19.76 15.227 21 13.2958 21H11.5647C8.12256 21 4 19.76 4 17.86V13.44C4 12.8417 4.15576 12.2791 4.42949 11.7891L6.32242 12.5637C6.12721 12.8071 6.01125 13.1114 6.01125 13.44V17.64C6.54158 18.15 8.75296 19 11.5747 19H13.3058C14.7267 19 17.3283 18.2 18.0087 17.58V13.44C18.0087 13.1087 17.8908 12.802 17.6926 12.5575Z"/>
    <path fill-rule="evenodd" clip-rule="evenodd" d="M1 15.01V9.00999H3V15.01H1Z"/>
</svg>
