<svg width="24" height="24" viewBox="0 0 24 24" fill="#6F767D" xmlns="http://www.w3.org/2000/svg">
<path d="M6.99999 11.0038C6.97999 10.7428 7.07999 10.4818 7.25999 10.2911C7.43999 10.1004 7.68999 10 7.94999 10C8.35999 9.97993 8.72999 10.2108 8.90999 10.5822C9.07999 10.9536 9.00999 11.3953 8.71999 11.6864C8.43999 11.9875 7.99999 12.0778 7.62999 11.9273C7.24999 11.7867 6.99999 11.4153 6.99999 11.0038Z" />
<path d="M11 11.0038C10.98 10.7428 11.08 10.4818 11.26 10.2911C11.44 10.1004 11.69 9.98997 11.95 10C12.36 9.97993 12.73 10.2108 12.91 10.5822C13.08 10.9536 13.01 11.3953 12.72 11.6864C12.44 11.9875 12 12.0778 11.63 11.9273C11.25 11.7867 11 11.4153 11 11.0038Z" />
<path d="M15 11.0038C14.98 10.7428 15.08 10.4818 15.26 10.2911C15.44 10.1004 15.69 9.98997 15.95 10C16.36 9.97993 16.73 10.2108 16.91 10.5822C17.08 10.9536 17.01 11.3953 16.72 11.6864C16.44 11.9875 16 12.0778 15.63 11.9273C15.25 11.7867 15 11.4153 15 11.0038Z" />
<path fill-rule="evenodd" clip-rule="evenodd" d="M2 7C2 5.34315 3.34315 4 5 4H19C20.6569 4 22 5.34315 22 7V15C22 16.6569 20.6569 18 19 18H14.7067L12.8064 20.5914C12.618 20.8482 12.3185 21 12 21C11.6815 21 11.382 20.8482 11.1936 20.5914L9.29326 18H5C3.34315 18 2 16.6569 2 15V7ZM5 6C4.44772 6 4 6.44772 4 7V15C4 15.5523 4.44772 16 5 16H9.8C10.1185 16 10.418 16.1518 10.6064 16.4086L12 18.309L13.3936 16.4086C13.582 16.1518 13.8815 16 14.2 16H19C19.5523 16 20 15.5523 20 15V7C20 6.44772 19.5523 6 19 6H5Z" />
</svg>
