<svg width="18" height="18" viewBox="0 0 18 18" fill="#838990" xmlns="http://www.w3.org/2000/svg">
<path fill-rule="evenodd" clip-rule="evenodd" d="M3 5V6.40135C3.8967 6.92006 4.5 7.88958 4.5 9C4.5 10.1104 3.8967 11.0799 3 11.5987V13H15V11.5987C14.1033 11.0799 13.5 10.1104 13.5 9C13.5 7.88958 14.1033 6.92006 15 6.40135V5H3ZM16.5 4C16.5 3.72386 16.2761 3.5 16 3.5H2C1.72386 3.5 1.5 3.72386 1.5 4V7.5C2.32843 7.5 3 8.17157 3 9C3 9.82843 2.32843 10.5 1.5 10.5V14C1.5 14.2761 1.72386 14.5 2 14.5H16C16.2761 14.5 16.5 14.2761 16.5 14V10.5C15.6716 10.5 15 9.82843 15 9C15 8.17157 15.6716 7.5 16.5 7.5V4Z"/>
<path fill-rule="evenodd" clip-rule="evenodd" d="M10.75 6.2V5H12.25V6.2H10.75ZM10.75 10.2V7.8H12.25V10.2H10.75ZM10.75 13V11.8H12.25V13H10.75Z"/>
</svg>
