<svg width="12" height="12" viewBox="0 0 12 12"  fill="#FA5252" xmlns="http://www.w3.org/2000/svg">
    <path fill-rule="evenodd" clip-rule="evenodd" d="M6 11C8.76142 11 11 8.76142 11 6C11 3.23858 8.76142 1 6 1C3.23858 1 1 3.23858 1 6C1 8.76142 3.23858 11 6 11ZM5.25 6.5C5.25 6.91421 5.58579 7.25 6 7.25C6.41421 7.25 6.75 6.91421 6.75 6.5V3.5C6.75 3.08579 6.41421 2.75 6 2.75C5.58579 2.75 5.25 3.08579 5.25 3.5V6.5ZM5.25 8.5C5.25 8.91421 5.58579 9.25 6 9.25C6.41421 9.25 6.75 8.91421 6.75 8.5C6.75 8.08579 6.41421 7.75 6 7.75C5.58579 7.75 5.25 8.08579 5.25 8.5Z"/>
</svg>
