<svg width="18" height="18" viewBox="0 0 18 18" fill="#979CA2" xmlns="http://www.w3.org/2000/svg">
    <path fill-rule="evenodd" clip-rule="evenodd" d="M4.25 3V15H13.75V3H4.25ZM3.75 1.5C3.19772 1.5 2.75 1.94772 2.75 2.5V15.5C2.75 16.0523 3.19772 16.5 3.75 16.5H14.25C14.8023 16.5 15.25 16.0523 15.25 15.5V2.5C15.25 1.94772 14.8023 1.5 14.25 1.5H3.75Z"/>
    <path d="M11 8.45288C11 8.75491 10.7761 9 10.5 9H7.5C7.22386 9 7 8.75491 7 8.45288V8.4375C7 7.85734 7.21072 7.55094 7.58579 7.1407C7.96086 6.73047 8.46957 6.5 9 6.5C9.53043 6.5 10.0391 6.73047 10.4142 7.1407C10.7893 7.55094 11 7.85734 11 8.4375V8.45288Z"/>
    <path d="M9 6.5C9.24723 6.5 9.4889 6.42669 9.69446 6.28934C9.90002 6.15199 10.0602 5.95676 10.1548 5.72835C10.2495 5.49995 10.2742 5.24861 10.226 5.00614C10.1777 4.76366 10.0587 4.54093 9.88388 4.36612C9.70907 4.1913 9.48634 4.07225 9.24386 4.02402C9.00139 3.97579 8.75005 4.00054 8.52165 4.09515C8.29324 4.18976 8.09801 4.34998 7.96066 4.55554C7.82331 4.7611 7.75 5.00277 7.75 5.25C7.75 5.58152 7.8817 5.89946 8.11612 6.13388C8.35054 6.3683 8.66848 6.5 9 6.5Z"/>
    <path fill-rule="evenodd" clip-rule="evenodd" d="M5.5 11C5.5 10.7239 5.72386 10.5 6 10.5H12C12.2761 10.5 12.5 10.7239 12.5 11C12.5 11.2761 12.2761 11.5 12 11.5H6C5.72386 11.5 5.5 11.2761 5.5 11Z"/>
    <path fill-rule="evenodd" clip-rule="evenodd" d="M5.5 13C5.5 12.7239 5.72386 12.5 6 12.5H12C12.2761 12.5 12.5 12.7239 12.5 13C12.5 13.2761 12.2761 13.5 12 13.5H6C5.72386 13.5 5.5 13.2761 5.5 13Z"/>
</svg>
