<svg width="18" height="18" viewBox="0 0 18 18" fill="none" xmlns="http://www.w3.org/2000/svg">
<path fill-rule="evenodd" clip-rule="evenodd" d="M6.81883 4.75958C7.82791 4.24772 8.98656 4.11287 10.0862 4.37932C10.9885 4.59794 11.8025 5.07497 12.4318 5.74573L10 5.74573L10 7.24573L14.75 7.24573L14.75 2.49573L13.25 2.49573L13.25 4.44334C12.4658 3.70563 11.4989 3.1782 10.4394 2.9215C8.99253 2.57091 7.46798 2.74834 6.14025 3.42185C4.81251 4.09536 3.76881 5.22071 3.19701 6.59531C2.62522 7.96992 2.56289 9.50349 3.02125 10.92C3.47962 12.3364 4.42856 13.5428 5.69726 14.3218C6.96596 15.1008 8.47108 15.4014 9.94168 15.1694C11.4123 14.9374 12.7518 14.188 13.719 13.0562C14.6862 11.9244 15.2177 10.4845 15.2177 8.99574L13.7177 8.99574C13.7177 10.1272 13.3138 11.2215 12.5787 12.0817C11.8436 12.9419 10.8256 13.5114 9.70792 13.6877C8.59026 13.864 7.44637 13.6356 6.48216 13.0435C5.51795 12.4515 4.79675 11.5347 4.44839 10.4581C4.10004 9.38163 4.1474 8.21611 4.58197 7.17141C5.01653 6.12671 5.80975 5.27145 6.81883 4.75958Z" fill="#838990"/>
</svg>
