<svg width="18" height="18" viewBox="0 0 18 18" fill="#838990" xmlns="http://www.w3.org/2000/svg">
<path fill-rule="evenodd" clip-rule="evenodd" d="M3.75 3.75V11.75H11.75V3.75H3.75ZM3.25 2.25C2.69772 2.25 2.25 2.69771 2.25 3.25V12.25C2.25 12.8023 2.69771 13.25 3.25 13.25H12.25C12.8023 13.25 13.25 12.8023 13.25 12.25V3.25C13.25 2.69772 12.8023 2.25 12.25 2.25H3.25Z"/>
<path d="M4.25 14.25V14.75C4.25 15.3023 4.69772 15.75 5.25 15.75H14.75C15.3023 15.75 15.75 15.3023 15.75 14.75V5.25C15.75 4.69772 15.3023 4.25 14.75 4.25H14.25V14.25H4.25Z"/>
<path d="M9.48333 7.55C9.61667 7.65 9.61667 7.85 9.48333 7.95L7.15 9.7C6.98519 9.82361 6.75 9.70601 6.75 9.5L6.75 6C6.75 5.79399 6.98519 5.67639 7.15 5.8L9.48333 7.55Z"/>
</svg>
