<svg width="18" height="18" viewBox="0 0 18 18" fill="#BEC2C6" xmlns="http://www.w3.org/2000/svg">
    <path fill-rule="evenodd" clip-rule="evenodd" d="M9 15C12.3137 15 15 12.3137 15 9C15 5.68629 12.3137 3 9 3C5.68629 3 3 5.68629 3 9C3 12.3137 5.68629 15 9 15ZM9 16.5C13.1421 16.5 16.5 13.1421 16.5 9C16.5 4.85786 13.1421 1.5 9 1.5C4.85786 1.5 1.5 4.85786 1.5 9C1.5 13.1421 4.85786 16.5 9 16.5ZM9.7888 6.48971C9.51965 6.31846 9.19785 6.26363 9.02824 6.26913C8.50772 6.28603 8.21497 6.44883 8.04767 6.63107C7.8742 6.82003 7.75 7.12356 7.75 7.57422H6.25C6.25 6.85299 6.45205 6.15111 6.94268 5.61667C7.43948 5.07551 8.14868 4.7969 8.97957 4.76992C9.41152 4.7559 10.0389 4.87099 10.594 5.22415C11.1822 5.59836 11.682 6.24055 11.7519 7.20348L11.755 7.24587L11.7533 7.28834C11.7362 7.70718 11.5903 8.95908 10.3195 9.55744C9.97364 9.72028 9.89826 9.81221 9.86276 9.87449C9.81328 9.9613 9.75391 10.1507 9.75391 10.6797H8.25391C8.25391 10.1071 8.30485 9.57866 8.55956 9.13175C8.82825 8.66031 9.25091 8.40262 9.68051 8.20035C10.1289 7.9892 10.2332 7.55641 10.2522 7.27003C10.2112 6.86124 10.0172 6.635 9.7888 6.48971ZM9.00195 13.6187C9.55424 13.6187 10.002 13.1709 10.002 12.6187C10.002 12.0664 9.55424 11.6187 9.00195 11.6187C8.44967 11.6187 8.00195 12.0664 8.00195 12.6187C8.00195 13.1709 8.44967 13.6187 9.00195 13.6187Z"/>
</svg>
