<svg width="31" height="31" viewBox="0 0 31 31" fill="none" xmlns="http://www.w3.org/2000/svg">
<path d="M13.4361 24.0593H14.4361V23.2841L13.6854 23.0909L13.4361 24.0593ZM11.159 23.1154L11.6677 22.2544L11.0001 21.86L10.4519 22.4082L11.159 23.1154ZM9.75504 24.5193L9.04793 23.8122L9.04793 23.8122L9.75504 24.5193ZM9.04793 24.5193L9.75504 23.8122L9.75504 23.8122L9.04793 24.5193ZM6.63436 22.1057L5.92725 22.8128L5.92726 22.8128L6.63436 22.1057ZM6.63436 21.3986L5.92726 20.6915L5.92725 20.6915L6.63436 21.3986ZM8.03829 19.9947L8.7454 20.7018L9.29368 20.1535L8.89922 19.486L8.03829 19.9947ZM7.09428 17.7175L8.06271 17.4682L7.86949 16.7175H7.09428V17.7175ZM7.09427 13.3042V14.3042H7.86948L8.06271 13.5535L7.09427 13.3042ZM8.03818 11.0272L8.89912 11.5359L9.29356 10.8683L8.74529 10.3201L8.03818 11.0272ZM6.63403 9.62301L5.92692 10.3301L5.92692 10.3301L6.63403 9.62301ZM6.63403 8.9159L5.92692 8.2088L5.92692 8.2088L6.63403 8.9159ZM9.0476 6.50234L9.7547 7.20944L9.75471 7.20944L9.0476 6.50234ZM9.7547 6.50234L9.0476 7.20944L9.0476 7.20944L9.7547 6.50234ZM11.1588 7.90642L10.4517 8.61352L11 9.16182L11.6675 8.76734L11.1588 7.90642ZM13.4361 6.96232L13.6854 7.93076L14.4361 7.73753V6.96232H13.4361ZM17.8494 6.96229H16.8494V7.73751L17.6001 7.93073L17.8494 6.96229ZM20.1267 7.90633L19.6179 8.76726L20.2855 9.16172L20.8338 8.61343L20.1267 7.90633ZM21.5306 6.50236L20.8235 5.79525L20.8235 5.79525L21.5306 6.50236ZM22.2377 6.50236L22.9448 5.79525L22.9448 5.79525L22.2377 6.50236ZM24.6513 8.91592L23.9442 9.62303L23.9442 9.62303L24.6513 8.91592ZM24.6513 9.62303L23.9442 8.91592V8.91592L24.6513 9.62303ZM23.2473 11.027L22.5402 10.3199L21.9919 10.8682L22.3864 11.5357L23.2473 11.027ZM24.1913 13.3042L23.2229 13.5535L23.4161 14.3042H24.1913V13.3042ZM24.1913 17.7175V16.7175H23.4161L23.2229 17.4682L24.1913 17.7175ZM23.2472 19.9948L22.3863 19.4861L21.9918 20.1537L22.5401 20.7019L23.2472 19.9948ZM21.5303 24.5193L20.8232 25.2264V25.2264L21.5303 24.5193ZM20.1265 23.1154L20.8336 22.4083L20.2853 21.8601L19.6178 22.2545L20.1265 23.1154ZM17.8494 24.0594L17.6001 23.0909L16.8494 23.2842V24.0594H17.8494ZM12.4361 26.044C12.4361 26.8725 13.1077 27.544 13.9361 27.544V25.544C14.2122 25.544 14.4361 25.7679 14.4361 26.044H12.4361ZM12.4361 24.0593V26.044H14.4361V24.0593H12.4361ZM10.6503 23.9763C11.4323 24.4384 12.2844 24.7955 13.1868 25.0278L13.6854 23.0909C12.9681 22.9063 12.2904 22.6224 11.6677 22.2544L10.6503 23.9763ZM10.4621 25.2264L11.8661 23.8225L10.4519 22.4082L9.04793 23.8122L10.4621 25.2264ZM8.34082 25.2264C8.92661 25.8122 9.87636 25.8122 10.4621 25.2264L9.04793 23.8122C9.24319 23.6169 9.55978 23.6169 9.75504 23.8122L8.34082 25.2264ZM5.92726 22.8128L8.34082 25.2264L9.75504 23.8122L7.34147 21.3986L5.92726 22.8128ZM5.92725 20.6915C5.34147 21.2773 5.34147 22.227 5.92725 22.8128L7.34147 21.3986C7.53673 21.5939 7.53673 21.9105 7.34147 22.1057L5.92725 20.6915ZM7.33119 19.2876L5.92726 20.6915L7.34147 22.1057L8.7454 20.7018L7.33119 19.2876ZM6.12584 17.9668C6.35812 18.8692 6.71523 19.7213 7.17736 20.5034L8.89922 19.486C8.53125 18.8632 8.24733 18.1855 8.06271 17.4682L6.12584 17.9668ZM5.10937 18.7175H7.09428V16.7175H5.10937V18.7175ZM3.60938 17.2175C3.60938 18.0459 4.28095 18.7175 5.10937 18.7175V16.7175C5.38552 16.7175 5.60938 16.9414 5.60938 17.2175H3.60938ZM3.60938 13.8042V17.2175H5.60938V13.8042H3.60938ZM5.10937 12.3042C4.28095 12.3042 3.60938 12.9758 3.60938 13.8042H5.60938C5.60938 14.0803 5.38552 14.3042 5.10937 14.3042V12.3042ZM7.09427 12.3042H5.10937V14.3042H7.09427V12.3042ZM7.17724 10.5185C6.71516 11.3005 6.3581 12.1525 6.12583 13.0549L8.06271 13.5535C8.24731 12.8362 8.5312 12.1586 8.89912 11.5359L7.17724 10.5185ZM5.92692 10.3301L7.33108 11.7343L8.74529 10.3201L7.34114 8.9159L5.92692 10.3301ZM5.92692 8.2088C5.34114 8.79458 5.34114 9.74433 5.92692 10.3301L7.34114 8.9159C7.5364 9.11117 7.5364 9.42775 7.34114 9.62301L5.92692 8.2088ZM8.34049 5.79523L5.92692 8.2088L7.34114 9.62301L9.7547 7.20944L8.34049 5.79523ZM10.4618 5.79523C9.87603 5.20944 8.92628 5.20944 8.34049 5.79523L9.75471 7.20944C9.55944 7.4047 9.24286 7.4047 9.0476 7.20944L10.4618 5.79523ZM11.8659 7.19931L10.4618 5.79523L9.0476 7.20944L10.4517 8.61352L11.8659 7.19931ZM13.1868 5.99389C12.2843 6.22619 11.4322 6.58332 10.65 7.0455L11.6675 8.76734C12.2903 8.39933 12.968 8.11539 13.6854 7.93076L13.1868 5.99389ZM12.4361 4.97754V6.96232H14.4361V4.97754H12.4361ZM13.9361 3.47754C13.1077 3.47754 12.4361 4.14911 12.4361 4.97754H14.4361C14.4361 5.25368 14.2122 5.47754 13.9361 5.47754V3.47754ZM17.3494 3.47754H13.9361V5.47754H17.3494V3.47754ZM18.8494 4.97754C18.8494 4.14911 18.1778 3.47754 17.3494 3.47754V5.47754C17.0732 5.47754 16.8494 5.25368 16.8494 4.97754H18.8494ZM18.8494 6.96229V4.97754H16.8494V6.96229H18.8494ZM20.6354 7.0454C19.8533 6.58325 19.0011 6.22614 18.0986 5.99386L17.6001 7.93073C18.3175 8.11535 18.9952 8.39927 19.6179 8.76726L20.6354 7.0454ZM20.8235 5.79525L19.4195 7.19922L20.8338 8.61343L22.2377 7.20946L20.8235 5.79525ZM22.9448 5.79525C22.3591 5.20946 21.4093 5.20946 20.8235 5.79525L22.2377 7.20946C22.0425 7.40473 21.7259 7.40472 21.5306 7.20946L22.9448 5.79525ZM25.3584 8.20882L22.9448 5.79525L21.5306 7.20946L23.9442 9.62303L25.3584 8.20882ZM25.3584 10.3301C25.9442 9.74435 25.9442 8.7946 25.3584 8.20882L23.9442 9.62303C23.7489 9.42777 23.7489 9.11118 23.9442 8.91592L25.3584 10.3301ZM23.9544 11.7341L25.3584 10.3301L23.9442 8.91592L22.5402 10.3199L23.9544 11.7341ZM25.1598 13.0549C24.9275 12.1525 24.5704 11.3004 24.1082 10.5183L22.3864 11.5357C22.7544 12.1585 23.0383 12.8362 23.2229 13.5535L25.1598 13.0549ZM26.1759 12.3042H24.1913V14.3042H26.1759V12.3042ZM27.6759 13.8042C27.6759 12.9758 27.0043 12.3042 26.1759 12.3042V14.3042C25.8997 14.3042 25.6759 14.0803 25.6759 13.8042H27.6759ZM27.6759 17.2175V13.8042H25.6759V17.2175H27.6759ZM26.1759 18.7175C27.0043 18.7175 27.6759 18.0459 27.6759 17.2175H25.6759C25.6759 16.9414 25.8997 16.7175 26.1759 16.7175V18.7175ZM24.1913 18.7175H26.1759V16.7175H24.1913V18.7175ZM24.1081 20.5036C24.5703 19.7215 24.9275 18.8693 25.1598 17.9668L23.2229 17.4682C23.0382 18.1856 22.7543 18.8633 22.3863 19.4861L24.1081 20.5036ZM25.3581 20.6915L23.9543 19.2877L22.5401 20.7019L23.9439 22.1057L25.3581 20.6915ZM25.3581 22.8128C25.9439 22.227 25.9439 21.2773 25.3581 20.6915L23.9439 22.1057C23.7486 21.9104 23.7486 21.5939 23.9439 21.3986L25.3581 22.8128ZM22.9445 25.2264L25.3581 22.8128L23.9439 21.3986L21.5303 23.8122L22.9445 25.2264ZM20.8232 25.2264C21.409 25.8122 22.3587 25.8122 22.9445 25.2264L21.5303 23.8122C21.7256 23.6169 22.0421 23.6169 22.2374 23.8122L20.8232 25.2264ZM19.4194 23.8225L20.8232 25.2264L22.2374 23.8122L20.8336 22.4083L19.4194 23.8225ZM18.0986 25.0278C19.0011 24.7955 19.8531 24.4385 20.6352 23.9764L19.6178 22.2545C18.9951 22.6224 18.3174 22.9063 17.6001 23.0909L18.0986 25.0278ZM18.8494 26.044V24.0594H16.8494V26.044H18.8494ZM17.3494 27.544C18.1778 27.544 18.8494 26.8725 18.8494 26.044H16.8494C16.8494 25.7679 17.0732 25.544 17.3494 25.544V27.544ZM13.9361 27.544H17.3494V25.544H13.9361V27.544ZM11.3327 15.5107C11.3327 17.8911 13.2623 19.8207 15.6426 19.8207V17.8207C14.3669 17.8207 13.3327 16.7865 13.3327 15.5107H11.3327ZM15.6426 11.2008C13.2623 11.2008 11.3327 13.1304 11.3327 15.5107H13.3327C13.3327 14.235 14.3669 13.2008 15.6426 13.2008V11.2008ZM19.9526 15.5107C19.9526 13.1304 18.023 11.2008 15.6426 11.2008V13.2008C16.9184 13.2008 17.9526 14.235 17.9526 15.5107H19.9526ZM15.6426 19.8207C18.023 19.8207 19.9526 17.8911 19.9526 15.5107H17.9526C17.9526 16.7865 16.9184 17.8207 15.6426 17.8207V19.8207Z" fill="#979CA2"/>
</svg>
