<svg width="18" height="18" viewBox="0 0 18 18" fill="#FF8888" xmlns="http://www.w3.org/2000/svg">
<path fill-rule="evenodd" clip-rule="evenodd" d="M7.91252 15.0224L9.00001 16.0124L10.0875 15.0299L10.1171 15.003C13.963 11.5081 16.5 9.20272 16.5 6.37498C16.5 4.06499 14.685 2.25 12.375 2.25C11.5521 2.25 10.7501 2.49156 10.0648 2.91074C9.66338 3.15631 9.30201 3.46285 9.00001 3.81749C8.69801 3.46285 8.33665 3.15631 7.9352 2.91074C7.24996 2.49156 6.44793 2.25 5.62503 2.25C3.31504 2.25 1.50005 4.06499 1.50005 6.37498C1.50005 9.20764 4.04585 11.5162 7.90301 15.0138L7.91252 15.0224ZM9.0804 13.9183C11.0413 12.1363 12.547 10.7648 13.5808 9.50004C14.5976 8.25602 15 7.29977 15 6.37498C15 4.89342 13.8566 3.75 12.375 3.75C11.5242 3.75 10.6841 4.1534 10.142 4.79L9.00001 6.1311L7.85798 4.79C7.31588 4.1534 6.47584 3.75 5.62503 3.75C4.14346 3.75 3.00005 4.89342 3.00005 6.37498C3.00005 7.29975 3.40241 8.25593 4.41893 9.49872C5.45267 10.7626 6.9587 12.1327 8.92013 13.9113L8.92229 13.9132L9.00384 13.9875L9.07871 13.9198C9.07927 13.9193 9.07984 13.9188 9.0804 13.9183Z"/>
</svg>
