<svg width="24" height="24" viewBox="0 0 24 24" fill="#00C854" xmlns="http://www.w3.org/2000/svg">
    <path fill-rule="evenodd" clip-rule="evenodd" d="M9.73244 6.75C9.90261 6.45583 10 6.11429 10 5.75C10 5.38571 9.90261 5.04417 9.73244 4.75H20C20.5523 4.75 21 5.19772 21 5.75C21 6.30228 20.5523 6.75 20 6.75H9.73244ZM6.26756 6.75H4C3.44772 6.75 3 6.30228 3 5.75C3 5.19772 3.44772 4.75 4 4.75H6.26756C6.09739 5.04417 6 5.38571 6 5.75C6 6.11429 6.09739 6.45583 6.26756 6.75Z"/>
    <path fill-rule="evenodd" clip-rule="evenodd" d="M16.7324 13C16.9026 12.7058 17 12.3643 17 12C17 11.6357 16.9026 11.2942 16.7324 11H20C20.5523 11 21 11.4477 21 12C21 12.5523 20.5523 13 20 13H16.7324ZM13.2676 13H4C3.44772 13 3 12.5523 3 12C3 11.4477 3.44772 11 4 11H13.2676C13.0974 11.2942 13 11.6357 13 12C13 12.3643 13.0974 12.7058 13.2676 13Z"/>
    <path fill-rule="evenodd" clip-rule="evenodd" d="M12.7324 19.25C12.9026 18.9558 13 18.6143 13 18.25C13 17.8857 12.9026 17.5442 12.7324 17.25H20C20.5523 17.25 21 17.6977 21 18.25C21 18.8023 20.5523 19.25 20 19.25H12.7324ZM9.26756 19.25H4C3.44772 19.25 3 18.8023 3 18.25C3 17.6977 3.44772 17.25 4 17.25H9.26756C9.09739 17.5442 9 17.8857 9 18.25C9 18.6143 9.09739 18.9558 9.26756 19.25Z"/>
    <path fill-rule="evenodd" clip-rule="evenodd" d="M8 5C7.44772 5 7 5.44772 7 6C7 6.55228 7.44772 7 8 7C8.55228 7 9 6.55228 9 6C9 5.44772 8.55228 5 8 5ZM5 6C5 4.34315 6.34315 3 8 3C9.65685 3 11 4.34315 11 6C11 7.65685 9.65685 9 8 9C6.34315 9 5 7.65685 5 6Z"/>
    <path fill-rule="evenodd" clip-rule="evenodd" d="M15 11C14.4477 11 14 11.4477 14 12C14 12.5523 14.4477 13 15 13C15.5523 13 16 12.5523 16 12C16 11.4477 15.5523 11 15 11ZM12 12C12 10.3431 13.3431 9 15 9C16.6569 9 18 10.3431 18 12C18 13.6569 16.6569 15 15 15C13.3431 15 12 13.6569 12 12Z"/>
    <path fill-rule="evenodd" clip-rule="evenodd" d="M11 17C10.4477 17 10 17.4477 10 18C10 18.5523 10.4477 19 11 19C11.5523 19 12 18.5523 12 18C12 17.4477 11.5523 17 11 17ZM8 18C8 16.3431 9.34315 15 11 15C12.6569 15 14 16.3431 14 18C14 19.6569 12.6569 21 11 21C9.34315 21 8 19.6569 8 18Z"/>
</svg>
