<svg width="24" height="24" viewBox="0 0 24 24" fill="#979CA2" xmlns="http://www.w3.org/2000/svg">
<path fill-rule="evenodd" clip-rule="evenodd" d="M4 5.5C9 5.5 12 2 12 2C12 2 15 5.5 20 5.5V12.5379C20 14.1731 19.8812 15.8832 18.8646 17.1641C16.5862 20.0345 12 22 12 22C12 22 7.41376 20.0345 5.13545 17.1641C4.11883 15.8832 4 14.1731 4 12.5379V5.5ZM13.5 11C13.5 11.6531 13.0826 12.2087 12.5 12.4146V13H13.5V14H12.5V15H11.5V12.4146C10.9174 12.2087 10.5 11.6531 10.5 11C10.5 10.1716 11.1716 9.5 12 9.5C12.8284 9.5 13.5 10.1716 13.5 11ZM16.5 12C16.5 14.4853 14.4853 16.5 12 16.5C9.51472 16.5 7.5 14.4853 7.5 12C7.5 9.51472 9.51472 7.5 12 7.5C14.4853 7.5 16.5 9.51472 16.5 12ZM18 12C18 15.3137 15.3137 18 12 18C8.68629 18 6 15.3137 6 12C6 8.68629 8.68629 6 12 6C15.3137 6 18 8.68629 18 12Z" />
</svg>
