<svg width="25" height="24" viewBox="0 0 25 24" fill="none" xmlns="http://www.w3.org/2000/svg">
<path fill-rule="evenodd" clip-rule="evenodd" d="M3.125 5.75C3.125 5.19772 3.57272 4.75 4.125 4.75H20.125C20.6773 4.75 21.125 5.19772 21.125 5.75C21.125 6.30228 20.6773 6.75 20.125 6.75H4.125C3.57272 6.75 3.125 6.30228 3.125 5.75Z" fill="#838990"/>
<path fill-rule="evenodd" clip-rule="evenodd" d="M3.125 12C3.125 11.4477 3.57272 11 4.125 11H20.125C20.6773 11 21.125 11.4477 21.125 12C21.125 12.5523 20.6773 13 20.125 13H4.125C3.57272 13 3.125 12.5523 3.125 12Z" fill="#838990"/>
<path fill-rule="evenodd" clip-rule="evenodd" d="M3.125 18.25C3.125 17.6977 3.57272 17.25 4.125 17.25H20.125C20.6773 17.25 21.125 17.6977 21.125 18.25C21.125 18.8023 20.6773 19.25 20.125 19.25H4.125C3.57272 19.25 3.125 18.8023 3.125 18.25Z" fill="#838990"/>
</svg>
