<svg width="30" height="30" viewBox="0 0 30 30" fill="#6F767D" xmlns="http://www.w3.org/2000/svg">
    <path fill-rule="evenodd" clip-rule="evenodd" d="M20.5519 20.9526L21.2108 20.1854C22.639 18.5223 23.5 16.3642 23.5 14C23.5 8.75329 19.2467 4.5 14 4.5C8.75329 4.5 4.5 8.75329 4.5 14C4.5 19.2467 8.75329 23.5 14 23.5C15.2036 23.5 16.3505 23.2771 17.4049 22.8722L18.1225 22.5966L21.2048 23.7821L20.5519 20.9526ZM24 27L18.122 24.7392C16.8424 25.2307 15.4526 25.5 14 25.5C7.64873 25.5 2.5 20.3513 2.5 14C2.5 7.64873 7.64873 2.5 14 2.5C20.3513 2.5 25.5 7.64873 25.5 14C25.5 16.8601 24.4559 19.4763 22.7281 21.4883L24 27Z"/>
    <path fill-rule="evenodd" clip-rule="evenodd" d="M11.3994 9.1695C12.0628 8.38803 13.0248 8 14.1471 8C16.1837 8 17.5 9.7111 17.5 11.3758C17.5 12.2661 17.2997 12.9682 16.8537 13.5018C16.455 13.979 15.9379 14.2098 15.6296 14.3474C15.6145 14.3541 15.5999 14.3606 15.5859 14.3669C15.2253 14.5287 15.112 14.5963 15.0339 14.6897C14.9835 14.75 14.8529 14.9388 14.8529 15.5333V16.5H12.8529V15.5333C12.8529 14.643 13.0533 13.9409 13.4992 13.4073C13.8979 12.9301 14.415 12.6993 14.7233 12.5617C14.7384 12.555 14.753 12.5485 14.7671 12.5422C15.1277 12.3804 15.241 12.3128 15.319 12.2194C15.3695 12.1591 15.5 11.9703 15.5 11.3758C15.5 10.6647 14.9339 10 14.1471 10C13.5046 10 13.1431 10.2059 12.9241 10.4638C12.684 10.7467 12.5 11.2301 12.5 11.9697H10.5C10.5 10.9275 10.7572 9.92604 11.3994 9.1695Z"/>
    <circle cx="13.85" cy="18.75" r="1.25"/>
</svg>
