<svg width="19" height="18" viewBox="0 0 19 18" fill="none" xmlns="http://www.w3.org/2000/svg">
<path fill-rule="evenodd" clip-rule="evenodd" d="M9.5 3C7.01472 3 5 5.01472 5 7.5C3.61929 7.5 2.5 8.61929 2.5 10V10.5C2.5 11.8807 3.61929 13 5 13H6V7.5C6 5.567 7.567 4 9.5 4C11.433 4 13 5.567 13 7.5V13.5C13 13.7761 12.7761 14 12.5 14H10.9793C10.8602 13.2906 10.2432 12.75 9.5 12.75C8.67157 12.75 8 13.4216 8 14.25C8 15.0784 8.67157 15.75 9.5 15.75C10.0552 15.75 10.54 15.4484 10.7993 15H12.5C13.3284 15 14 14.3284 14 13.5V13C15.3807 13 16.5 11.8807 16.5 10.5V10C16.5 8.61929 15.3807 7.5 14 7.5C14 5.01472 11.9853 3 9.5 3ZM3.5 10C3.5 9.17157 4.17157 8.5 5 8.5V12C4.17157 12 3.5 11.3284 3.5 10.5V10ZM14 12V8.5C14.8284 8.5 15.5 9.17157 15.5 10V10.5C15.5 11.3284 14.8284 12 14 12ZM10 14.25C10 14.5261 9.77614 14.75 9.5 14.75C9.22386 14.75 9 14.5261 9 14.25C9 13.9739 9.22386 13.75 9.5 13.75C9.77614 13.75 10 13.9739 10 14.25Z" />
</svg>
