<svg width="31" height="31" viewBox="0 0 31 31" fill="none" xmlns="http://www.w3.org/2000/svg">
<path fill-rule="evenodd" clip-rule="evenodd" d="M7.05078 11.9581C7.05078 7.70697 10.497 4.26074 14.7481 4.26074C18.9993 4.26074 22.4455 7.70697 22.4455 11.9581V21.2344H20.4718V11.9581C20.4718 8.79701 17.9093 6.23443 14.7481 6.23443C11.587 6.23443 9.02447 8.79701 9.02447 11.9581V21.2344H7.05078V11.9581Z" fill="#979CA2"/>
<path fill-rule="evenodd" clip-rule="evenodd" d="M20.4715 22.2212V21.037H22.4452V22.2212C22.4452 23.8563 21.1197 25.1817 19.4846 25.1817H17.1162V23.208H19.4846C20.0296 23.208 20.4715 22.7662 20.4715 22.2212Z" fill="#979CA2"/>
<path fill-rule="evenodd" clip-rule="evenodd" d="M3.10352 16.3003C3.10352 14.0112 4.95918 12.1555 7.24825 12.1555H8.03773V14.1292H7.24825C6.04921 14.1292 5.0772 15.1012 5.0772 16.3003V17.0897C5.0772 18.2888 6.04921 19.2608 7.24825 19.2608H8.03773V21.2345H7.24825C4.95918 21.2345 3.10352 19.3788 3.10352 17.0897V16.3003Z" fill="#979CA2"/>
<path fill-rule="evenodd" clip-rule="evenodd" d="M27.1826 16.3003C27.1826 14.0112 25.327 12.1555 23.0379 12.1555H22.2484V14.1292H23.0379C24.2369 14.1292 25.2089 15.1012 25.2089 16.3003V17.0897C25.2089 18.2888 24.2369 19.2608 23.0379 19.2608H22.2484V21.2345H23.0379C25.327 21.2345 27.1826 19.3788 27.1826 17.0897V16.3003Z" fill="#979CA2"/>
<path fill-rule="evenodd" clip-rule="evenodd" d="M15.1429 23.6028C14.8159 23.6028 14.5508 23.8679 14.5508 24.1949C14.5508 24.522 14.8159 24.787 15.1429 24.787C15.4699 24.787 15.735 24.522 15.735 24.1949C15.735 23.8679 15.4699 23.6028 15.1429 23.6028ZM12.5771 24.1949C12.5771 22.7779 13.7259 21.6292 15.1429 21.6292C16.56 21.6292 17.7087 22.7779 17.7087 24.1949C17.7087 25.612 16.56 26.7607 15.1429 26.7607C13.7259 26.7607 12.5771 25.612 12.5771 24.1949Z" fill="#979CA2"/>
</svg>
