<svg width="18" height="18" viewBox="0 0 18 18" fill="#838990" xmlns="http://www.w3.org/2000/svg">
<path fill-rule="evenodd" clip-rule="evenodd" d="M12.4071 12.4545C13.4232 11.8115 14.2466 11.0277 14.7601 10.4795L14.7708 10.4683C14.7708 10.4683 14.7736 10.4651 14.7781 10.4577C14.7839 10.4481 14.7915 10.4332 14.7989 10.4123C14.8143 10.3694 14.825 10.3131 14.825 10.25C14.825 10.1869 14.8143 10.1306 14.7989 10.0877C14.7915 10.0668 14.7839 10.0519 14.7781 10.0423C14.7736 10.0348 14.7708 10.0317 14.7708 10.0317L14.7601 10.0204C14.2466 9.47229 13.4232 8.68849 12.4071 8.04551C11.3877 7.40042 10.2186 6.92499 9 6.92499C7.78145 6.92499 6.61234 7.40042 5.59289 8.04551C4.57676 8.68849 3.75338 9.47229 3.23995 10.0204L3.22904 10.0318C3.22846 10.0325 3.22584 10.0357 3.22189 10.0423C3.21611 10.0519 3.20854 10.0668 3.20108 10.0877C3.18572 10.1306 3.175 10.1869 3.175 10.25C3.175 10.3131 3.18572 10.3694 3.20108 10.4123C3.20854 10.4332 3.21611 10.4481 3.22189 10.4577C3.22639 10.4651 3.22916 10.4683 3.22916 10.4683L3.23995 10.4795C3.75338 11.0277 4.57676 11.8115 5.59289 12.4545C6.61234 13.0996 7.78145 13.575 9 13.575C10.2186 13.575 11.3877 13.0996 12.4071 12.4545ZM13.129 13.5953C11.9861 14.3184 10.5651 14.925 9 14.925C7.43486 14.925 6.01387 14.3184 4.87102 13.5953C3.7281 12.872 2.8189 12.0042 2.25943 11.4075C2.10701 11.2503 1.99937 11.061 1.93003 10.8672C1.85926 10.6695 1.825 10.4584 1.825 10.25C1.825 10.0416 1.85926 9.8305 1.93003 9.63276C1.99937 9.439 2.10701 9.24964 2.25943 9.09247C2.8189 8.49575 3.7281 7.62793 4.87102 6.90472C6.01387 6.18155 7.43485 5.57499 9 5.57499C10.5651 5.57499 11.9861 6.18155 13.129 6.90472C14.2719 7.62793 15.1811 8.49575 15.7406 9.09246C15.893 9.24963 16.0006 9.43899 16.07 9.63276C16.1407 9.83049 16.175 10.0416 16.175 10.25C16.175 10.4584 16.1407 10.6695 16.07 10.8672C16.0006 11.061 15.893 11.2503 15.7406 11.4075C15.1811 12.0042 14.2719 12.872 13.129 13.5953Z"/>
<path fill-rule="evenodd" clip-rule="evenodd" d="M9 6.17499C8.62721 6.17499 8.325 5.87278 8.325 5.49999L8.325 3.49999C8.325 3.1272 8.62721 2.82499 9 2.82499C9.37279 2.82499 9.675 3.1272 9.675 3.49999L9.675 5.49999C9.675 5.87278 9.3728 6.17499 9 6.17499Z"/>
<path fill-rule="evenodd" clip-rule="evenodd" d="M11.1563 7.08093C10.8355 6.89112 10.7292 6.47714 10.919 6.15629L12.2289 3.94222C12.4187 3.62137 12.8327 3.51514 13.1535 3.70496C13.4744 3.89477 13.5806 4.30875 13.3908 4.6296L12.0809 6.84367C11.8911 7.16452 11.4772 7.27075 11.1563 7.08093Z" />
<path fill-rule="evenodd" clip-rule="evenodd" d="M6.84369 7.08093C7.16454 6.89112 7.27077 6.47714 7.08095 6.15629L5.77111 3.94222C5.5813 3.62137 5.16732 3.51514 4.84647 3.70496C4.52562 3.89477 4.4194 4.30875 4.60921 4.6296L5.91905 6.84367C6.10886 7.16452 6.52284 7.27075 6.84369 7.08093Z"/>
<path fill-rule="evenodd" clip-rule="evenodd" d="M13.0009 8.45441C12.7499 8.17874 12.7699 7.75182 13.0456 7.50086L15.0777 5.65097C15.3534 5.40002 15.7803 5.42005 16.0312 5.69573C16.2822 5.9714 16.2622 6.39831 15.9865 6.64927L13.9544 8.49916C13.6787 8.75012 13.2518 8.73008 13.0009 8.45441Z"/>
<path fill-rule="evenodd" clip-rule="evenodd" d="M4.99915 8.45441C5.2501 8.17874 5.23007 7.75182 4.95439 7.50086L2.9223 5.65097C2.64663 5.40002 2.21972 5.42005 1.96876 5.69573C1.7178 5.9714 1.73784 6.39831 2.01351 6.64927L4.0456 8.49916C4.32128 8.75012 4.74819 8.73008 4.99915 8.45441Z"/>
<path d="M11.25 10.25C11.25 11.4926 10.2426 12.5 9 12.5C7.75736 12.5 6.75 11.4926 6.75 10.25C6.75 9.00736 7.75736 8 9 8C10.2426 8 11.25 9.00736 11.25 10.25Z"/>
</svg>
