<svg width="18" height="18" viewBox="0 0 18 18" fill="#BEC2C6" xmlns="http://www.w3.org/2000/svg">
    <path fill-rule="evenodd" clip-rule="evenodd" d="M3 9C3 5.68629 5.68629 3 9 3C12.3137 3 15 5.68629 15 9C15 12.3137 12.3137 15 9 15C5.68629 15 3 12.3137 3 9ZM1.5 9C1.5 4.85786 4.85786 1.5 9 1.5C13.1421 1.5 16.5 4.85786 16.5 9C16.5 13.1421 13.1421 16.5 9 16.5C4.85786 16.5 1.5 13.1421 1.5 9ZM9.75 8.25C9.75 7.83579 9.41421 7.5 9 7.5C8.58579 7.5 8.25 7.83579 8.25 8.25V12.25C8.25 12.6642 8.58579 13 9 13C9.41421 13 9.75 12.6642 9.75 12.25V8.25ZM9.75 5.75C9.75 5.33579 9.41421 5 9 5C8.58579 5 8.25 5.33579 8.25 5.75C8.25 6.16421 8.58579 6.5 9 6.5C9.41421 6.5 9.75 6.16421 9.75 5.75Z"/>
</svg>
