<svg width="24" height="24" viewBox="0 0 24 24" fill="none" xmlns="http://www.w3.org/2000/svg">
    <path class="circle" d="M19 12C19 15.866 15.866 19 12 19C8.13401 19 5 15.866 5 12C5 8.13401 8.13401 5 12 5C15.866 5 19 8.13401 19 12Z" stroke="#E8EAED" stroke-width="2"/>
    <path class="quarter" d="M16.2297 16.2555C15.145 17.3337 13.6503 18 12 18V20C12.6762 20 13.3482 19.9143 14 19.746C14.3609 19.6528 14.7156 19.5343 15.0615 19.391C16.0227 18.9929 16.897 18.411 17.6354 17.6782C17.6497 17.664 17.664 17.6497 17.6782 17.6354C18.411 16.897 18.9929 16.0227 19.391 15.0615C19.5343 14.7156 19.6528 14.3609 19.746 14C19.9143 13.3482 20 12.6762 20 12H18C18 13.6634 17.3231 15.1687 16.2297 16.2555Z" fill="#979CA2">
        <animateTransform attributeType="xml" attributeName="transform" type="rotate" from="0 12 12" to="360 12 12" dur="1s" repeatCount="indefinite"/>
    </path>
</svg>
