<svg width="18" height="18" viewBox="0 0 18 18" fill="#BEC2C6" xmlns="http://www.w3.org/2000/svg">
<path fill-rule="evenodd" clip-rule="evenodd" d="M9 16.5C13.1421 16.5 16.5 13.1421 16.5 9C16.5 4.85786 13.1421 1.5 9 1.5C4.85786 1.5 1.5 4.85786 1.5 9C1.5 13.1421 4.85786 16.5 9 16.5ZM9 6.75C9.55228 6.75 10 6.30228 10 5.75C10 5.19772 9.55228 4.75 9 4.75C8.44771 4.75 8 5.19772 8 5.75C8 6.30228 8.44772 6.75 9 6.75ZM9 7.5C9.41421 7.5 9.75 7.83579 9.75 8.25V12.25C9.75 12.6642 9.41421 13 9 13C8.58579 13 8.25 12.6642 8.25 12.25V8.25C8.25 7.83579 8.58579 7.5 9 7.5Z"/>
</svg>
