<svg width="18" height="18" viewBox="0 0 18 18" fill="#838990" xmlns="http://www.w3.org/2000/svg">
<path fill-rule="evenodd" clip-rule="evenodd" d="M9 3C5.68629 3 3 5.68629 3 9C3 12.3137 5.68629 15 9 15C12.3137 15 15 12.3137 15 9C15 5.68629 12.3137 3 9 3ZM9 1.5C4.85786 1.5 1.5 4.85786 1.5 9C1.5 13.1421 4.85786 16.5 9 16.5C13.1421 16.5 16.5 13.1421 16.5 9C16.5 4.85786 13.1421 1.5 9 1.5Z"/>
<path fill-rule="evenodd" clip-rule="evenodd" d="M9 7.5C9.41421 7.5 9.75 7.83579 9.75 8.25L9.75 12.25C9.75 12.6642 9.41421 13 9 13C8.58579 13 8.25 12.6642 8.25 12.25L8.25 8.25C8.25 7.83579 8.58579 7.5 9 7.5Z" />
<path d="M9 6.75C9.55228 6.75 10 6.30228 10 5.75C10 5.19772 9.55228 4.75 9 4.75C8.44772 4.75 8 5.19772 8 5.75C8 6.30228 8.44772 6.75 9 6.75Z"/>
</svg>
