<svg width="18" height="18" viewBox="0 0 18 18" fill="#838990" xmlns="http://www.w3.org/2000/svg">
<path fill-rule="evenodd" clip-rule="evenodd" d="M15.2071 7.62132L14.5 6.91421L9.67572 11.7385L9.60073 12.5206L10.3828 12.4456L15.2071 7.62132ZM10.8359 13.4067L8.48959 13.6317L8.71458 11.2854L14.5 5.5L16.6213 7.62132L10.8359 13.4067Z"/>
<path fill-rule="evenodd" clip-rule="evenodd" d="M5.25 4.75C5.25 4.33579 5.58579 4 6 4H9C9.41421 4 9.75 4.33579 9.75 4.75C9.75 5.16421 9.41421 5.5 9 5.5H6C5.58579 5.5 5.25 5.16421 5.25 4.75ZM5.25 7.25C5.25 6.83579 5.58579 6.5 6 6.5H10.5C10.9142 6.5 11.25 6.83579 11.25 7.25C11.25 7.66421 10.9142 8 10.5 8H6C5.58579 8 5.25 7.66421 5.25 7.25Z"/>
<path fill-rule="evenodd" clip-rule="evenodd" d="M4.5 15V3H12.5V6.08581L14 4.58581V2.5C14 1.94772 13.5523 1.5 13 1.5H4C3.44772 1.5 3 1.94772 3 2.5V15.5C3 16.0523 3.44771 16.5 4 16.5H13C13.5523 16.5 14 16.0523 14 15.5V11.6569L12.5 13.1569V15H4.5Z"/>
</svg>
