<svg width="18" height="18" viewBox="0 0 18 18" fill="#838990" xmlns="http://www.w3.org/2000/svg">
<path fill-rule="evenodd" clip-rule="evenodd" d="M9 15C12.3137 15 15 12.3137 15 9C15 5.68629 12.3137 3 9 3C5.68629 3 3 5.68629 3 9C3 12.3137 5.68629 15 9 15ZM9 16.5C13.1421 16.5 16.5 13.1421 16.5 9C16.5 4.85786 13.1421 1.5 9 1.5C4.85786 1.5 1.5 4.85786 1.5 9C1.5 13.1421 4.85786 16.5 9 16.5Z" fill="#BEC2C6"/>
<path fill-rule="evenodd" clip-rule="evenodd" d="M8.24143 6.62122C8.06646 6.85759 8 7.14844 8 7.3C8 7.71421 7.66421 8.05 7.25 8.05C6.83579 8.05 6.5 7.71421 6.5 7.3C6.5 6.85156 6.6556 6.24241 7.0358 5.72878C7.43965 5.1832 8.0982 4.75 9.02652 4.75C9.58188 4.75 10.2242 4.88896 10.7307 5.32576C11.2637 5.78532 11.5321 6.47506 11.4969 7.33082C11.4755 7.85142 11.2871 8.24592 11.0037 8.54983C10.7964 8.77204 10.5315 8.94351 10.3584 9.05562C10.33 9.074 10.3041 9.09079 10.2813 9.10594C10.0833 9.23748 9.97891 9.32527 9.90878 9.42891C9.84911 9.51708 9.77652 9.67404 9.77652 10C9.77652 10.4142 9.44073 10.75 9.02652 10.75C8.61231 10.75 8.27652 10.4142 8.27652 10C8.27652 9.42596 8.41211 8.96417 8.66646 8.58828C8.91035 8.22786 9.22584 8.00627 9.45116 7.85656C9.49658 7.82639 9.53735 7.79954 9.57417 7.7753C9.7493 7.66 9.83513 7.6035 9.90673 7.52674C9.95117 7.47908 9.99181 7.42358 9.99816 7.26918C10.0185 6.77494 9.87054 6.56468 9.75116 6.46174C9.60539 6.33604 9.35943 6.25 9.02652 6.25C8.62245 6.25 8.39274 6.4168 8.24143 6.62122Z" fill="#BEC2C6"/>
<path d="M9 11.25C8.44772 11.25 8 11.6977 8 12.25C8 12.8023 8.44772 13.25 9 13.25C9.55228 13.25 10 12.8023 10 12.25C10 11.6977 9.55228 11.25 9 11.25Z" fill="#BEC2C6"/>
</svg>
