<svg width="30" height="30" viewBox="0 0 30 30" fill="#BEC2C6" xmlns="http://www.w3.org/2000/svg">
    <path fill-rule="evenodd" clip-rule="evenodd" d="M27.2842 17.325L25.3186 16.9553C25.4375 16.3232 25.5 15.6698 25.5 15C25.5 14.3302 25.4375 13.6768 25.3186 13.0447L27.2842 12.675C27.4259 13.4283 27.5 14.2055 27.5 15C27.5 15.7945 27.4259 16.5717 27.2842 17.325ZM26.8017 10.8701L24.9139 11.5307C24.4766 10.2809 23.8086 9.13734 22.9595 8.15157L24.4749 6.84632C25.4844 8.01839 26.2802 9.37982 26.8017 10.8701ZM23.1537 5.52515L21.8484 7.04051C20.8627 6.19143 19.7191 5.52343 18.4693 5.08611L19.1299 3.19835C20.6202 3.71982 21.9816 4.5156 23.1537 5.52515ZM17.325 2.71583L16.9553 4.68136C16.3232 4.56247 15.6698 4.5 15 4.5C14.3302 4.5 13.6768 4.56247 13.0447 4.68136L12.675 2.71583C13.4283 2.57412 14.2055 2.5 15 2.5C15.7945 2.5 16.5717 2.57412 17.325 2.71583ZM10.8701 3.19835L11.5307 5.08611C10.2809 5.52343 9.13734 6.19143 8.15157 7.04051L6.84632 5.52514C8.01839 4.5156 9.37982 3.71982 10.8701 3.19835ZM5.52515 6.84632L7.04051 8.15157C6.19143 9.13734 5.52343 10.2809 5.08611 11.5307L3.19835 10.8701C3.71982 9.37982 4.5156 8.01838 5.52515 6.84632ZM2.71583 12.675C2.57412 13.4283 2.5 14.2055 2.5 15C2.5 15.7945 2.57412 16.5717 2.71583 17.325L4.68136 16.9553C4.56247 16.3232 4.5 15.6698 4.5 15C4.5 14.3302 4.56247 13.6768 4.68136 13.0447L2.71583 12.675ZM3.19835 19.1299L5.08611 18.4693C5.52343 19.7191 6.19143 20.8627 7.04051 21.8484L5.52514 23.1537C4.5156 21.9816 3.71982 20.6202 3.19835 19.1299ZM6.84632 24.4749L8.15157 22.9595C9.13734 23.8086 10.2809 24.4766 11.5307 24.9139L10.8701 26.8017C9.37982 26.2802 8.01838 25.4844 6.84632 24.4749ZM12.675 27.2842L13.0447 25.3186C13.6768 25.4375 14.3302 25.5 15 25.5C15.6698 25.5 16.3232 25.4375 16.9553 25.3186L17.325 27.2842C16.5717 27.4259 15.7945 27.5 15 27.5C14.2055 27.5 13.4283 27.4259 12.675 27.2842ZM19.1299 26.8017L18.4693 24.9139C19.7191 24.4766 20.8627 23.8086 21.8484 22.9595L23.1537 24.4749C21.9816 25.4844 20.6202 26.2802 19.1299 26.8017ZM24.4749 23.1537L22.9595 21.8484C23.8086 20.8627 24.4766 19.7191 24.9139 18.4693L26.8017 19.1299C26.2802 20.6202 25.4844 21.9816 24.4749 23.1537Z"/>
    <path d="M15.6902 8.75229C18.8215 8.75229 20.4983 10.6653 20.4983 12.253C20.5096 12.5382 20.4651 12.8229 20.3674 13.0906C20.2698 13.3583 20.1208 13.6038 19.9292 13.8129C19.7375 14.0221 19.507 14.1908 19.2508 14.3093C18.9945 14.4279 18.7177 14.4939 18.4362 14.5036C16.1454 14.5036 17.2148 11.669 15.5347 11.669C14.6186 11.669 14.0834 12.6694 14.0834 13.582C14.0834 15.2485 15.2293 16.9994 16.9083 16.9994C18.2064 16.9994 18.665 16.4154 19.1225 16.4154C19.6566 16.4154 20.0386 17.0827 20.0386 17.6656C20.0386 18.9991 18.1298 20.75 15.2282 20.75C14.4542 20.746 13.689 20.5839 12.9782 20.2734C12.2674 19.9629 11.6257 19.5103 11.0915 18.9427C10.5572 18.3752 10.1414 17.7043 9.86882 16.9702C9.59625 16.2361 9.47254 15.4538 9.50509 14.6701C9.55301 13.0549 10.231 11.5249 11.3905 10.4156C12.5499 9.30621 14.0962 8.70806 15.6902 8.75229Z"/>
</svg>
