<svg width="18" height="18" viewBox="0 0 18 18" fill="#BEC2C6" xmlns="http://www.w3.org/2000/svg"  >
    <path d="M8.25 9.75C8.25 10.1642 8.58579 10.5 9 10.5C9.41421 10.5 9.75 10.1642 9.75 9.75V5.75C9.75 5.33579 9.41421 5 9 5C8.58579 5 8.25 5.33579 8.25 5.75V9.75Z"/>
    <path d="M8.25 12.25C8.25 12.6642 8.58579 13 9 13C9.41421 13 9.75 12.6642 9.75 12.25C9.75 11.8358 9.41421 11.5 9 11.5C8.58579 11.5 8.25 11.8358 8.25 12.25Z"/>
    <path fill-rule="evenodd" clip-rule="evenodd" d="M16.5 9C16.5 13.1421 13.1421 16.5 9 16.5C4.85786 16.5 1.5 13.1421 1.5 9C1.5 4.85786 4.85786 1.5 9 1.5C13.1421 1.5 16.5 4.85786 16.5 9ZM15 9C15 12.3137 12.3137 15 9 15C5.68629 15 3 12.3137 3 9C3 5.68629 5.68629 3 9 3C12.3137 3 15 5.68629 15 9Z"/>
</svg>
