<svg width="18" height="18" viewBox="0 0 18 18" fill="#6F767D" xmlns="http://www.w3.org/2000/svg">
<path fill-rule="evenodd" clip-rule="evenodd" d="M9 3C6.51472 3 4.5 5.01472 4.5 7.5C3.11929 7.5 2 8.61929 2 10V10.5C2 11.8807 3.11929 13 4.5 13H5.5V7.5C5.5 5.567 7.067 4 9 4C10.933 4 12.5 5.567 12.5 7.5V13.5C12.5 13.7761 12.2761 14 12 14H10.4793C10.3602 13.2906 9.74325 12.75 9 12.75C8.17157 12.75 7.5 13.4216 7.5 14.25C7.5 15.0784 8.17157 15.75 9 15.75C9.55521 15.75 10.04 15.4484 10.2993 15H12C12.8284 15 13.5 14.3284 13.5 13.5V13C14.8807 13 16 11.8807 16 10.5V10C16 8.61929 14.8807 7.5 13.5 7.5C13.5 5.01472 11.4853 3 9 3ZM3 10C3 9.17157 3.67157 8.5 4.5 8.5V12C3.67157 12 3 11.3284 3 10.5V10ZM13.5 12V8.5C14.3284 8.5 15 9.17157 15 10V10.5C15 11.3284 14.3284 12 13.5 12ZM9.5 14.25C9.5 14.5261 9.27614 14.75 9 14.75C8.72386 14.75 8.5 14.5261 8.5 14.25C8.5 13.9739 8.72386 13.75 9 13.75C9.27614 13.75 9.5 13.9739 9.5 14.25Z" />
</svg>
