<svg width="12" height="12" viewBox="0 0 12 12" fill="#BEC2C6" xmlns="http://www.w3.org/2000/svg">
<path fill-rule="evenodd" clip-rule="evenodd" d="M6 11C8.76142 11 11 8.76142 11 6C11 3.23858 8.76142 1 6 1C3.23858 1 1 3.23858 1 6C1 8.76142 3.23858 11 6 11ZM5.23601 3.88423C5.06686 4.12281 5 4.41637 5 4.58678C5 4.86292 4.77614 5.08678 4.5 5.08678C4.22386 5.08678 4 4.86292 4 4.58678C4 4.22826 4.12064 3.72843 4.42024 3.30586C4.73491 2.86202 5.25346 2.5 6 2.5C6.45557 2.5 6.96254 2.61999 7.36189 2.97204C7.77315 3.33458 8 3.88093 8 4.58678C8 5.01096 7.85766 5.32639 7.61836 5.56459C7.45623 5.72598 7.24039 5.85093 7.09291 5.93631C7.06151 5.95448 7.03317 5.97089 7.00915 5.98545C6.84211 6.08669 6.73323 6.17202 6.65482 6.29385C6.57854 6.41237 6.5 6.61559 6.5 7C6.5 7.27614 6.27614 7.5 6 7.5C5.72386 7.5 5.5 7.27614 5.5 7C5.5 6.47532 5.60896 6.0711 5.81393 5.75264C6.01677 5.43748 6.28289 5.25629 6.49085 5.13025C6.55396 5.092 6.60733 5.06067 6.65324 5.0337C6.78059 4.95892 6.85072 4.91774 6.91289 4.85586C6.95484 4.8141 7 4.75764 7 4.58678C7 4.10254 6.85186 3.8555 6.70061 3.72218C6.53747 3.57836 6.29444 3.5 6 3.5C5.62154 3.5 5.39009 3.6669 5.23601 3.88423ZM6 9.5C6.41421 9.5 6.75 9.16421 6.75 8.75C6.75 8.33579 6.41421 8 6 8C5.58579 8 5.25 8.33579 5.25 8.75C5.25 9.16421 5.58579 9.5 6 9.5Z"/>
</svg>
