<svg width="18" height="18" viewBox="0 0 18 18" fill="#838990" xmlns="http://www.w3.org/2000/svg">
<path fill-rule="evenodd" clip-rule="evenodd" d="M12.7008 12.1024L13.0456 11.5976C13.6479 10.7159 14 9.65134 14 8.5C14 5.46243 11.5376 3 8.5 3C5.46243 3 3 5.46243 3 8.5C3 11.5376 5.46243 14 8.5 14C9.21057 14 9.88625 13.866 10.5057 13.6233L11.0412 13.4134L13.0661 14.1728L12.7008 12.1024ZM15 16.5L11.053 15.0199C10.262 15.3298 9.40087 15.5 8.5 15.5C4.63401 15.5 1.5 12.366 1.5 8.5C1.5 4.63401 4.63401 1.5 8.5 1.5C12.366 1.5 15.5 4.63401 15.5 8.5C15.5 9.96272 15.0514 11.3206 14.2842 12.4437L15 16.5Z" />
<path fill-rule="evenodd" clip-rule="evenodd" d="M7.81326 6.38423C7.63354 6.62281 7.5625 6.91637 7.5625 7.08678C7.5625 7.36292 7.32465 7.58678 7.03125 7.58678C6.73785 7.58678 6.5 7.36292 6.5 7.08678C6.5 6.72826 6.62818 6.22843 6.9465 5.80586C7.28084 5.36202 7.8318 5 8.625 5C9.10904 5 9.6477 5.11999 10.072 5.47204C10.509 5.83458 10.75 6.38093 10.75 7.08678C10.75 7.51096 10.5988 7.82639 10.3445 8.06459C10.1722 8.22598 9.94293 8.35092 9.78622 8.43631C9.75284 8.45449 9.72276 8.47088 9.69722 8.48545C9.51974 8.58669 9.40405 8.67202 9.32074 8.79385C9.23969 8.91237 9.15625 9.11559 9.15625 9.5C9.15625 9.77614 8.9184 10 8.625 10C8.3316 10 8.09375 9.77614 8.09375 9.5C8.09375 8.97532 8.20952 8.5711 8.4273 8.25264C8.64282 7.93748 8.92557 7.75629 9.14653 7.63025C9.21358 7.592 9.27028 7.56067 9.31907 7.53371C9.45438 7.45892 9.52889 7.41775 9.59494 7.35586C9.63952 7.3141 9.6875 7.25764 9.6875 7.08678C9.6875 6.60254 9.5301 6.35551 9.3694 6.22218C9.19606 6.07836 8.93784 6 8.625 6C8.22289 6 7.97697 6.1669 7.81326 6.38423Z"/>
<path d="M8.65002 10.5C8.23581 10.5 7.90002 10.8358 7.90002 11.25C7.90002 11.6642 8.23581 12 8.65002 12C9.06424 12 9.40002 11.6642 9.40002 11.25C9.40002 10.8358 9.06424 10.5 8.65002 10.5Z" />
</svg>
