<svg width="30" height="30" viewBox="0 0 30 30" fill="#FA5252" xmlns="http://www.w3.org/2000/svg">
<path d="M15 22L16.015 21.1368C19.62 18.0828 22 16.0687 22 13.5967C22 11.5826 20.3378 10 18.1818 10C16.5909 10 15.6364 11.2 15 11.8899C14.3636 11.2 13.4091 10 11.8182 10C9.66218 10 8 11.5826 8 13.5967C8 16.0687 10.38 18.0828 13.985 21.1433L15 22Z"/>
<path fill-rule="evenodd" clip-rule="evenodd" d="M15 25.5C20.799 25.5 25.5 20.799 25.5 15C25.5 9.20101 20.799 4.5 15 4.5C9.20101 4.5 4.5 9.20101 4.5 15C4.5 20.799 9.20101 25.5 15 25.5ZM15 27.5C21.9036 27.5 27.5 21.9036 27.5 15C27.5 8.09644 21.9036 2.5 15 2.5C8.09644 2.5 2.5 8.09644 2.5 15C2.5 21.9036 8.09644 27.5 15 27.5Z"/>
</svg>
